<svg width="500" height="400" viewBox="0 0 500 400" fill="none" xmlns="http://www.w3.org/2000/svg">
<path d="M400.325 200C400.325 111.443 333.023 39.653 250 39.653C166.978 39.653 99.6752 111.443 99.6752 200C99.6752 288.557 166.978 360.346 250 360.346C333.023 360.346 400.325 288.557 400.325 200Z" fill="#DDF3FB"/>
<path d="M363.7 199.999C363.7 133.019 312.795 78.7198 250 78.7198C187.205 78.7198 136.3 133.019 136.3 199.999C136.3 266.981 187.205 321.279 250 321.279C312.795 321.279 363.7 266.981 363.7 199.999Z" fill="#C3DBF5"/>
<path d="M327.825 200C327.825 154.153 292.982 116.987 250 116.987C207.018 116.987 172.175 154.153 172.175 200C172.175 245.847 207.018 283.013 250 283.013C292.982 283.013 327.825 245.847 327.825 200Z" fill="#A6C5E0"/>
<path d="M283.523 154.099C311.062 153.243 342.767 197.645 346.789 228.277C352.235 269.757 351.178 399.2 351.178 399.2H162.683C162.683 317.6 185.02 248.725 185.02 248.725C185.02 248.725 173.815 264.078 160.214 262.285C126.699 257.867 106.468 188.556 106.468 188.556C106.468 188.556 114.019 156.273 135.535 149.508C135.535 149.508 154.517 173.736 162.721 175.041C190.145 179.405 195.866 148.123 223.921 148.123" fill="#12223F"/>
<path d="M283.524 154.097C283.524 154.097 272.74 199.177 265.234 259.305C255.394 338.13 251.674 399.2 251.674 399.2H196.954C198.481 270 223.921 148.137 223.921 148.137L283.524 154.097Z" fill="#0B5ACE" stroke="#D84861" stroke-miterlimit="2" stroke-linejoin="round"/>
<path d="M266.62 136.285C266.62 136.285 271.633 133.382 273.75 135.453C275.868 137.524 283.523 154.097 283.523 154.097L256.811 183.594L244.379 168.382C244.379 168.382 228.797 180.088 228.797 179.393C228.797 178.698 223.116 151.248 223.921 148.121C224.725 144.994 239.015 133.306 239.015 133.306" fill="#12223F"/>
<path d="M266.62 136.285C266.62 136.285 271.633 133.382 273.75 135.453C275.868 137.524 283.523 154.097 283.523 154.097L256.811 183.594L244.379 168.382C244.379 168.382 228.797 180.088 228.797 179.393C228.797 178.698 223.116 151.248 223.921 148.121C224.725 144.994 239.015 133.306 239.015 133.306" stroke="#D84861" stroke-miterlimit="2" stroke-linejoin="round"/>
<path d="M256.811 184.262C256.806 184.262 256.801 184.262 256.795 184.262C256.621 184.257 256.455 184.174 256.34 184.033L244.278 169.273C243.155 170.114 240.15 172.357 237.137 174.556C229.171 180.369 228.967 180.256 228.522 180.01C228.314 179.895 228.182 179.672 228.173 179.422C228.145 179.154 227.799 177.346 227.399 175.256C224.94 162.393 222.743 150.182 223.318 147.945C223.41 147.59 223.754 147.382 224.086 147.479C224.419 147.576 224.615 147.943 224.524 148.298C223.948 150.536 227.345 168.301 228.624 174.989C228.967 176.782 229.168 177.839 229.283 178.472C231.532 177.098 239.187 171.468 244.019 167.838C244.281 167.641 244.64 167.687 244.85 167.945L256.835 182.609L283.073 153.634C283.313 153.37 283.709 153.362 283.957 153.618C284.205 153.874 284.212 154.296 283.972 154.561L257.261 184.058C257.143 184.188 256.981 184.262 256.811 184.262Z" fill="#4E2162"/>
<path d="M185.026 249.375C184.969 249.375 184.91 249.367 184.852 249.349C184.521 249.246 184.33 248.877 184.426 248.523C187.529 237.089 190.446 211.214 190.475 210.954C190.516 210.588 190.826 210.326 191.17 210.371C191.512 210.414 191.757 210.746 191.716 211.112C191.687 211.373 188.758 237.355 185.626 248.894C185.547 249.186 185.297 249.375 185.026 249.375Z" fill="white"/>
<path d="M205.246 273.4C204.955 273.4 204.694 273.182 204.634 272.865C204.582 272.587 199.361 244.941 196.403 232.429C195.544 228.795 195.92 224.894 197.553 220.502C198.957 216.724 201.116 213.059 203.021 209.826C205.308 205.945 207.467 202.279 207.692 199.457C208.007 195.507 206.171 193.542 203.846 191.055C201.857 188.927 199.603 186.515 198.35 182.372C197.184 178.519 200.072 171.598 206.933 161.8C211.968 154.608 217.4 148.411 217.455 148.349C217.691 148.08 218.086 148.067 218.338 148.318C218.59 148.57 218.603 148.992 218.367 149.261C218.313 149.322 212.922 155.473 207.928 162.606C201.421 171.901 198.52 178.594 199.539 181.962C200.7 185.801 202.842 188.092 204.731 190.114C207.081 192.628 209.301 195.004 208.938 199.57C208.687 202.715 206.552 206.339 204.08 210.535C200.212 217.101 195.827 224.542 197.615 232.103C200.58 244.646 205.807 272.324 205.86 272.602C205.928 272.963 205.709 273.315 205.37 273.387C205.329 273.396 205.287 273.4 205.246 273.4Z" fill="white"/>
<path d="M263.289 276.31C263.098 276.31 262.91 276.217 262.787 276.041C262.581 275.746 262.638 275.329 262.914 275.108C263.182 274.896 289.746 253.691 294.311 243.606C297.002 237.66 294.299 229.29 291.914 221.906C290.267 216.803 288.844 212.396 289.47 209.523C290.319 205.627 294.102 204.189 297.761 202.798C300.922 201.597 304.19 200.354 305.844 197.599C308.798 192.677 302.164 167.82 299.358 158.658C299.251 158.308 299.43 157.931 299.758 157.817C300.086 157.702 300.439 157.894 300.546 158.244C300.572 158.327 303.122 166.683 305.179 175.697C306.39 181.004 307.196 185.502 307.575 189.066C308.069 193.708 307.847 196.734 306.896 198.318C305.012 201.457 301.539 202.777 298.181 204.054C294.684 205.383 291.382 206.638 290.687 209.825C290.143 212.324 291.577 216.767 293.096 221.471C295.559 229.099 298.351 237.745 295.436 244.185C290.739 254.563 264.765 275.3 263.662 276.177C263.55 276.267 263.418 276.31 263.289 276.31Z" fill="white"/>
<path d="M299.772 399.835C299.756 399.835 299.74 399.835 299.723 399.833C299.379 399.805 299.122 399.484 299.148 399.117L310.823 237.734C310.849 237.367 311.151 237.093 311.494 237.121C311.838 237.149 312.095 237.469 312.069 237.837L300.395 399.22C300.369 399.569 300.095 399.835 299.772 399.835Z" fill="white"/>
<path d="M303.503 348.236C303.369 348.236 303.233 348.19 303.119 348.095L271.911 322.065C271.639 321.839 271.591 321.42 271.804 321.129C272.016 320.84 272.409 320.788 272.681 321.015L303.889 347.044C304.161 347.271 304.209 347.69 303.996 347.98C303.873 348.148 303.689 348.236 303.503 348.236Z" fill="white"/>
<path d="M173.814 351.145C173.68 351.145 173.546 351.1 173.432 351.006C173.159 350.78 173.109 350.361 173.32 350.07L196.087 318.737C196.298 318.446 196.691 318.393 196.964 318.619C197.237 318.844 197.286 319.263 197.075 319.554L174.309 350.887C174.185 351.056 174.001 351.145 173.814 351.145Z" fill="white"/>
<path d="M133.136 94.769C133.031 107.812 143.204 121.939 139.825 136.491C137.31 147.318 130.362 158.072 130.362 158.072C130.362 158.072 130.764 176.271 123.171 186.349C115.579 196.424 94.1942 183.939 83.9045 175.457C73.6146 166.976 82.0333 125.979 80.7858 122.291C79.5385 118.604 75.7977 116.757 75.9853 112.535C76.3546 104.224 88.4272 96.9089 95.5085 95.858C99.4601 95.2705 107.792 95.9225 114.282 98.7576C114.282 98.7576 113.221 88.9584 114.98 81.1089C116.741 73.2593 127.428 54.861 137.948 59.106C148.467 63.3526 133.24 81.7262 133.136 94.769Z" fill="white"/>
<path d="M98.7025 96.3245C97.4849 96.3245 96.4262 96.3937 95.5942 96.5175C91.9994 97.0509 87.2884 99.2092 83.5919 102.016C79.2446 105.317 76.7649 109.064 76.6091 112.566C76.5087 114.825 77.698 116.376 78.957 118.019C79.879 119.222 80.8324 120.465 81.3732 122.064C81.7499 123.178 81.4615 126.23 80.8266 132.479C80.1384 139.252 79.1959 148.528 79.363 156.763C79.5561 166.284 81.2125 172.395 84.2861 174.929C95.4207 184.107 115.691 195.21 122.683 185.93C130.048 176.156 129.741 158.266 129.737 158.087C129.734 157.946 129.772 157.808 129.847 157.693C129.916 157.586 136.76 146.909 139.218 136.33C141.132 128.088 138.57 119.893 136.093 111.968C134.228 105.999 132.465 100.361 132.511 94.7624C132.553 89.5092 134.916 83.5867 137.202 77.8591C139.665 71.6884 141.991 65.8599 140.616 62.4207C140.126 61.1967 139.181 60.316 137.726 59.7287C135.247 58.7284 132.582 59.0172 129.804 60.5868C122.501 64.7131 116.753 76.0665 115.588 81.2632C113.874 88.9096 114.892 98.5833 114.902 98.6801C114.928 98.9144 114.835 99.1455 114.659 99.288C114.483 99.4304 114.249 99.4631 114.045 99.3736C108.935 97.1417 102.885 96.3245 98.7025 96.3245ZM114.714 190.766C111.749 190.766 108.261 190.001 104.336 188.488C96.519 185.475 88.4585 180.053 83.5219 175.984C80.087 173.153 78.3177 166.875 78.1132 156.792C77.9445 148.47 78.892 139.144 79.5839 132.335C80.0514 127.735 80.4927 123.39 80.1974 122.517C79.7292 121.133 78.8447 119.979 77.9892 118.863C76.6364 117.098 75.2374 115.273 75.3606 112.503C75.5347 108.583 78.2005 104.473 82.8669 100.93C86.7149 98.008 91.643 95.7576 95.4217 95.1968C99.073 94.654 106.933 95.1168 113.561 97.7416C113.339 94.9496 112.932 87.3761 114.372 80.9529C115.079 77.8023 117.042 73.4404 119.495 69.5695C121.597 66.2527 124.99 61.7976 129.219 59.4085C132.328 57.6519 135.339 57.34 138.168 58.4816C139.934 59.1943 141.144 60.3436 141.765 61.8973C143.35 65.8593 140.923 71.9417 138.352 78.3813C136.114 83.9885 133.8 89.7867 133.761 94.7739C133.717 100.15 135.447 105.686 137.279 111.547C139.812 119.652 142.432 128.033 140.431 136.65C138.094 146.709 131.905 156.812 130.989 158.27C130.999 159.249 130.985 163.371 130.231 168.533C129.445 173.914 127.666 181.445 123.657 186.765C121.759 189.285 118.947 190.627 115.3 190.756C115.107 190.762 114.912 190.766 114.714 190.766Z" fill="#4E2162"/>
<path d="M97.4547 173.367C96.0223 173.367 94.513 173.307 92.9258 173.188C92.5814 173.162 92.322 172.843 92.3463 172.476C92.3708 172.109 92.6702 171.832 93.0139 171.858C98.8404 172.297 103.624 171.908 107.233 170.702C110.186 169.715 112.373 168.174 113.734 166.121C117.083 161.07 114.434 154.417 114.407 154.35C114.33 154.163 114.339 153.949 114.429 153.769C114.52 153.589 114.683 153.464 114.871 153.428C115.067 153.39 119.714 152.423 119.803 146.909C119.898 141.087 116.775 136.955 116.744 136.914C116.623 136.757 116.576 136.549 116.616 136.35C116.656 136.151 116.779 135.983 116.95 135.893C117.002 135.865 122.265 133.014 122.537 127.469C122.811 121.852 117.165 116.769 117.107 116.718C116.907 116.54 116.831 116.248 116.917 115.986C117.003 115.724 117.233 115.545 117.493 115.539C117.686 115.533 122.275 115.331 122.525 110.022C122.788 104.396 118.059 101.126 114.045 99.3742C113.726 99.2348 113.573 98.8454 113.703 98.5046C113.834 98.164 114.199 98.0006 114.518 98.1402C120.81 100.887 124.01 105.018 123.773 110.089C123.559 114.659 120.638 116.153 118.866 116.639C120.596 118.471 124.02 122.731 123.785 127.539C123.533 132.684 119.707 135.687 118.148 136.701C119.077 138.145 121.134 141.919 121.052 146.932C120.996 150.391 119.377 152.334 118.028 153.355C117.198 153.983 116.374 154.343 115.81 154.538C116.455 156.526 117.86 162.208 114.755 166.891C111.9 171.196 106.09 173.367 97.4547 173.367Z" fill="#4E2162"/>
<path d="M241.494 134.858L239.814 148.201L244.357 159.472L265.588 145.305C266.636 132.157 270.94 116.205 270.94 116.205" fill="white"/>
<path d="M239.813 148.2C239.813 148.2 259.101 148.122 270.94 116.205L241.494 134.858L239.813 148.2Z" fill="#4E2162"/>
<path d="M229.739 76.0034C215.773 68.9198 201.62 46.7324 205.606 41.4942C209.591 36.2559 217.125 42.8964 217.125 42.8964C217.125 42.8964 206.857 31.0175 217.125 28.3984C227.393 25.7792 227.821 37.8928 227.821 37.8928C227.821 37.8928 232.385 25.365 239.557 28.0276C246.729 30.6902 239.625 39.8572 244.405 43.7859C249.185 47.7146 292.112 57.7942 297.373 67.6131C302.635 77.4319 286.44 93.2744 286.44 93.2744C286.44 93.2744 279.716 108.365 267.635 105.732C255.555 103.098 229.739 76.0034 229.739 76.0034Z" fill="#4E2162"/>
<path d="M229.739 76.0036C229.739 76.0036 213.569 132.597 241.494 134.858C264.22 136.698 270.94 116.205 270.94 116.205C270.94 116.205 281.183 122.135 287.981 109.316C294.78 96.496 284.633 87.602 276.835 94.5528C276.835 94.5528 261.75 114.126 263.816 83.7572C263.816 83.7572 246.982 69.9972 229.739 76.0036Z" fill="white"/>
<path d="M265.589 145.972C265.571 145.972 265.553 145.971 265.535 145.969C265.191 145.938 264.936 145.616 264.965 145.249C266.006 132.186 270.296 116.181 270.339 116.021C270.435 115.667 270.78 115.462 271.113 115.564C271.444 115.666 271.636 116.036 271.54 116.389C271.498 116.548 267.241 132.431 266.211 145.362C266.183 145.709 265.91 145.972 265.589 145.972Z" fill="#4E2162"/>
<path d="M239.815 148.866C239.787 148.866 239.759 148.864 239.731 148.86C239.389 148.811 239.149 148.476 239.195 148.111L240.875 134.769C240.921 134.404 241.237 134.148 241.578 134.197C241.92 134.246 242.16 134.581 242.114 134.946L240.433 148.288C240.391 148.623 240.123 148.866 239.815 148.866Z" fill="#4E2162"/>
<path d="M244.321 135.641C243.377 135.641 242.419 135.602 241.446 135.523C236.022 135.084 231.825 132.604 228.972 128.153C226.616 124.477 225.166 119.42 224.661 113.122C224.261 108.13 224.45 102.342 225.221 95.9196C226.533 85.0087 229.114 75.8999 229.14 75.8092C229.241 75.4571 229.59 75.259 229.92 75.3659C230.25 75.4732 230.436 75.8458 230.336 76.1979C230.31 76.2878 227.755 85.3056 226.459 96.1087C225.271 106.007 224.922 119.471 230.005 127.401C232.632 131.501 236.514 133.786 241.541 134.193C242.504 134.271 243.45 134.31 244.379 134.31C252.352 134.311 259.041 131.44 264.294 125.754C268.665 121.022 270.333 116.035 270.349 115.985C270.41 115.801 270.543 115.654 270.714 115.583C270.885 115.513 271.076 115.526 271.237 115.619C271.261 115.633 273.73 117.028 276.942 116.899C281.212 116.728 284.743 114.066 287.437 108.987C291.288 101.725 289.449 96.0451 286.11 93.8408C285.817 93.647 285.726 93.2362 285.908 92.9231C286.09 92.61 286.475 92.5134 286.768 92.7071C290.599 95.2363 292.783 101.615 288.525 109.644C284.87 116.535 280.203 118.119 276.931 118.234C274.372 118.324 272.279 117.562 271.277 117.109C270.655 118.69 268.831 122.742 265.184 126.69C262.499 129.596 259.382 131.832 255.918 133.337C252.392 134.869 248.502 135.641 244.321 135.641Z" fill="#4E2162"/>
<path d="M238.95 97.0296C238.932 97.0296 238.914 97.0288 238.895 97.0271C238.552 96.9955 238.297 96.6724 238.327 96.3056L239.049 87.3744C239.078 87.0075 239.382 86.7363 239.725 86.7676C240.069 86.7992 240.324 87.1221 240.294 87.4891L239.572 96.4201C239.544 96.7675 239.271 97.0296 238.95 97.0296Z" fill="#4E2162"/>
<path d="M249.634 97.0295C249.596 97.0295 249.558 97.0258 249.519 97.0183C249.18 96.9511 248.956 96.6033 249.018 96.2413L250.223 89.3059C250.286 88.9438 250.612 88.7051 250.951 88.7719C251.291 88.839 251.515 89.1869 251.452 89.5489L250.248 96.4842C250.192 96.8051 249.929 97.0295 249.634 97.0295Z" fill="#4E2162"/>
<path d="M276.144 109.386C276.053 109.386 275.96 109.365 275.873 109.32C275.562 109.16 275.431 108.762 275.581 108.43C278.958 100.951 281.553 97.6731 283.742 98.1126C286.223 98.6103 286.666 103.767 286.709 104.353C286.735 104.72 286.478 105.041 286.134 105.069C285.789 105.096 285.489 104.823 285.462 104.456C285.35 102.918 284.725 99.6658 283.511 99.4227C282.828 99.2866 280.799 99.9479 276.707 109.009C276.6 109.247 276.376 109.386 276.144 109.386Z" fill="#4E2162"/>
<path d="M282.051 106.398C282.045 106.398 282.038 106.398 282.031 106.398C281.687 106.386 281.416 106.08 281.426 105.712C281.427 105.684 281.478 102.903 279.848 101.865C279.552 101.676 279.455 101.266 279.632 100.95C279.809 100.634 280.193 100.531 280.489 100.72C282.753 102.163 282.68 105.606 282.676 105.752C282.665 106.113 282.387 106.398 282.051 106.398Z" fill="#4E2162"/>
<path d="M240.005 107.498C240.286 109.989 241.553 117.823 246.282 117.607C251.057 117.391 252.327 110.413 252.611 108.181L240.005 107.498ZM246.085 118.945C243.336 118.945 241.189 116.848 239.865 112.862C238.883 109.903 238.694 106.96 238.686 106.836C238.675 106.646 238.74 106.46 238.865 106.324C238.99 106.189 239.164 106.116 239.342 106.126L253.339 106.886C253.507 106.895 253.664 106.976 253.776 107.11C253.887 107.245 253.943 107.421 253.93 107.6C253.923 107.711 253.732 110.34 252.745 113.047C251.386 116.773 249.169 118.811 246.335 118.939C246.251 118.943 246.168 118.945 246.085 118.945Z" fill="#4E2162"/>
</svg>
