<svg width="501" height="400" viewBox="0 0 501 400" fill="none" xmlns="http://www.w3.org/2000/svg">
<path d="M475.526 343.388H25.4937C11.6956 343.388 0.51001 355.473 0.51001 370.379V373.009C0.51001 387.916 11.6956 400 25.4937 400H475.526C489.324 400 500.51 387.916 500.51 373.009V370.379C500.51 355.473 489.324 343.388 475.526 343.388Z" fill="#F2F2F2"/>
<g opacity="0.6">
<path d="M171.935 148.615H142.502V346.7H171.935V148.615Z" fill="#D2E4F7"/>
<path d="M220.155 93.4009H190.722V346.7H220.155V93.4009Z" fill="#D2E4F7"/>
<path d="M272.771 196.518H243.337V346.7H272.771V196.518Z" fill="#D2E4F7"/>
<path d="M323.969 127.218H294.535V346.7H323.969V127.218Z" fill="#D2E4F7"/>
<path d="M375.433 225.913H346V346.7H375.433V225.913Z" fill="#D2E4F7"/>
</g>
<path d="M312.504 358.263C312.547 359.147 312.263 360.012 311.715 360.67C311.167 361.328 310.4 361.723 309.582 361.77C309.177 361.794 308.772 361.732 308.39 361.586C308.007 361.441 307.655 361.215 307.353 360.922C307.051 360.63 306.806 360.275 306.631 359.88C306.456 359.485 306.355 359.056 306.334 358.618L301.13 252.938C301.087 252.054 301.371 251.188 301.919 250.53C302.466 249.872 303.233 249.475 304.051 249.427C304.869 249.382 305.67 249.689 306.279 250.282C306.887 250.875 307.252 251.704 307.295 252.588L312.504 358.263Z" fill="#6D6D79"/>
<path d="M148.961 360.175C148.923 361.058 149.208 361.923 149.756 362.58C150.304 363.236 151.07 363.633 151.887 363.683C152.706 363.726 153.507 363.419 154.116 362.827C154.725 362.235 155.093 361.407 155.14 360.524L160.338 254.842C160.36 254.405 160.302 253.967 160.168 253.554C160.033 253.141 159.824 252.761 159.553 252.435C159.282 252.11 158.954 251.845 158.588 251.657C158.223 251.468 157.826 251.36 157.421 251.337C157.016 251.314 156.611 251.377 156.228 251.523C155.846 251.668 155.494 251.894 155.193 252.187C154.891 252.48 154.646 252.834 154.471 253.23C154.297 253.625 154.196 254.054 154.175 254.491L148.961 360.175Z" fill="#6D6D79"/>
<path d="M433.962 251.405L28.9277 250.475L44.1808 6.18408L423.673 6.20644L433.962 251.405Z" fill="#6D6D79"/>
<path d="M426.989 251.405L34.9135 250.475L49.5161 6.18408L417.196 6.20644L426.989 251.405Z" fill="white"/>
<path d="M430.353 5.35342C430.353 6.33723 428.329 7.14342 425.798 7.14342L42.528 7.1186C40.0314 7.1186 38.0554 6.31844 38.0845 5.32882L38.1951 1.7688C38.2341 0.795581 40.2579 0 42.7446 0H425.803C428.329 0 430.353 0.800398 430.353 1.7782V5.35342Z" fill="#6D6D79"/>
<path d="M443.278 256.325C443.278 257.439 441.138 258.358 438.406 258.351L8.25763 257.383C5.58287 257.373 3.4628 256.45 3.51068 255.339L3.64592 251.319C3.68438 250.205 5.84343 249.311 8.53744 249.318L438.416 250.26C441.138 250.265 443.278 251.168 443.278 252.284V256.325Z" fill="#6D6D79"/>
<path d="M307.474 34.2041C291.457 34.1873 278.34 48.2315 278.153 65.6211C277.983 83.0681 290.885 97.2932 306.994 97.3339C323.121 97.3783 336.26 83.2006 336.346 65.72C336.431 48.3036 323.493 34.2148 307.474 34.2041ZM307.128 79.1994C305.491 79.1943 303.872 78.8388 302.364 78.1535C300.855 77.4681 299.487 76.4664 298.34 75.2064C297.192 73.9464 296.286 72.453 295.676 70.8127C295.066 69.1723 294.762 67.4175 294.784 65.6497C294.813 62.071 296.148 58.6492 298.498 56.127C300.848 53.6049 304.024 52.1859 307.337 52.1782C308.97 52.183 310.587 52.537 312.093 53.22C313.6 53.903 314.966 54.9013 316.114 56.1575C317.261 57.4137 318.167 58.9028 318.779 60.5391C319.392 62.1754 319.698 63.9264 319.681 65.6912C319.64 73.1634 314.015 79.2152 307.128 79.1994Z" fill="#F2F2F2"/>
<path d="M307.553 39.9873C294.502 39.9784 283.819 51.4281 283.672 65.5999C283.535 79.8183 294.059 91.3935 307.165 91.4253C320.303 91.4579 331.007 79.9152 331.08 65.685C331.16 51.4923 320.62 40.0013 307.553 39.9873ZM307.249 81.2475C305.361 81.244 303.492 80.8357 301.752 80.0461C300.011 79.2564 298.433 78.1013 297.108 76.6477C295.784 75.1941 294.74 73.4709 294.036 71.578C293.333 69.6851 292.985 67.6602 293.011 65.6208C293.083 57.0238 299.565 50.0759 307.481 50.0838C309.366 50.0876 311.232 50.4946 312.97 51.2814C314.709 52.0681 316.286 53.2189 317.61 54.6675C318.935 56.1161 319.981 57.8337 320.688 59.7213C321.395 61.6089 321.749 63.629 321.73 65.6652C321.682 74.2889 315.196 81.2664 307.249 81.2475Z" fill="#D6EBF8"/>
<path d="M330.893 66.3884V66.3853L321.779 66.3716C321.73 74.7745 315.409 81.5839 307.654 81.5632C307.188 81.5632 306.712 81.5365 306.251 81.489L306.179 91.4044C306.644 91.437 307.117 91.4854 307.584 91.4854C320.389 91.5162 330.827 80.2604 330.893 66.3884Z" fill="#FFAA3F"/>
<path d="M283.405 65.6969C283.267 79.6481 293.403 91.0334 306.179 91.4746L306.256 81.3068C302.575 81.0998 299.112 79.3609 296.592 76.4548C294.072 73.5487 292.692 69.7013 292.74 65.7196C292.757 63.4375 293.235 61.1868 294.141 59.1252C295.047 57.0636 296.359 55.2407 297.985 53.7842C296.073 50.9552 294.094 48.1144 292.363 45.7788C289.599 48.1766 287.363 51.2068 285.814 54.651C284.265 58.0952 283.442 61.8678 283.405 65.6969Z" fill="#92C6F4"/>
<path d="M376.458 34.8423L345.723 34.8141L345.735 31.0103L376.458 31.0386V34.8423Z" fill="#D9D9D9"/>
<path d="M376.441 39.6571L345.706 39.6289V38.1738L376.449 38.2051L376.441 39.6571Z" fill="#F2F2F2"/>
<path d="M376.441 42.6814L345.692 42.6483L345.706 41.1841L376.441 41.2217V42.6814Z" fill="#D9D9D9"/>
<path d="M376.435 48.7349L345.671 48.6942L345.683 47.2407L376.435 47.2833V48.7349Z" fill="#D9D9D9"/>
<path d="M375.962 66.3705L342.652 66.3147L342.662 62.1709L375.965 62.2353L375.962 66.3705Z" fill="#F2F2F2"/>
<path d="M375.953 71.6123L342.634 71.548L342.643 69.9678L375.962 70.0221L375.953 71.6123Z" fill="#D9D9D9"/>
<path d="M375.953 74.899L342.627 74.8295L342.634 73.2495L375.953 73.3122V74.899Z" fill="#F2F2F2"/>
<path d="M375.943 78.1911L342.612 78.1269V76.5386L375.943 76.5997V78.1911Z" fill="#D9D9D9"/>
<path d="M268.463 35.391L233.509 35.355L233.571 31.0103L268.529 31.0444L268.463 35.391Z" fill="#D9D9D9"/>
<path d="M268.41 40.8871L233.432 40.846L233.459 39.1816L268.423 39.214L268.41 40.8871Z" fill="#D9D9D9"/>
<path d="M268.327 47.7792L233.333 47.7471L233.353 46.0903L268.347 46.1227L268.327 47.7792Z" fill="#F2F2F2"/>
<path d="M368.684 193.541L301.791 193.359L301.887 187.478L368.764 187.636L368.684 193.541Z" fill="#F2F2F2"/>
<path d="M368.599 200.999L301.679 200.8L301.711 198.546L368.636 198.745L368.599 200.999Z" fill="#F2F2F2"/>
<path d="M368.529 205.69L301.615 205.512L301.652 203.247L368.567 203.431L368.529 205.69Z" fill="#B6C2D3"/>
<path d="M368.476 210.376L301.541 210.189L301.556 207.95L368.508 208.14L368.476 210.376Z" fill="#B6C2D3"/>
<path d="M368.396 215.062L301.471 214.877L301.503 212.606L368.444 212.825L368.396 215.062Z" fill="#B6C2D3"/>
<path d="M280.852 193.302L205.675 193.103L205.802 187.219L280.948 187.403L280.852 193.302Z" fill="#F2F2F2"/>
<path d="M280.719 200.746L205.552 200.567L205.594 198.308L280.762 198.512L280.719 200.746Z" fill="#D9D9D9"/>
<path d="M280.681 205.448L205.445 205.244L205.493 202.99L280.708 203.183L280.681 205.448Z" fill="#F2F2F2"/>
<path d="M280.58 210.111L205.365 209.912L205.413 207.679L280.617 207.892L280.58 210.111Z" fill="#D9D9D9"/>
<path d="M280.511 214.822L205.274 214.606L205.338 212.358L280.538 212.563L280.511 214.822Z" fill="#F2F2F2"/>
<path d="M220.948 175.47L206.021 175.424L207.211 113.544L222.085 113.588L220.948 175.47Z" fill="#D6EBF8"/>
<path d="M240.393 175.518L225.493 175.487L226.277 133.304L241.172 133.35L240.393 175.518Z" fill="#AED1F5"/>
<path d="M262.063 175.588L247.174 175.518L248.123 121.999L263.023 122.051L262.063 175.588Z" fill="#FFAA3F"/>
<path d="M283.418 175.634L268.54 175.593L269.132 140.814L283.995 140.84L283.418 175.634Z" fill="#AED1F5"/>
<path d="M304.789 175.677L289.873 175.64L290.599 131.312L305.456 131.335L304.789 175.677Z" fill="#D6EBF8"/>
<path d="M326.176 175.717L311.234 175.703L311.992 125.437L326.881 125.474L326.176 175.717Z" fill="#FFAA3F"/>
<path d="M347.531 175.798L332.616 175.749L333.49 114.311L348.364 114.328L347.531 175.798Z" fill="#AED1F5"/>
<path d="M368.914 175.844L353.971 175.798L354.878 106.968L369.788 106.988L368.914 175.844Z" fill="#D6EBF8"/>
<path d="M108.159 128.793L108.066 150.403C104.553 150.391 101.106 149.374 98.0745 147.457C95.047 145.538 92.536 142.798 90.7904 139.509C89.0486 136.215 88.1401 132.483 88.1565 128.69C88.1728 124.897 89.1133 121.175 90.8834 117.898L108.159 128.793Z" fill="#D6EBF8"/>
<path d="M125.43 139.688L108.159 128.793L108.066 150.403C111.577 150.427 115.031 149.445 118.077 147.558L118.076 147.557C121.122 145.673 123.657 142.96 125.43 139.688Z" fill="#92C6F4"/>
<path d="M128.162 128.894C128.15 132.689 127.209 136.413 125.434 139.688L108.159 128.793L128.162 128.894Z" fill="white"/>
<path d="M108.443 128.262L108.357 128.67L108.159 128.794L108.443 128.262Z" fill="#F62F48"/>
<path d="M108.159 128.794L128.16 128.899C128.18 125.105 127.273 121.371 125.531 118.077C123.782 114.788 121.269 112.049 118.24 110.132C116.506 109.044 114.632 108.238 112.68 107.741C111.229 107.378 109.746 107.192 108.256 107.187C108.197 107.184 108.138 107.185 108.079 107.191V107.189C104.627 107.197 101.237 108.176 98.2409 110.03C95.1959 111.916 92.6598 114.628 90.8835 117.899L108.159 128.794L108.238 128.647V128.641L108.448 128.263L108.354 128.668L108.159 128.794Z" fill="#92C6F4"/>
<path d="M120.811 178.139L109.416 195.895L129.351 197.674C129.645 193.894 129.008 190.097 127.502 186.67L127.501 186.671C125.999 183.244 123.693 180.302 120.811 178.139Z" fill="#92C6F4"/>
<path d="M111.062 174.358C114.563 174.666 117.927 175.969 120.812 178.134L109.416 195.895L111.062 174.358Z" fill="#FFAA3F"/>
<path d="M108.948 195.548L109.317 195.673L109.416 195.896L108.948 195.548Z" fill="#F62F48"/>
<path d="M109.416 195.895L111.067 174.361C107.566 174.044 104.051 174.731 100.875 176.353C97.7044 177.98 94.9819 180.474 92.9773 183.588C91.8385 185.372 90.9496 187.327 90.3392 189.391C89.8916 190.925 89.6047 192.509 89.484 194.113C89.4766 194.176 89.4733 194.24 89.4739 194.304L89.4726 194.303C89.2118 198.022 89.8518 201.751 91.3297 205.121C92.8338 208.547 95.1401 211.49 98.0202 213.657L109.416 195.895L109.287 195.8L109.281 195.799L108.949 195.543L109.315 195.676L109.416 195.895Z" fill="#92C6F4"/>
<path d="M164.496 194.427L145.766 202.012C144.529 198.461 144.183 194.618 144.764 190.876C145.349 187.137 146.827 183.627 149.053 180.695C151.284 177.766 154.189 175.522 157.477 174.191C160.765 172.859 164.32 172.486 167.783 173.11L164.496 194.427Z" fill="#D6EBF8"/>
<path d="M161.208 215.739L164.496 194.427L145.766 202.012C146.993 205.566 149.07 208.705 151.786 211.11L151.786 211.109C154.499 213.515 157.747 215.112 161.208 215.739Z" fill="#92C6F4"/>
<path d="M171.517 214.662C168.23 215.998 164.673 216.372 161.209 215.744L164.496 194.427L171.517 214.662Z" fill="white"/>
<path d="M165.057 194.525L164.673 194.583L164.496 194.427L165.057 194.525Z" fill="#F62F48"/>
<path d="M164.496 194.427L171.513 214.662C174.803 213.334 177.71 211.091 179.941 208.16C182.166 205.226 183.642 201.715 184.225 197.975C184.55 195.837 184.581 193.659 184.317 191.511C184.116 189.917 183.749 188.352 183.225 186.846C183.207 186.786 183.184 186.726 183.159 186.669L183.16 186.668C181.926 183.185 179.874 180.109 177.206 177.743C174.492 175.338 171.244 173.741 167.783 173.109L164.496 194.427L164.65 194.454L164.656 194.452L165.057 194.53L164.674 194.579L164.496 194.427Z" fill="#92C6F4"/>
<path d="M164.495 128.445L145.133 123.019C146.011 119.345 147.773 115.986 150.24 113.285C152.707 110.588 155.784 108.635 159.166 107.618C162.55 106.607 166.121 106.576 169.52 107.528C172.919 108.481 176.026 110.383 178.528 113.044L164.495 128.445Z" fill="#D6EBF8"/>
<path d="M150.464 143.842L164.495 128.445L145.133 123.019C144.246 126.689 144.275 130.548 145.217 134.202L145.218 134.202C146.157 137.855 147.966 141.179 150.464 143.842Z" fill="#92C6F4"/>
<path d="M159.473 149.363C156.071 148.415 152.963 146.512 150.462 143.846L164.495 128.445L159.473 149.363Z" fill="white"/>
<path d="M164.902 128.874L164.557 128.683L164.495 128.445L164.902 128.874Z" fill="#F62F48"/>
<path d="M164.495 128.445L159.469 149.36C162.868 150.317 166.44 150.288 169.825 149.275C173.207 148.256 176.283 146.3 178.75 143.601C180.154 142.054 181.338 140.291 182.265 138.37C182.949 136.94 183.482 135.433 183.854 133.875C183.871 133.814 183.884 133.751 183.894 133.688L183.895 133.689C184.739 130.072 184.697 126.281 183.773 122.687C182.832 119.034 181.024 115.71 178.528 113.044L164.495 128.445L164.607 128.563L164.613 128.565L164.9 128.878L164.56 128.68L164.495 128.445Z" fill="#FFAA3F"/>
<path d="M116.874 66.6924H98.3027V91.8035H116.874V66.6924Z" fill="#D6EBF8"/>
<path d="M139.121 55.7573H120.548V91.8037H139.121V55.7573Z" fill="#D6EBF8"/>
<path d="M161.366 43.8291H142.792V91.8036H161.366V43.8291Z" fill="#D6EBF8"/>
<path d="M99.0717 56.2389L97.5356 54.7361L117.914 37.3589L130.737 46.688L152.784 28.0112L154.311 29.5232L130.848 49.3974L118.03 40.0731L99.0717 56.2389Z" fill="#D6EBF8"/>
<path d="M155.631 32.5961L158.285 24.7524L149.537 26.569L155.631 32.5961Z" fill="#D6EBF8"/>
<path d="M83.8559 222.035C73.5399 258.535 56.0363 293.399 54.0403 331.946C54.0067 334.83 53.9956 337.713 53.9844 340.596C53.9866 340.634 53.975 340.672 53.952 340.701C53.929 340.731 53.8964 340.749 53.861 340.753V341.444C53.8833 342.413 52.4929 342.401 52.4705 341.444C52.3581 334.518 52.7367 327.592 53.603 320.729C53.8048 303.381 54.601 286.058 55.9914 268.759C56.7988 258.668 57.5948 248.505 59.1422 238.51C60.5103 229.716 62.8089 220.969 67.3055 213.41C69.3237 210.006 71.7681 206.868 74.6612 204.288C76.6683 202.495 79.5838 200.194 82.3196 201.587C84.6969 202.798 85.3809 206.093 85.6499 208.649C86.1321 213.18 85.0668 217.723 83.8559 222.035Z" fill="#3DC6BC"/>
<path d="M79.4329 223.412C77.7179 226.669 76.3057 230.09 74.4975 233.296C72.736 236.419 70.6149 239.113 68.4507 241.87C70.9999 232.473 73.8471 223.177 76.9924 213.982C77.083 213.717 76.6977 213.61 76.6037 213.866C71.0637 228.99 66.4849 244.505 62.8992 260.302C63.1233 256.419 63.2409 252.522 63.5298 248.647C63.9263 243.327 64.5569 238.034 64.9899 232.72C64.9894 232.701 64.9826 232.682 64.9708 232.668C64.9589 232.654 64.9428 232.645 64.9252 232.642C64.9076 232.64 64.8898 232.644 64.8749 232.654C64.8599 232.665 64.8489 232.68 64.8437 232.699C63.0964 242.739 61.9579 253.585 62.1208 263.834C61.7926 265.345 61.4589 266.855 61.149 268.372C59.8531 274.709 58.6824 281.105 57.637 287.56C57.5577 283.472 57.529 279.409 57.8143 275.305C57.8206 275.213 57.6911 275.215 57.6828 275.305C57.2376 280.137 56.9563 285.064 57.2635 289.921C55.5326 301.153 54.2935 312.492 53.8481 323.795C53.8277 324.314 54.5375 324.295 54.584 323.795C55.8162 310.585 57.2437 297.476 59.2862 284.439C63.1051 277.725 65.766 270.295 67.6257 262.695C67.6323 262.665 67.6279 262.634 67.6134 262.608C67.599 262.581 67.5756 262.562 67.5482 262.554C67.5208 262.545 67.4916 262.549 67.4666 262.564C67.4417 262.579 67.423 262.603 67.4145 262.632C65.3949 269.72 62.6285 276.403 59.5152 282.965C60.3419 277.812 61.2596 272.669 62.3162 267.537C64.0442 259.144 66.0268 250.822 68.2639 242.571C73.5924 238.064 77.1329 230.054 79.593 223.485C79.6307 223.384 79.4809 223.321 79.4329 223.412Z" fill="#148F8B"/>
<path d="M67.9563 221.845C66.8721 227.101 65.7982 232.938 65.7537 238.343C65.7517 238.592 66.1204 238.66 66.1666 238.403C67.1359 233.015 67.5037 227.319 68.1026 221.866C68.1124 221.776 67.9744 221.757 67.9563 221.845Z" fill="#148F8B"/>
<path d="M55.226 269.986C55.996 285.92 56.5502 319.43 56.4129 316.574C50.1604 299.797 44.7123 282.766 40.3141 265.28C36.3214 249.391 31.5792 232.149 33.8011 215.542C34.5471 209.974 37.2608 203.008 43.4284 202.962C49.4051 202.917 51.7315 210.309 52.302 215.548C53.2733 224.425 53.3588 233.514 53.8274 242.441C54.3235 251.62 54.7897 260.802 55.226 269.986Z" fill="#148F8B"/>
<path d="M51.1459 280.38C51.182 280.341 51.2104 280.294 51.2295 280.243C51.2486 280.192 51.258 280.137 51.2571 280.082C51.2878 267.747 51.3274 255.337 50.8958 243.011C50.8953 242.995 50.8891 242.98 50.8784 242.968C50.8678 242.957 50.8536 242.951 50.8389 242.951C50.8241 242.951 50.8099 242.957 50.7993 242.968C50.7886 242.98 50.7824 242.995 50.7819 243.011C50.4068 253.758 50.3926 264.567 50.4157 275.337C50.133 273.325 49.8584 271.311 49.592 269.295C47.1329 250.459 45.3014 231.532 43.9813 212.565C43.9705 212.409 43.7451 212.401 43.7537 212.56C44.6325 229.005 46.0511 245.407 47.9191 261.754C44.7323 252.302 41.9842 242.746 39.9464 232.908C39.8958 232.663 39.5546 232.767 39.6001 233.011C41.615 243.773 44.322 254.451 48.0308 264.684C48.0523 264.745 48.086 264.801 48.1295 264.848C48.1731 264.894 48.2255 264.929 48.2831 264.952C48.4164 266.08 48.5308 267.211 48.6687 268.34C49.705 276.819 50.8261 285.323 52.1002 293.801C50.217 288.843 48.5949 283.774 47.2418 278.617C47.2367 278.6 47.2255 278.585 47.2105 278.576C47.1956 278.568 47.1781 278.565 47.1616 278.57C47.1452 278.575 47.1312 278.587 47.1225 278.603C47.1139 278.618 47.1112 278.637 47.1151 278.655C48.2122 285.051 50.1318 291.35 52.5228 297.309C52.5515 297.382 52.5995 297.445 52.6609 297.489C54.0844 306.601 55.7055 315.674 57.6414 324.641C57.7561 325.172 58.487 324.963 58.3974 324.434C55.9099 309.747 53.3212 295.112 51.1459 280.38Z" fill="#3DC6BC"/>
<path d="M49.2836 299.323C52.4982 315.32 54.4006 331.592 54.9686 347.949C54.9798 348.167 54.6659 348.167 54.6546 347.949C54.4304 344.751 51.6196 324.379 35.6709 294.393C32.4336 288.306 28.9319 282.388 26.095 276.064C23.5384 270.383 20.9818 264.192 20.309 257.869C19.8829 253.932 20.41 246.009 25.1194 245.028C29.9298 244.023 34.5272 251.255 36.4671 255.046C39.6628 261.261 41.5129 268.336 43.4304 275.095C45.6954 283.078 47.6465 291.154 49.2836 299.323Z" fill="#3DC6BC"/>
<path d="M47.7809 310.206C46.3021 297.881 44.1946 285.147 40.8189 273.272C40.8117 273.249 40.7964 273.229 40.7763 273.218C40.7562 273.207 40.7328 273.204 40.711 273.211C40.6892 273.218 40.6708 273.234 40.6596 273.255C40.6483 273.277 40.6452 273.302 40.6508 273.325C42.6845 284.471 44.912 295.521 46.7776 306.694C46.1812 304.681 45.5666 302.675 44.9338 300.674C39.7653 284.348 33.9695 267.894 26.8067 252.456C26.7869 252.414 26.7193 252.445 26.7352 252.49C31.5182 266.088 37.0874 279.312 41.7905 292.937C36.8738 285.329 32.4574 277.426 27.9274 269.547C27.9149 269.527 27.8955 269.512 27.8734 269.507C27.8512 269.501 27.828 269.506 27.8085 269.518C27.7891 269.531 27.7751 269.551 27.7693 269.575C27.7635 269.599 27.7665 269.624 27.7777 269.646C31.8514 278.228 36.9167 286.336 42.1316 294.147C42.1579 294.186 42.197 294.212 42.2408 294.22C42.9281 296.239 43.5933 298.269 44.2364 300.308C45.8826 305.547 47.3979 310.829 48.7824 316.155C47.3015 312.915 45.7541 309.711 44.3092 306.449C44.2859 306.397 44.2024 306.436 44.2217 306.491C45.5798 310.361 47.1824 314.264 49.2074 317.782C51.9852 328.703 54.1538 339.794 55.4404 351.055C55.489 351.48 56.1108 351.474 56.0623 351.044C54.4967 337.168 51.5701 323.551 47.7809 310.206Z" fill="#148F8B"/>
<path d="M96.6195 253.369C93.4211 261.242 88.4813 268.087 83.6095 274.815C78.6173 281.702 73.7457 288.674 69.3252 296.01C62.4285 307.488 52.107 343.008 51.9421 344.864C51.8811 345.419 51.1223 345.258 51.1509 344.719C51.4176 340.21 56.6098 307.208 60.0798 295.483C64.8863 279.241 70.6628 261.919 80.2678 248.186C82.4846 244.993 84.9923 242.048 87.7533 239.395C89.8127 237.43 92.4539 234.938 95.396 236.152C101.911 238.815 98.5629 248.591 96.6195 253.369Z" fill="#148F8B"/>
<path d="M89.7061 245.436C80.6952 258.184 72.9978 271.793 66.9124 286.177C68.662 278.392 71.1588 270.997 74.0077 263.6C74.044 263.506 73.8984 263.441 73.8556 263.531C70.3605 270.859 68.0628 278.895 66.5775 286.961C60.5049 301.484 56.0787 316.795 53.6254 332.818C53.6038 332.959 53.8 333.023 53.8282 332.878C55.7905 322.761 58.3693 312.794 61.5477 303.044C64.7805 296.552 68.8016 290.554 73.5045 285.212C73.5269 285.186 73.5391 285.152 73.5386 285.116C73.538 285.081 73.5247 285.047 73.5014 285.022C73.4781 284.996 73.4468 284.982 73.4138 284.981C73.3809 284.981 73.3491 284.994 73.325 285.018C69.0715 289.216 65.4846 294.139 62.7072 299.592C65.5823 291.227 68.9333 283.062 72.7409 275.144C78.8316 270.4 84.3435 264.062 89.0459 257.8C89.1955 257.601 88.9471 257.316 88.7795 257.513C83.7852 263.361 78.425 268.661 73.1891 274.215C78.0614 264.199 83.6619 254.623 90.0638 245.734C90.0852 245.709 90.1015 245.679 90.1117 245.647C90.1219 245.615 90.1258 245.581 90.1231 245.547C90.1205 245.513 90.1114 245.48 90.0963 245.451C90.0813 245.421 90.0606 245.395 90.0357 245.374C90.0108 245.353 89.9822 245.338 89.9516 245.33C89.9211 245.322 89.8893 245.321 89.8583 245.326C89.8273 245.332 89.7978 245.345 89.7716 245.364C89.7454 245.383 89.7231 245.407 89.7061 245.436Z" fill="#3DC6BC"/>
<path d="M90.3254 253.465C88.8283 255.011 87.2075 256.626 85.9171 258.376C85.9117 258.383 85.9088 258.391 85.9089 258.4C85.9091 258.408 85.9123 258.416 85.9179 258.422C85.9236 258.428 85.9311 258.432 85.9391 258.432C85.947 258.432 85.9547 258.429 85.9605 258.423C87.5624 257.005 89.0338 255.231 90.443 253.592C90.4578 253.575 90.4658 253.552 90.4655 253.529C90.4651 253.506 90.4564 253.483 90.4411 253.467C90.4258 253.45 90.4052 253.441 90.3836 253.44C90.3621 253.44 90.3412 253.449 90.3254 253.465Z" fill="#C6E2A5"/>
<path d="M36.0613 311.973C36.1411 313.411 36.2414 315.018 36.358 316.759C37.7438 337.434 41.4505 377.087 41.4505 379.391C41.4505 381.412 46.4857 382.248 50.0472 382.587C50.3174 382.613 50.5793 382.635 50.8291 382.655C50.9089 382.662 50.9867 382.668 51.0644 382.673C51.22 382.686 51.3694 382.697 51.5147 382.706C51.5659 382.71 51.6171 382.713 51.6682 382.717C51.6826 382.717 51.6969 382.719 51.7133 382.719C51.7849 382.724 51.8566 382.728 51.9241 382.733C52.0571 382.741 52.184 382.75 52.3048 382.755C52.3744 382.759 52.4419 382.763 52.5074 382.766C52.5832 382.77 52.6568 382.775 52.7285 382.777C52.7735 382.779 52.8145 382.781 52.8554 382.783C52.8779 382.786 52.9025 382.786 52.925 382.786C52.9557 382.788 52.9844 382.79 53.013 382.79C53.3262 382.803 53.5042 382.808 53.5042 382.808C55.7112 382.737 57.9125 382.528 60.0971 382.182C60.1892 382.164 60.2833 382.149 60.3775 382.131C60.5166 382.107 60.6558 382.08 60.795 382.054C61.1634 381.981 61.5257 381.901 61.8757 381.815C61.9637 381.795 62.0518 381.773 62.1357 381.748C62.3076 381.702 62.4775 381.656 62.6412 381.607C62.7231 381.583 62.8029 381.556 62.8828 381.532C63.0424 381.481 63.198 381.428 63.3474 381.373C63.5337 381.302 63.7138 381.231 63.8816 381.156C64.3521 380.967 64.7849 380.682 65.1568 380.318C65.2782 380.201 65.3764 380.059 65.4454 379.9C65.5143 379.741 65.5527 379.569 65.558 379.393C65.558 379.338 65.56 379.261 65.5641 379.161C65.5661 379.121 65.5682 379.079 65.5702 379.035C65.6009 378.443 65.6849 377.295 65.8138 375.703C65.822 375.597 65.8302 375.491 65.8404 375.38C65.8773 374.916 65.9182 374.418 65.9632 373.887C65.9857 373.622 66.0083 373.348 66.0308 373.067C66.0594 372.72 66.0901 372.359 66.1229 371.986C66.1413 371.76 66.1597 371.53 66.1802 371.296C66.2232 370.785 66.2682 370.256 66.3153 369.71C66.3316 369.533 66.346 369.356 66.3603 369.175C66.4217 368.47 66.4852 367.736 66.5507 366.975C66.5752 366.701 66.5977 366.42 66.6223 366.137C66.8004 364.08 66.9928 361.856 67.1954 359.512C67.2138 359.299 67.2323 359.085 67.2507 358.87C67.4369 356.721 67.6293 354.479 67.8279 352.181C67.8463 351.951 67.8668 351.719 67.8872 351.489C67.9589 350.649 68.0312 349.803 68.1042 348.951C68.1247 348.694 68.1472 348.438 68.1697 348.181C68.2577 347.153 68.345 346.119 68.4317 345.081C68.4685 344.652 68.5054 344.221 68.5422 343.789C68.5484 343.701 68.5565 343.613 68.5647 343.524C68.6077 343.004 68.6528 342.485 68.6957 341.963C68.7244 341.602 68.7551 341.242 68.7858 340.882C68.8063 340.643 68.8247 340.406 68.8451 340.17C68.884 339.694 68.9236 339.219 68.9639 338.745C69.0416 337.797 69.1194 336.852 69.1972 335.911C69.2013 335.855 69.2054 335.8 69.2115 335.745C69.2443 335.331 69.277 334.918 69.3118 334.504C69.3303 334.272 69.3487 334.038 69.3691 333.805C69.406 333.339 69.4428 332.877 69.4817 332.415C69.5001 332.182 69.5185 331.952 69.537 331.722C69.6107 330.818 69.6823 329.92 69.7498 329.036C69.7539 328.996 69.756 328.956 69.7601 328.916C69.7928 328.492 69.8256 328.074 69.8583 327.656C69.8624 327.596 69.8665 327.536 69.8726 327.479C70.0405 325.325 70.1981 323.244 70.3414 321.276C70.3843 320.701 70.4253 320.135 70.4642 319.578C70.4785 319.352 70.4949 319.129 70.5113 318.908C70.5624 318.183 70.6109 317.477 70.6566 316.792C70.7036 316.095 70.7466 315.419 70.7896 314.768C70.808 314.49 70.8244 314.216 70.8408 313.946C70.851 313.765 70.8613 313.588 70.8735 313.411C70.8838 313.236 70.894 313.064 70.9042 312.893C70.9083 312.8 70.9145 312.71 70.9206 312.621C70.939 312.309 70.9554 312.007 70.9718 311.71C70.9718 311.688 70.9738 311.664 70.9759 311.639C70.9943 311.317 71.0107 311.003 71.025 310.7C71.2235 306.801 71.2399 304.431 70.9861 304.431H36.0346C35.7542 304.431 35.8034 307.323 36.0613 311.973Z" fill="#FD7322"/>
<path d="M56.914 337.553C56.736 353.362 56.083 367.842 50.047 382.586C50.3171 382.613 50.5791 382.635 50.8288 382.655C50.9087 382.662 50.9885 382.668 51.0642 382.673C51.2198 382.686 51.3692 382.697 51.5145 382.706C51.5657 382.71 51.6169 382.713 51.668 382.717C51.6824 382.717 51.6967 382.719 51.7131 382.719C51.7847 382.724 51.8563 382.728 51.9239 382.732C52.0569 382.741 52.1838 382.75 52.3046 382.755C52.3742 382.759 52.4417 382.763 52.5072 382.766C52.583 382.77 52.6566 382.774 52.7283 382.777C52.7713 382.779 52.8142 382.781 52.8552 382.783C52.8777 382.785 52.9023 382.785 52.9248 382.785C52.9555 382.788 52.9841 382.79 53.0128 382.79C53.326 382.803 53.504 382.808 53.504 382.808C55.711 382.737 57.9123 382.528 60.0968 382.182C60.1889 382.164 60.2831 382.149 60.3772 382.131C60.5164 382.107 60.6556 382.08 60.7948 382.054C61.1632 381.981 61.5255 381.901 61.8755 381.815C61.9635 381.795 62.0515 381.773 62.1355 381.748C62.3074 381.702 62.4773 381.656 62.641 381.607C62.7229 381.583 62.8027 381.556 62.8825 381.532C63.0422 381.481 63.1978 381.428 63.3472 381.372C63.5334 381.304 63.7135 381.233 63.8814 381.156C64.3527 380.968 64.7858 380.684 65.1566 380.318C65.278 380.201 65.3762 380.059 65.4452 379.9C65.5141 379.741 65.5524 379.569 65.5577 379.393C65.5577 379.338 65.5598 379.261 65.5639 379.161C65.5659 379.121 65.568 379.079 65.57 379.035C65.6007 378.443 65.6846 377.295 65.8136 375.703C65.8218 375.597 65.8299 375.49 65.8402 375.38C65.877 374.916 65.918 374.418 65.963 373.887C65.9835 373.622 66.008 373.348 66.0306 373.067C66.0592 372.72 66.0899 372.359 66.1227 371.986C66.1411 371.76 66.1595 371.53 66.18 371.296C66.223 370.785 66.268 370.256 66.3151 369.71C66.3294 369.533 66.3458 369.356 66.3601 369.175C66.4215 368.47 66.4849 367.736 66.5504 366.975C66.573 366.698 66.5975 366.42 66.6221 366.137C66.8001 364.08 66.9926 361.856 67.1952 359.512C67.2136 359.299 67.232 359.085 67.2504 358.87C67.4367 356.721 67.6291 354.479 67.8276 352.181C67.8461 351.951 67.8665 351.719 67.887 351.489C67.9586 350.649 68.031 349.803 68.104 348.951C68.1265 348.694 68.147 348.437 68.1695 348.181C68.2575 347.153 68.3448 346.119 68.4315 345.081C68.4683 344.652 68.5052 344.221 68.542 343.789C68.5481 343.701 68.5563 343.612 68.5645 343.524C68.6075 343.004 68.6505 342.482 68.6955 341.963C68.7242 341.602 68.7549 341.242 68.7856 340.882C68.806 340.643 68.8244 340.406 68.8449 340.169C68.8838 339.694 68.9234 339.219 68.9636 338.745C69.0414 337.797 69.1192 336.852 69.197 335.911C69.2011 335.855 69.2052 335.8 69.2113 335.745C69.2441 335.331 69.2768 334.918 69.3116 334.504C69.33 334.272 69.3484 334.038 69.3689 333.805C69.4058 333.339 69.4426 332.877 69.4815 332.414C69.4999 332.182 69.5183 331.952 69.5367 331.722C69.6084 330.818 69.68 329.92 69.7496 329.036C69.7537 328.996 69.7558 328.956 69.7598 328.916C69.7926 328.492 69.8254 328.074 69.8581 327.656C69.8622 327.596 69.8663 327.536 69.8724 327.479C70.0403 325.325 70.1979 323.244 70.3411 321.276C70.3821 320.701 70.423 320.135 70.4639 319.578C70.4783 319.352 70.4947 319.129 70.511 318.908C70.5622 318.183 70.6093 317.477 70.6564 316.792C70.7034 316.095 70.7464 315.418 70.7894 314.768C70.8058 314.49 70.8242 314.216 70.8406 313.946C70.8508 313.764 70.861 313.588 70.8733 313.411C70.8836 313.236 70.8938 313.063 70.904 312.893C70.9081 312.8 70.9142 312.71 70.9204 312.621C70.9368 312.309 70.9552 312.006 70.9716 311.71C70.9716 311.688 70.9736 311.664 70.9757 311.639C70.992 311.317 71.0084 311.003 71.0248 310.7C71.0371 310.47 71.0473 310.246 71.0575 310.027C67.5309 308.015 64.8086 308.506 61.1202 308.659C57.8146 308.796 54.7956 307.805 51.4695 307.637C46.0452 307.361 40.6715 308.874 36.061 311.973C36.1409 313.411 36.2412 315.018 36.3578 316.759C46.7434 318.01 57.045 325.933 56.914 337.553Z" fill="#D4611B"/>
<path d="M32.326 299.371H74.6937C74.8249 299.371 74.9508 299.427 75.0436 299.528C75.1364 299.628 75.1885 299.764 75.1885 299.906V314.383C75.1885 314.525 75.1364 314.661 75.0436 314.761C74.9508 314.861 74.825 314.917 74.6938 314.917H32.326C32.1948 314.917 32.069 314.861 31.9762 314.761C31.8834 314.661 31.8313 314.525 31.8313 314.383V299.906C31.8313 299.764 31.8834 299.628 31.9762 299.528C32.069 299.427 32.1948 299.371 32.326 299.371Z" fill="#FD7322"/>
<path d="M365.242 211.796C365.247 210.306 364.548 209.186 364.351 207.8C364.153 206.41 363.544 205.126 362.615 204.141C362.571 204.085 362.513 204.046 362.448 204.027C362.388 204.022 362.327 204.035 362.274 204.065C360.168 205.017 358.952 207.457 358.256 209.677C357.736 211.333 357.482 213.064 357.141 214.768C356.975 215.647 356.764 216.515 356.508 217.368C356.361 217.841 355.615 218.977 355.849 219.483C356.08 219.984 357.147 219.749 357.554 219.677C358.408 219.526 359.258 219.347 360.102 219.139C361.464 218.803 363.006 218.332 363.827 217.029C364.774 215.526 365.236 213.601 365.242 211.796Z" fill="#383838"/>
<path d="M351.8 318.879C349.564 330.719 350.446 342.866 348.927 354.836C342.069 351.903 334.3 357.269 327.28 355.192C325.496 354.664 333.324 329.979 334.789 324.186C336.25 318.401 351.8 318.878 351.8 318.879Z" fill="#F99B7A"/>
<path d="M300.432 366.154C301.2 368.002 313.318 370.496 318.904 370.541C324.5 370.587 332.029 367.061 334.856 366.756C337.692 366.445 337.354 369.464 338.043 369.553C339.583 369.75 350.619 369.655 350.619 369.655C350.619 369.655 352.037 366.315 352.913 360.798C353.343 358.116 353.307 355.903 353.005 354.073C352.386 350.282 350.63 348.132 349.513 346.853C349.513 346.853 347.785 347.72 345.657 350.133C343.529 352.56 332.377 349.778 332.377 349.778C332.377 349.778 332.012 348.806 332.803 347.23C333.606 345.652 329.565 342.781 327.003 343.459C324.446 344.143 325.129 347.839 323.072 349.585C321.015 351.342 306.497 356.189 302.403 356.67C300.66 356.874 299.961 358.427 299.769 360.229C299.509 362.651 300.167 365.522 300.432 366.154Z" fill="#383838"/>
<path d="M300.432 366.154C301.2 368.002 313.318 370.496 318.904 370.54C324.5 370.587 332.029 367.061 334.856 366.756C337.692 366.445 337.354 369.464 338.043 369.552C339.583 369.75 350.619 369.655 350.619 369.655C350.619 369.655 352.037 366.314 352.913 360.798C353.343 358.116 353.307 355.903 353.005 354.073C337.894 364.601 316.397 367.816 299.769 360.229C299.509 362.651 300.167 365.522 300.432 366.154Z" fill="black"/>
<path d="M377.489 299.938C383.906 308.939 392.444 315.735 399.388 324.266C393.238 327.729 391.99 336.999 386.304 341.113C384.859 342.159 373.428 320.96 370.517 316.27C367.608 311.589 377.488 299.937 377.489 299.938Z" fill="#F99B7A"/>
<path d="M377.002 368.482C378.691 369.028 387.788 361.254 391.253 356.99C394.727 352.72 397.037 344.767 398.576 342.407C400.116 340.037 401.895 342.155 402.377 341.68C403.455 340.618 410.181 332.082 410.181 332.082C410.181 332.082 408.855 328.938 405.763 324.871C404.263 322.89 402.784 321.557 401.394 320.663C398.518 318.807 396.022 318.833 394.494 318.904C394.494 318.904 394.002 320.764 394.281 323.884C394.569 327.011 385.877 333.866 385.877 333.866C385.877 333.866 385.012 333.55 384.462 331.972C383.917 330.384 379.541 331.722 378.412 334.108C377.289 336.492 380.141 338.242 380.025 340.896C379.916 343.558 374.175 357.692 371.972 361.133C371.035 362.598 371.627 364.09 372.695 365.346C374.129 367.036 376.423 368.296 377.002 368.482Z" fill="#383838"/>
<path d="M377.002 368.482C378.691 369.029 387.788 361.254 391.253 356.99C394.727 352.72 397.037 344.767 398.576 342.408C400.116 340.038 401.895 342.155 402.377 341.68C403.455 340.618 410.181 332.082 410.181 332.082C410.181 332.082 408.855 328.938 405.764 324.871C404.263 322.89 402.784 321.557 401.394 320.663C399.027 338.748 387.918 357.24 372.695 365.346C374.129 367.036 376.423 368.296 377.002 368.482Z" fill="black"/>
<path d="M371.168 325.041C368.623 324.983 366.144 323.807 363.845 320.951C355.605 310.707 348.749 300.288 343.555 288.209C340.802 281.807 339.716 275.78 338.217 269.117C337.534 266.084 336.723 263.323 335.937 260.373C335.528 258.838 335.206 257.308 335.15 255.739C335.077 253.662 335.688 251.905 336.277 249.976C356.598 233.999 376.915 222.819 401.685 216.297C411.949 216.906 429.29 220.301 436.611 225.777C443.931 231.253 443.233 235.853 444.485 241.927C445.737 248.001 444.564 250.983 443.229 255.952C442.271 259.589 440.33 262.835 437.655 265.274C435.46 267.254 432.664 267.478 429.963 267.588C424.847 267.796 419.593 266.663 414.601 265.658C403.675 263.458 392.925 261.211 381.906 260.272C379.3 260.05 376.884 260.379 374.441 260.221C371.999 260.062 369.91 259.639 367.564 259.41C365.79 259.238 364.083 258.979 362.467 259.818C361.886 260.12 361.355 260.686 361.229 261.216C361.103 261.746 361.228 262.019 361.266 262.366C361.408 263.654 361.962 264.647 362.412 265.791C363.4 268.3 364.109 270.579 365.265 273.092C367.5 277.948 370.055 282.494 373.327 286.855C376.6 291.215 379.751 295.483 383.807 299.37C387.026 302.454 391.513 305.614 393.203 309.86C387.579 314.64 379.057 325.218 371.168 325.041Z" fill="#383838"/>
<path d="M441.092 115.874C441.089 116.014 441.083 116.153 441.078 116.292C441.069 116.542 441.057 116.792 441.043 117.041C441.041 117.06 441.041 117.079 441.039 117.099C441.027 117.365 441.007 117.632 440.988 117.899C440.847 119.804 440.455 121.562 440.079 123.383C440.058 123.484 440.04 123.583 440.023 123.684C439.768 125.206 439.931 126.756 439.931 128.312C439.931 128.382 439.929 128.453 439.929 128.524C439.926 129.006 439.922 129.486 439.918 129.969C439.91 131.084 440.16 132.802 439.86 133.973C439.825 134.115 439.779 134.252 439.721 134.385C439.648 134.555 439.548 134.71 439.426 134.843C438.807 135.498 436.872 136.36 435.672 136.7C435.644 136.707 435.616 136.715 435.586 136.724C435.543 136.736 435.506 136.747 435.466 136.755C435.427 136.765 435.39 136.774 435.353 136.782C435.319 136.789 435.284 136.797 435.247 136.805C434.247 136.986 433.221 136.864 432.282 136.452C429.897 135.478 427.478 132.987 424.682 130.108C423.172 128.53 421.757 126.849 420.444 125.076C419.64 124.003 418.764 122.767 417.861 121.377C416.549 119.369 415.338 117.286 414.232 115.138C414.186 115.049 414.14 114.961 414.096 114.875C413.981 114.652 413.872 114.435 413.768 114.223C413.687 114.061 413.609 113.905 413.535 113.752C413.503 113.687 413.471 113.623 413.441 113.56C412.784 113.03 412.165 112.447 411.59 111.817C411.295 111.491 411.015 111.157 410.752 110.814C409.89 109.707 409.176 108.477 408.63 107.157C408.362 106.504 408.14 105.83 407.965 105.141C407.899 104.884 407.843 104.627 407.794 104.369C407.363 102.136 407.497 99.8921 408.247 97.8882C409.777 93.804 413.826 91.4662 417.698 90.4385C417.762 90.5778 417.815 90.7245 417.88 90.858C418.387 91.8953 419.611 92.1947 420.69 92.3452C423.895 92.7953 427.158 92.9287 430.367 93.3329C432.661 95.2988 434.458 97.7128 436.611 99.7929C438.443 101.564 439.617 102.506 440.196 105.345C440.643 107.548 440.928 109.785 441.048 112.036C441.117 113.314 441.132 114.593 441.092 115.874Z" fill="#F5911F"/>
<path d="M454.982 256.858C453.735 260.228 452.04 263.997 449.375 266.326C447.135 268.285 444.118 268.938 441.35 269.424C436.106 270.344 430.736 270.497 425.433 270.455C413.827 270.357 402.327 269.438 390.717 270.167C387.972 270.34 385.221 270.587 382.471 270.353C379.881 270.128 377.331 269.561 374.748 269.267C372.918 269.059 370.976 268.869 369.132 269.134C369.011 269.15 368.891 269.171 368.77 269.191C368.069 269.318 367.325 269.495 366.994 270.244C366.93 270.397 366.885 270.558 366.862 270.724C366.82 270.977 366.811 271.24 366.788 271.481C366.65 272.973 366.567 274.473 366.444 275.967C366.176 279.244 365.868 282.516 365.553 285.787C364.942 292.108 364.123 298.392 363.305 304.683C362.507 310.81 361.663 316.933 361.2 323.102C360.8 328.451 360.979 334.31 359.572 339.51C359.481 339.855 359.372 340.194 359.245 340.525C358.967 341.239 358.58 341.867 357.981 342.192C357.685 342.351 357.357 342.432 357.025 342.427C355.229 342.433 353.331 341.502 351.594 341.063C349.498 340.533 347.401 340.01 345.31 339.461C344.433 339.233 343.558 338.997 342.684 338.755C340.219 338.069 337.752 337.341 335.375 336.349C334.655 336.065 333.949 335.738 333.261 335.371C333.233 335.357 333.205 335.341 333.176 335.325H333.174C332.622 335.023 332.112 334.64 331.658 334.186C329.825 332.286 330.91 328.431 331.189 326.122C332.714 313.526 334.219 300.938 336.161 288.41C337.189 281.769 338.337 275.132 339.138 268.45C339.503 265.41 339.635 262.379 339.83 259.324C339.878 258.478 339.973 257.635 340.115 256.801C340.24 256.077 340.425 255.366 340.666 254.677C341.369 252.697 342.499 250.92 343.666 249.232L412.267 222.625C412.267 222.625 440.547 222.625 447.739 228.321C454.929 234.017 455.96 243.507 455.96 243.507C456.784 248.213 456.638 252.381 454.982 256.858Z" fill="#383838"/>
<path d="M333.176 335.324L343.428 338.163C340.016 337.404 336.628 336.473 333.261 335.371C333.103 335.32 332.946 335.269 332.787 335.216L333.174 335.324H333.176Z" fill="#262626"/>
<path d="M345.54 338.61C345.529 338.653 345.517 338.696 345.506 338.739L343.428 338.163C344.133 338.32 344.837 338.469 345.54 338.61Z" fill="#262626"/>
<path d="M359.245 340.524C354.647 340.162 350.072 339.523 345.54 338.61C348.498 327.716 351.456 316.823 354.413 305.93C357.118 295.967 358.733 278.162 366.862 270.724C366.82 270.977 366.811 271.24 366.788 271.481C366.65 272.973 366.567 274.473 366.444 275.967C366.176 279.244 365.868 282.516 365.552 285.787C364.942 292.108 364.122 298.391 363.305 304.683C362.507 310.81 361.663 316.932 361.2 323.102C360.8 328.451 360.979 334.31 359.572 339.51C359.481 339.855 359.372 340.193 359.245 340.524Z" fill="#262626"/>
<path d="M454.982 256.858C453.735 260.228 452.04 263.997 449.375 266.326C447.135 268.285 444.118 268.938 441.35 269.424C436.106 270.344 430.736 270.497 425.433 270.455C413.827 270.357 402.327 269.438 390.716 270.167C387.972 270.34 385.221 270.587 382.471 270.353C379.881 270.128 377.331 269.561 374.748 269.267C372.918 269.059 370.976 268.869 369.132 269.134C370.141 268.691 371.256 268.506 372.342 268.33C383.124 266.595 393.871 266.718 404.174 262.691C412.373 259.487 410.59 253.818 404.977 248.76C398.366 242.802 388.941 241.175 380.691 244.565C375.207 246.817 370.325 248.437 364.276 247.901C359.483 250.53 355.769 255.33 350.521 256.589C347.121 257.407 343.502 257.583 340.115 256.801C340.24 256.077 340.425 255.366 340.666 254.677C341.369 252.697 342.499 250.92 343.666 249.232L412.267 222.625C412.267 222.625 440.547 222.625 447.739 228.321C454.929 234.017 455.96 243.507 455.96 243.507C456.784 248.213 456.638 252.381 454.982 256.858Z" fill="#262626"/>
<path d="M457.606 249.611C457.483 250.888 443.503 248.021 442.257 247.245C443.575 241.666 443.987 235.152 444.385 229.352C444.421 228.833 444.456 228.318 444.493 227.813C441.885 231.478 439.541 235.413 437.105 239.225C436.473 240.213 435.789 241.248 434.765 241.709C433.895 242.1 432.912 242.016 431.976 241.896C428.676 241.474 425.419 240.717 422.25 239.635C415.478 237.329 409.195 233.596 403.766 228.652C403.277 228.208 402.795 227.75 402.322 227.285C403.3 226.627 404.245 225.912 405.151 225.144C405.151 225.144 405.15 225.142 405.153 225.142C407.603 223.046 409.168 220.932 410.116 218.703V218.701C412.647 212.746 410.771 205.985 409.622 196.667C408.434 187.03 408.757 176.884 411.355 167.438C412.675 162.574 414.611 157.931 417.109 153.639C419.73 149.183 423.392 145.177 426.408 140.977L440.868 137.609L442.882 139.762C444.147 141.633 444.947 143.919 445.759 146.041C446.782 148.716 447.702 151.439 448.561 154.181C449.641 157.63 450.616 161.127 451.445 164.66C451.946 166.798 452.393 168.948 452.786 171.113C455.007 183.436 455.453 196.003 456.168 208.506C456.934 221.91 458.884 236.252 457.606 249.611Z" fill="#D9D9D9"/>
<path d="M335.595 209.098C335.699 210.448 336.215 211.258 336.76 211.74C337.164 212.101 337.648 212.341 338.165 212.438C338.17 212.439 338.176 212.439 338.181 212.439C338.263 212.903 338.486 213.324 338.816 213.634C339.174 213.954 339.617 214.141 340.081 214.171H340.102C343.016 216.288 345.167 215.631 345.227 214.685C345.289 213.742 342.316 212.564 342.316 212.564C342.319 212.564 342.322 212.563 342.325 212.561C342.572 212.455 347.699 210.322 350.788 213.202C353.956 216.156 359.197 215.341 359.197 215.341L366.724 216.309C366.742 216.285 366.761 216.262 366.778 216.237C373.091 218.084 382.027 220.496 390.29 221.988C396.708 223.148 393.114 222.62 403.597 223.374C406.598 223.59 409.795 223.793 412.728 222.909C414.47 222.383 415.994 221.383 417.402 220.172C420.232 217.74 422.993 214.951 425.051 211.719L412.323 198.765C410.998 199.819 409.602 200.766 408.147 201.598C408.123 201.612 408.1 201.626 408.076 201.638C400.783 205.879 393.585 205.095 389.96 204.884C383.826 204.529 375.795 204.592 364.772 205.615C363.425 205.74 362.032 205.879 360.594 206.033C360.331 206.081 360.066 206.128 359.802 206.176C359.802 206.176 359.776 206.16 359.726 206.128C359.012 205.693 353.466 202.295 350.097 200.266C349.332 199.808 348.48 199.547 347.606 199.504C346.733 199.46 345.862 199.635 345.061 200.014L342.365 201.287C342.365 201.287 338.793 202.721 337.321 203.327C336.888 203.507 336.519 203.83 336.267 204.25C335.622 205.269 335.43 206.949 335.595 209.098Z" fill="#FDB897"/>
<path d="M359.726 206.128C359.776 206.16 359.802 206.176 359.802 206.176C360.066 206.128 360.331 206.081 360.595 206.033C360.308 206.065 360.019 206.096 359.726 206.128Z" fill="#FDB897"/>
<path d="M441.078 116.292C441.069 116.542 441.057 116.792 441.043 117.042C441.029 117.328 441.009 117.614 440.988 117.9C440.847 119.804 440.455 121.563 440.079 123.383C440.058 123.484 440.04 123.584 440.023 123.685C439.768 125.206 439.931 126.756 439.931 128.312C439.931 128.383 439.929 128.453 439.929 128.524C439.925 129.006 439.922 129.487 439.918 129.969C439.91 131.085 440.16 132.803 439.86 133.973C439.613 133.571 439.367 133.169 439.121 132.766C438.201 131.264 437.096 129.805 435.55 129.027C433.997 128.246 432.688 128.758 431.071 128.425C429.521 128.036 428.332 126.966 427.218 125.805C426.777 125.347 426.348 124.874 425.912 124.424C426.842 123.204 428.116 121.845 428.847 120.323C429.163 119.701 429.357 119.015 429.417 118.308C429.462 117.699 429.374 117.087 429.16 116.522C428.946 115.956 428.612 115.453 428.185 115.053C427.315 114.277 426.025 114.056 425.012 114.59C424.322 114.985 423.775 115.62 423.459 116.391C423.037 117.347 423.214 118.439 422.769 119.343C422.615 119.654 422.261 120.131 421.971 120.63C421.682 121.132 421.459 121.658 421.576 122.06C421.224 120.851 420.517 119.816 420.25 118.601C420.005 117.484 420.243 116.462 419.463 115.52C419.077 115.055 418.458 114.769 417.905 114.955C418.237 114.843 418.923 113.604 419.253 113.3C419.87 112.743 420.556 112.282 421.292 111.932C422.725 111.234 424.135 110.921 425.691 111.106C428.514 111.464 431.214 112.554 433.561 114.285C435.675 115.814 438.564 116.295 441.078 116.292Z" fill="#E27C17"/>
<path d="M417.7 111.779C416.606 112.955 415.476 114.158 414.096 114.875C413.981 114.652 413.872 114.435 413.768 114.223C413.687 114.061 413.609 113.905 413.535 113.752C413.503 113.687 413.471 113.623 413.441 113.56C412.784 113.03 412.165 112.447 411.59 111.817C411.295 111.491 411.014 111.157 410.751 110.814C409.89 109.708 409.176 108.477 408.63 107.157C408.362 106.504 408.14 105.83 407.965 105.141C407.945 104.993 407.933 104.846 407.926 104.701V104.699C407.891 103.969 408.03 103.277 408.485 102.729C409.018 102.089 409.867 101.852 410.665 101.879C411.012 101.89 411.356 101.947 411.69 102.049C412.412 102.268 413.075 102.67 413.623 103.223C414.17 103.776 414.588 104.462 414.839 105.225C415.06 105.935 415.127 106.688 415.286 107.416C415.655 109.105 416.498 110.628 417.7 111.779Z" fill="#E27C17"/>
<path d="M441.98 137.436C440.997 137.025 439.985 136.702 438.953 136.471C437.301 136.128 435.79 136.202 434.334 136.952C433.59 137.344 432.907 137.858 432.31 138.477C430.847 139.953 425.702 142.555 426.027 145.294C425.917 144.363 425.79 143.404 425.633 142.441C425.626 142.393 425.617 142.346 425.61 142.298C425.296 140.403 424.86 138.498 424.188 136.79C424.093 136.547 424.006 136.338 423.925 136.158C423.272 134.709 422.966 135.171 421.329 136.048C419.754 136.891 416.747 138.227 414.832 137.51H414.83C413.997 137.199 413.371 136.502 413.161 135.203C413.136 135.045 411.126 127.021 411.011 126.895C410.252 126.085 408.116 126.817 407.873 125.164C407.858 124.925 407.896 124.685 407.982 124.464C408.695 122.144 408.99 120.041 410 117.896C410.63 116.555 409.486 113.945 409.385 112.54C409.325 111.68 409.68 110.883 409.89 110.076C410.137 109.123 410.104 108.217 410.06 107.235C410.03 106.583 410.051 105.942 410.072 105.29C411.14 105.767 410.744 105.082 411.848 104.995C413.106 104.894 413.547 106.093 414.008 107.174C414.1 107.388 414.19 107.597 414.278 107.801C414.767 108.921 415.252 109.899 415.97 110.786C416.274 111.159 416.607 111.503 416.966 111.813C417.508 112.282 418.026 112.717 418.484 113.192C419.16 113.851 419.657 114.698 419.92 115.64C420.174 116.58 420.042 117.642 420.25 118.601C420.517 119.816 421.224 120.851 421.576 122.06C421.459 121.658 421.682 121.131 421.971 120.63C422.261 120.13 422.615 119.654 422.769 119.343C423.214 118.439 423.037 117.347 423.459 116.391C423.775 115.619 424.322 114.985 425.012 114.589C426.025 114.056 427.315 114.277 428.185 115.053C428.612 115.453 428.946 115.956 429.16 116.521C429.374 117.087 429.462 117.699 429.417 118.308C429.357 119.014 429.163 119.7 428.847 120.323C428.116 121.845 426.842 123.204 425.912 124.424C426.348 124.874 426.777 125.347 427.218 125.805C428.332 126.966 429.521 128.036 431.071 128.425C432.688 128.758 433.997 128.245 435.55 129.027C437.096 129.805 438.201 131.264 439.121 132.766C439.622 133.584 440.124 134.404 440.626 135.224C441.076 135.962 441.527 136.699 441.98 137.436Z" fill="#FDB897"/>
<path d="M335.595 209.098C335.699 210.448 336.215 211.258 336.76 211.74C337.164 212.101 337.648 212.341 338.165 212.438C338.17 212.439 338.176 212.439 338.181 212.439C338.263 212.903 338.486 213.324 338.816 213.634C339.174 213.954 339.617 214.141 340.081 214.171H340.102C343.016 216.288 345.167 215.631 345.227 214.685C345.289 213.742 342.316 212.564 342.316 212.564C342.319 212.564 342.322 212.563 342.325 212.561C342.572 212.455 347.699 210.322 350.788 213.202C353.956 216.156 359.197 215.341 359.197 215.341C362.186 215.726 365.108 216.25 368.095 216.598C369.711 216.786 371.451 217.572 373.053 218.005C374.897 218.503 376.745 218.983 378.598 219.444C382.473 220.405 386.369 221.28 390.29 221.988C396.708 223.148 393.114 222.62 403.597 223.374C406.598 223.59 409.795 223.793 412.728 222.909C414.47 222.383 415.994 221.383 417.402 220.172C420.232 217.74 422.993 214.951 425.051 211.719L412.323 198.765C410.998 199.819 409.602 200.766 408.147 201.598C408.123 201.612 408.1 201.626 408.076 201.638C408.814 202.906 409.492 204.213 410.109 205.554C411.134 207.663 413.035 211.522 412.141 214.174C411.886 214.927 411.4 215.563 410.765 215.977C408.435 217.566 402.59 215.933 399.848 215.97C394.413 216.042 388.979 215.77 383.574 215.156C380.969 214.861 378.352 214.72 375.747 214.42C374.485 214.274 373.224 214.093 371.977 213.834C370.465 213.521 369.028 213.215 367.488 213.375C365.763 213.554 364.03 213.427 362.309 213.257C361.61 213.188 360.899 213.116 360.193 213.004C358.987 212.814 357.801 212.504 356.739 211.889C355.561 211.229 354.35 210.64 353.111 210.125C350.824 209.135 347.568 207.642 345.072 208.65C342.741 209.592 340.787 208.183 340.133 207.617C340.051 207.549 339.972 207.476 339.896 207.399C338.92 207.824 338.416 206.902 338.189 206.255C338.125 206.072 338.074 205.884 338.037 205.693C336.691 205.562 336.327 204.849 336.267 204.25C335.622 205.269 335.43 206.949 335.595 209.098Z" fill="#F99B7A"/>
<path d="M441.98 137.436C438.201 135.918 435.227 135.533 432.31 138.477C430.847 139.953 425.702 142.555 426.027 145.293C425.917 144.363 425.79 143.404 425.633 142.441C427.967 140.445 430.755 138.994 431.475 135.825C431.819 134.314 431.495 132.697 430.865 131.298C430.03 129.511 428.932 127.882 427.614 126.476C427.444 126.293 427.255 126.1 427.22 125.847C427.218 125.833 427.217 125.819 427.218 125.805C428.332 126.966 429.521 128.036 431.071 128.424C432.688 128.758 433.997 128.245 435.55 129.027C437.096 129.805 438.201 131.264 439.121 132.766C440.074 134.322 441.027 135.879 441.98 137.436Z" fill="#F99B7A"/>
<path d="M444.887 141.899C444.299 139.28 443.459 136.469 441.907 134.964C440.414 133.517 438.239 134.981 436.446 135.328C434.597 135.685 432.757 136.034 431.108 137.068C428.267 138.851 425.673 141.053 423.079 143.222C420.872 145.066 418.991 147.263 416.754 149.048C416.464 149.279 416.15 149.529 416.044 149.901C415.998 150.118 415.985 150.341 416.007 150.562C416.074 152.489 415.607 155.171 415.202 157.071C415.546 155.457 418.344 153.009 419.344 151.624C421.693 148.368 424.546 145.872 427.848 143.8C431.432 141.649 434.961 139.857 439.24 140.983C441.63 141.611 444.432 142.966 445.626 145.445C445.404 144.428 445.175 143.187 444.887 141.899Z" fill="#B4B5B7"/>
<path d="M441.819 211.285C439.975 217.568 434.959 221.902 430.886 226.488C428.798 228.837 427.171 231.325 425.392 233.92C425.072 234.386 423.408 237.295 422.25 239.635C415.478 237.329 409.195 233.596 403.766 228.652C403.914 228.067 404.101 227.495 404.326 226.94C404.57 226.325 404.846 225.726 405.152 225.144C405.152 225.144 405.15 225.142 405.153 225.142C406.421 222.709 408.161 220.581 410.116 218.703V218.701C410.972 217.877 411.869 217.101 412.785 216.369C416.299 213.56 420.577 211.955 423.071 208.017C425.296 204.499 426.537 200.44 427.76 196.428C429.917 189.341 433.399 183.06 434.707 175.603C435.547 170.806 434.836 165.816 435.625 161.009C435.4 162.376 438.801 167.454 439.389 168.975C440.614 172.157 441.579 175.448 442.273 178.812C444.259 188.458 444.611 201.777 441.819 211.285Z" fill="#B4B5B7"/>
<path d="M437.367 184.386C435.787 195.254 433.235 205.979 429.372 216.171C428.673 218.013 428.275 219.572 427.515 220.737C426.902 221.681 426.052 222.366 424.615 222.736C422.862 223.188 420.942 223.222 419.151 223.336C415.492 223.573 411.819 223.649 408.141 223.62C400.621 223.561 393.083 223.06 385.614 222.577C375.965 221.956 364.589 219.858 355.589 219.858C358.302 219.858 359.426 216.211 359.901 213.896C360.159 212.634 360.468 211.368 360.78 210.094C361.294 208.01 361.819 205.911 362.162 203.798C377.003 203.766 391.641 200.944 406.334 198.829C406.749 198.77 409.656 192.062 410.044 190.952C411.406 187.051 411.583 182.237 412.363 178.147C413.658 171.357 415.667 163.272 420.595 158.433C424.237 154.856 428.455 157.586 432.176 159.382C439.973 163.146 438.422 177.127 437.367 184.386Z" fill="#D9D9D9"/>
<path d="M408.141 223.62C400.621 223.561 393.083 223.06 385.614 222.577C375.965 221.956 364.589 219.858 355.589 219.858C358.302 219.858 359.426 216.211 359.901 213.896C360.159 212.634 360.468 211.367 360.78 210.094C368.96 213.434 377.45 215.755 386.182 216.296C394.05 216.785 400.39 222.396 408.141 223.62Z" fill="#B4B5B7"/>
<path d="M417.771 111.065C416.606 110.399 415.312 110.038 413.993 110.012C412.983 110 411.981 110.226 411.059 110.674C410.705 110.846 409.897 111.108 410.144 111.718C410.363 112.258 411.056 112.018 411.432 111.876C412.056 111.642 412.7 111.399 413.341 111.211C414.783 110.761 416.307 110.711 417.771 111.065Z" fill="#5E1212"/>
<path d="M411.948 115.735C411.918 116.537 412.336 117.246 412.882 117.32C413.429 117.393 413.896 116.803 413.926 116.001C413.956 115.199 413.538 114.49 412.992 114.416C412.446 114.343 411.979 114.933 411.948 115.735Z" fill="#5E1212"/>
<path d="M415.437 114.602C415.285 114.49 415.128 114.388 414.965 114.297C414.805 114.206 414.642 114.123 414.477 114.048C414.151 113.899 413.809 113.795 413.459 113.738C413.284 113.707 413.108 113.688 412.931 113.681C412.75 113.677 412.571 113.712 412.403 113.782C412.226 113.858 412.063 113.965 411.919 114.099C411.764 114.248 411.638 114.427 411.547 114.628L411.573 114.675C411.741 114.602 411.894 114.534 412.048 114.48C412.2 114.43 412.354 114.389 412.509 114.357L412.973 114.263C413.131 114.227 413.292 114.208 413.453 114.208C413.617 114.208 413.781 114.22 413.943 114.244C414.109 114.265 414.274 114.295 414.437 114.334C414.773 114.41 415.103 114.518 415.421 114.656L415.437 114.602Z" fill="#5E1212"/>
<g style="mix-blend-mode:multiply" opacity="0.32">
<path d="M338.114 213.628C338.048 213.588 338.039 213.593 338.114 213.663L338.114 213.628Z" fill="#FFC49A"/>
</g>
<path d="M369.135 213.086C369.197 213.107 369.26 213.128 369.324 213.147C369.464 213.044 369.617 212.962 369.779 212.905C369.566 212.973 369.351 213.033 369.135 213.086Z" fill="#F99B7A"/>
<g style="mix-blend-mode:multiply" opacity="0.32">
<path d="M336.76 211.74C337.164 212.101 337.649 212.341 338.166 212.438C338.151 212.057 337.965 207.31 338.19 206.254C338.197 206.182 338.224 206.113 338.268 206.057C338.611 205.788 342.32 203.684 342.552 203.551C342.351 203.63 339.41 204.804 338.036 205.692C337.623 205.961 337.352 206.202 337.34 206.381C337.295 207.075 338.121 211.726 336.76 211.74Z" fill="#FFC49A"/>
</g>
<g style="mix-blend-mode:multiply" opacity="0.32">
<path d="M338.816 213.635C339.175 213.953 339.618 214.141 340.081 214.17C340.029 213.974 339.712 212.667 339.82 209.708C339.82 209.708 339.63 208.186 340.134 207.617C340.152 207.597 340.172 207.577 340.192 207.559C340.75 207.064 343.282 205.446 343.461 205.331C343.278 205.421 340.876 206.607 339.896 207.399C339.657 207.59 339.503 207.76 339.484 207.885C339.409 208.409 339.385 212.52 338.816 213.635Z" fill="#FFC49A"/>
</g>
<path d="M417.441 130.072C417.445 130.663 417.284 131.243 416.98 131.735C416.323 132.776 414.929 133.399 413.854 132.726C413.56 132.54 413.306 132.287 413.111 131.984C412.884 131.637 412.724 131.243 412.64 130.827C412.624 130.78 412.626 130.728 412.644 130.682C412.647 130.673 412.652 130.665 412.659 130.659C412.686 130.631 412.719 130.61 412.755 130.598C413.397 130.322 417.006 127.767 416.639 126.884C417.031 127.828 417.453 128.977 417.441 130.072Z" fill="#5E1212"/>
<path d="M457.606 249.611C457.483 250.888 443.503 248.021 442.257 247.245C443.575 241.665 443.987 235.152 444.386 229.352C445.48 227.416 446.574 225.482 447.668 223.548C447.654 228.07 446.067 234.98 447.642 239.215C450.039 245.662 452.864 238.319 453.605 235.093C455.962 224.837 453.298 213.755 452.702 203.245C451.968 190.338 451.477 177.582 451.445 164.66C451.946 166.798 452.394 168.948 452.787 171.113C455.007 183.436 455.453 196.003 456.168 208.506C456.934 221.91 458.884 236.252 457.606 249.611Z" fill="#B4B5B7"/>
<path d="M417.441 130.072C417.445 130.664 417.284 131.243 416.98 131.735C416.323 132.776 414.929 133.399 413.854 132.726C413.56 132.54 413.306 132.287 413.111 131.985C413.572 131.589 414.084 131.269 414.631 131.035C415.537 130.619 416.478 130.297 417.441 130.072Z" fill="#F3693F"/>
<path d="M444.696 109.624C444.502 110.688 444.213 111.729 443.833 112.732C443.293 114.159 442.705 115.56 442.07 116.937C442.024 117.073 441.933 117.186 441.816 117.255C441.705 117.288 441.587 117.281 441.48 117.236C438.459 116.33 435.478 114.887 432.922 112.906C431.879 112.099 431.719 111.569 431.473 110.28C431.149 108.591 430.48 106.942 429.73 105.426C429.666 105.294 429.601 105.164 429.534 105.035C428.851 103.715 428.012 102.432 426.821 101.641C425.843 100.991 424.694 100.716 423.563 100.51C421.103 100.067 418.606 99.9081 416.115 100.035C414.885 100.098 413.588 100.258 412.599 101.054C412.254 101.336 411.947 101.671 411.691 102.049C411.356 101.948 411.012 101.891 410.665 101.879C409.867 101.852 409.018 102.089 408.485 102.73C408.03 103.277 407.891 103.969 407.926 104.699C407.88 104.591 407.836 104.48 407.794 104.369C407.086 102.52 406.768 100.457 407.096 98.5328C407.513 96.0941 409.174 94.1283 410.956 92.5667C412.622 91.1042 414.589 89.8229 416.736 89.8115C416.946 89.7934 417.155 89.839 417.342 89.943C417.504 90.0663 417.628 90.2388 417.698 90.4387C417.762 90.578 417.815 90.7247 417.88 90.8582C418.387 91.8955 419.611 92.1949 420.69 92.3455C423.895 92.7955 427.158 92.9289 430.367 93.3332C432.607 93.6135 434.82 94.0253 436.969 94.7652C439.368 95.5889 441.742 96.9006 443.191 99.1239C444.071 100.478 444.557 102.096 444.804 103.731C445.095 105.686 445.058 107.683 444.696 109.624Z" fill="#F5911F"/>
<path d="M425.748 116.428C425.494 116.824 425.404 117.312 425.257 117.768C425.009 118.522 424.601 119.204 424.065 119.757C423.53 120.311 422.883 120.722 422.174 120.958C422.104 120.853 422.037 120.743 421.971 120.63C422.261 120.13 422.615 119.654 422.769 119.343C423.214 118.439 423.037 117.347 423.459 116.391C423.775 115.619 424.322 114.985 425.012 114.589C426.025 114.056 427.315 114.277 428.185 115.053C428.613 115.453 428.947 115.956 429.161 116.522C429.375 117.087 429.463 117.699 429.417 118.308C429.357 119.015 429.163 119.701 428.847 120.323C428.746 118.847 428.21 117.445 427.319 116.321C427.206 116.162 427.062 116.033 426.897 115.941C426.488 115.749 426 116.031 425.748 116.428Z" fill="#F99B7A"/>
<path d="M414.53 137.079L414.664 137.27C414.534 137.23 414.484 137.163 414.53 137.079Z" fill="#F99B7A"/>
<path d="M426.676 130.589C426.3 132.183 425.196 134.206 423.925 136.158C423.272 134.709 422.966 135.171 421.329 136.048C419.754 136.891 416.747 138.227 414.832 137.51H414.83L414.664 137.27C415.827 137.655 423.439 136.212 426.676 130.589Z" fill="#F99B7A"/>
<path d="M425.051 282.837H419.973V361.443H425.051V282.837Z" fill="#B4B5B7"/>
<path d="M429.113 318.756H415.91V345.638H429.113V318.756Z" fill="#D9D9D9"/>
<path d="M378.063 364.08C383.974 359.835 400.386 349.263 423.455 349.556C445.401 349.835 460.986 359.789 466.96 364.08V359.626C460.676 355.309 445.123 345.904 423.455 345.638C400.676 345.358 384.305 355.339 378.063 359.626V364.08Z" fill="#D9D9D9"/>
<path d="M461.276 364.081C461.276 362.866 461.609 361.679 462.234 360.669C462.858 359.659 463.746 358.872 464.785 358.407C465.824 357.942 466.967 357.821 468.069 358.057C469.172 358.294 470.185 358.879 470.98 359.738C471.775 360.597 472.316 361.691 472.536 362.883C472.755 364.074 472.642 365.309 472.212 366.431C471.782 367.553 471.053 368.512 470.118 369.187C469.184 369.862 468.085 370.222 466.96 370.222C466.214 370.222 465.475 370.063 464.785 369.755C464.095 369.446 463.469 368.994 462.941 368.423C462.413 367.853 461.994 367.176 461.709 366.431C461.423 365.686 461.276 364.887 461.276 364.081Z" fill="#B4B5B7"/>
<path d="M372.379 364.081C372.379 362.866 372.712 361.679 373.337 360.669C373.961 359.659 374.849 358.872 375.888 358.407C376.926 357.942 378.069 357.821 379.172 358.057C380.275 358.294 381.288 358.879 382.083 359.738C382.878 360.597 383.419 361.691 383.638 362.883C383.858 364.074 383.745 365.309 383.315 366.431C382.885 367.553 382.156 368.512 381.221 369.187C380.286 369.862 379.187 370.222 378.063 370.222C377.317 370.222 376.577 370.063 375.888 369.755C375.198 369.446 374.571 368.994 374.044 368.423C373.516 367.853 373.097 367.176 372.811 366.431C372.526 365.686 372.379 364.887 372.379 364.081Z" fill="#B4B5B7"/>
<path d="M417.144 364.081C417.144 362.934 417.458 361.812 418.048 360.859C418.638 359.905 419.477 359.162 420.457 358.723C421.438 358.284 422.518 358.169 423.559 358.393C424.6 358.616 425.557 359.169 426.308 359.98C427.058 360.791 427.57 361.824 427.777 362.949C427.984 364.074 427.878 365.241 427.471 366.3C427.065 367.36 426.377 368.266 425.494 368.903C424.611 369.54 423.573 369.88 422.512 369.88C421.807 369.88 421.109 369.73 420.457 369.439C419.806 369.147 419.214 368.72 418.716 368.182C418.217 367.643 417.822 367.004 417.552 366.3C417.282 365.597 417.144 364.842 417.144 364.081Z" fill="#B4B5B7"/>
<path d="M451.047 274.267V277.938C451.047 278.582 450.93 279.219 450.702 279.813C450.474 280.408 450.14 280.948 449.719 281.403C449.298 281.858 448.799 282.219 448.248 282.465C447.698 282.711 447.109 282.838 446.513 282.838H390.297C389.094 282.838 387.941 282.322 387.09 281.403C386.239 280.484 385.761 279.238 385.761 277.938V274.267C385.761 272.967 386.239 271.721 387.09 270.802C387.941 269.883 389.094 269.367 390.297 269.367H446.513C447.109 269.367 447.698 269.493 448.249 269.74C448.799 269.986 449.299 270.347 449.72 270.802C450.141 271.257 450.475 271.797 450.702 272.392C450.93 272.986 451.047 273.623 451.047 274.267Z" fill="#496FC1"/>
<path d="M466.822 192.498C466.79 193.423 466.762 194.346 466.739 195.268C466.648 198.674 466.61 202.076 466.603 205.476C466.584 212.529 466.69 219.582 466.69 226.691C466.69 229.697 464.827 232.136 462.528 232.136H460.556C458.257 232.136 456.394 229.697 456.394 226.691C456.126 203.633 455.859 180.577 455.592 157.521C455.724 156.93 455.92 156.358 456.175 155.817C456.474 155.202 456.895 154.623 457.471 154.349C457.473 154.349 457.475 154.347 457.477 154.347C463.526 151.51 465.568 166.557 466.017 169.851C467.037 177.341 467.09 184.947 466.822 192.498Z" fill="#496FC1"/>
<path d="M396.492 283.467H446.613C449.434 283.467 452.227 282.867 454.833 281.701C457.439 280.534 459.808 278.825 461.802 276.67C463.797 274.515 465.379 271.957 466.459 269.141C467.538 266.325 468.094 263.308 468.094 260.26V187.883C468.094 187.558 467.974 187.247 467.762 187.017C467.549 186.788 467.261 186.659 466.96 186.659C466.66 186.659 466.371 186.788 466.159 187.017C465.946 187.247 465.827 187.558 465.827 187.883V260.26C465.827 265.765 463.803 271.045 460.199 274.938C456.596 278.831 451.709 281.018 446.613 281.018H396.492C396.191 281.018 395.903 281.147 395.69 281.377C395.478 281.606 395.358 281.918 395.358 282.243C395.358 282.567 395.478 282.879 395.69 283.108C395.903 283.338 396.191 283.467 396.492 283.467Z" fill="#034C8A"/>
<path d="M450.767 272.571C431.81 274.672 412.999 278.102 394.453 282.838H390.297C389.094 282.838 387.941 282.322 387.09 281.403C386.239 280.484 385.761 279.238 385.761 277.938V274.267C385.761 272.967 386.239 271.721 387.09 270.802C387.941 269.883 389.094 269.367 390.297 269.367H446.513C447.44 269.366 448.346 269.673 449.106 270.246C449.867 270.819 450.447 271.631 450.767 272.571Z" fill="#2D538D"/>
<path d="M466.69 226.691C466.69 229.697 464.827 232.136 462.528 232.136H460.556C458.257 232.136 456.394 229.697 456.394 226.691C456.126 203.633 455.859 180.577 455.592 157.52C455.724 156.93 455.92 156.358 456.175 155.816C456.173 156.781 456.218 157.745 456.309 158.704C457.161 168.357 458.408 177.957 460.05 187.502C461.21 194.249 463.646 199.945 466.603 205.476C466.584 212.529 466.69 219.582 466.69 226.691Z" fill="#2D538D"/>
<path d="M251.835 223.207H244.214V369.838H251.835V223.207Z" fill="#496FC1"/>
<path d="M385.371 223.909H377.75V370.54H385.371V223.909Z" fill="#496FC1"/>
<path d="M383.721 223.207H245.738V244.577H383.721V223.207Z" fill="#2D538D"/>
<g style="mix-blend-mode:multiply">
<path d="M385.372 237.671L244.188 239.8V232.707L385.372 232.783V237.671Z" fill="#B9B9BD"/>
</g>
<path d="M394.528 220.05H235.296V233.282H394.528V220.05Z" fill="#496FC1"/>
<path d="M290.329 215.775H311.156L303.442 159.452H282.616L290.329 215.775Z" fill="#E27C17"/>
<path d="M280.881 159.452L288.593 215.775H309.42L301.706 159.452H280.881Z" fill="#FFAA3F"/>
<path d="M294.959 220.049H355.588V214.091H294.959V220.049Z" fill="#E27C17"/>
<path opacity="0.2" d="M283.441 159.452L296.38 215.775H308.412L309.226 215.106C309.226 215.106 298.248 178.773 292.464 159.452H283.441Z" fill="white"/>
<path d="M290.402 220.049H325.274V214.091H290.402V220.049Z" fill="#E27C17"/>
<path d="M292.082 188.688C291.601 185.575 292.244 182.571 293.518 181.978C294.792 181.384 296.216 183.427 296.698 186.539C297.179 189.652 296.536 192.656 295.262 193.249C293.988 193.842 292.564 191.8 292.082 188.688Z" fill="white"/>
<path d="M96.1214 217.181C93.7699 211.281 91.8978 205.172 90.5264 198.922C92.1685 197.692 94.5085 198.518 96.3506 199.354C97.9957 200.101 98.6644 202.187 99.1514 204.042C99.9554 207.104 100.759 210.166 101.564 213.228C102.028 214.999 102.18 217.485 100.572 218.093C98.8126 218.759 96.8587 219.03 96.1214 217.181Z" fill="#F99B7A"/>
<path d="M174.239 75.8418C173.654 78.6588 171.769 81.488 172.87 84.4701C173.798 86.9854 176.283 86.6244 178.336 87.5697C178.204 86.2203 178.758 79.1076 177.902 78.4887C177.902 78.4887 174.239 75.841 174.239 75.8418Z" fill="#F99B7A"/>
<path d="M177.196 79.4417L165.6 70.3673C165.366 70.1839 165.179 69.9389 165.057 69.6555C164.935 69.372 164.882 69.0596 164.903 68.7479C164.924 68.4362 165.019 68.1354 165.178 67.8743C165.337 67.6132 165.555 67.4003 165.812 67.2558C166.108 67.0889 166.444 67.0203 166.777 67.0588C167.109 67.0972 167.424 67.241 167.681 67.472L178.528 77.2147" fill="#CC321D"/>
<path d="M150.324 61.4218C149.989 64.2019 149.103 66.8293 148.185 69.4339C147.615 71.0547 146.932 73.0109 145.506 73.9872C144.364 74.769 143.192 74.8338 141.976 75.2762C141.812 75.3352 142.216 82.9355 142.239 83.7439C142.289 85.3799 143.535 90.1239 141.816 91.184C141.249 91.533 138.794 91.1993 137.961 91.2889C136.731 91.4205 135.656 91.5006 134.412 91.3213C132.83 91.0944 119.86 88.6938 121.865 85.1512C122.492 84.0434 122.915 82.5732 123.196 80.9639C124.14 75.5564 123.473 68.5854 123.473 68.5854C127.163 66.8979 130.946 65.2219 134.788 63.9807C136.734 63.3515 139.152 64.0569 140.465 62.0206C141.717 60.0757 141 57.2118 141.57 55.0209C141.93 53.6385 142.799 52.5574 143.205 51.1941C143.704 49.5143 144.209 48.0099 145.255 46.6084C145.465 46.2893 145.742 46.0286 146.064 45.8476C146.477 45.6513 146.955 45.7028 147.389 45.8362C149.977 46.6312 150.383 49.2931 150.411 51.7623C150.413 51.9073 150.413 52.0521 150.413 52.1971C150.4 55.2268 150.686 58.4282 150.324 61.4218Z" fill="#FDB897"/>
<path d="M150.411 51.7623C149.694 52.3136 149.171 53.1116 148.928 54.0256C148.579 55.3603 148.865 56.7846 148.785 58.167C148.708 59.5513 148.026 61.1168 146.757 61.317C146.203 61.4047 145.607 61.214 145.093 61.4504C144.504 61.7231 144.226 62.4782 144.214 63.1703C144.204 63.8624 144.394 64.5394 144.456 65.2295C144.617 67.0543 143.873 68.8161 143.146 70.475C142.756 71.3636 142.359 72.2845 142.022 73.1978C141.719 74.0234 141.916 74.6641 141.738 75.3448C141.463 76.403 141.51 76.2333 140.197 76.2696C138.642 76.3135 137.015 76.3744 135.511 76.8378C134.811 77.0532 133.626 77.3107 133.723 78.2087C133.829 79.1887 135.723 79.7836 136.424 79.7856C137.034 79.7875 135.878 80.9754 135.349 81.3034C132.76 82.8952 129.711 83.3725 126.81 82.6399C125.526 82.3066 124.304 81.7399 123.196 80.9639C124.14 75.5564 123.473 68.5854 123.473 68.5854C127.163 66.8979 130.946 65.2219 134.788 63.9807C136.734 63.3515 139.152 64.0569 140.465 62.0206C141.717 60.0757 141 57.2118 141.57 55.0209C141.93 53.6385 142.799 52.5574 143.205 51.1941C143.704 49.5143 144.209 48.0099 145.255 46.6084C145.465 46.2893 145.742 46.0286 146.064 45.8476C146.477 45.6513 146.955 45.7028 147.389 45.8362C149.977 46.6312 150.383 49.2931 150.411 51.7623Z" fill="#F99B7A"/>
<path d="M119.131 81.1913V89.9853L144.442 92.9167L146.536 82.9501C146.536 82.9501 138.205 78.2599 131.856 79.7256C125.507 81.1913 119.131 81.1913 119.131 81.1913Z" fill="#CC321D"/>
<path d="M187.913 100.148H176.743C176.449 97.8454 176.598 95.2837 176.183 93.0733C175.596 89.9427 172.682 87.8761 172.93 84.399C173.167 81.0838 178.856 77.6261 175.478 74.5957C174.821 74.0104 176.653 74.4489 177.874 74.5957C179.096 74.7426 185.606 78.8459 186.422 81.1911C187.235 83.5365 185.742 88.8868 185.065 91.1577C184.662 92.5076 185.742 95.423 186.687 97.5701C187.331 99.0401 187.913 100.148 187.913 100.148Z" fill="#FDB897"/>
<path d="M135.054 373.703C134.406 375.764 108.716 380.234 108.716 380.234L107.973 376.165L105.266 381.252C100.637 383.405 89.2793 382.236 89.2793 382.236L89.6976 365.743L89.8158 361.086C92.3061 360.341 94.747 359.191 97.2761 358.528C98.1014 358.305 98.9409 358.151 99.7876 358.064C103.43 357.711 107.709 360.389 111.415 360.896C114.839 361.363 118.284 361.58 121.62 362.612C123.937 363.329 126.253 364.045 128.568 364.761C130.079 365.228 131.59 365.695 133.102 366.162C133.621 367.282 134.08 368.434 134.475 369.611C134.973 371.125 135.349 372.767 135.054 373.703Z" fill="#6F320A"/>
<path d="M188.681 374.342C188.033 376.403 162.341 380.874 162.341 380.874L161.598 376.805L158.893 381.891C154.263 384.043 142.906 382.876 142.906 382.876L143.441 361.727C146.747 360.735 149.964 359.036 153.415 358.703C154.378 358.63 155.346 358.708 156.288 358.935C159.189 359.568 162.276 361.157 165.042 361.534C168.464 362.001 171.911 362.221 175.247 363.25C179.073 364.434 182.9 365.618 186.729 366.801C187.188 367.79 187.6 368.805 187.963 369.84C188.526 371.457 189.002 373.32 188.681 374.342Z" fill="#6F320A"/>
<path d="M162.376 290.071L162.077 278.135C162.099 278.092 162.122 278.05 162.14 278.006C163.79 274.124 163.269 247.12 163.586 222.218C163.904 197.316 159.275 189.198 147.384 189.24C134.43 189.285 131.869 209.621 131.873 217.706C131.877 225.505 139.744 273.842 141.785 279.29L142.097 291.763C141.198 296.378 141.234 302.75 141.259 310.875C141.283 319.12 149.796 362.098 149.796 362.098L158.385 362.094C158.385 362.094 164.143 330.294 164.627 307.078C164.794 299.073 163.842 293.69 162.376 290.071Z" fill="#FFBD95"/>
<path d="M116.012 189.417C104.19 188.155 98.7175 195.753 96.3644 220.549C94.0114 245.346 94.8757 272.589 96.1005 276.619C96.1213 276.687 96.146 276.753 96.1744 276.817C96.1236 277.046 96.0798 277.278 96.0483 277.515L94.6817 287.776C94.6489 288.022 94.6297 288.267 94.6193 288.511C92.7523 291.957 91.2097 297.233 90.5119 305.276C88.505 328.413 95.0999 361.07 95.0999 361.07L103.64 361.957C103.64 361.957 112.437 319.648 113.344 311.452C114.277 303.034 115.019 296.51 114.503 291.776C114.652 291.312 114.761 290.834 114.826 290.348L116.193 280.085C116.199 280.038 116.203 279.992 116.208 279.945C118.568 274.503 127.548 227.055 128.386 219.32C129.256 211.28 128.889 190.792 116.012 189.417Z" fill="#FFBD95"/>
<path d="M188.681 374.342C188.033 376.403 162.341 380.874 162.341 380.874L161.598 376.805L158.893 381.891C154.263 384.043 142.906 382.876 142.906 382.876L143.441 361.727C146.747 360.735 149.964 359.036 153.415 358.703C154.378 358.63 155.346 358.708 156.288 358.935C154.472 361.929 152.495 364.995 153.363 367.552C154.655 371.352 161.217 371.781 164.262 372.077C172.195 372.845 180.105 370.992 187.963 369.84C188.526 371.457 189.002 373.32 188.681 374.342Z" fill="#471D06"/>
<path d="M165.492 360.062C162.037 361.792 158.496 363.313 154.885 364.619C154.592 364.726 154.299 364.831 154.006 364.934C150.518 366.16 146.761 367.184 143.206 366.45C142.767 366.36 142.332 366.242 141.906 366.097C142.225 359.34 142.172 352.571 141.918 345.794C141.636 338.148 141.097 330.493 140.55 322.831C139.72 311.212 138.87 299.584 138.854 287.959C138.853 287.845 138.852 287.735 138.852 287.631C138.852 287.503 138.852 287.372 138.849 287.234C138.685 275.567 131.874 220.293 131.874 220.293L131.856 185.123L160.284 184.244C160.284 184.244 164.567 204.755 165.234 215.911C165.901 227.067 164.65 275.838 164.634 281.207C164.616 286.575 164.994 303.068 164.654 319.239C164.375 332.434 162.689 347.155 165.492 360.062Z" fill="#193B6D"/>
<path d="M135.054 373.703C134.406 375.764 108.716 380.234 108.716 380.234L107.973 376.165L105.266 381.252C100.637 383.405 89.2793 382.236 89.2793 382.236L89.6976 365.742L89.8158 361.086C92.3061 360.341 94.747 359.191 97.2761 358.527L100.014 359.502C109.034 368.684 122.401 372.538 134.475 369.611C134.973 371.125 135.349 372.767 135.054 373.703Z" fill="#471D06"/>
<path d="M131.957 222.061C131.957 222.061 119.396 278.388 118.238 289.075C117.124 299.354 116.015 309.633 114.909 319.912C114.214 326.361 113.436 331.9 113.639 338.383C113.872 345.801 113.593 353.227 112.804 360.6C108.88 360.833 105.688 362.225 101.685 362.267C101.244 362.27 98.7322 362.671 95.9525 363.033C93.1692 363.395 90.116 363.72 88.6123 363.567C87.9592 363.502 87.5974 363.346 87.6768 363.065C88.4746 360.228 88.1569 357.115 88.4358 354.182C88.4428 354.11 88.4499 354.033 88.4551 353.959C88.7958 350.208 88.4058 346.212 88.4058 342.44C88.4058 342.12 88.4075 341.796 88.4093 341.472C88.411 341.224 88.411 340.976 88.4128 340.726C88.441 333.658 88.5223 326.559 89.0587 319.512C89.0729 319.312 89.087 319.115 89.1029 318.919C89.1329 318.557 89.1611 318.204 89.1911 317.857C90.5837 301.741 92.728 285.378 93.2875 280.037C93.847 274.696 93.5522 225.624 95.4107 214.598C95.4389 214.426 95.4689 214.253 95.5007 214.075C95.5325 213.898 95.5642 213.719 95.5978 213.54C95.6013 213.522 95.603 213.505 95.6066 213.488C95.6384 213.324 95.6701 213.158 95.7019 212.992C95.7672 212.645 95.8378 212.291 95.9119 211.93C95.9543 211.719 96.0002 211.503 96.0461 211.286C96.0866 211.095 96.1273 210.904 96.1679 210.71C96.2137 210.498 96.2614 210.285 96.309 210.069C96.3514 209.879 96.3937 209.688 96.4379 209.497C96.4732 209.341 96.5085 209.186 96.5438 209.028C96.5755 208.885 96.6091 208.742 96.6444 208.599C96.6779 208.454 96.7114 208.311 96.745 208.166C96.932 207.371 97.1285 206.564 97.3345 205.745C97.3874 205.533 97.4404 205.32 97.4951 205.104C97.8198 203.823 98.1604 202.524 98.5099 201.235C98.5664 201.024 98.6228 200.812 98.681 200.602C99.2652 198.455 99.8654 196.345 100.439 194.379C100.494 194.19 100.548 194.001 100.603 193.816C100.977 192.541 101.337 191.334 101.673 190.224C101.72 190.068 101.766 189.911 101.814 189.759C101.863 189.597 101.913 189.435 101.96 189.276C102.024 189.067 102.087 188.863 102.147 188.662C102.179 188.557 102.211 188.456 102.243 188.355C102.31 188.132 102.377 187.917 102.442 187.707C102.516 187.467 102.587 187.234 102.657 187.011C102.709 186.845 102.758 186.687 102.806 186.533C102.979 185.976 103.134 185.486 103.263 185.076C103.303 184.948 103.34 184.83 103.376 184.719C103.406 184.624 103.434 184.536 103.46 184.452C103.466 184.431 103.473 184.412 103.48 184.391C103.501 184.324 103.522 184.262 103.54 184.202C103.596 184.027 103.64 183.888 103.672 183.789C103.686 183.745 103.699 183.707 103.708 183.68C103.713 183.658 103.721 183.636 103.729 183.615H103.738C103.741 183.615 103.745 183.617 103.75 183.617L114.978 184.218H114.984L131.856 185.123C131.858 185.293 131.858 185.463 131.858 185.631L131.957 222.061Z" fill="#193B6D"/>
<path d="M99.3324 216.56C98.3016 218.924 106.607 222.698 106.161 225.428C104.962 232.735 103.565 281.854 103.36 284.642C103.183 287.065 97.4475 347.331 95.9525 363.033C93.1693 363.395 90.116 363.72 88.6123 363.567C88.5664 361.418 88.5011 358.026 88.4552 353.959C88.4181 350.494 88.3934 346.538 88.4058 342.44C88.4058 342.12 88.4075 341.796 88.4093 341.472C88.4111 341.224 88.4111 340.976 88.4128 340.726C88.4534 333.269 88.6229 325.509 89.0588 319.512C89.0729 319.312 89.087 319.115 89.1029 318.919C89.1329 318.557 89.1611 318.204 89.1911 317.857C90.5837 301.741 92.728 285.378 93.2875 280.037C93.847 274.696 93.5523 225.624 95.4107 214.598C95.439 214.426 95.469 214.253 95.5007 214.075C95.5325 213.898 95.5642 213.719 95.5978 213.54C95.6013 213.522 95.6031 213.505 95.6066 213.488C95.6384 213.324 95.6702 213.158 95.7019 212.992C95.7672 212.645 95.8378 212.291 95.9119 211.93C95.9543 211.719 96.0002 211.503 96.0461 211.286C96.0867 211.095 96.1273 210.904 96.1679 210.71C96.2137 210.498 96.2614 210.285 96.309 210.069C96.3514 209.879 96.3938 209.688 96.4379 209.497C96.4732 209.341 96.5085 209.186 96.5438 209.028C96.5756 208.885 96.6091 208.742 96.6444 208.599C96.6779 208.454 96.7114 208.311 96.745 208.166C96.9321 207.371 97.1286 206.564 97.3345 205.745C97.3874 205.533 97.4404 205.32 97.4951 205.104C97.8198 203.823 98.1604 202.524 98.5099 201.235C98.5276 201.165 98.547 201.092 98.5664 201.022C98.6034 200.883 98.6423 200.741 98.6811 200.602C99.2653 198.455 99.8654 196.345 100.439 194.379C100.494 194.19 100.548 194.001 100.603 193.816C100.977 192.541 101.337 191.334 101.673 190.224C101.72 190.068 101.766 189.911 101.814 189.759C101.863 189.597 101.913 189.435 101.96 189.276C102.024 189.067 102.087 188.863 102.147 188.662C102.179 188.557 102.211 188.456 102.243 188.355C102.31 188.132 102.377 187.917 102.442 187.707C102.516 187.467 102.587 187.234 102.657 187.011C102.707 186.845 102.758 186.687 102.806 186.533C102.979 185.976 103.134 185.486 103.263 185.076C103.303 184.948 103.34 184.83 103.376 184.719C103.406 184.624 103.434 184.536 103.46 184.452C103.466 184.431 103.473 184.412 103.48 184.391C103.501 184.324 103.522 184.262 103.54 184.202C103.596 184.027 103.641 183.888 103.672 183.789C103.686 183.745 103.699 183.707 103.708 183.68C103.713 183.658 103.721 183.636 103.729 183.615V183.613C103.732 183.613 103.735 183.614 103.738 183.615C103.741 183.615 103.745 183.617 103.75 183.617C106.061 184.075 108.402 184.337 110.751 184.399C112.162 184.441 113.575 184.381 114.978 184.218H114.984L131.856 185.123C131.858 185.293 131.858 185.463 131.858 185.631C131.819 224.852 100.307 214.325 99.3324 216.56Z" fill="#2D538D"/>
<path d="M114.984 184.218C113.578 184.381 112.164 184.441 110.751 184.399C108.395 184.338 106.047 184.075 103.729 183.613L114.984 184.218Z" fill="#2D538D"/>
<path d="M154.885 364.62C154.592 364.726 154.299 364.831 154.006 364.934C150.518 366.16 146.761 367.184 143.206 366.45C143.102 364.827 142.575 356.506 141.918 345.794C141.489 338.764 141.004 330.705 140.55 322.832C139.643 307.139 138.854 292.192 138.852 287.631C138.852 287.504 138.852 287.372 138.849 287.235C138.731 275.903 133.896 235.271 133.896 235.271C133.896 235.271 135.736 227.087 140.82 227.535C145.711 227.968 150.515 225.258 150.432 227.129C150.012 236.51 150.328 281.509 150.668 282.693C150.977 283.761 154.255 351.545 154.885 364.62Z" fill="#2D538D"/>
<path d="M187.913 100.148H176.743L175.663 91.6875C178.704 94.8045 182.547 96.855 186.687 97.5698C187.331 99.0399 187.913 100.148 187.913 100.148Z" fill="#F99B7A"/>
<path d="M160.344 178.139V187.219C158.584 187.219 156.823 187.247 155.059 187.272C154.294 187.285 153.528 187.295 152.762 187.3C151.14 187.318 149.516 187.318 147.897 187.278C144.181 187.186 140.674 188.212 136.939 188.458C135.388 188.561 133.828 188.586 132.26 188.561C131.496 188.551 130.728 188.529 129.962 188.496C125.363 188.309 120.748 187.825 116.263 187.766C115.647 187.758 115.035 187.759 114.426 187.768C114.346 187.77 114.189 187.762 113.965 187.749C111.593 187.608 101.879 186.736 101.879 187.219V178.139H160.344Z" fill="#6F320A"/>
<path d="M132.26 176.469V188.561C131.496 188.552 130.728 188.529 129.962 188.496V176.469H132.26Z" fill="#193B6D"/>
<path d="M155.059 178.139V187.272C154.293 187.285 153.527 187.295 152.761 187.3V178.139H155.059Z" fill="#193B6D"/>
<path d="M116.263 178.139V187.766C115.647 187.758 115.035 187.759 114.426 187.768C114.347 187.77 114.189 187.762 113.965 187.749V178.139H116.263Z" fill="#193B6D"/>
<path d="M199.174 142.553C199.174 142.553 196.823 146.268 191.415 147.635C186.073 148.987 163.725 129.548 163.187 129.078C163.685 129.544 163.824 132.278 163.948 132.886C164.592 136.078 164.618 139.266 164.49 142.471V142.473C164.384 145.108 164.172 147.757 164.11 150.43C163.992 155.536 165.06 160.145 164.241 165.165C163.595 169.122 164.931 172.396 164.647 176.167C164.306 180.661 154.17 184.433 148.642 182.223C147.158 181.673 145.635 181.256 144.087 180.976C136.895 179.552 125.637 179.115 121.03 182.223C119.355 183.352 117.2 183.945 114.984 184.217C114.726 184.248 114.468 184.276 114.209 184.299C113.059 184.398 111.905 184.431 110.751 184.398C108.395 184.337 106.047 184.074 103.729 183.613C103.729 183.613 100.99 192.073 98.5665 201.021C93.4095 202.842 86.9075 208.725 88.4024 204.352C89.0096 202.573 88.0635 197.948 86.5722 192.42C83.3459 180.474 77.5711 164.328 79.4261 163.659C82.1405 162.683 83.9478 152.716 85.215 140.505C86.4804 128.297 91.1839 96.4333 100.409 92.5263C105.36 90.4289 110.406 88.5851 115.45 86.7719C118.577 85.6468 122.248 84.9395 125.96 84.6669C129.742 84.3903 133.563 84.5639 136.886 85.2083C141.389 86.0816 144.855 88.7796 149.043 90.1906C154.687 92.0897 161.059 93.7162 165.005 98.8662C167.026 101.501 167.186 103.132 170.114 104.648C172.012 105.631 173.934 106.526 175.792 107.584C176.112 107.763 176.429 107.95 176.743 108.141L175.296 98.1951C175.47 97.8183 175.764 97.5223 176.124 97.3618C179.23 95.7373 189.045 98.1951 189.045 98.1951C196.472 107.826 198.531 131.555 199.031 139.731C199.138 141.51 199.174 142.553 199.174 142.553Z" fill="#E9431B"/>
<path d="M115.232 176.558C115.076 179.163 114.733 181.751 114.209 184.3C113.059 184.399 111.905 184.432 110.751 184.399C108.395 184.338 106.047 184.075 103.729 183.613C103.729 183.613 100.99 192.074 98.5664 201.022C93.4093 202.843 86.9074 208.725 88.4023 204.353C89.0094 202.574 88.0634 197.948 86.572 192.421C88.201 191.776 89.7665 190.739 91.2331 189.728C93.2046 188.369 96.4626 186.294 97.068 183.817C99.2953 174.701 101.387 165.548 103.344 156.357C107.158 155.939 111.538 160.826 113.365 164.466C115.194 168.106 115.476 172.425 115.232 176.558Z" fill="#CC321D"/>
<path d="M199.173 142.554C199.173 142.554 196.822 146.268 191.415 147.635C186.072 148.987 163.725 129.548 163.187 129.079C163.684 129.544 163.824 132.278 163.947 132.886C164.59 136.059 164.359 139.28 164.489 142.474C164.383 145.109 164.172 147.757 164.11 150.43C163.992 155.537 165.059 160.145 164.24 165.166C163.594 169.122 164.931 172.396 164.646 176.167C164.306 180.662 154.17 184.433 148.642 182.223C147.158 181.673 145.634 181.256 144.087 180.976C136.895 179.552 125.636 179.115 121.03 182.223C118.808 183.722 115.744 184.275 112.811 184.387C110.432 185.237 107.914 185.537 105.421 185.268C104.825 185.2 104.166 185.06 103.81 184.538C103.284 183.76 103.729 182.677 104.18 181.848C98.5981 163.562 109.784 144.479 105.46 125.799C110.515 132.204 111.104 141.263 111.884 149.635C112.339 154.515 113.021 159.527 114.842 164.059C118.38 172.868 127.838 172.047 135.019 174.343C138.932 175.595 142.645 177.67 146.687 178.269C150.73 178.865 155.442 177.508 157.315 173.591C158.268 171.599 158.344 169.257 158.204 167.021C157.848 161.346 154.874 156.557 154.323 151.128C153.852 146.504 154.362 140.963 154.6 136.313C154.802 132.381 154.198 128.377 153.81 124.48C153.635 122.747 154.221 113.615 153.437 112.751C161.078 121.187 168.044 130.269 177.922 135.729C184.39 139.306 191.976 141.171 199.03 139.732C199.138 141.511 199.173 142.554 199.173 142.554Z" fill="#CC321D"/>
<path d="M105.175 126.271C106.157 131.021 106.396 135.942 106.275 140.811C106.155 145.688 105.688 150.536 105.171 155.351C104.654 160.168 104.097 164.963 103.77 169.774C103.451 174.584 103.383 179.414 103.793 184.254C102.8 179.507 102.553 174.586 102.669 169.716C102.776 164.838 103.254 159.991 103.769 155.175C104.284 150.358 104.855 145.565 105.179 140.753C105.503 135.942 105.577 131.113 105.175 126.271Z" fill="#A52517"/>
<path d="M124.232 42.7239C120.805 46.5963 117.65 53.6035 118.558 59.1427C118.753 60.3332 119.396 61.056 119.955 62.019C120.587 63.1074 120.944 64.3285 121.304 65.5762C122.121 68.4124 122.697 71.3232 123.025 74.2725C123.026 74.4362 123.078 74.5948 123.171 74.7237C123.287 74.8243 123.431 74.8807 123.579 74.8842C125.609 75.138 127.651 75.2533 129.694 75.2294C131.869 75.2252 134.243 75.5997 136.335 74.8631C138.153 74.223 139.106 73.0972 139.909 71.3503C140.818 69.374 142.341 67.9608 143.879 66.4966C142.503 64.2715 141.966 61.5619 142.379 58.923C142.42 58.5466 142.539 58.1849 142.727 57.865C143.24 57.0965 144.015 57.2282 144.637 57.6179C144.832 57.7396 146.269 59.7185 146.258 59.7697C146.509 58.5273 146.76 57.2849 147.01 56.0426C147.292 54.6468 147.265 53.4205 147.266 51.9906C147.267 51.0532 147.269 50.1055 147.471 49.1938C147.63 48.4741 148.465 47.647 148.545 47.0636C148.674 46.1258 148.613 46.5513 147.915 45.834C146.68 44.5662 144.928 43.4586 143.339 42.8038C139.997 41.4267 136.516 41.9939 133.199 40.6932C129.592 39.2785 127.102 39.4807 124.232 42.7239Z" fill="#6F320A"/>
<path d="M192.08 124.785C186.352 119.391 180.914 113.648 175.792 107.584C176.111 107.763 176.429 107.95 176.743 108.141L175.296 98.1951C175.469 97.8183 175.764 97.5223 176.124 97.3618C180.156 99.5775 183.566 103.128 186.064 107.233C189.256 112.484 191.057 118.601 192.08 124.785Z" fill="#CC321D"/>
<path d="M178.703 74.7319C178.973 75.0332 179.193 75.3838 179.35 75.7675C179.669 76.5245 179.808 77.3554 179.755 78.185C179.732 78.6041 179.64 79.0154 179.483 79.3995C179.368 79.0134 179.274 78.6204 179.201 78.2226C179.127 77.8397 179.06 77.4626 178.997 77.0844C178.934 76.7063 178.875 76.3276 178.821 75.9408C178.76 75.5405 178.721 75.1369 178.703 74.7319Z" fill="#F99B7A"/>
<path d="M181.523 76.2515C181.74 76.4963 181.909 76.7868 182.017 77.1049C182.127 77.4138 182.194 77.7381 182.219 78.0678C182.244 78.3974 182.225 78.7293 182.162 79.0531C182.102 79.386 181.979 79.7018 181.799 79.9805C181.712 79.6698 181.648 79.3519 181.608 79.03C181.567 78.7253 181.537 78.4275 181.515 78.1286C181.493 77.8298 181.479 77.5305 181.475 77.2226C181.467 76.898 181.483 76.5733 181.523 76.2515Z" fill="#F99B7A"/>
<path d="M184.221 78.6006C184.42 78.7692 184.571 78.9964 184.654 79.2549C184.737 79.5046 184.773 79.77 184.759 80.0351C184.745 80.3001 184.681 80.5593 184.571 80.797C184.461 81.0436 184.287 81.2504 184.07 81.3923C184.043 81.1443 184.031 80.8946 184.034 80.6449C184.036 80.4187 184.042 80.2046 184.054 79.9906C184.066 79.7766 184.083 79.5631 184.106 79.3382C184.13 79.0899 184.168 78.8436 184.221 78.6006Z" fill="#F99B7A"/>
<path d="M151.623 48.4675C151.478 49.7033 151.136 50.9026 150.612 52.0121C149.669 50.0921 148.185 47.9126 146.171 49.3885C144.196 50.8337 143.326 53.3201 142.23 55.5625C140.991 58.1003 139.392 59.9594 137.07 61.3704C132.294 64.2685 126.224 64.7663 121.201 62.3046C116.277 59.8907 115.386 54.1628 116.295 48.8851C117.207 43.5919 120.33 39.8891 124.726 37.4714C125.169 37.2273 125.624 37.0022 126.085 36.7868C127.109 36.3101 128.162 35.8849 129.189 35.4426C129.239 35.4217 129.426 35.332 129.692 35.2005C130.896 34.5979 133.757 33.0897 133.323 32.7522C133.141 32.6169 132.934 32.5253 132.717 32.4835C132.5 32.4418 132.277 32.4508 132.063 32.5101C131.828 32.5705 131.611 32.6923 131.431 32.8647C133.805 27.5735 141.777 29.7395 145.169 32.5844C146.8 33.9534 148.095 35.7457 149.154 37.6621C150.94 40.8921 152.063 44.8218 151.623 48.4675Z" fill="#9C4611"/>
<path opacity="0.5" d="M136.24 34.8766C135.259 35.1016 134.278 35.326 133.298 35.5497C132.544 35.7213 131.773 35.8929 131.011 35.7861C130.53 35.7235 130.075 35.5212 129.692 35.2007C130.896 34.5982 133.757 33.09 133.323 32.7525C133.141 32.6172 132.934 32.5256 132.717 32.4838C132.5 32.4421 132.277 32.4511 132.063 32.5104L132.276 32.3654C132.486 32.1937 132.726 32.069 132.981 31.9986C133.236 31.9282 133.502 31.9135 133.762 31.9555C134.425 32.0562 135.034 32.4026 135.486 32.9356C135.939 33.4685 136.205 34.1547 136.24 34.8766Z" fill="#6F320A"/>
<path opacity="0.5" d="M151.623 48.4678C151.478 49.7036 151.136 50.9029 150.612 52.0124C149.669 50.0924 148.185 47.9129 146.171 49.3888C144.196 50.834 143.326 53.3204 142.23 55.5628C140.991 58.1006 139.392 59.9597 137.07 61.3707C132.294 64.2688 126.224 64.7666 121.201 62.3049C116.277 59.891 115.386 54.1631 116.295 48.8854C117.207 43.5922 120.33 39.8894 124.726 37.4717C125.169 37.2276 125.624 37.0025 126.085 36.7871C125.917 37.2219 125.323 37.6166 125.411 38.4308C124.009 40.6521 123.182 43.4206 123.681 46.0539C125.404 55.1404 137.702 54.203 142.057 48.5554C143.212 47.0586 144.578 45.5828 146.339 45.1729C148.519 44.6658 150.875 46.2407 151.623 48.4678Z" fill="#6F320A"/>
</svg>
