<svg width="466" height="391" viewBox="0 0 466 391" fill="none" xmlns="http://www.w3.org/2000/svg">
<path d="M120.106 157.778H201.548C201.548 157.778 192.558 145.601 185.366 152.1C185.366 152.1 180.712 139.59 171.51 139.726C162.308 139.863 158.395 145.333 158.395 145.333C158.395 145.333 153.847 128.786 143.27 128.649C132.693 128.513 127.366 150.154 127.366 150.154C127.366 150.154 122.01 151.76 120.106 157.778Z" fill="white"/>
<path d="M465.211 0.44458V51.1651L240.495 341.707V241.709L427.094 0.44458H465.211ZM227.439 0.44458V28.1106L2.72314 318.649V218.651L171.488 0.44458H227.439Z" fill="white"/>
<path d="M352.852 68.9556C349.855 68.9556 347.424 72.0978 347.424 75.9766C347.424 79.8554 349.855 82.9938 352.852 82.9938C355.849 82.9938 358.282 79.8516 358.282 75.9766C358.282 72.1017 355.852 68.9556 352.852 68.9556ZM352.852 80.2085C351.045 80.2085 349.579 78.3131 349.579 75.9766C349.579 73.6402 351.045 71.7409 352.852 71.7409C354.659 71.7409 356.128 73.6363 356.128 75.9766C356.128 78.317 354.662 80.2085 352.852 80.2085Z" fill="#AFAFAF"/>
<path d="M342.009 94.7732H260.567C260.567 94.7732 269.558 82.5971 276.75 89.0955C276.75 89.0955 281.404 76.5851 290.606 76.722C299.808 76.8586 303.721 82.3288 303.721 82.3288C303.721 82.3288 308.269 65.7818 318.846 65.6449C329.423 65.5081 334.75 87.1493 334.75 87.1493C334.75 87.1493 340.106 88.756 342.009 94.7732Z" fill="white"/>
<path d="M395.423 127.45L393.307 116.502L359.884 121.976L358.756 130.915L356.456 139.12L366.835 147.468L387.243 145.775L395.423 127.45Z" fill="#EF8E70"/>
<path d="M398.703 151.154L356.923 146.322L348.885 161.729L353.434 226.459H377.654L398.703 151.154Z" fill="#D3D3D3"/>
<path d="M386.115 150.062L379.699 157.758H379.696L378.287 159.45L377.494 175.81L377.304 179.7L376.284 200.744L376.088 204.788L375.114 224.846L374.904 229.208L373.933 229.515L357.981 234.572L355.44 213.742L357.313 204.976L358.444 199.681L361.77 184.101L362.752 179.5L366.055 164.038L366.743 160.816L366.936 159.906L366.625 159.216L365.646 157.048L364.586 154.7L361.42 147.69C361.42 147.69 360.236 147.326 366.091 144.59C366.981 144.172 367.945 143.861 368.939 143.635C370.028 143.386 371.156 143.236 372.263 143.155C374.536 142.994 376.72 143.129 378.322 143.301C379.886 143.47 380.898 143.677 380.898 143.677L381.002 143.804L386.115 150.062Z" fill="#0B5ACE"/>
<path d="M358.444 199.681L375.114 224.846L374.904 229.208L373.933 229.515L357.313 204.976L358.444 199.681ZM362.752 179.5L376.283 200.744L376.088 204.788L361.77 184.101L362.752 179.5ZM377.494 175.81L377.304 179.7L366.055 164.039L366.743 160.816L377.494 175.81ZM372.263 143.156L365.645 157.048L364.586 154.7C365.856 151.431 367.687 146.743 368.939 143.635C370.028 143.386 371.156 143.236 372.263 143.156ZM374.197 157.355L379.696 157.758L378.286 159.45C373.559 158.629 366.936 159.907 366.936 159.907L366.625 159.216L372.717 156.987L378.322 143.301C379.886 143.47 380.898 143.678 380.898 143.678L381.002 143.804L374.197 157.355Z" fill="black"/>
<path d="M398.702 131.742L395.422 127.45L380.897 143.678L391.474 164.1L398.702 131.742ZM366.089 144.59L358.756 130.915L355.09 134.742L351.846 161.73L366.089 144.59Z" fill="#E2E2E2"/>
<path d="M317.929 349.504L315.043 389.677H425.038L421.548 351.296L354.146 322.368L317.929 349.504Z" fill="#181E2B"/>
<path d="M224.359 242.626C224.359 242.626 233.808 243.234 237.474 239.314L232.75 213.741L223.301 221.08L219.987 238.128L224.359 242.626Z" fill="#EF8E70"/>
<path d="M241.107 212.373H231.552L236.329 245.786L248.193 249.516L241.107 212.373Z" fill="#E2E2E2"/>
<path d="M438.154 157.72L431.068 227.278L430.462 236.337L425.038 317.536L429.48 384.408C429.48 384.408 419.198 386.07 406.133 386.776C389.625 387.673 368.675 387.048 358.405 379.636L351.105 341.603L339.684 379.636C339.684 379.636 321.457 381.308 311.442 380.944L313.7 361.618C313.7 361.618 311.443 330.665 319.692 268.215C319.692 268.215 316.71 271.338 308.413 270.552C306.345 270.356 303.947 269.915 301.182 269.125C287.327 265.161 245.442 254.902 245.442 254.902L241.106 212.373C241.106 212.373 242.27 210.596 245.549 211.007C248.828 211.418 301.288 221.673 301.288 221.673C301.288 221.673 315.321 159.722 323.36 150.062C328.627 143.731 340.612 139.12 348.25 136.691C352.274 135.417 355.09 134.742 355.09 134.742C355.09 134.742 353.114 199.654 362.705 225.728C362.705 225.728 384.106 197.026 398.702 131.742C398.702 131.742 402.474 132.739 404.308 135.655C404.308 135.655 427.857 143.313 438.154 157.72Z" fill="#343E57"/>
<path d="M324.559 232.323L319.692 268.215C319.692 268.215 316.71 271.338 308.413 270.552C319.971 253.686 323.499 201.024 323.499 201.024L324.559 232.323Z" fill="#283043"/>
<path d="M305.837 227.38C305.703 227.38 305.572 227.331 305.458 227.239C305.345 227.147 305.254 227.015 305.195 226.859C303.883 223.343 301.172 222.582 301.144 222.575C301.038 222.546 300.939 222.487 300.853 222.402C300.767 222.316 300.698 222.206 300.65 222.081C300.602 221.955 300.577 221.817 300.576 221.677C300.576 221.537 300.6 221.399 300.647 221.272C300.718 221.082 302.454 216.624 307.944 218.738C308.125 218.808 308.277 218.968 308.367 219.183C308.457 219.398 308.477 219.65 308.423 219.884C308.369 220.118 308.245 220.315 308.079 220.431C307.913 220.547 307.718 220.573 307.537 220.504C304.718 219.418 303.202 220.389 302.48 221.216C303.618 221.831 305.413 223.205 306.478 226.058C306.53 226.199 306.554 226.354 306.548 226.509C306.541 226.665 306.504 226.816 306.44 226.948C306.376 227.08 306.287 227.189 306.182 227.264C306.076 227.34 305.958 227.38 305.837 227.38L305.837 227.38ZM351.105 342.523C350.945 342.523 350.789 342.453 350.664 342.325C350.538 342.197 350.45 342.018 350.413 341.817C350.321 341.319 348.193 329.266 350.715 297.476C353.23 265.763 361.932 225.876 362.02 225.477C362.071 225.242 362.193 225.043 362.358 224.924C362.523 224.805 362.718 224.776 362.9 224.842C363.081 224.909 363.235 225.066 363.327 225.28C363.419 225.493 363.442 225.745 363.39 225.98C363.303 226.377 354.634 266.113 352.132 297.664C349.641 329.061 351.777 341.271 351.799 341.39C351.823 341.526 351.824 341.666 351.801 341.802C351.777 341.938 351.73 342.065 351.664 342.174C351.597 342.283 351.512 342.371 351.415 342.432C351.318 342.492 351.212 342.523 351.105 342.523Z" fill="#181E2B"/>
<path d="M365.014 241.114C366.29 241.114 367.324 239.777 367.324 238.128C367.324 236.479 366.29 235.143 365.014 235.143C363.739 235.143 362.705 236.479 362.705 238.128C362.705 239.777 363.739 241.114 365.014 241.114Z" fill="#4B556E"/>
<path d="M356.455 289.637C357.731 289.637 358.765 288.3 358.765 286.651C358.765 285.002 357.731 283.666 356.455 283.666C355.18 283.666 354.146 285.002 354.146 286.651C354.146 288.3 355.18 289.637 356.455 289.637Z" fill="#4B556E"/>
<path d="M355.442 340.601C356.717 340.601 357.751 339.264 357.751 337.615C357.751 335.966 356.717 334.63 355.442 334.63C354.167 334.63 353.133 335.966 353.133 337.615C353.133 339.264 354.167 340.601 355.442 340.601Z" fill="#4B556E"/>
<path d="M331.539 352.217C331.375 352.218 331.217 352.145 331.09 352.012C330.963 351.879 330.875 351.694 330.841 351.487C330.807 351.281 330.829 351.065 330.904 350.877C330.978 350.689 331.1 350.54 331.25 350.454L348.173 340.761C348.533 340.554 348.953 340.765 349.113 341.23C349.151 341.34 349.171 341.459 349.174 341.58C349.176 341.701 349.16 341.822 349.126 341.934C349.092 342.047 349.042 342.15 348.977 342.238C348.913 342.325 348.836 342.396 348.75 342.445L331.827 352.138C331.736 352.19 331.638 352.217 331.539 352.217ZM347.051 338.536C346.966 338.536 346.883 338.517 346.803 338.479L338.201 334.354C338.113 334.312 338.033 334.248 337.964 334.165C337.896 334.083 337.84 333.984 337.801 333.874C337.762 333.764 337.74 333.646 337.737 333.525C337.733 333.404 337.748 333.283 337.781 333.17C337.813 333.057 337.863 332.953 337.926 332.864C337.99 332.775 338.066 332.703 338.151 332.653C338.236 332.603 338.328 332.574 338.422 332.57C338.515 332.565 338.609 332.585 338.696 332.627L347.299 336.752C347.387 336.794 347.467 336.858 347.536 336.94C347.604 337.023 347.659 337.121 347.698 337.231C347.738 337.341 347.759 337.46 347.763 337.581C347.766 337.702 347.751 337.822 347.719 337.936C347.668 338.112 347.577 338.264 347.458 338.372C347.338 338.479 347.197 338.537 347.051 338.537L347.051 338.536ZM357.751 334.411C357.583 334.411 357.421 334.333 357.292 334.193C357.164 334.052 357.078 333.858 357.05 333.643C357.022 333.429 357.054 333.209 357.14 333.022C357.225 332.834 357.359 332.692 357.518 332.621L373.753 325.327C373.842 325.287 373.935 325.27 374.028 325.277C374.122 325.284 374.213 325.315 374.297 325.368C374.382 325.421 374.457 325.494 374.519 325.585C374.581 325.675 374.629 325.78 374.66 325.895C374.722 326.125 374.71 326.378 374.628 326.598C374.545 326.818 374.399 326.986 374.221 327.067L357.985 334.36C357.91 334.394 357.831 334.411 357.751 334.411ZM377.653 348.816C377.575 348.816 377.497 348.799 377.422 348.766L358.533 340.378C358.445 340.339 358.363 340.278 358.293 340.198C358.223 340.117 358.166 340.02 358.125 339.912C358.084 339.803 358.06 339.685 358.054 339.564C358.048 339.444 358.061 339.323 358.091 339.208C358.122 339.094 358.169 338.988 358.231 338.897C358.293 338.807 358.368 338.733 358.452 338.68C358.536 338.626 358.627 338.595 358.721 338.588C358.814 338.581 358.908 338.597 358.996 338.637L377.885 347.024C377.973 347.063 378.055 347.125 378.125 347.205C378.195 347.285 378.252 347.382 378.294 347.49C378.335 347.599 378.359 347.717 378.364 347.838C378.37 347.959 378.358 348.08 378.327 348.194C378.279 348.375 378.188 348.533 378.067 348.644C377.947 348.756 377.802 348.816 377.653 348.816ZM398.808 382.001C398.795 382.001 398.782 382 398.77 382C382.86 380.907 365.707 369.247 365.535 369.13C365.368 369.015 365.243 368.82 365.188 368.586C365.133 368.353 365.151 368.1 365.24 367.884C365.328 367.669 365.48 367.507 365.66 367.436C365.841 367.364 366.036 367.388 366.203 367.503C366.372 367.619 383.255 379.09 398.845 380.16C399.03 380.173 399.204 380.279 399.33 380.455C399.456 380.631 399.524 380.864 399.519 381.104C399.514 381.344 399.437 381.572 399.305 381.739C399.172 381.907 398.993 382.001 398.808 382.001Z" fill="#181E2B"/>
<path d="M402.403 167.15L395.424 174.766L399.866 186.253C399.866 186.253 376.883 221.619 361.93 229.373C361.93 229.373 342.898 204.304 340.286 179.965L347.191 171.209L341.482 163.007L348.251 136.691C352.274 135.417 355.091 134.742 355.091 134.742C355.091 134.742 353.114 199.654 362.705 225.728C362.705 225.728 384.106 197.026 398.703 131.742C398.703 131.742 402.474 132.739 404.308 135.655L402.403 167.15ZM380.897 216.795H406.282V222.779H380.897V216.795Z" fill="#4B556E"/>
<path d="M425.038 317.535L429.48 384.408C429.48 384.408 419.198 386.07 406.133 386.775C405.299 383.81 405.189 379.889 406.281 374.698C411.006 352.269 413.614 313.845 413.931 289.635C414.249 265.43 411.077 208.271 411.077 208.271L430.463 236.336L425.038 317.535Z" fill="#283043"/>
<path d="M318.789 276.367C318.685 276.367 318.582 276.338 318.488 276.281C318.394 276.225 318.31 276.142 318.243 276.04C318.176 275.937 318.128 275.817 318.1 275.687C318.073 275.557 318.068 275.422 318.086 275.289L323.837 232.314C321.134 209.089 323.826 183.107 323.853 182.847C323.879 182.605 323.978 182.387 324.129 182.239C324.279 182.091 324.468 182.027 324.655 182.06C324.748 182.076 324.837 182.116 324.918 182.177C324.999 182.238 325.07 182.319 325.126 182.415C325.183 182.511 325.224 182.621 325.248 182.738C325.272 182.855 325.277 182.977 325.265 183.097C325.237 183.355 322.562 209.192 325.263 232.185C325.275 232.283 325.274 232.383 325.261 232.481L319.49 275.603C319.461 275.817 319.375 276.011 319.247 276.151C319.119 276.29 318.956 276.367 318.789 276.367L318.789 276.367Z" fill="#181E2B"/>
<path d="M160.827 324.009L164.106 334.63L142.609 346.883L136.289 336.681L160.827 324.009Z" fill="white"/>
<path d="M164.106 334.63L175.952 347.621L179.654 359.732L151.202 361.706C151.202 361.706 144.944 352.197 146.002 344.949L164.106 334.63Z" fill="#FFBCAC"/>
<path d="M122.68 389.676C122.68 389.676 124.823 380.313 127.811 371.099C129.761 365.088 133.919 360.747 138.876 359.565C152.002 356.436 180.207 352.182 208.026 363.962C210.759 365.119 212.304 368.857 211.562 372.45L208 389.676H122.68Z" fill="#399F8F"/>
<path d="M165.27 344.476L168.02 353.606C168.02 353.606 171.616 364.305 168.972 365.809C166.327 367.313 163.373 364.032 161.994 358.972L159.77 355.326C159.77 355.326 153.635 355.69 148.77 348.168L165.27 344.476L165.27 344.476Z" fill="#FFBCAC"/>
<path d="M119.577 154.8C119.577 154.8 125.924 162.459 127.828 184.613C129.731 206.767 134.174 263.382 134.174 263.382L160.827 324.009L134.597 341.604L100.328 262.288L109.001 181.137L119.577 154.8Z" fill="#343E57"/>
<path d="M119.536 306.746L112.174 221.262L103.893 228.925L100.328 262.288L119.536 306.746Z" fill="#343E57"/>
<path d="M167.64 367.097C167.058 367.097 166.468 366.933 165.884 366.606C164.015 365.56 162.331 362.881 161.363 359.424L159.425 356.248C157.962 356.203 152.618 355.552 148.224 348.759C148.164 348.666 148.118 348.559 148.09 348.444C148.062 348.328 148.052 348.207 148.06 348.087C148.069 347.966 148.095 347.849 148.139 347.742C148.182 347.635 148.241 347.539 148.313 347.462C148.385 347.384 148.468 347.326 148.557 347.289C148.646 347.253 148.74 347.24 148.833 347.251C148.926 347.262 149.017 347.296 149.1 347.352C149.183 347.408 149.256 347.485 149.316 347.577C153.88 354.633 159.682 354.411 159.739 354.406C159.852 354.4 159.964 354.429 160.066 354.489C160.169 354.55 160.259 354.641 160.329 354.756L162.554 358.401C162.603 358.481 162.641 358.57 162.667 358.666C163.499 361.719 164.913 364.055 166.45 364.916C167.227 365.351 167.979 365.368 168.685 364.966C169.985 364.227 168.755 358.107 167.367 353.973C167.363 353.962 167.36 353.951 167.356 353.94L164.606 344.81C164.573 344.698 164.556 344.577 164.558 344.456C164.56 344.336 164.58 344.216 164.618 344.106C164.656 343.995 164.71 343.895 164.777 343.811C164.845 343.727 164.925 343.662 165.012 343.618C165.099 343.574 165.192 343.553 165.285 343.555C165.379 343.558 165.471 343.584 165.557 343.633C165.642 343.682 165.72 343.752 165.784 343.839C165.849 343.926 165.9 344.029 165.934 344.142L168.679 353.256C168.764 353.512 169.619 356.102 170.178 358.915C171.032 363.216 170.723 365.819 169.259 366.652C168.738 366.949 168.193 367.097 167.64 367.097L167.64 367.097Z" fill="#EF8E70"/>
<path d="M190.591 389.677H281.848L303.452 314.996C304.245 312.254 302.677 309.331 300.412 309.331H216.611C215.796 309.331 214.999 309.653 214.329 310.254C213.659 310.855 213.146 311.706 212.861 312.694L190.591 389.677L190.591 389.677Z" fill="#8088B5"/>
<path d="M250.45 359.732C254.054 359.732 256.975 355.955 256.975 351.296C256.975 346.637 254.054 342.861 250.45 342.861C246.847 342.861 243.926 346.637 243.926 351.296C243.926 355.955 246.847 359.732 250.45 359.732Z" fill="white"/>
<path d="M202.281 389.677H138.072V383.21H202.281V389.677Z" fill="#8088B5"/>
<path d="M292.491 352.885C263.128 369.995 229.777 377.955 193.574 379.366L190.591 389.677H281.848L292.491 352.885Z" fill="#8088B5"/>
<path d="M106.357 55.538L108.894 58.6841C107.838 66.4802 98.6537 68.9893 98.6537 68.9893L69.125 103.404L66.7185 102.925L57.4928 101.079L52.837 87.129C52.837 87.129 46.0683 80.0197 47.3384 73.7277C47.3622 73.6125 47.3859 73.4936 47.4156 73.3784C48.8518 67.2168 55.2703 61.4195 55.2703 61.4195C55.2703 61.4195 52.4156 58.001 59.6057 50.2051C66.7987 42.4129 90.9148 40.6326 96.2027 44.1893C101.491 47.7458 109.425 47.8802 109.425 47.8802L106.357 55.5382L106.357 55.538Z" fill="#5F173C"/>
<path d="M72.2433 86.1509L66.718 102.925L57.4923 101.079L52.8365 87.1292C52.8365 87.1292 46.0679 80.02 47.3379 73.7279C47.3617 73.6128 47.3854 73.4938 47.4151 73.3787C48.1036 75.6308 49.1748 77.4341 50.8069 76.7165C50.8069 76.7165 53.9998 80.3191 56.5399 76.8777C56.5399 76.8777 61.8278 79.4521 63.8368 74.9363C63.8368 74.9363 69.2285 78.934 72.2435 77.0733C75.2613 75.2125 72.2433 86.1509 72.2433 86.1509Z" fill="#490F2F"/>
<path d="M59.2189 103.448L60.4881 108.371L56.8215 135.722L75.1331 152.314C75.1331 152.314 83.7572 151.403 87.2829 152.314L91.0905 135.904L90.1034 122.958C90.1034 122.958 99.129 122.776 99.4111 110.012C99.6931 97.2486 98.6545 68.9895 98.6545 68.9895C98.6545 68.9895 78.8215 73.1803 69.9368 70.9923C69.9368 70.9923 70.642 75.186 72.1933 77.0094C73.7446 78.8327 69.3728 79.1974 66.9753 77.1917C66.9753 77.1917 67.8215 85.0322 66.1292 86.6732C64.4368 88.3143 62.8856 90.867 63.0266 93.9667C63.1676 97.0664 61.6163 99.6191 61.6163 99.6191C61.6163 99.6191 62.1099 85.8984 57.9497 84.5309C53.7894 83.1633 50.5106 85.2145 50.8279 92.189C51.1451 99.1633 55.7638 106.092 59.2189 103.448Z" fill="#FFBCAC"/>
<path d="M59.0067 99.8107C58.8301 99.8105 58.6599 99.7254 58.529 99.572C58.3982 99.4186 58.3161 99.2079 58.2987 98.9807C57.6077 89.9651 54.2402 89.959 54.098 89.9638C53.7066 89.9907 53.3754 89.5986 53.3554 89.0906C53.3355 88.5827 53.6426 88.1497 54.0355 88.1239C54.2335 88.1108 58.8833 87.9312 59.7162 98.7989C59.7261 98.9269 59.715 99.0562 59.6838 99.1785C59.6526 99.3007 59.602 99.413 59.5351 99.5084C59.4683 99.6037 59.3867 99.6799 59.2957 99.732C59.2047 99.7841 59.1062 99.8109 59.0067 99.8107ZM90.1035 122.958C90.1035 122.958 72.9338 127.334 62.4627 110.787C62.4627 110.787 75.4014 142.222 90.5617 128.966L90.1035 122.958ZM86.5041 109.171C82.8778 109.171 80.1422 106.865 79.9778 106.723C79.8205 106.588 79.7112 106.378 79.674 106.138C79.6368 105.899 79.6746 105.65 79.7793 105.447C79.8839 105.243 80.0467 105.102 80.2319 105.054C80.4171 105.006 80.6095 105.055 80.7668 105.19C80.9773 105.37 85.9813 109.555 91.1588 105.706C91.3226 105.584 91.517 105.551 91.6994 105.615C91.7897 105.646 91.8744 105.7 91.9485 105.774C92.0226 105.848 92.0847 105.94 92.1313 106.045C92.178 106.15 92.2082 106.265 92.2202 106.385C92.2323 106.505 92.2259 106.627 92.2016 106.744C92.1772 106.861 92.1353 106.97 92.0782 107.066C92.0211 107.162 91.95 107.242 91.8689 107.302C90.0021 108.69 88.16 109.171 86.5043 109.171L86.5041 109.171Z" fill="#EF8E70"/>
<path d="M54.0713 131.741L75.8596 145.137L87.9878 144.407L90.9063 133.491L93.0647 134.561L97.5776 159.906L84.8853 212.236L56.5392 164.647L54.0713 131.741Z" fill="white"/>
<path d="M69.6548 150.835L77.0586 162.869L73.3568 207.861L85.9432 218.254L89.3279 205.536L84.4625 162.049L88.3759 152.314L85.9432 145.638C85.9432 145.638 81.5009 142.63 73.9914 144.818L69.6549 150.835L69.6548 150.835Z" fill="black"/>
<path d="M58.0903 126.259C58.0903 126.259 65.1082 139.776 77.2711 144.143C77.2711 144.143 71.4531 149.194 69.655 154.527C67.857 159.861 61.7224 166.151 61.7224 166.151L54.0718 131.741C54.0718 131.741 55.5159 123.974 58.0903 126.259ZM90.5617 128.966L93.0651 134.561L94.4048 161.502L93.1356 163.553C93.1356 163.553 88.1578 158.392 87.7379 153.901C87.3179 149.411 84.3795 144.768 83.1769 144.506C83.1769 144.506 89.0454 141.696 90.5617 128.966Z" fill="#343E57"/>
<path d="M109.001 389.676H16.9136C16.9136 389.676 14.0945 358.561 16.9136 340.782C19.7327 323.007 89.6446 317.536 89.6446 317.536L105.829 352.887L106.425 359.792L109.001 389.676Z" fill="#E47A53"/>
<path d="M106.425 359.792L89.6446 367.312L86.4724 328.201L78.8224 335.587L73.0063 359.931L22.9047 371.28L20.522 389.676H16.9136C16.9136 389.676 14.0945 358.561 16.9136 340.782C19.7327 323.007 89.6446 317.536 89.6446 317.536L105.829 352.887L106.425 359.792ZM81.0788 390.598C80.9763 390.598 80.875 390.57 80.7818 390.515C80.6885 390.46 80.6056 390.379 80.5386 390.279C80.4717 390.178 80.4222 390.061 80.3937 389.933C80.3652 389.806 80.3583 389.672 80.3734 389.541L81.7837 377.297C81.8025 377.134 81.855 376.98 81.9357 376.851L86.8715 369.011C86.9304 368.916 87.0031 368.838 87.0855 368.78C87.1679 368.722 87.2584 368.685 87.3518 368.672C87.4451 368.66 87.5395 368.671 87.6295 368.706C87.7195 368.74 87.8033 368.797 87.8761 368.874C87.9489 368.951 88.0092 369.045 88.0537 369.152C88.0982 369.259 88.1259 369.376 88.1352 369.497C88.1445 369.618 88.1353 369.74 88.1081 369.856C88.0808 369.972 88.0361 370.08 87.9764 370.174L83.1639 377.818L81.7824 389.812C81.7572 390.03 81.6724 390.23 81.5433 390.374C81.4142 390.518 81.2494 390.598 81.0788 390.598Z" fill="#C35E4C"/>
<path d="M120.74 186.253C120.422 209.227 109.425 240.818 109.425 240.818L103.923 301.126L109.425 356.508L91.5138 361.435L84.2496 330.665L76.5105 363.894C50.6852 367.588 13.5957 344.611 13.5957 344.611L23.0112 273.637L13.5957 160.271C13.5957 160.271 24.1745 147.415 33.2696 141.126C39.2638 136.979 46.3914 134.224 50.5548 132.824C52.7091 132.102 54.0712 131.742 54.0712 131.742C60.3325 162.757 70.2554 187.5 83.4752 206.583C91.8937 181.603 93.4515 137.109 93.0658 134.562C94.2433 135.214 95.4088 135.903 96.5614 136.626C108.072 143.831 119.577 154.8 119.577 154.8C119.577 154.8 121.057 163.279 120.74 186.253Z" fill="#343E57"/>
<path d="M98.2828 163.551L101.95 173.4L85.9443 218.254L50.8073 174.858L54.0714 162.458L49.4897 157.171L50.555 132.824C52.7092 132.103 54.0714 131.742 54.0714 131.742C60.3326 162.757 70.2556 187.5 83.4754 206.584C91.8939 181.603 93.4517 137.109 93.0659 134.562C94.2434 135.215 95.4089 135.903 96.5615 136.626L101.95 155.713L98.2826 163.552L98.2828 163.551Z" fill="#343E57"/>
<path d="M84.2493 331.585C84.0625 331.585 83.8831 331.49 83.7499 331.321C83.6167 331.151 83.5404 330.921 83.5374 330.679L82.4644 245.619C82.4641 245.594 82.4646 245.568 82.4659 245.543L84.1746 212.176C84.1898 211.935 84.2777 211.711 84.4193 211.553C84.561 211.395 84.745 211.316 84.9316 211.332C85.1182 211.348 85.2925 211.458 85.4168 211.638C85.5411 211.819 85.6055 212.056 85.5961 212.297L83.8894 245.627L84.9617 330.649C84.9633 330.77 84.9464 330.89 84.912 331.003C84.8776 331.115 84.8264 331.218 84.7614 331.305C84.6963 331.392 84.6186 331.461 84.5328 331.509C84.447 331.557 84.3547 331.583 84.2612 331.585L84.2493 331.585Z" fill="white"/>
<path d="M88.0586 330.665C88.9348 330.665 89.6451 329.562 89.6451 328.203C89.6451 326.844 88.9348 325.741 88.0586 325.741C87.1824 325.741 86.4722 326.844 86.4722 328.203C86.4722 329.562 87.1824 330.665 88.0586 330.665Z" fill="#0B95CE"/>
<path d="M87.4239 284.989C88.3 284.989 89.0103 283.887 89.0103 282.528C89.0103 281.168 88.3 280.066 87.4239 280.066C86.5477 280.066 85.8374 281.168 85.8374 282.528C85.8374 283.887 86.5477 284.989 87.4239 284.989Z" fill="#0B95CE"/>
<path d="M81.6415 330.582C81.538 330.582 81.4358 330.553 81.3421 330.496C73.6673 325.889 50.6851 324.938 50.4539 324.929C50.2651 324.921 50.0862 324.817 49.9568 324.639C49.8273 324.462 49.7578 324.224 49.7635 323.98C49.7692 323.736 49.8497 323.505 49.9873 323.338C50.1249 323.17 50.3082 323.08 50.497 323.088C51.4532 323.125 74.0035 324.06 81.9419 328.825C82.0891 328.914 82.2086 329.065 82.2805 329.253C82.3525 329.441 82.3726 329.655 82.3375 329.86C82.3025 330.065 82.2144 330.248 82.0878 330.379C81.9612 330.511 81.8038 330.582 81.6415 330.582ZM78.8218 323.471C78.719 323.471 78.6174 323.442 78.5239 323.387C78.4305 323.331 78.3475 323.25 78.2807 323.149C75.8596 319.497 66.9476 313.397 66.8579 313.336C66.6908 313.222 66.5655 313.027 66.5097 312.794C66.4538 312.56 66.472 312.308 66.5601 312.092C66.6482 311.876 66.7991 311.714 66.9796 311.642C67.1601 311.569 67.3553 311.593 67.5224 311.707C67.8986 311.963 76.7651 318.033 79.3623 321.95C79.4509 322.084 79.5081 322.248 79.5269 322.422C79.5458 322.597 79.5256 322.774 79.4687 322.934C79.4119 323.094 79.3207 323.23 79.2061 323.325C79.0914 323.42 78.958 323.471 78.8218 323.471ZM91.2324 324.929C91.0718 324.93 90.9159 324.86 90.7899 324.731C90.6639 324.602 90.5753 324.422 90.5383 324.22C90.5014 324.018 90.5182 323.806 90.5863 323.618C90.6543 323.43 90.7695 323.277 90.9132 323.185C91.078 323.078 94.9848 320.566 98.0086 319.822C98.1942 319.776 98.3862 319.827 98.5424 319.965C98.6987 320.102 98.8063 320.314 98.8416 320.554C98.877 320.794 98.8371 321.042 98.7309 321.244C98.6247 321.446 98.4607 321.585 98.2751 321.631C95.4469 322.327 91.5888 324.807 91.55 324.832C91.4514 324.896 91.3427 324.929 91.2324 324.929ZM105.117 203.509C99.2929 203.509 94.4137 202.951 94.3406 202.943C94.1525 202.921 93.9788 202.803 93.8578 202.616C93.7368 202.428 93.6784 202.186 93.6953 201.943C93.7308 201.436 94.0787 201.064 94.4687 201.108C94.5774 201.121 105.429 202.362 113.998 201.111C114.185 201.083 114.374 201.153 114.521 201.305C114.669 201.458 114.764 201.68 114.785 201.922C114.806 202.165 114.752 202.409 114.635 202.6C114.517 202.791 114.345 202.913 114.157 202.941C111.235 203.367 108.055 203.509 105.117 203.509H105.117ZM103.925 302.047C103.824 302.047 103.724 302.02 103.632 301.966C103.541 301.913 103.459 301.835 103.392 301.738C103.325 301.641 103.274 301.527 103.244 301.402C103.214 301.278 103.204 301.147 103.216 301.018L108.718 240.71C108.726 240.617 108.746 240.525 108.776 240.44C108.885 240.126 119.717 208.754 120.028 186.236C120.035 185.728 120.354 185.317 120.753 185.332C120.941 185.336 121.121 185.437 121.252 185.613C121.384 185.789 121.455 186.025 121.452 186.269C121.286 198.254 118.199 212.555 115.639 222.443C113.064 232.384 110.49 239.985 110.12 241.064L104.631 301.233C104.611 301.457 104.527 301.664 104.397 301.813C104.267 301.963 104.099 302.046 103.925 302.046V302.047Z" fill="white"/>
<path d="M81.642 257.638L16.9132 200.212L19.5921 232.466L23.0115 273.636L16.0991 325.741L26.9242 273.775L28.3327 244.215C28.5278 240.123 31.641 237.354 34.6664 238.581L81.6418 257.638L81.642 257.638Z" fill="#343E57"/>
<path d="M170.911 242.504L181.911 241.775L204.193 247.701C204.193 247.701 212.795 250.345 214.769 249.251C216.744 248.157 217.237 247.427 217.237 247.427C217.237 247.427 220.199 247.792 221.539 246.333C222.878 244.875 223.302 244.054 223.302 244.054C223.302 244.054 225.276 245.331 226.898 243.963C228.519 242.595 228.096 240.225 228.096 240.225C228.096 240.225 231.906 243.233 232.75 242.66C235.605 240.721 226.052 228.1 226.052 228.1L211.526 216.43C211.526 216.43 199.116 213.513 181.452 216.43L170.911 242.504Z" fill="#FFBCAC"/>
<path d="M183.466 216.12L185.109 242.626L181.911 241.775L170.911 242.504L181.452 216.43L183.466 216.12Z" fill="#EF8E70"/>
<path d="M164 216.476L181.452 216.43L172.726 250.937L156.068 257.638L164 216.476Z" fill="#343E57"/>
<path d="M168.125 216.465L166.521 253.433L156.068 257.638L164 216.476L168.125 216.465Z" fill="#FFFEFD"/>
<path d="M165.904 250.937C166.722 250.937 167.385 250.08 167.385 249.023C167.385 247.966 166.722 247.108 165.904 247.108C165.086 247.108 164.423 247.966 164.423 249.023C164.423 250.08 165.086 250.937 165.904 250.937Z" fill="#343E57"/>
<path d="M167.384 216.432C167.384 216.432 162.66 246.88 156.067 268.215H148.345C148.345 268.215 119.508 266.213 100.348 264.168C92.3952 263.316 86.1102 262.46 84.2496 261.739C82.6236 261.11 77.8311 257.63 71.469 252.646C52.9881 238.186 21.2872 211.091 15.661 204.577C8.09705 195.825 9.57483 167.108 13.5958 160.271C17.6166 153.434 35.8097 150.971 46.8099 163.551C57.807 176.136 60.1365 181.139 60.1365 181.139L91.232 213.877C91.232 213.877 95.7453 213.969 95.7453 216.34L167.384 216.432Z" fill="#343E57"/>
<path d="M85.8381 233.944C85.7323 233.944 85.6279 233.914 85.5324 233.855C85.4368 233.797 85.3526 233.712 85.2857 233.606C85.2188 233.5 85.171 233.376 85.1457 233.243C85.1204 233.111 85.1183 232.972 85.1395 232.838C86.2165 226.022 88.9584 221.674 91.0688 219.226C93.3647 216.564 95.401 215.524 95.4865 215.481C95.6625 215.392 95.8586 215.398 96.0315 215.496C96.2045 215.594 96.3402 215.777 96.4087 216.005C96.4773 216.232 96.4731 216.486 96.3971 216.709C96.3211 216.933 96.1795 217.108 96.0034 217.197C95.9845 217.207 94.0828 218.188 91.9747 220.65C89.163 223.935 87.3329 228.16 86.5352 233.207C86.5023 233.415 86.415 233.602 86.288 233.736C86.161 233.87 86.0021 233.944 85.8381 233.944ZM85.8372 220.679C85.7218 220.679 85.6081 220.643 85.5059 220.573C85.4038 220.504 85.3162 220.403 85.2507 220.28C85.1852 220.158 85.1439 220.016 85.1301 219.868C85.1164 219.72 85.1307 219.569 85.1718 219.43C86.9298 213.47 91.0017 212.978 91.1742 212.96C91.5653 212.916 91.9098 213.296 91.9416 213.803C91.9568 214.046 91.897 214.287 91.7752 214.473C91.6535 214.659 91.4798 214.775 91.292 214.795C91.1503 214.812 87.9302 215.247 86.5029 220.086C86.4514 220.261 86.3603 220.411 86.2414 220.517C86.1225 220.622 85.9816 220.679 85.8372 220.679Z" fill="white"/>
<path d="M100.348 264.168C92.3954 263.316 86.1104 262.46 84.2499 261.739C82.6238 261.11 77.8313 257.63 71.4692 252.646C75.2081 250.425 81.9442 248.004 89.3271 252.853C94.9799 256.563 98.3747 260.838 100.348 264.168Z" fill="#343E57"/>
<path d="M149.933 261.157C149.817 261.157 149.702 261.12 149.599 261.05C149.497 260.979 149.409 260.877 149.344 260.753C149.278 260.628 149.238 260.485 149.225 260.335C149.213 260.185 149.229 260.034 149.272 259.894C153.013 247.803 156.709 225.264 156.746 225.038C156.765 224.92 156.802 224.807 156.855 224.708C156.908 224.608 156.976 224.523 157.054 224.457C157.132 224.39 157.22 224.345 157.312 224.323C157.404 224.301 157.498 224.302 157.59 224.327C157.681 224.352 157.768 224.4 157.845 224.468C157.923 224.537 157.989 224.624 158.04 224.725C158.091 224.827 158.126 224.94 158.143 225.059C158.16 225.178 158.159 225.3 158.14 225.418C158.103 225.646 154.382 248.338 150.595 260.579C150.542 260.75 150.451 260.896 150.333 260.999C150.215 261.102 150.076 261.157 149.933 261.157Z" fill="#38387F"/>
<path d="M156.067 269.136H148.345C148.333 269.136 148.32 269.136 148.307 269.135C148.019 269.115 119.241 267.108 100.289 265.086C91.096 264.101 85.7827 263.295 84.045 262.621C82.4497 262.004 78.0943 258.913 71.0999 253.434C52.8676 239.168 20.8714 211.846 15.1858 205.263C15.0491 205.098 14.9678 204.871 14.9592 204.63C14.9507 204.389 15.0157 204.153 15.1402 203.974C15.2647 203.794 15.4387 203.685 15.625 203.669C15.8112 203.653 15.9947 203.733 16.1361 203.891C21.7738 210.418 53.652 237.629 71.8376 251.858C80.874 258.937 83.6207 260.534 84.4536 260.856C86.0727 261.484 91.4398 262.289 100.406 263.249C119.135 265.248 147.482 267.233 148.365 267.294H155.583C161.286 248.599 165.603 222.94 166.51 217.351L95.7445 217.26C95.5557 217.26 95.3747 217.163 95.2413 216.99C95.1079 216.818 95.0329 216.584 95.0329 216.34C95.0329 215.504 93.02 214.836 91.2201 214.797C91.0603 214.794 90.906 214.721 90.7819 214.59L59.6865 181.852C59.6227 181.785 59.5684 181.704 59.5261 181.613C59.5037 181.566 57.0607 176.511 46.3376 164.241C46.2676 164.16 46.2105 164.063 46.1695 163.955C46.1285 163.846 46.1045 163.728 46.0988 163.607C46.0931 163.486 46.1058 163.365 46.1363 163.251C46.1668 163.137 46.2144 163.031 46.2764 162.941C46.3384 162.85 46.4136 162.776 46.4976 162.723C46.5817 162.67 46.673 162.639 46.7664 162.632C46.8598 162.624 46.9533 162.641 47.0418 162.68C47.1302 162.72 47.2118 162.781 47.2818 162.861C57.3557 174.389 60.2066 179.594 60.6751 180.518L91.4938 212.964C92.5933 213.019 95.6166 213.358 96.3131 215.419L167.385 215.511C167.49 215.511 167.594 215.541 167.689 215.6C167.785 215.658 167.869 215.743 167.935 215.848C168.002 215.954 168.05 216.077 168.075 216.209C168.101 216.341 168.103 216.479 168.083 216.613C168.035 216.918 163.27 247.388 156.728 268.557C156.675 268.728 156.584 268.874 156.466 268.977C156.348 269.081 156.209 269.136 156.067 269.136L156.067 269.136Z" fill="#343E57"/>
<path d="M228.097 241.146C228.001 241.146 227.907 241.122 227.819 241.073C227.731 241.025 227.651 240.955 227.585 240.866L221.749 233.082L213.824 228.108C213.74 228.055 213.664 227.981 213.602 227.891C213.54 227.8 213.493 227.695 213.462 227.58C213.431 227.466 213.418 227.345 213.424 227.224C213.429 227.104 213.453 226.986 213.494 226.877C213.535 226.768 213.592 226.671 213.662 226.59C213.732 226.51 213.813 226.448 213.902 226.409C213.99 226.369 214.084 226.352 214.177 226.36C214.271 226.367 214.362 226.398 214.446 226.451L222.485 231.496C222.559 231.543 222.627 231.607 222.685 231.684L228.608 239.584C228.705 239.714 228.771 239.878 228.797 240.056C228.822 240.234 228.807 240.418 228.753 240.584C228.698 240.751 228.607 240.893 228.49 240.993C228.374 241.093 228.237 241.146 228.097 241.146H228.097ZM223.301 244.975C223.159 244.975 223.02 244.92 222.903 244.817L217.745 240.312L208.575 235.424C208.4 235.331 208.261 235.152 208.189 234.927C208.116 234.701 208.116 234.448 208.188 234.222C208.26 233.996 208.398 233.816 208.573 233.723C208.747 233.629 208.943 233.628 209.118 233.721L218.355 238.644C218.4 238.668 218.442 238.698 218.482 238.733L223.7 243.291C223.827 243.401 223.922 243.561 223.973 243.747C224.024 243.933 224.028 244.136 223.983 244.324C223.938 244.513 223.848 244.678 223.725 244.795C223.602 244.912 223.454 244.975 223.301 244.975ZM217.237 248.349C217.103 248.349 216.972 248.3 216.859 248.208L212.779 244.899L204.549 241.653C204.458 241.619 204.374 241.562 204.301 241.485C204.227 241.409 204.167 241.314 204.122 241.207C204.077 241.099 204.049 240.982 204.04 240.861C204.03 240.739 204.04 240.617 204.067 240.5C204.095 240.384 204.14 240.275 204.2 240.181C204.26 240.087 204.334 240.01 204.418 239.953C204.501 239.897 204.592 239.862 204.686 239.852C204.78 239.841 204.875 239.854 204.965 239.891L213.285 243.173C213.345 243.197 213.402 243.231 213.456 243.274L217.616 246.647C217.747 246.753 217.848 246.912 217.903 247.099C217.958 247.285 217.965 247.49 217.922 247.683C217.879 247.875 217.789 248.044 217.666 248.164C217.542 248.284 217.392 248.349 217.237 248.349H217.237ZM202.218 239.049C202.086 239.049 201.958 239.002 201.846 238.913C201.734 238.825 201.643 238.698 201.583 238.546C201.524 238.395 201.498 238.225 201.508 238.056C201.518 237.887 201.565 237.725 201.642 237.587C205.995 229.836 210.347 220.689 210.39 220.598C210.438 220.493 210.502 220.402 210.578 220.329C210.654 220.257 210.74 220.204 210.832 220.175C210.923 220.146 211.019 220.14 211.112 220.159C211.205 220.178 211.295 220.22 211.375 220.284C211.455 220.348 211.525 220.432 211.58 220.531C211.635 220.63 211.675 220.742 211.696 220.861C211.717 220.98 211.72 221.103 211.704 221.223C211.689 221.344 211.655 221.459 211.604 221.562C211.56 221.654 207.18 230.859 202.795 238.669C202.729 238.787 202.642 238.883 202.542 238.949C202.441 239.015 202.33 239.049 202.218 239.049Z" fill="#EF8E70"/>
<path d="M191.054 244.817C191.054 244.817 194.069 237.934 195.126 237.205C196.184 236.476 197.876 237.615 197.03 241.011C197.03 241.011 198.987 236.487 201.049 236.994C203.112 237.501 201.525 243.45 201.525 243.45C201.525 243.45 202.477 238.504 204.328 239.302C206.179 240.1 205.818 245.091 205.818 245.091C205.818 245.091 206.92 242.493 208.136 242.835C209.352 243.176 208.771 249.262 208.136 250.014C207.501 250.766 205.492 250.59 205.016 248.593C205.016 248.593 204.963 250.425 203.429 250.424C201.896 250.424 200.415 249.398 200.574 247.279C200.574 247.279 199.04 249.838 197.295 248.593C195.55 247.348 196.131 245.091 196.131 245.091C196.131 245.091 194.862 248.441 193.117 248.1C191.372 247.758 190.473 246.869 191.054 244.817ZM231.747 213.741C231.747 213.741 224.606 208.271 218.366 208.271C213.619 208.271 205.261 215.234 201.533 218.567C200.614 219.388 200.819 221.229 201.885 221.657C203.702 222.387 206.437 222.709 209.375 220.305L215.554 219.666C215.554 219.666 220.481 226.503 233.565 226.459L231.747 213.741Z" fill="#FFBCAC"/>
<path d="M225.988 226.202C219.902 226.202 216.236 221.918 215.265 220.62L209.605 221.205C206.478 223.676 203.573 223.298 201.674 222.536C200.923 222.235 200.382 221.42 200.262 220.411C200.142 219.391 200.473 218.394 201.128 217.809C202.313 216.75 204.163 215.149 206.242 213.541C206.58 213.281 207.017 213.423 207.219 213.86C207.421 214.296 207.311 214.861 206.973 215.122C204.927 216.704 203.106 218.28 201.938 219.324C201.633 219.597 201.656 220.011 201.67 220.132C201.688 220.282 201.765 220.644 202.097 220.777C203.74 221.437 206.27 221.756 208.995 219.527C209.092 219.447 209.204 219.399 209.319 219.387L215.497 218.748C215.61 218.736 215.724 218.759 215.828 218.816C215.933 218.872 216.025 218.96 216.098 219.072C216.136 219.129 220.061 224.951 227.095 224.309C227.484 224.271 227.828 224.656 227.855 225.163C227.862 225.284 227.85 225.405 227.82 225.52C227.791 225.634 227.744 225.74 227.683 225.832C227.621 225.923 227.547 225.998 227.463 226.052C227.379 226.106 227.288 226.138 227.195 226.146C226.783 226.184 226.38 226.202 225.988 226.202L225.988 226.202ZM208.136 250.935C207.995 250.935 207.857 250.881 207.74 250.779C207.623 250.678 207.532 250.534 207.478 250.365C207.424 250.197 207.41 250.011 207.438 249.833C207.466 249.654 207.534 249.49 207.634 249.361C208.058 248.581 208.348 244.495 207.925 243.725C207.48 243.703 206.775 244.755 206.442 245.535C206.363 245.72 206.237 245.865 206.085 245.944C205.933 246.023 205.765 246.032 205.608 245.97C205.452 245.908 205.317 245.778 205.226 245.602C205.135 245.427 205.094 245.216 205.109 245.005C205.207 243.614 205.091 240.601 204.103 240.175C203.95 240.109 203.822 240.125 203.677 240.228C203.16 240.595 202.695 241.806 202.414 242.836C202.35 243.143 202.278 243.448 202.199 243.75C202.139 243.974 202.014 244.16 201.851 244.269C201.688 244.377 201.499 244.4 201.323 244.333C201.147 244.265 200.998 244.113 200.907 243.907C200.816 243.701 200.79 243.458 200.834 243.227C200.855 243.12 200.926 242.763 201.054 242.288C201.36 240.811 201.559 238.94 201.215 238.176C201.141 238.011 201.058 237.933 200.916 237.899C199.65 237.587 198.096 240.438 197.651 241.461C197.565 241.66 197.424 241.811 197.257 241.883C197.089 241.956 196.907 241.946 196.745 241.855C196.583 241.763 196.453 241.598 196.381 241.389C196.308 241.181 196.298 240.946 196.352 240.729C196.654 239.515 196.602 238.538 196.211 238.116C196.003 237.891 195.702 237.851 195.461 238.017C194.909 238.416 193.066 242.093 191.674 245.271C191.581 245.484 191.426 245.64 191.244 245.705C191.062 245.77 190.867 245.739 190.703 245.619C190.539 245.498 190.418 245.299 190.368 245.063C190.317 244.828 190.341 244.576 190.434 244.364C191.165 242.694 193.64 237.186 194.791 236.392C195.55 235.869 196.466 235.991 197.125 236.703C197.325 236.92 197.638 237.351 197.822 238.065C198.688 236.87 199.875 235.768 201.182 236.089C201.729 236.224 202.167 236.626 202.448 237.252C202.642 237.685 202.747 238.211 202.791 238.775C202.855 238.717 202.922 238.663 202.99 238.615C203.483 238.264 204.023 238.199 204.553 238.428C205.882 239.001 206.35 240.938 206.499 242.6C206.996 242.093 207.608 241.743 208.287 241.934C208.656 242.038 209.148 242.407 209.391 243.573C209.786 245.462 209.417 249.744 208.617 250.693C208.486 250.849 208.314 250.935 208.136 250.935L208.136 250.935Z" fill="#EF8E70"/>
<path d="M344.127 71.1086C344.127 71.1086 340.32 68.7382 338.486 60.3507C338.486 60.3507 354.704 49.0459 369.794 48.1342C384.884 47.2225 396.307 55.2453 397.928 63.6328C397.928 63.6328 406.601 65.0915 409.14 79.6784L400.396 103.834L386.576 107.94L344.127 71.1086Z" fill="#5F173C"/>
<path d="M344.127 71.1084C344.127 71.1084 339.615 111.952 342.012 122.345C344.409 132.738 354.618 137.856 368.666 135.838C382.627 133.832 390.666 128.362 393.909 118.88C393.909 118.88 401.948 117.969 404.345 106.664C406.743 95.3591 400.114 93.9004 397.294 95.7237C394.473 97.5471 392.217 104.007 392.217 104.007L389.819 103.2L390.101 95.5414L385.025 89.1596C385.025 89.1596 387.14 72.7493 381.781 71.1083C376.422 69.4672 360.204 74.208 360.204 74.208L344.127 71.1083L344.127 71.1084Z" fill="#FFBCAC"/>
<path d="M394.333 111.961C394.229 111.961 394.127 111.932 394.032 111.875C393.938 111.819 393.854 111.736 393.787 111.633C393.72 111.53 393.672 111.409 393.645 111.279C393.618 111.149 393.613 111.013 393.631 110.881C394.391 105.282 396.466 102.584 398.074 101.307C399.847 99.8991 401.451 99.8637 401.518 99.8628C401.915 99.8613 402.233 100.266 402.237 100.775C402.239 101.019 402.166 101.253 402.034 101.427C401.902 101.601 401.723 101.701 401.534 101.704C401.316 101.71 396.289 101.946 395.034 111.199C395.005 111.412 394.919 111.605 394.791 111.745C394.663 111.884 394.501 111.961 394.333 111.961L394.333 111.961ZM361.159 117.423C357.59 117.423 354.477 116.771 354.344 116.743C354.159 116.702 353.995 116.567 353.886 116.37C353.777 116.172 353.733 115.927 353.764 115.687C353.794 115.448 353.896 115.234 354.048 115.091C354.2 114.949 354.389 114.889 354.574 114.926C358.042 115.659 367.546 116.641 369.849 112.431C369.903 112.331 369.971 112.246 370.05 112.18C370.129 112.114 370.218 112.07 370.311 112.048C370.403 112.027 370.498 112.03 370.59 112.057C370.682 112.083 370.769 112.133 370.846 112.203C370.923 112.274 370.988 112.363 371.038 112.466C371.088 112.569 371.122 112.684 371.137 112.804C371.153 112.924 371.149 113.047 371.128 113.166C371.107 113.284 371.067 113.396 371.012 113.495C369.599 116.077 366.331 117.398 361.297 117.422L361.159 117.423Z" fill="#EF8E70"/>
<path d="M411.828 386.834C412.701 388.227 415.192 386.94 415.192 386.94C418.023 389.476 421.255 387.046 421.255 387.046C421.255 387.046 421.7 388.298 423.902 388.87C426.104 389.442 427.517 388.066 427.517 388.066C427.517 388.066 430.062 389.002 431.657 388.344C433.256 387.684 435.434 383.856 435.696 380.916C435.963 377.976 433.854 377.156 433.854 377.156C433.854 377.156 434.572 373.002 435.042 367.653C435.509 362.306 432.159 357.175 432.159 357.175C432.159 357.175 438.986 334.312 442.396 318.783C445.803 303.256 451.194 264.516 447.635 252.488C446.296 247.962 442.798 244.832 438.95 242.693C432.57 239.136 432.804 242.267 432.804 242.267L428.88 271.562L426.907 280.763L415.192 350.848C415.192 350.848 406.949 373.186 406.984 375.637C407.018 378.094 410.955 385.447 411.828 386.834L411.828 386.834Z" fill="#FFBCAC"/>
<path d="M428.067 380.659C428.035 380.659 428.003 380.656 427.971 380.65L409.748 377.448C409.561 377.415 409.392 377.287 409.277 377.093C409.163 376.899 409.113 376.653 409.138 376.411C409.151 376.292 409.182 376.176 409.229 376.072C409.276 375.967 409.338 375.876 409.413 375.802C409.487 375.729 409.572 375.676 409.663 375.645C409.753 375.614 409.847 375.607 409.94 375.623L428.163 378.825C428.342 378.856 428.505 378.974 428.619 379.155C428.733 379.336 428.79 379.566 428.778 379.799C428.766 380.032 428.686 380.251 428.554 380.41C428.422 380.57 428.248 380.659 428.067 380.659ZM415.193 387.86C415.041 387.86 414.894 387.797 414.771 387.681C414.649 387.565 414.559 387.402 414.513 387.215L413.111 381.457C413.054 381.224 413.071 380.972 413.158 380.755C413.245 380.538 413.396 380.375 413.576 380.302C413.665 380.266 413.759 380.252 413.852 380.263C413.945 380.273 414.036 380.307 414.119 380.363C414.202 380.419 414.276 380.496 414.336 380.588C414.396 380.681 414.441 380.788 414.469 380.904L415.872 386.662C415.906 386.8 415.914 386.946 415.895 387.089C415.877 387.232 415.833 387.367 415.767 387.483C415.701 387.6 415.614 387.695 415.515 387.76C415.415 387.826 415.304 387.86 415.193 387.86ZM421.254 387.966C421.09 387.965 420.93 387.891 420.803 387.756C420.676 387.621 420.589 387.433 420.557 387.224L419.615 381.088C419.597 380.969 419.597 380.847 419.615 380.728C419.633 380.609 419.669 380.496 419.721 380.395C419.773 380.294 419.84 380.208 419.918 380.141C419.996 380.073 420.083 380.027 420.175 380.003C420.267 379.98 420.362 379.98 420.453 380.003C420.545 380.027 420.633 380.074 420.71 380.142C420.788 380.209 420.855 380.296 420.907 380.397C420.959 380.497 420.995 380.611 421.013 380.729L421.954 386.866C421.974 386.999 421.972 387.137 421.946 387.269C421.92 387.401 421.872 387.525 421.805 387.63C421.739 387.735 421.654 387.82 421.559 387.878C421.464 387.936 421.36 387.966 421.254 387.966ZM427.516 388.988C427.363 388.988 427.214 388.925 427.092 388.807C426.969 388.689 426.879 388.524 426.835 388.335L425.454 382.451C425.426 382.335 425.417 382.214 425.426 382.093C425.435 381.973 425.463 381.856 425.507 381.749C425.551 381.643 425.611 381.548 425.683 381.472C425.756 381.395 425.839 381.337 425.928 381.302C426.018 381.267 426.112 381.255 426.205 381.267C426.298 381.278 426.388 381.314 426.471 381.371C426.553 381.428 426.626 381.505 426.686 381.599C426.745 381.692 426.79 381.8 426.817 381.916L428.198 387.8C428.23 387.938 428.237 388.083 428.218 388.225C428.199 388.367 428.155 388.501 428.088 388.616C428.022 388.732 427.936 388.826 427.836 388.89C427.737 388.955 427.627 388.989 427.516 388.988ZM431.754 382.818C431.629 382.818 431.507 382.775 431.398 382.695C431.29 382.614 431.201 382.498 431.138 382.358C431.076 382.219 431.043 382.06 431.042 381.899C431.042 381.738 431.075 381.579 431.137 381.439L433.237 376.697C433.283 376.592 433.345 376.5 433.419 376.426C433.493 376.352 433.578 376.297 433.668 376.265C433.758 376.234 433.852 376.225 433.945 376.241C434.038 376.256 434.127 376.295 434.209 376.355C434.29 376.415 434.361 376.496 434.418 376.591C434.475 376.687 434.517 376.796 434.542 376.913C434.566 377.03 434.573 377.151 434.561 377.271C434.549 377.391 434.519 377.507 434.473 377.612L432.373 382.355C432.31 382.495 432.22 382.613 432.111 382.694C432.003 382.775 431.879 382.818 431.754 382.818V382.818Z" fill="#EF8E70"/>
<path d="M414.809 342.566L412.588 355.635C412.588 355.635 427.718 358.06 437.025 357.376L442.948 346.449L414.81 342.566L414.809 342.566Z" fill="#E2E2E2"/>
<path d="M438.154 157.72C438.154 157.72 445.769 167.929 450.422 197.194C450.422 197.194 459.518 248.066 460.999 257.091C462.48 266.117 448.804 350.474 448.804 350.474C448.804 350.474 428.158 354.453 412.779 344.909L425.038 267.758C425.038 267.758 423.628 264.111 424.967 261.832L408.538 205.126C408.538 205.126 405.296 160.821 438.154 157.72L438.154 157.72Z" fill="#343E57"/>
<path d="M412.78 345.829C412.674 345.829 412.57 345.799 412.474 345.741C412.379 345.682 412.294 345.597 412.228 345.491C412.161 345.385 412.113 345.261 412.088 345.128C412.062 344.995 412.06 344.857 412.082 344.723L424.294 267.866C423.978 266.92 423.154 263.983 424.173 261.715L407.871 205.449C407.807 205.22 407.816 204.969 407.894 204.749C407.973 204.529 408.115 204.357 408.291 204.272C408.467 204.187 408.661 204.195 408.832 204.295C409.004 204.394 409.138 204.576 409.205 204.802L425.635 261.509C425.677 261.655 425.69 261.812 425.673 261.966C425.655 262.12 425.608 262.265 425.535 262.389C424.493 264.162 425.663 267.315 425.675 267.346C425.747 267.531 425.768 267.741 425.736 267.943L413.477 345.093C413.444 345.301 413.357 345.488 413.23 345.622C413.103 345.756 412.944 345.829 412.78 345.829Z" fill="#181E2B"/>
</svg>
