<svg width="501" height="401" viewBox="0 0 501 401" fill="none" xmlns="http://www.w3.org/2000/svg">
<path d="M310.33 116.437C309.991 115.306 309.652 114.401 309.652 113.269C309.652 111.233 309.483 109.423 309.144 107.613C308.805 106.482 310.161 105.577 310.669 106.482C311.686 107.84 312.025 109.423 312.025 111.233C312.534 110.328 313.551 108.971 314.398 108.292C315.246 107.387 316.432 106.482 317.449 107.387C317.958 107.84 318.297 108.292 318.297 108.745C318.805 108.745 319.314 108.971 319.652 109.65C319.991 110.328 319.991 110.781 319.822 111.233C320.161 111.46 320.5 111.686 320.5 112.365C320.669 113.043 320.5 113.496 320.33 114.174C320.5 114.401 320.669 114.853 320.669 115.532C320.669 116.437 320.161 117.342 319.652 117.794C318.975 118.926 315.754 120.736 315.076 120.962C309.144 132.727 307.11 124.808 310.33 116.437Z" fill="#F5B085"/>
<path d="M212.365 346.98L213.72 357.388H217.28L218.975 345.849L212.365 346.98Z" fill="#F5B085"/>
<path d="M257.619 346.98L256.263 357.388H252.703L251.009 345.849L257.619 346.98Z" fill="#F5B085"/>
<path d="M239.653 197.659C239.653 197.659 244.907 244.491 246.432 271.867C246.432 272.998 246.602 274.129 246.602 275.261C246.771 279.785 247.11 284.537 247.28 289.514C248.636 316.211 250.5 349.469 250.5 349.469L257.958 348.79C257.958 348.79 267.11 296.301 269.314 277.749C274.738 232.953 275.077 192.908 275.077 192.908L267.788 193.813L265.924 194.039L259.992 194.944L258.127 195.17L252.534 195.849L251.178 196.075L239.653 197.659Z" fill="black"/>
<path d="M256.771 353.993C256.771 353.993 272.703 353.993 275.754 364.853H256.771L254.737 362.364L253.042 364.853H249.992C249.992 364.853 247.958 357.161 252.364 354.446C252.195 354.219 254.059 356.256 256.771 353.993Z" fill="black"/>
<path d="M262.365 189.514C262.365 189.514 261.687 211.686 258.975 249.243C256.094 288.383 249.822 334.084 249.822 334.084C249.822 334.084 247.449 286.12 246.093 265.532C244.907 248.338 239.653 197.885 239.653 197.885L262.365 189.514Z" fill="black"/>
<path d="M212.195 349.468L218.975 349.921L223.212 325.939L231.009 289.513L233.551 277.296L250.67 197.432L240.5 196.075L239.653 195.848L215.246 192.455C215.246 192.455 211.178 224.808 208.805 270.056C207.619 295.848 212.195 349.468 212.195 349.468Z" fill="black"/>
<path d="M213.212 353.993C213.212 353.993 197.28 353.993 194.229 364.853H213.043L215.585 362.138L217.449 364.853H219.992C219.992 364.853 222.026 357.161 217.619 354.446C217.788 354.219 215.924 356.256 213.212 353.993Z" fill="black"/>
<path d="M302.195 172.771C313.551 168.925 317.788 132.273 314.907 120.961L310.33 116.21C310.33 116.21 308.636 122.092 306.263 128.88C303.551 136.346 299.653 144.943 295.924 147.432C293.551 149.015 290.839 146.074 287.788 141.776C281.856 133.405 265.585 99.2418 254.737 106.255C231.347 121.414 285.415 178.427 302.195 172.771Z" fill="#1C1D52"/>
<path d="M295.923 152.863C304.568 150.6 306.093 129.333 306.093 128.655C303.381 136.121 299.483 144.718 295.754 147.207C293.381 148.79 290.669 145.849 287.618 141.551C275.076 116.664 261.347 106.03 261.347 106.03L265.754 129.786C265.923 129.786 285.923 155.578 295.923 152.863Z" fill="#58597D"/>
<path d="M277.449 194.265C277.449 194.265 255.246 209.197 210.839 198.563C210.839 198.563 210.839 94.2646 252.026 101.731C282.026 107.161 263.212 156.482 277.449 194.265Z" fill="#1C1D52"/>
<path d="M256.093 102.862C256.093 102.862 256.432 107.613 254.398 112.138C251.686 107.16 248.296 103.993 245.246 101.504C245.246 101.504 246.771 95.8482 245.415 89.2871L254.229 92.2283C254.059 92.2283 252.873 97.2057 256.093 102.862Z" fill="#E3966E"/>
<path d="M249.314 65.9846C244.737 66.8896 241.856 74.3556 242.703 82.7267C243.551 91.0977 247.958 97.4325 252.534 96.5276C257.11 95.6226 259.992 88.1565 259.144 79.7855C258.297 71.4145 253.89 65.0796 249.314 65.9846Z" fill="#F5B085"/>
<path d="M256.771 79.106C256.771 79.106 259.483 84.5358 260.161 87.477C260.33 87.9295 259.991 88.382 259.653 88.6082C258.636 88.8345 256.432 89.5132 255.415 89.2869C254.398 88.8345 256.771 79.106 256.771 79.106Z" fill="#F5B085"/>
<path d="M257.28 72.5453C257.28 72.5453 258.466 75.2602 258.636 76.6177C258.636 76.6177 255.754 77.5226 252.873 74.5815C248.636 70.2828 243.89 74.129 243.89 74.129L244.737 69.1516L256.771 66.8892L257.28 72.5453Z" fill="#EF4357"/>
<path d="M211.347 85.6675C212.025 86.3462 212.873 86.7987 213.551 87.4775C216.093 90.4186 215.415 92.9073 216.432 96.0748C217.11 98.111 218.127 99.9209 219.483 101.278C222.703 104.22 226.432 104.22 227.958 99.0159C228.805 96.5272 228.805 93.3598 228.636 90.8711C228.466 89.2874 227.788 87.4775 227.788 85.8938C227.788 82.7263 229.483 81.8214 231.517 80.4639C233.381 79.1064 235.246 77.9752 236.771 76.3915C236.602 79.7852 236.771 82.7263 237.28 84.0838C238.127 86.12 238.297 89.5137 241.517 89.9662C246.602 90.4186 242.873 80.2377 244.229 76.844C244.229 76.844 246.263 77.0702 247.11 74.1291C247.958 71.1879 251.008 71.6404 253.042 73.4503C255.076 75.2603 257.11 76.3915 259.653 74.8078C261.517 73.6766 256.093 62.5906 253.551 61.9119C246.941 60.1019 242.703 62.3644 240.5 64.853C238.636 60.3282 235.585 56.7083 231.347 57.6132C229.822 57.8395 228.466 58.7444 227.449 60.3282C225.924 62.8168 226.771 64.4005 223.212 65.3055C222.025 65.5318 220.5 65.0793 219.314 65.0793C212.534 65.758 204.229 77.2965 211.347 85.6675Z" fill="black"/>
<path d="M245.076 80.0115C245.076 80.0115 243.551 77.2966 242.025 79.1065C240.669 80.9165 242.195 87.4776 244.568 85.6676C247.11 83.8577 245.076 80.0115 245.076 80.0115Z" fill="#F5B085"/>
<path d="M210.839 198.563C210.839 198.563 210.839 158.066 219.653 133.858L240.331 111.007C240.331 111.007 254.229 124.129 225.585 161.459C219.822 168.925 252.534 186.799 252.534 186.799L210.839 198.563Z" fill="#58597D"/>
<path d="M252.365 61.4595C252.365 61.4595 261.856 62.3644 261.856 76.3916C261.856 76.3916 246.602 79.3328 242.873 76.3916L242.195 67.5681L252.365 61.4595Z" fill="black"/>
<path d="M255.076 64.1738C256.093 65.5312 257.449 66.6625 258.297 68.2462C259.144 69.8299 259.314 71.4136 259.483 73.2235C259.483 73.9023 258.636 74.3548 258.636 73.4498C258.466 71.6399 258.297 70.0561 257.28 68.4724C256.432 67.115 255.246 65.9837 254.229 64.8525C253.89 64.6263 254.568 63.7213 255.076 64.1738Z" fill="#58597D"/>
<path d="M256.093 69.1522C256.771 70.5097 257.11 71.8672 257.11 73.6771C257.11 74.5821 256.263 74.5821 256.093 73.6771C256.093 72.3197 255.754 70.9622 255.076 69.831C254.907 69.1522 255.754 68.4735 256.093 69.1522Z" fill="#58597D"/>
<path d="M236.093 75.9398C237.11 71.8674 238.466 68.0212 240.161 64.1751C240.839 62.8176 242.364 64.1751 241.856 65.5325C240.161 68.9262 238.975 72.7724 237.958 76.6185C237.449 78.2022 235.754 77.5235 236.093 75.9398Z" fill="#58597D"/>
<path d="M245.246 101.505C245.246 101.505 252.195 106.256 254.399 112.139L251.009 117.569C251.009 117.569 247.28 105.351 243.89 101.731C243.721 101.731 244.568 101.053 245.246 101.505Z" fill="#D2D3D6"/>
<path d="M256.093 102.862C256.093 102.862 255.754 109.875 254.398 112.138L257.958 117.568C257.958 117.568 258.636 108.065 256.771 103.088L256.093 102.862Z" fill="#D2D3D6"/>
<path d="M255.246 127.523C255.995 127.523 256.602 126.713 256.602 125.713C256.602 124.714 255.995 123.903 255.246 123.903C254.497 123.903 253.89 124.714 253.89 125.713C253.89 126.713 254.497 127.523 255.246 127.523Z" fill="#D2D3D6"/>
<path d="M256.093 140.418C256.842 140.418 257.449 139.608 257.449 138.608C257.449 137.609 256.842 136.798 256.093 136.798C255.344 136.798 254.737 137.609 254.737 138.608C254.737 139.608 255.344 140.418 256.093 140.418Z" fill="#D2D3D6"/>
<path d="M256.093 163.043C256.842 163.043 257.449 162.232 257.449 161.233C257.449 160.233 256.842 159.423 256.093 159.423C255.344 159.423 254.737 160.233 254.737 161.233C254.737 162.232 255.344 163.043 256.093 163.043Z" fill="#D2D3D6"/>
<path d="M256.093 151.053C256.842 151.053 257.449 150.242 257.449 149.243C257.449 148.243 256.842 147.433 256.093 147.433C255.344 147.433 254.737 148.243 254.737 149.243C254.737 150.242 255.344 151.053 256.093 151.053Z" fill="#D2D3D6"/>
<path d="M256.093 175.713C256.842 175.713 257.449 174.902 257.449 173.903C257.449 172.903 256.842 172.093 256.093 172.093C255.344 172.093 254.737 172.903 254.737 173.903C254.737 174.902 255.344 175.713 256.093 175.713Z" fill="#D2D3D6"/>
<path d="M309.822 115.08L308.975 118.248L316.941 125.035L317.28 120.736L309.822 115.08Z" fill="#D2D3D6"/>
<path d="M237.958 190.872C238.466 192.682 239.822 192.229 241.009 193.134C242.534 194.039 247.11 201.279 248.975 200.374C251.517 199.243 245.585 195.397 247.11 194.718C247.619 194.492 253.042 201.731 253.381 198.79C253.551 197.433 249.483 192.003 251.178 192.229C252.704 193.587 256.263 198.79 257.28 197.207C257.788 196.302 255.754 192.455 254.737 191.55C251.517 188.157 253.043 187.252 256.093 190.419C257.788 192.003 258.975 191.324 257.788 188.835C255.585 183.858 249.144 182.953 245.076 182.953C243.212 182.953 236.771 186.799 237.958 190.872Z" fill="#F5B085"/>
<path d="M241.687 184.989C241.009 186.121 242.026 187.478 242.873 186.799C244.059 186.573 245.076 186.121 245.924 184.989C246.432 184.311 246.771 183.632 247.28 182.953C248.127 182.048 249.144 181.822 249.992 181.596C250.67 181.369 251.178 180.464 250.67 179.559C248.466 175.94 243.212 182.727 241.687 184.989Z" fill="#F5B085"/>
<path d="M192.364 163.043C194.398 177.749 228.805 190.193 239.991 192.908L240.839 184.084C240.839 184.084 233.381 177.07 228.127 173.224C222.195 168.926 215.585 163.043 213.89 158.066C212.873 154.898 215.585 151.731 219.483 148.337C226.771 141.776 244.229 127.523 242.195 116.437C236.263 83.4053 189.313 141.098 192.364 163.043Z" fill="#1C1D52"/>
<path d="M240.33 181.596L237.788 192.908L240.839 196.302L243.381 182.953L240.33 181.596Z" fill="#D2D3D6"/>
<path d="M138.127 222.546C150.33 216.437 152.534 188.609 153.551 172.546L147.618 168.926C147.618 168.926 140.161 199.695 130.669 200.147C127.788 200.374 120.5 198.564 116.093 194.944C107.788 187.93 96.771 175.487 89.1439 183.179C66.6015 206.256 120.669 231.369 138.127 222.546Z" fill="#F5B085"/>
<path d="M129.314 215.759C137.619 213.949 139.822 196.754 139.653 196.075C129.483 204.899 121.009 198.112 116.093 195.17C112.195 192.229 108.297 188.609 108.297 188.609L90.3306 204.899C90.3306 204.673 118.297 218.021 129.314 215.759Z" fill="url(#paint0_linear_32_171)"/>
<path d="M82.3643 162.816C82.3643 162.816 77.9575 184.083 90.6694 200.147L94.9067 220.509C94.9067 220.509 112.534 194.491 112.703 182.047C112.534 182.273 101.517 168.699 82.3643 162.816Z" fill="#F15D6E"/>
<path d="M102.703 208.065L94.7372 220.735L82.1948 162.816C82.1948 162.816 87.9575 164.853 92.5338 166.889C98.127 177.296 103.381 187.703 102.703 208.065Z" fill="#E45465"/>
<path d="M114.059 181.369L111.178 179.106C111.178 179.106 99.1439 210.102 93.2117 217.568L97.11 218.925C97.11 218.925 112.703 200.6 114.059 181.369Z" fill="#DFE0E3"/>
<path d="M65.0761 378.428H57.449C57.2795 378.428 57.2795 378.201 57.2795 378.201V353.993H65.2456V378.201C65.2456 378.201 65.2456 378.428 65.0761 378.428Z" fill="#F26122"/>
<path d="M108.636 384.31C109.992 378.88 107.788 372.998 103.72 371.188L67.4493 355.125V326.392H55.4154V355.351L19.6527 371.188C15.5849 372.998 13.3815 378.88 14.7374 384.31L61.856 363.722L108.636 384.31Z" fill="#0B5ACE"/>
<path d="M68.2964 357.161H54.5676V317.568C54.5676 317.342 54.7371 317.116 54.9066 317.116H67.9575C68.1269 317.116 68.2964 317.342 68.2964 317.568V357.161Z" fill="#E3B324"/>
<path d="M25.9237 380.69C25.9237 375.034 22.5338 370.509 18.2966 370.509C14.0593 370.509 10.6694 375.034 10.6694 380.69C10.6694 386.346 14.0593 390.871 18.2966 390.871C22.5338 390.871 25.9237 386.346 25.9237 380.69Z" fill="black"/>
<path d="M24.2289 380.691C24.2289 376.166 21.517 372.772 18.2967 372.772C14.9069 372.772 12.3645 376.392 12.3645 380.691C12.3645 385.215 15.0764 388.609 18.2967 388.609C21.6865 388.609 24.2289 384.989 24.2289 380.691Z" fill="#0B5ACE"/>
<path d="M68.9745 380.69C68.9745 375.034 65.5846 370.509 61.3473 370.509C57.11 370.509 53.7202 375.034 53.7202 380.69C53.7202 386.346 57.11 390.871 61.3473 390.871C65.5846 390.871 68.9745 386.346 68.9745 380.69Z" fill="black"/>
<path d="M61.3472 388.609C64.6235 388.609 67.2794 385.064 67.2794 380.691C67.2794 376.317 64.6235 372.772 61.3472 372.772C58.071 372.772 55.415 376.317 55.415 380.691C55.415 385.064 58.071 388.609 61.3472 388.609Z" fill="#0B5ACE"/>
<path d="M105.585 390.871C109.797 390.871 113.212 386.313 113.212 380.69C113.212 375.067 109.797 370.509 105.585 370.509C101.372 370.509 97.9575 375.067 97.9575 380.69C97.9575 386.313 101.372 390.871 105.585 390.871Z" fill="black"/>
<path d="M105.585 388.609C108.861 388.609 111.517 385.064 111.517 380.691C111.517 376.317 108.861 372.772 105.585 372.772C102.309 372.772 99.6526 376.317 99.6526 380.691C99.6526 385.064 102.309 388.609 105.585 388.609Z" fill="#0B5ACE"/>
<path d="M110.331 303.315C110.331 307.84 107.619 311.46 104.229 311.46H53.3814C53.3814 311.46 52.0255 310.781 49.6526 309.876C40.5 306.03 17.1102 295.849 15.5848 292.455C13.7204 288.383 8.97461 230.917 8.97461 230.917H59.8221C63.2119 230.464 66.0933 233.858 66.4322 238.383L67.6187 274.356C68.2966 285.894 75.7543 295.17 84.3983 295.17H104.229C107.449 295.17 110.331 298.79 110.331 303.315Z" fill="#0B5ACE"/>
<path d="M72.0255 321.64H52.0255C49.1441 321.64 46.7712 315.984 46.7712 308.971H77.4492C77.2797 316.211 74.9068 321.64 72.0255 321.64Z" fill="#0B5ACE"/>
<path d="M110.331 303.314C110.331 307.839 107.619 311.459 104.229 311.459H49.6526V295.169H104.059C107.449 295.169 110.331 298.789 110.331 303.314Z" fill="#0B5ACE"/>
<path d="M53.3814 311.46H33.5509C18.4662 311.46 5.75429 295.849 4.56785 275.713L3.38141 239.741C3.04243 235.216 5.5848 231.369 8.97463 230.917C12.3645 230.464 15.2458 233.858 15.5848 238.383L16.7712 274.356C17.4492 285.894 24.9068 295.17 33.5509 295.17H53.3814C56.7712 295.17 59.4831 298.79 59.4831 303.315C59.4831 307.84 56.7712 311.46 53.3814 311.46Z" fill="#0B5ACE"/>
<path d="M141.009 375.939C141.009 375.939 156.771 383.632 157.11 395.849L138.975 387.025L137.449 383.632L135.416 385.442L131.178 383.405C131.178 383.405 131.178 374.808 136.432 374.129C136.432 374.129 137.788 377.071 141.009 375.939Z" fill="black"/>
<path d="M86.9407 241.55C86.9407 241.55 124.229 249.921 137.449 267.795C153.381 289.288 155.076 360.781 155.076 360.781L126.432 364.627C126.432 364.627 130.669 309.876 121.347 297.433C112.025 284.763 84.7373 295.849 70.161 286.12C41.5169 266.663 86.9407 241.55 86.9407 241.55Z" fill="#F15D6E"/>
<path d="M127.449 345.623C127.449 345.623 128.127 298.79 117.788 293.134C109.144 288.383 70.6694 261.46 70.6694 261.46L77.1101 250.6C77.1101 250.6 119.652 256.03 129.483 274.582C143.72 301.731 127.449 345.623 127.449 345.623Z" fill="#E45465"/>
<path d="M51.8561 241.55C51.8561 241.55 101.348 251.053 114.568 268.926C130.5 290.419 120.161 367.342 120.161 367.342L92.5341 359.424C92.5341 359.424 101.517 311.46 96.4324 302.184C88.6358 287.93 59.8222 300.6 45.246 290.872C16.6019 271.415 51.8561 241.55 51.8561 241.55Z" fill="#F15D6E"/>
<path d="M103.042 246.528C103.042 246.528 80.5001 275.034 33.7205 266.663C33.7205 266.663 33.7205 152.636 77.2798 160.555C109.314 166.437 86.0933 207.387 103.042 246.528Z" fill="#F15D6E"/>
<path d="M34.0593 263.269C34.0593 263.269 34.9068 214.174 45.9237 186.12L66.2627 197.206C66.2627 197.206 63.7203 211.233 50.161 233.405C44.7373 242.229 49.3136 266.437 49.3136 266.437L34.0593 263.269Z" fill="#E45465"/>
<path d="M81.6866 161.912C81.6866 161.912 82.0255 166.889 79.8222 171.641C76.9408 166.211 73.212 163.043 70.1611 160.555C70.1611 160.555 71.8561 154.446 70.3306 147.659L79.3137 149.242C79.4832 149.016 78.4662 155.803 81.6866 161.912Z" fill="#E3966E"/>
<path d="M74.9066 123.45C70.1608 125.034 67.6184 133.405 69.1438 142.229C70.6693 151.052 75.754 156.935 80.4998 155.577C85.2455 153.993 87.7879 145.622 86.2625 136.799C84.5676 127.975 79.4828 122.093 74.9066 123.45Z" fill="#F5B085"/>
<path d="M83.7203 136.347C83.7203 136.347 86.9406 141.55 87.9576 144.718C88.1271 145.17 87.9576 145.623 87.6186 145.849C86.4321 146.301 84.2288 147.206 83.2118 147.206C82.0254 146.98 83.7203 136.347 83.7203 136.347Z" fill="#F5B085"/>
<path d="M83.7204 129.332C83.7204 129.332 85.2458 132.047 85.4153 133.405C85.4153 133.405 82.3645 134.762 79.1441 132.047C74.3984 127.975 69.6526 132.726 69.6526 132.726L70.1611 127.296L82.7034 123.224L83.7204 129.332Z" fill="#E3966E"/>
<path d="M53.5511 142.455C56.6019 143.36 59.9917 142.003 62.0256 139.062C62.7036 145.623 65.585 150.374 68.4663 150.148C73.89 149.921 68.9748 139.514 70.3307 135.894C70.3307 135.894 72.5341 135.894 73.2121 132.727C73.89 129.559 77.1104 129.559 79.4833 131.143C81.8561 132.727 84.0595 133.632 86.6019 131.596C88.6358 130.012 90.8392 124.582 87.1104 121.188C83.7206 118.021 81.8561 122.32 80.5002 120.283C78.9748 118.021 75.4155 116.211 73.7206 118.926C72.5341 120.736 70.3307 120.736 68.2968 120.736C68.4663 115.985 66.4324 111.46 62.3646 110.781C56.4324 109.876 52.5341 117.116 51.1782 123.903C49.8223 129.333 47.7883 140.419 53.5511 142.455Z" fill="black"/>
<path d="M71.5172 138.835C71.5172 138.835 69.6528 136.346 68.2968 138.382C66.9409 140.419 69.1443 146.98 71.5172 144.944C73.8901 142.681 71.5172 138.835 71.5172 138.835Z" fill="#F5B085"/>
<path d="M62.3644 165.985C62.3644 165.985 78.6356 172.546 78.9745 199.695C79.3135 226.845 92.7034 227.297 92.7034 227.297L77.9576 234.763L60.8389 225.035L58.4661 191.777L62.3644 165.985Z" fill="#E45465"/>
<path d="M53.5506 250.599C63.0421 260.328 89.8218 237.703 100.161 229.558L104.229 220.282C104.229 220.282 71.8557 228.88 67.9574 226.391C65.415 224.807 65.9235 219.83 67.2794 213.495C69.6523 201.504 74.9065 184.536 67.4489 177.522C45.415 156.934 39.6523 236.12 53.5506 250.599Z" fill="#F5B085"/>
<path d="M64.0591 230.237C70.6693 238.156 86.7709 225.486 87.2794 225.034C80.3303 227.07 71.8557 228.653 68.1269 226.391C65.5845 224.807 66.093 219.83 67.4489 213.495C68.2964 207.839 69.6523 202.183 69.6523 202.183L62.1947 193.359C62.0252 193.359 56.2625 220.961 64.0591 230.237Z" fill="#E3966E"/>
<path d="M57.6187 164.401C62.8729 163.043 77.2797 178.654 74.5678 206.03C74.5678 206.03 54.0593 213.043 44.9068 207.613C44.9068 207.613 41.8559 168.473 57.6187 164.401Z" fill="#F15D6E"/>
<path d="M120.161 367.342C115.754 368.021 112.025 368.021 108.635 367.568C105.584 367.116 102.873 366.211 100.839 365.306C95.2455 362.817 92.7031 359.423 92.7031 359.423C95.5845 358.292 98.2963 358.066 101.008 358.066C104.398 358.292 107.788 359.423 110.5 360.781C116.262 363.722 120.161 367.342 120.161 367.342Z" fill="black"/>
<path d="M155.246 360.78C155.246 360.78 150.839 365.984 143.381 367.568C141.347 368.02 139.144 368.246 136.771 368.02C133.72 367.794 130.161 366.663 126.602 364.627C126.602 364.627 131.008 361.685 137.449 359.875C140.161 359.197 143.381 358.744 146.771 358.744C149.483 358.97 152.364 359.649 155.246 360.78Z" fill="black"/>
<path d="M110.5 360.781L108.635 367.342L104.229 382.953L100.33 382.048L100.839 365.079L101.008 358.066C104.398 358.518 107.788 359.65 110.5 360.781Z" fill="#F5B085"/>
<path d="M105.076 381.822C105.076 381.822 121.687 385.441 123.551 397.432L104.568 393.36L102.534 390.419L100.839 392.681L96.2629 391.776C96.2629 391.776 95.0765 383.405 100.161 381.369C100.331 381.143 101.856 383.858 105.076 381.822Z" fill="black"/>
<path d="M146.602 358.744L143.382 367.568L139.992 376.844L136.263 375.034L136.771 367.794L137.28 359.649C140.161 359.197 143.212 358.744 146.602 358.744Z" fill="#F5B085"/>
<path d="M97.4491 227.297C97.7881 229.107 99.144 228.654 100.161 229.559C101.517 230.464 105.585 237.478 107.28 236.799C109.653 235.894 104.398 232.048 105.754 231.369C106.263 231.143 111.008 238.383 111.347 235.442C111.517 234.084 107.958 228.881 109.483 229.333C110.839 230.691 113.89 235.894 114.907 234.31C115.415 233.632 113.551 229.786 112.703 228.881C109.822 225.487 111.178 224.808 114.059 227.749C115.585 229.333 116.771 228.654 115.754 226.392C113.72 221.641 107.958 220.283 104.059 220.057C102.703 220.057 96.4322 223.225 97.4491 227.297Z" fill="#F5B085"/>
<path d="M57.11 394.943H65.2456C65.4151 394.943 65.4151 394.717 65.4151 394.717V238.835H56.771V394.717C56.9405 394.943 56.9405 394.943 57.11 394.943Z" fill="#DFE0E3"/>
<path d="M147.958 231.369H102.873V235.442H147.958V231.369Z" fill="#A1A0CF"/>
<path d="M106.771 229.559H104.229V232.047H106.771V229.559Z" fill="#A1A0CF"/>
<path d="M110.67 229.559H108.127V232.047H110.67V229.559Z" fill="#A1A0CF"/>
<path d="M114.398 229.559H111.856V232.047H114.398V229.559Z" fill="#A1A0CF"/>
<path d="M118.127 229.559H115.584V232.047H118.127V229.559Z" fill="#A1A0CF"/>
<path d="M122.025 229.559H119.483V232.047H122.025V229.559Z" fill="#A1A0CF"/>
<path d="M125.754 229.559H123.212V232.047H125.754V229.559Z" fill="#A1A0CF"/>
<path d="M129.483 229.559H126.941V232.047H129.483V229.559Z" fill="#A1A0CF"/>
<path d="M133.381 229.559H130.839V232.047H133.381V229.559Z" fill="#A1A0CF"/>
<path d="M137.11 229.559H134.568V232.047H137.11V229.559Z" fill="#A1A0CF"/>
<path d="M140.839 229.559H138.297V232.047H140.839V229.559Z" fill="#A1A0CF"/>
<path d="M144.737 229.559H142.195V232.047H144.737V229.559Z" fill="#A3AED9"/>
<path d="M92.1947 394.943H100.33C100.5 394.943 100.5 394.717 100.5 394.717V238.835H91.8557V394.717C91.8557 394.943 92.0252 394.943 92.1947 394.943Z" fill="#DFE0E3"/>
<path d="M203.381 393.586H211.517C211.687 393.586 211.687 393.359 211.687 393.359V237.477H203.042V393.359C203.212 393.359 203.212 393.586 203.381 393.586Z" fill="#D2D3D6"/>
<path d="M238.466 394.943H246.602C246.771 394.943 246.771 394.717 246.771 394.717V238.835H238.127V394.717C238.296 394.943 238.296 394.943 238.466 394.943Z" fill="#DFE0E3"/>
<path d="M200.331 215.079H115.585C115.415 215.079 115.415 214.853 115.415 214.853V147.885C115.415 147.659 115.585 147.659 115.585 147.659H200.331C200.5 147.659 200.5 147.885 200.5 147.885V214.853C200.5 214.853 200.5 215.079 200.331 215.079Z" fill="#B3B2D9"/>
<path d="M106.981 245.69L256.473 245.69V235.509L106.981 235.509V245.69Z" fill="#D2D3D6"/>
<path d="M40.5408 245.69H106.812V235.509H40.5408V245.69Z" fill="#DFE0E3"/>
<path d="M163.212 227.975H152.025V183.179C152.025 179.107 154.568 175.713 157.618 175.713C160.669 175.713 163.212 179.107 163.212 183.179V227.975Z" fill="#A1A0CF"/>
<path d="M175.076 235.442H140.161V226.166C140.161 225.713 140.5 225.487 140.669 225.487H174.398C174.737 225.487 174.907 225.939 174.907 226.166V235.442H175.076Z" fill="#B3B2D9"/>
<path d="M60.6693 137.93C63.3812 132.048 65.754 125.94 67.6184 119.378C68.1269 117.795 69.9913 118.473 69.4829 120.057C67.449 126.618 65.0761 133.179 62.3642 139.288C61.6862 140.872 59.9913 139.514 60.6693 137.93Z" fill="#F15D6E"/>
<path d="M70.3303 160.329C70.3303 160.329 79.3134 165.985 79.9913 171.415C79.9913 171.415 77.788 173.451 77.449 175.713C77.2795 175.939 74.0591 164.401 70.3303 160.329Z" fill="#DFE0E3"/>
<path d="M81.6864 161.912C81.6864 161.912 81.178 168.246 79.822 171.64C79.822 171.64 83.2119 172.771 83.0424 174.129C83.2119 174.129 84.9068 169.378 81.6864 161.912Z" fill="#DFE0E3"/>
<path d="M76.0933 206.482C76.0933 206.482 59.6526 215.758 43.0424 207.613L42.5339 204.219C42.5339 204.219 67.2797 209.197 76.9407 201.504L76.0933 206.482Z" fill="#DFE0E3"/>
<path d="M486.602 400.374C488.127 399.695 489.144 397.659 488.805 395.397L476.263 314.401L465.924 318.474L482.873 397.659C483.381 399.922 485.076 401.053 486.602 400.374Z" fill="#0B5ACE"/>
<path d="M466.94 398.112C468.635 397.659 469.652 395.623 469.483 393.587L463.042 311.008L452.534 313.496L463.381 394.944C463.72 397.207 465.415 398.564 466.94 398.112Z" fill="#0B5ACE"/>
<path d="M398.636 400.374C397.11 399.695 396.093 397.659 396.432 395.397L411.517 314.401L421.856 318.474L402.534 397.659C402.025 399.922 400.331 401.053 398.636 400.374Z" fill="#0B5ACE"/>
<path d="M418.297 398.112C416.602 397.659 415.585 395.623 415.754 393.587L424.568 311.008L435.076 313.496L421.856 394.944C421.517 397.207 419.992 398.564 418.297 398.112Z" fill="#0B5ACE"/>
<path d="M397.788 306.257C397.449 314.854 401.347 323.677 406.602 329.56C424.907 350.374 471.008 345.171 485.246 319.831C506.432 282.275 486.602 222.546 466.941 220.51C458.297 219.605 453.212 224.356 448.636 230.917C439.653 243.587 433.212 266.211 407.11 288.157C400.669 293.361 397.958 299.922 397.788 306.257Z" fill="#0B5ACE"/>
<path d="M397.788 306.256C416.093 317.342 444.06 310.781 455.415 300.6C466.771 290.419 474.229 259.424 470.839 244.718C467.449 230.012 448.805 230.917 448.805 230.917C439.822 243.587 433.382 266.211 407.28 288.157C400.67 293.361 397.958 299.922 397.788 306.256Z" fill="#0B5ACE"/>
<path d="M345.585 364.854L341.686 374.356L338.127 372.773L339.313 361.008L345.585 364.854Z" fill="#F5B085"/>
<path d="M337.958 371.188C337.958 371.188 322.873 364.401 317.449 373.225L342.025 384.311C342.025 384.311 345.924 377.976 342.364 373.451C342.195 373.451 339.992 374.582 337.958 371.188Z" fill="black"/>
<path d="M381.009 372.545L379.483 383.179L374.907 383.405L374.06 371.414L381.009 372.545Z" fill="#F5B085"/>
<path d="M410.5 253.994C410.5 253.994 375.246 261.912 362.873 278.654C347.958 299.016 337.449 362.138 337.449 362.138L345.585 367.568C345.585 367.568 369.314 318.473 377.958 306.482C386.771 294.718 412.534 305.125 426.093 295.849C453.381 277.523 410.5 253.994 410.5 253.994Z" fill="black"/>
<path d="M353.551 351.053C353.551 351.053 373.721 308.067 381.517 302.637C389.314 297.207 425.924 272.773 425.924 272.773L419.822 262.592C419.822 262.592 379.822 267.795 370.5 285.216C357.11 310.782 353.551 351.053 353.551 351.053Z" fill="url(#paint1_linear_32_171)"/>
<path d="M450.669 253.994C450.669 253.994 397.11 263.043 384.568 279.785C369.653 300.147 373.381 374.356 373.381 374.356L381.517 375.713C381.517 375.713 392.873 322.998 401.517 311.233C410.331 299.469 431.686 310.781 445.924 303.541C469.653 291.324 450.669 253.994 450.669 253.994Z" fill="black"/>
<path d="M375.076 381.822C375.076 381.822 359.144 381.822 356.093 392.681H382.025C382.025 392.681 384.059 384.989 379.653 382.274C379.653 382.048 377.788 384.084 375.076 381.822Z" fill="black"/>
<path d="M373.042 377.297C374.737 376.618 375.585 380.012 375.754 381.596C375.924 382.953 374.398 383.632 374.059 382.501C374.059 382.501 373.89 382.501 373.89 382.274C373.212 381.369 370.839 378.202 373.042 377.297Z" fill="#1F7D64"/>
<path d="M334.398 367.569C335.754 365.532 337.449 368.926 338.296 370.284C339.144 370.736 338.805 372.32 337.957 372.546C337.619 372.772 337.28 372.772 336.941 372.32C335.754 371.867 332.873 369.605 334.398 367.569Z" fill="#1F7D64"/>
<path d="M389.144 235.895C379.992 239.062 366.602 238.836 352.365 235.895V228.429C352.365 228.429 378.466 219.379 387.28 213.949C389.822 212.366 394.907 204.221 397.958 199.243C404.059 189.967 414.568 172.547 423.042 176.845C448.127 189.515 406.263 230.013 389.144 235.895Z" fill="#3CBB99"/>
<path d="M391.856 234.31C391.856 234.31 394.229 213.043 401.517 194.039C401.517 194.039 408.975 181.143 416.771 177.297C416.771 177.297 408.636 220.283 400.331 229.786C397.958 232.274 391.856 234.31 391.856 234.31Z" fill="#1F7D64"/>
<path d="M391.348 260.102C391.348 260.102 413.89 282.274 459.822 272.998C459.822 272.998 465.924 171.867 426.093 172.546C401.687 173.225 396.602 233.179 391.348 260.102Z" fill="#3CBB99"/>
<path d="M459.822 273.225C459.822 273.225 460.5 265.08 459.822 245.623C459.822 245.623 443.89 245.849 444.059 257.388C444.229 270.057 438.805 275.94 438.805 275.94L459.822 273.225Z" fill="#1F7D64"/>
<path d="M437.788 175.94C437.788 175.94 442.873 230.012 455.754 242.456L418.297 233.632C418.297 233.632 441.517 234.763 435.246 217.116C429.653 201.732 434.907 174.13 434.907 174.13L437.788 175.94Z" fill="#1F7D64"/>
<path d="M420.839 173.451C420.839 173.451 423.551 180.238 432.195 173.677C432.195 173.677 430.5 167.568 432.025 161.233L423.212 163.722C423.381 163.496 424.059 168.021 420.839 173.451Z" fill="#E3966E"/>
<path d="M428.636 137.478C433.212 138.383 435.924 146.075 434.907 154.447C433.89 162.818 429.314 168.926 424.907 168.021C420.331 167.116 417.619 159.424 418.636 151.053C419.653 142.456 424.06 136.347 428.636 137.478Z" fill="#F5B085"/>
<path d="M420.839 150.374C420.839 150.374 418.127 155.578 417.28 158.519C417.11 158.971 417.28 159.424 417.788 159.65C418.805 159.876 421.009 160.555 422.026 160.555C423.043 160.103 420.839 150.374 420.839 150.374Z" fill="#F5B085"/>
<path d="M415.754 134.537C418.635 131.37 430.839 130.012 435.924 134.763C436.093 133.858 435.924 132.727 435.924 131.822C435.754 130.238 437.619 130.238 437.788 131.822C437.958 133.18 437.958 134.537 437.619 135.894C438.635 136.347 439.483 137.026 440.33 137.704C441.347 138.609 440.33 140.872 439.313 139.967C438.974 139.741 438.636 139.288 438.127 139.062C439.822 143.587 440.839 150.827 439.991 155.804C439.652 158.066 438.974 161.686 435.754 161.686C430.669 161.913 434.737 151.732 433.212 148.338C433.212 148.338 431.178 148.564 430.33 145.623C429.483 142.682 426.432 143.134 424.398 144.718C422.364 146.302 420.161 147.433 417.619 145.849C415.924 144.492 412.364 138.383 415.754 134.537Z" fill="black"/>
<path d="M432.534 151.505C432.534 151.505 434.059 149.016 435.585 150.826C436.941 152.636 435.246 159.197 432.873 157.161C430.5 155.125 432.534 151.505 432.534 151.505Z" fill="#F5B085"/>
<path d="M437.788 175.939C468.297 177.749 469.314 241.324 464.229 250.826C453.551 270.736 428.127 254.672 407.11 240.645V230.464C407.11 230.464 443.551 239.062 445.924 231.822C450.5 218.7 427.449 192.908 437.788 175.939Z" fill="#3CBB99"/>
<path d="M401.686 239.741C401.856 239.515 402.025 239.515 402.364 239.288C401.856 240.193 402.703 241.777 403.551 241.098C404.059 240.646 404.568 240.42 405.076 240.193C404.907 241.098 405.415 242.229 406.093 241.777C407.619 241.098 409.314 240.872 410.839 240.872C412.534 242.229 414.907 242.908 416.432 241.777C417.958 240.646 418.636 237.026 417.619 235.216C416.263 232.501 413.72 232.501 411.517 232.727C411.008 232.727 410.669 232.727 410.161 232.953C406.941 233.18 404.059 232.953 401.347 235.668C400.839 236.121 400.839 236.8 401.008 237.252C400.839 237.252 400.669 237.478 400.5 237.478C399.653 238.383 400.5 240.646 401.686 239.741Z" fill="#F5B085"/>
<path d="M436.093 400.6H428.466C428.297 400.6 428.297 400.374 428.297 400.374V240.872H436.432V400.374C436.263 400.374 436.263 400.6 436.093 400.6Z" fill="#DFE0E3"/>
<path d="M393.042 233.858H350.5V237.704H393.042V233.858Z" fill="#B3B2D9"/>
<path d="M389.114 234.356H391.656V232.094H389.114V234.356Z" fill="#B3B2D9"/>
<path d="M385.544 234.356H388.086V232.094H385.544V234.356Z" fill="#B3B2D9"/>
<path d="M381.975 234.356H384.517V232.094H381.975V234.356Z" fill="#B3B2D9"/>
<path d="M381.008 232.049H378.466V234.311H381.008V232.049Z" fill="#B3B2D9"/>
<path d="M377.28 232.049H374.907V234.311H377.28V232.049Z" fill="#B3B2D9"/>
<path d="M373.721 232.049H371.348V234.311H373.721V232.049Z" fill="#B3B2D9"/>
<path d="M370.161 232.049H367.788V234.311H370.161V232.049Z" fill="#B3B2D9"/>
<path d="M366.602 232.049H364.229V234.311H366.602V232.049Z" fill="#B3B2D9"/>
<path d="M363.042 232.049H360.669V234.311H363.042V232.049Z" fill="#B3B2D9"/>
<path d="M359.653 232.049H357.11V234.311H359.653V232.049Z" fill="#B3B2D9"/>
<path d="M356.093 232.049H353.551V234.311H356.093V232.049Z" fill="#A3AED9"/>
<path d="M403.043 400.6H395.416C395.246 400.6 395.246 400.374 395.246 400.374V240.872H403.382V400.374C403.212 400.374 403.212 400.6 403.043 400.6Z" fill="#DFE0E3"/>
<path d="M317.11 400.6H309.483C309.313 400.6 309.313 400.374 309.313 400.374V240.872H317.449V400.374C317.28 400.374 317.11 400.6 317.11 400.6Z" fill="#DFE0E3"/>
<path d="M284.059 400.6H276.432C276.263 400.6 276.263 400.374 276.263 400.374V240.872H284.398V400.374C284.229 400.374 284.229 400.6 284.059 400.6Z" fill="#DFE0E3"/>
<path d="M301.178 218.474H381.009C381.178 218.474 381.178 218.248 381.178 218.248V155.352C381.178 155.126 381.009 155.125 381.009 155.125H301.178C301.009 155.125 301.009 155.352 301.009 155.352V218.248C301.009 218.248 301.009 218.474 301.178 218.474Z" fill="#B3B2D9"/>
<path d="M389.144 237.705H267.11V247.207H389.144V237.705Z" fill="#D2D3D6"/>
<path d="M451.517 237.705H389.144V247.207H451.517V237.705Z" fill="#D2D3D6"/>
<path d="M336.093 230.69H346.771V188.383C346.771 184.537 344.398 181.369 341.517 181.369C338.636 181.369 336.263 184.537 336.263 188.383V230.69H336.093Z" fill="#8A8CC4"/>
<path d="M324.907 237.704H357.788V228.881C357.788 228.428 357.449 228.202 357.28 228.202H325.585C325.246 228.202 325.076 228.655 325.076 228.881V237.704H324.907Z" fill="#A1A0CF"/>
<path d="M421.009 173.224C421.009 173.224 423.043 176.165 424.398 176.165L419.314 179.333L419.653 173.45C419.653 173.677 420.5 173.224 421.009 173.224Z" fill="#D2D3D6"/>
<path d="M424.568 176.165C424.568 176.165 428.635 176.392 432.534 173.224L433.551 173.45C433.551 173.45 428.805 179.785 425.415 181.595L424.568 176.165Z" fill="#D2D3D6"/>
<path d="M58.2966 69.8311H4.5678C2.36441 69.8311 0.5 72.3197 0.5 75.2609V93.1342C0.5 96.0754 2.36441 98.5641 4.5678 98.5641H47.9576L53.7203 108.971L51.5169 98.5641H58.2966C60.5 98.5641 62.3644 96.0754 62.3644 93.1342V75.2609C62.3644 72.0935 60.5 69.8311 58.2966 69.8311ZM52.7034 91.5505H10.3305C9.82203 91.5505 9.31356 90.8718 9.31356 90.193C9.31356 89.5143 9.82203 88.8356 10.3305 88.8356H52.7034C53.2119 88.8356 53.7203 89.5143 53.7203 90.193C53.7203 91.098 53.2119 91.5505 52.7034 91.5505ZM52.7034 79.1071H10.3305C9.82203 79.1071 9.31356 78.4283 9.31356 77.7496C9.31356 77.0709 9.82203 76.3921 10.3305 76.3921H52.7034C53.2119 76.3921 53.7203 77.0709 53.7203 77.7496C53.7203 78.4283 53.2119 79.1071 52.7034 79.1071Z" fill="#D2D3D6"/>
<path d="M53.7203 90.1929C53.7203 90.8716 53.2118 91.5504 52.7033 91.5504H10.3304C9.82195 91.5504 9.31348 90.8716 9.31348 90.1929C9.31348 89.5142 9.82195 88.8354 10.3304 88.8354H52.7033C53.2118 88.8354 53.7203 89.5142 53.7203 90.1929Z" fill="#DFE0E3"/>
<path d="M9.14429 77.7496C9.14429 77.0708 9.65276 76.3921 10.1612 76.3921H52.5341C53.0426 76.3921 53.5511 77.0708 53.5511 77.7496C53.5511 78.4283 53.0426 79.107 52.5341 79.107H10.1612C9.65276 79.107 9.14429 78.4283 9.14429 77.7496Z" fill="#DFE0E3"/>
<path d="M53.7203 77.7496C53.7203 78.4283 53.2118 79.107 52.7033 79.107H10.3304C9.82195 79.107 9.31348 78.4283 9.31348 77.7496C9.31348 77.0708 9.82195 76.3921 10.3304 76.3921H52.7033C53.2118 76.3921 53.7203 77.0708 53.7203 77.7496Z" fill="#F7F9FD"/>
<path d="M53.7203 90.1929C53.7203 90.8716 53.2118 91.5504 52.7033 91.5504H10.3304C9.82195 91.5504 9.31348 90.8716 9.31348 90.1929C9.31348 89.5142 9.82195 88.8354 10.3304 88.8354H52.7033C53.2118 88.8354 53.7203 89.5142 53.7203 90.1929Z" fill="#F7F9FD"/>
<path d="M438.635 97.8854V115.759C438.635 118.7 440.5 121.189 442.703 121.189H449.483L447.28 131.596L453.042 121.189H496.432C498.636 121.189 500.5 118.7 500.5 115.759V97.8854C500.5 94.9443 498.636 92.4556 496.432 92.4556H442.534C440.5 92.6818 438.635 94.9443 438.635 97.8854ZM447.28 113.044C447.28 112.365 447.788 111.686 448.297 111.686H490.669C491.178 111.686 491.686 112.365 491.686 113.044C491.686 113.723 491.178 114.401 490.669 114.401H448.297C447.788 114.401 447.28 113.949 447.28 113.044ZM447.28 100.6C447.28 99.9216 447.788 99.2429 448.297 99.2429H490.669C491.178 99.2429 491.686 99.9216 491.686 100.6C491.686 101.279 491.178 101.958 490.669 101.958H448.297C447.788 101.958 447.28 101.279 447.28 100.6Z" fill="#D2D3D6"/>
<path d="M447.28 113.044C447.28 113.722 447.788 114.401 448.297 114.401H490.67C491.178 114.401 491.687 113.722 491.687 113.044C491.687 112.365 491.178 111.686 490.67 111.686H448.297C447.788 111.686 447.28 112.365 447.28 113.044Z" fill="#DFE0E3"/>
<path d="M491.856 100.6C491.856 99.9214 491.347 99.2427 490.839 99.2427H448.466C447.957 99.2427 447.449 99.9214 447.449 100.6C447.449 101.279 447.957 101.958 448.466 101.958H490.839C491.347 101.958 491.856 101.279 491.856 100.6Z" fill="#DFE0E3"/>
<path d="M447.28 100.6C447.28 101.279 447.788 101.958 448.297 101.958H490.67C491.178 101.958 491.687 101.279 491.687 100.6C491.687 99.9214 491.178 99.2427 490.67 99.2427H448.297C447.788 99.2427 447.28 99.9214 447.28 100.6Z" fill="#F7F9FD"/>
<path d="M447.28 113.044C447.28 113.722 447.788 114.401 448.297 114.401H490.67C491.178 114.401 491.687 113.722 491.687 113.044C491.687 112.365 491.178 111.686 490.67 111.686H448.297C447.788 111.686 447.28 112.365 447.28 113.044Z" fill="#F7F9FD"/>
<path d="M304.398 0.600098H263.381C255.754 0.600098 249.483 8.97114 249.483 19.1521V22.772C249.483 32.953 255.754 41.3241 263.381 41.3241H268.296C267.11 47.4327 263.551 53.7675 258.635 59.8761L275.924 41.3241H304.568C312.195 41.3241 318.466 32.953 318.466 22.772V19.1521C318.296 8.97114 312.025 0.600098 304.398 0.600098ZM304.568 27.7494C304.568 29.1069 303.72 30.4643 302.534 30.4643H265.076C264.059 30.4643 263.042 29.3331 263.042 27.7494C263.042 26.3919 263.89 25.0345 265.076 25.0345H302.534C303.72 25.0345 304.568 26.3919 304.568 27.7494ZM304.568 13.9485C304.568 15.306 303.72 16.6634 302.534 16.6634H265.076C264.059 16.6634 263.042 15.5322 263.042 13.9485C263.042 12.591 263.89 11.2336 265.076 11.2336H302.534C303.72 11.4598 304.568 12.591 304.568 13.9485Z" fill="#D2D3D6"/>
<path d="M304.568 13.9488C304.568 15.3063 303.72 16.6637 302.534 16.6637H265.076C264.059 16.6637 263.042 15.5325 263.042 13.9488C263.042 12.5913 263.89 11.2339 265.076 11.2339H302.534C303.72 11.4601 304.568 12.5913 304.568 13.9488Z" fill="#D2D3D6"/>
<path d="M304.568 27.7491C304.568 29.1066 303.72 30.464 302.534 30.464H265.076C264.059 30.464 263.042 29.3328 263.042 27.7491C263.042 26.3916 263.89 25.0342 265.076 25.0342H302.534C303.72 25.0342 304.568 26.3916 304.568 27.7491Z" fill="#D2D3D6"/>
<path d="M304.568 13.9488C304.568 15.3063 303.72 16.6637 302.534 16.6637H265.076C264.059 16.6637 263.042 15.5325 263.042 13.9488C263.042 12.5913 263.89 11.2339 265.076 11.2339H302.534C303.72 11.4601 304.568 12.5913 304.568 13.9488Z" fill="#F7F9FD"/>
<path d="M304.568 27.7491C304.568 29.1066 303.72 30.464 302.534 30.464H265.076C264.059 30.464 263.042 29.3328 263.042 27.7491C263.042 26.3916 263.89 25.0342 265.076 25.0342H302.534C303.72 25.0342 304.568 26.3916 304.568 27.7491Z" fill="#F7F9FD"/>
<defs>
<linearGradient id="paint0_linear_32_171" x1="106.021" y1="206.559" x2="130.927" y2="201.675" gradientUnits="userSpaceOnUse">
<stop stop-color="#F05665"/>
<stop offset="1" stop-color="#F05665" stop-opacity="0"/>
</linearGradient>
<linearGradient id="paint1_linear_32_171" x1="368.985" y1="292.931" x2="381.897" y2="298.63" gradientUnits="userSpaceOnUse">
<stop stop-color="#0C0A12" stop-opacity="0"/>
<stop offset="1" stop-color="#0C0A12"/>
</linearGradient>
</defs>
</svg>
