<svg width="501" height="401" viewBox="0 0 501 401" fill="none" xmlns="http://www.w3.org/2000/svg">
<path d="M437.298 218.634C444.826 203.836 449.167 186.438 449.167 167.818C449.167 129.893 431.166 97.0284 404.883 80.9116C397.098 56.2868 377.298 38.7868 354.099 38.7868C345.172 38.7868 336.749 41.378 329.319 45.9682C321.803 42.577 313.664 40.7178 305.164 40.7178C298.714 40.7178 292.472 41.7885 286.552 43.785C273.945 26.6621 255.537 15.8647 235.029 15.8647C220.169 15.8647 206.41 21.5316 195.163 31.1665C184.726 25.2749 173.077 21.9764 160.787 21.9764C116.036 21.9764 79.7576 65.622 79.7576 119.462C79.7576 121.271 79.802 123.068 79.8827 124.853C53.7935 138.444 35.5382 169.688 35.5382 206.069C35.5382 207.516 35.5664 208.954 35.623 210.384C14.3102 229.557 0.513184 260.156 0.513184 294.634C0.513184 351.299 37.7768 397.497 84.4307 399.689C85.5801 399.744 86.7368 399.769 87.9002 399.769H424.716C466.578 399.769 500.513 358.937 500.513 308.574C500.514 263.367 473.171 225.845 437.298 218.634Z" fill="#DEE7EE"/>
<path d="M24.7685 201.69C24.7869 198.128 22.4018 195.223 19.4414 195.201C16.481 195.179 14.0662 198.048 14.0479 201.61C14.0295 205.172 16.4145 208.077 19.375 208.099C22.3354 208.121 24.7502 205.252 24.7685 201.69Z" fill="#DEE7EE"/>
<path d="M328.985 30.8284C333.052 28.8015 334.984 23.1917 333.299 18.2985C331.614 13.4052 326.952 11.0816 322.884 13.1084C318.817 15.1352 316.886 20.7451 318.57 25.6383C320.255 30.5316 324.918 32.8552 328.985 30.8284Z" fill="#DEE7EE"/>
<path d="M192.1 11.5322C194.579 11.5322 196.588 9.11468 196.588 6.13254C196.588 3.15041 194.579 0.73291 192.1 0.73291C189.621 0.73291 187.612 3.15041 187.612 6.13254C187.612 9.11468 189.621 11.5322 192.1 11.5322Z" fill="#DEE7EE"/>
<path d="M46.6793 117.547C52.2545 110.839 52.2543 99.964 46.6789 93.2565C41.1035 86.549 32.0641 86.5492 26.4889 93.2569C20.9137 99.9646 20.9138 110.84 26.4892 117.547C32.0647 124.255 41.104 124.255 46.6793 117.547Z" fill="#DEE7EE"/>
<path d="M65.5739 85.036C67.557 83.5725 68.1785 80.4518 66.962 78.0659C65.7455 75.68 63.1516 74.9323 61.1685 76.3959C59.1853 77.8594 58.5638 80.9801 59.7803 83.366C60.9969 85.7519 63.5907 86.4996 65.5739 85.036Z" fill="#DEE7EE"/>
<path d="M468.432 221.238C476.462 221.238 482.971 213.407 482.971 203.746C482.971 194.085 476.462 186.253 468.432 186.253C460.402 186.253 453.892 194.085 453.892 203.746C453.892 213.407 460.402 221.238 468.432 221.238Z" fill="#DEE7EE"/>
<path d="M466.682 128.966C468.709 128.57 470.087 126.272 469.758 123.832C469.429 121.392 467.518 119.735 465.49 120.131C463.463 120.527 462.085 122.825 462.414 125.265C462.743 127.705 464.654 129.361 466.682 128.966Z" fill="#DEE7EE"/>
<path d="M31.1758 313.36C22.4688 303.429 17.0386 289.38 17.0386 273.806C17.0386 243.708 37.319 219.309 62.3361 219.309C70.4634 219.309 78.0907 221.884 84.6851 226.393" stroke="#31438B" stroke-width="2.2" stroke-miterlimit="10"/>
<path d="M385.891 42.4537C400.201 26.8591 422.309 28.1733 435.271 45.3892C448.233 62.6051 447.141 89.2034 432.831 104.798" stroke="#31438B" stroke-width="2.2" stroke-miterlimit="10"/>
<path d="M483.431 220.624C485.434 220.624 487.058 218.671 487.058 216.261C487.058 213.852 485.434 211.898 483.431 211.898C481.428 211.898 479.805 213.852 479.805 216.261C479.805 218.671 481.428 220.624 483.431 220.624Z" stroke="#5672B6" stroke-width="3.136" stroke-miterlimit="10" stroke-linecap="round" stroke-linejoin="round"/>
<path d="M430.177 187.711C431.398 187.711 432.387 186.521 432.387 185.053C432.387 183.585 431.398 182.395 430.177 182.395C428.957 182.395 427.968 183.585 427.968 185.053C427.968 186.521 428.957 187.711 430.177 187.711Z" stroke="#5672B6" stroke-width="2.72" stroke-miterlimit="10" stroke-linecap="round" stroke-linejoin="round"/>
<path d="M344.555 94.6636C345.529 94.6636 346.318 93.7139 346.318 92.5425C346.318 91.371 345.529 90.4214 344.555 90.4214C343.581 90.4214 342.792 91.371 342.792 92.5425C342.792 93.7139 343.581 94.6636 344.555 94.6636Z" stroke="#5672B6" stroke-width="2.72" stroke-miterlimit="10" stroke-linecap="round" stroke-linejoin="round"/>
<path d="M90.2704 25.9132C90.2704 26.9043 89.6025 27.7078 88.7787 27.7078C87.955 27.7078 87.2871 26.9043 87.2871 25.9132C87.2871 24.9221 87.955 24.1187 88.7787 24.1187C89.6025 24.1183 90.2704 24.9218 90.2704 25.9132Z" stroke="#5672B6" stroke-width="2.72" stroke-miterlimit="10" stroke-linecap="round" stroke-linejoin="round"/>
<path d="M166.869 49.7116C167.132 47.7546 166.026 45.9117 164.4 45.5953C162.773 45.279 161.242 46.6089 160.979 48.5659C160.716 50.5229 161.821 52.3658 163.447 52.6822C165.074 52.9986 166.606 51.6686 166.869 49.7116Z" stroke="#5672B6" stroke-width="2.72" stroke-miterlimit="10" stroke-linecap="round" stroke-linejoin="round"/>
<path d="M16.6822 223.724C18.003 222.258 18.0853 219.78 16.8661 218.191C15.6469 216.602 13.5878 216.503 12.267 217.97C10.9462 219.437 10.8639 221.914 12.0831 223.503C13.3023 225.092 15.3614 225.191 16.6822 223.724Z" stroke="#5672B6" stroke-width="2.72" stroke-miterlimit="10" stroke-linecap="round" stroke-linejoin="round"/>
<path d="M28.8693 362.409C29.9264 361.137 29.9264 359.075 28.8692 357.803C27.8121 356.532 26.0981 356.532 25.041 357.804C23.9839 359.075 23.9839 361.137 25.0411 362.409C26.0982 363.681 27.8122 363.681 28.8693 362.409Z" stroke="#5672B6" stroke-width="2.72" stroke-miterlimit="10" stroke-linecap="round" stroke-linejoin="round"/>
<path d="M422.41 57.1474L420.272 54.5762" stroke="#5672B6" stroke-width="2.72" stroke-miterlimit="10" stroke-linecap="round" stroke-linejoin="round"/>
<path d="M417.083 50.7387L415.073 48.3208" stroke="#5672B6" stroke-width="2.72" stroke-miterlimit="10" stroke-linecap="round" stroke-linejoin="round"/>
<path d="M417.21 54.5762L415.073 57.1474" stroke="#5672B6" stroke-width="2.72" stroke-miterlimit="10" stroke-linecap="round" stroke-linejoin="round"/>
<path d="M422.41 48.3208L420.272 50.892" stroke="#5672B6" stroke-width="2.72" stroke-miterlimit="10" stroke-linecap="round" stroke-linejoin="round"/>
<path d="M469.388 356.604L467.25 354.008" stroke="#5672B6" stroke-width="2.72" stroke-miterlimit="10" stroke-linecap="round" stroke-linejoin="round"/>
<path d="M464.061 350.134L462.051 347.693" stroke="#5672B6" stroke-width="2.72" stroke-miterlimit="10" stroke-linecap="round" stroke-linejoin="round"/>
<path d="M464.188 354.008L462.051 356.604" stroke="#5672B6" stroke-width="2.72" stroke-miterlimit="10" stroke-linecap="round" stroke-linejoin="round"/>
<path d="M469.388 347.693L467.25 350.289" stroke="#5672B6" stroke-width="2.72" stroke-miterlimit="10" stroke-linecap="round" stroke-linejoin="round"/>
<path d="M19.7773 168.764L17.6401 166.193" stroke="#5672B6" stroke-width="2.72" stroke-miterlimit="10" stroke-linecap="round" stroke-linejoin="round"/>
<path d="M14.4507 162.355L12.4409 159.938" stroke="#5672B6" stroke-width="2.72" stroke-miterlimit="10" stroke-linecap="round" stroke-linejoin="round"/>
<path d="M14.5783 166.193L12.4409 168.764" stroke="#5672B6" stroke-width="2.72" stroke-miterlimit="10" stroke-linecap="round" stroke-linejoin="round"/>
<path d="M19.7773 159.938L17.6401 162.509" stroke="#5672B6" stroke-width="2.72" stroke-miterlimit="10" stroke-linecap="round" stroke-linejoin="round"/>
<path d="M294.48 31.4031L292.343 28.8315" stroke="#5672B6" stroke-width="2.72" stroke-miterlimit="10" stroke-linecap="round" stroke-linejoin="round"/>
<path d="M289.154 24.9943L287.144 22.5767" stroke="#5672B6" stroke-width="2.72" stroke-miterlimit="10" stroke-linecap="round" stroke-linejoin="round"/>
<path d="M289.281 28.8315L287.144 31.4031" stroke="#5672B6" stroke-width="2.72" stroke-miterlimit="10" stroke-linecap="round" stroke-linejoin="round"/>
<path d="M294.48 22.5767L292.343 25.1479" stroke="#5672B6" stroke-width="2.72" stroke-miterlimit="10" stroke-linecap="round" stroke-linejoin="round"/>
<path d="M436.055 258.361L433.917 255.789" stroke="#5672B6" stroke-width="2.72" stroke-miterlimit="10" stroke-linecap="round" stroke-linejoin="round"/>
<path d="M430.728 251.952L428.718 249.534" stroke="#5672B6" stroke-width="2.72" stroke-miterlimit="10" stroke-linecap="round" stroke-linejoin="round"/>
<path d="M430.855 255.789L428.718 258.361" stroke="#5672B6" stroke-width="2.72" stroke-miterlimit="10" stroke-linecap="round" stroke-linejoin="round"/>
<path d="M436.055 249.534L433.917 252.105" stroke="#5672B6" stroke-width="2.72" stroke-miterlimit="10" stroke-linecap="round" stroke-linejoin="round"/>
<path d="M63.8115 272.461L61.6743 269.89" stroke="#5672B6" stroke-width="2.72" stroke-miterlimit="10" stroke-linecap="round" stroke-linejoin="round"/>
<path d="M58.4844 266.053L56.4746 263.635" stroke="#5672B6" stroke-width="2.72" stroke-miterlimit="10" stroke-linecap="round" stroke-linejoin="round"/>
<path d="M58.612 269.89L56.4746 272.461" stroke="#5672B6" stroke-width="2.72" stroke-miterlimit="10" stroke-linecap="round" stroke-linejoin="round"/>
<path d="M63.8115 263.635L61.6743 266.206" stroke="#5672B6" stroke-width="2.72" stroke-miterlimit="10" stroke-linecap="round" stroke-linejoin="round"/>
<path d="M391.556 263.035H108.738C104.944 263.035 101.87 259.335 101.87 254.772V65.0589C101.87 60.4952 104.945 56.7959 108.738 56.7959H391.556C395.349 56.7959 398.424 60.4955 398.424 65.0589V254.772C398.424 259.335 395.349 263.035 391.556 263.035Z" fill="#BDCDEE" stroke="#83A3E7" stroke-width="8" stroke-miterlimit="10"/>
<path d="M426.906 132.524H324.872C323.544 132.524 322.468 131.229 322.468 129.632V82.6569C322.468 81.0599 323.545 79.7651 324.872 79.7651H426.906C428.233 79.7651 429.309 81.0599 429.309 82.6569V129.632C429.31 131.229 428.233 132.524 426.906 132.524Z" fill="#83A3E7"/>
<path d="M336.095 106.145H329.204V126.399H336.095V106.145Z" fill="white"/>
<path d="M346.876 97.7837H339.985V126.399H346.876V97.7837Z" fill="white"/>
<path d="M357.546 110.621H350.655V126.399H357.546V110.621Z" fill="white"/>
<path d="M368.438 94.8418H361.547V126.399H368.438V94.8418Z" fill="white"/>
<path d="M379.335 116.271H372.444V126.399H379.335V116.271Z" fill="white"/>
<path d="M390.671 102.598H383.78V126.399H390.671V102.598Z" fill="white"/>
<path d="M401.914 88.958H395.023V126.399H401.914V88.958Z" fill="white"/>
<path d="M409.879 88.813H407.471V91.7104H409.879V88.813Z" fill="white"/>
<path d="M426.186 89.4321H411.297V91.0912H426.186V89.4321Z" fill="white"/>
<path d="M409.879 95.7505H407.471V98.6479H409.879V95.7505Z" fill="white"/>
<path d="M426.186 96.3701H411.297V98.0292H426.186V96.3701Z" fill="white"/>
<path d="M409.879 102.688H407.471V105.586H409.879V102.688Z" fill="white"/>
<path d="M426.186 103.308H411.297V104.967H426.186V103.308Z" fill="white"/>
<path d="M409.879 109.626H407.471V112.523H409.879V109.626Z" fill="white"/>
<path d="M426.186 110.245H411.297V111.904H426.186V110.245Z" fill="white"/>
<path d="M409.879 116.563H407.471V119.461H409.879V116.563Z" fill="white"/>
<path d="M426.186 117.183H411.297V118.842H426.186V117.183Z" fill="white"/>
<path d="M409.879 123.501H407.471V126.399H409.879V123.501Z" fill="white"/>
<path d="M426.186 124.121H411.297V125.78H426.186V124.121Z" fill="white"/>
<path d="M185.06 234.301H83.0267C81.6993 234.301 80.623 233.006 80.623 231.409V184.434C80.623 182.837 81.6993 181.542 83.0267 181.542H185.06C186.388 181.542 187.464 182.837 187.464 184.434V231.409C187.464 233.006 186.388 234.301 185.06 234.301Z" fill="#83A3E7"/>
<path d="M94.2499 207.921H87.3589V228.176H94.2499V207.921Z" fill="white"/>
<path d="M105.031 199.561H98.1396V228.176H105.031V199.561Z" fill="white"/>
<path d="M115.701 212.397H108.81V228.176H115.701V212.397Z" fill="white"/>
<path d="M126.593 196.619H119.702V228.176H126.593V196.619Z" fill="white"/>
<path d="M137.489 218.049H130.598V228.176H137.489V218.049Z" fill="white"/>
<path d="M148.826 204.375H141.935V228.176H148.826V204.375Z" fill="white"/>
<path d="M160.069 190.735H153.178V228.176H160.069V190.735Z" fill="white"/>
<path d="M168.034 190.59H165.625V193.487H168.034V190.59Z" fill="white"/>
<path d="M184.341 191.209H169.452V192.868H184.341V191.209Z" fill="white"/>
<path d="M168.034 197.528H165.625V200.425H168.034V197.528Z" fill="white"/>
<path d="M184.341 198.147H169.452V199.806H184.341V198.147Z" fill="white"/>
<path d="M168.034 204.465H165.625V207.363H168.034V204.465Z" fill="white"/>
<path d="M184.341 205.084H169.452V206.744H184.341V205.084Z" fill="white"/>
<path d="M168.034 211.403H165.625V214.3H168.034V211.403Z" fill="white"/>
<path d="M184.341 212.022H169.452V213.681H184.341V212.022Z" fill="white"/>
<path d="M168.034 218.341H165.625V221.238H168.034V218.341Z" fill="white"/>
<path d="M184.341 218.96H169.452V220.619H184.341V218.96Z" fill="white"/>
<path d="M168.034 225.278H165.625V228.176H168.034V225.278Z" fill="white"/>
<path d="M184.341 225.897H169.452V227.557H184.341V225.897Z" fill="white"/>
<path d="M159.216 105.403H135.344C134.32 105.403 133.49 104.405 133.49 103.173V74.4535C133.49 73.2217 134.32 72.2231 135.344 72.2231H159.216C160.239 72.2231 161.069 73.2217 161.069 74.4535V103.173C161.069 104.405 160.239 105.403 159.216 105.403Z" fill="white"/>
<path d="M158.218 96.3141V98.9605C158.218 100.623 157.099 101.974 155.713 101.974H138.846C137.463 101.974 136.341 100.623 136.341 98.9605V97.8589L140.929 91.2534L144.785 95.4151L151.18 86.4038L158.218 96.3141Z" fill="#83A3E7"/>
<path d="M140.403 83.6094C141.976 83.6094 143.251 82.0758 143.251 80.1839C143.251 78.292 141.976 76.7583 140.403 76.7583C138.831 76.7583 137.556 78.292 137.556 80.1839C137.556 82.0758 138.831 83.6094 140.403 83.6094Z" fill="#83A3E7"/>
<path d="M289.864 78.0488H164.856V84.418H289.864V78.0488Z" fill="#83A3E7"/>
<path d="M260.578 94.4565H164.856V100.826H260.578V94.4565Z" fill="#83A3E7"/>
<path d="M159.343 153.2H135.472C134.448 153.2 133.618 152.202 133.618 150.97V122.25C133.618 121.019 134.448 120.02 135.472 120.02H159.343C160.367 120.02 161.197 121.019 161.197 122.25V150.97C161.197 152.202 160.367 153.2 159.343 153.2Z" fill="white"/>
<path d="M158.345 144.111V146.758C158.345 148.421 157.226 149.771 155.841 149.771H138.973C137.591 149.771 136.468 148.421 136.468 146.758V145.656L141.057 139.051L144.913 143.212L151.308 134.201L158.345 144.111Z" fill="#83A3E7"/>
<path d="M141.634 131.132C143.086 130.403 143.771 128.397 143.165 126.651C142.559 124.906 140.892 124.081 139.44 124.81C137.989 125.539 137.304 127.545 137.91 129.291C138.516 131.037 140.183 131.861 141.634 131.132Z" fill="#83A3E7"/>
<path d="M289.991 125.846H164.983V132.215H289.991V125.846Z" fill="#83A3E7"/>
<path d="M260.706 142.254H164.983V148.623H260.706V142.254Z" fill="#83A3E7"/>
<path d="M323.531 208.178C323.531 230.409 308.55 248.432 290.072 248.432C285.76 248.432 281.64 247.449 277.855 245.662L285.382 222.566C286.835 223.253 288.416 223.629 290.072 223.629C297.166 223.629 302.915 216.712 302.915 208.178L323.531 208.178Z" fill="#1C2777"/>
<path d="M302.009 170.562L293.928 193.435C292.712 192.974 291.416 192.727 290.072 192.727C282.979 192.727 277.229 199.644 277.229 208.178C277.229 209.479 277.364 210.744 277.615 211.952L257.62 218.007C256.963 214.862 256.614 211.568 256.614 208.178C256.614 185.947 271.594 167.924 290.072 167.924C294.277 167.924 298.302 168.858 302.009 170.562Z" fill="#7090D3"/>
<path d="M286.293 222.913L277.53 249.804C265.932 244.329 257.046 232.354 253.97 217.605L277.251 210.555C278.433 216.215 281.841 220.811 286.293 222.913Z" fill="#81A2E5"/>
<path d="M327.409 205.433H306.794C306.794 198.516 303.015 192.661 297.807 190.69L305.888 167.817C318.473 173.601 327.409 188.261 327.409 205.433Z" fill="#3F53A0"/>
<path d="M268.281 230.18L253.54 247.914H228.532" stroke="#1C2777" stroke-width="3" stroke-miterlimit="10"/>
<path d="M274.406 186.625L264.848 175.126H228.532" stroke="#1C2777" stroke-width="3" stroke-miterlimit="10"/>
<path d="M230.103 247.914C230.103 248.957 229.4 249.804 228.532 249.804C227.664 249.804 226.961 248.957 226.961 247.914C226.961 246.87 227.664 246.023 228.532 246.023C229.4 246.023 230.103 246.87 230.103 247.914Z" fill="#1C2777"/>
<path d="M228.512 177.016C229.38 177.016 230.083 176.17 230.083 175.126C230.083 174.082 229.38 173.236 228.512 173.236C227.644 173.236 226.941 174.082 226.941 175.126C226.941 176.17 227.644 177.016 228.512 177.016Z" fill="#1C2777"/>
<path d="M312.608 187.997L323.034 175.454H364.59" stroke="#1C2777" stroke-width="3" stroke-miterlimit="10"/>
<path d="M365.926 175.455C365.926 176.498 365.222 177.345 364.355 177.345C363.487 177.345 362.784 176.498 362.784 175.455C362.784 174.411 363.487 173.564 364.355 173.564C365.222 173.564 365.926 174.411 365.926 175.455Z" fill="#1C2777"/>
<path d="M268.281 230.18L253.54 247.914H228.532" stroke="#1C2777" stroke-width="3" stroke-miterlimit="10"/>
<path d="M230.103 247.914C230.103 248.957 229.4 249.804 228.532 249.804C227.664 249.804 226.961 248.957 226.961 247.914C226.961 246.87 227.664 246.023 228.532 246.023C229.4 246.023 230.103 246.87 230.103 247.914Z" fill="#1C2777"/>
<path d="M310.755 230.18L325.496 247.914H350.504" stroke="#1C2777" stroke-width="3" stroke-miterlimit="10"/>
<path d="M350.505 249.804C351.372 249.804 352.076 248.957 352.076 247.914C352.076 246.87 351.372 246.023 350.505 246.023C349.637 246.023 348.934 246.87 348.934 247.914C348.934 248.957 349.637 249.804 350.505 249.804Z" fill="#1C2777"/>
<path d="M212.55 290.389H181.797L184.056 268.727H209.708L212.55 290.389Z" fill="#4B5FD1"/>
<path d="M199.199 288.627L186.369 339.7L171.822 385.314H168.163L177.275 339.7L181.923 288.627H199.199Z" fill="#4B5FD1"/>
<path d="M212.517 289.508C212.517 289.508 218.665 336.707 218.665 336.971C218.665 337.235 220.422 385.138 219.983 385.314C219.543 385.49 216.285 385.314 216.285 385.314L209.736 337.45L199.199 288.627L212.517 289.508Z" fill="#4B5FD1"/>
<path d="M230.684 391.196H216.285V385.314H219.983L230.684 388.88V391.196Z" fill="#DE8B63"/>
<path d="M182.778 391.196H168.379V385.314H172.076L182.778 388.88V391.196Z" fill="#DE8B63"/>
<path d="M204.365 209.324L197.536 207.573L190.762 209.677L190.451 269.474H204.365V209.324Z" fill="white"/>
<path d="M194.289 277.929L179.931 277.037L183.309 253.541L181.907 213.206L191.422 209.324L196.588 252.402L194.289 277.929Z" fill="#546DD6"/>
<path d="M201.498 277.929L214.868 275.551L211.489 253.541L212.891 213.206L204.365 209.324L199.199 252.402L201.498 277.929Z" fill="#546DD6"/>
<path d="M204.365 209.324L207.938 210.95L205.189 224.17L203.432 225.931L204.603 227.34L200.251 243.626L204.365 209.324Z" fill="#5D7BD8"/>
<path d="M191.473 209.324L187.719 210.835L190.649 224.17L192.406 225.931L191.235 227.34L195.587 243.626L191.473 209.324Z" fill="#5D7BD8"/>
<path d="M208.102 226.727C208.986 226.941 233.267 228.062 233.267 228.062L252.302 201.775L249.663 199.698L231.378 218.581L212.227 212.915L208.102 226.727Z" fill="#546DD6"/>
<path d="M174.67 262.956L172.266 262.83L174.054 236.504L181.907 213.206L186.432 225.279L179.421 239.617L174.67 262.956Z" fill="#546DD6"/>
<path d="M201.161 201.623V209.161C201.161 211.57 199.538 213.523 197.536 213.523C195.534 213.523 193.911 211.57 193.911 209.161V201.623H201.161Z" fill="#DE8B63"/>
<path d="M201.161 201.623V205.715C197.364 205.513 195.084 203.046 194.899 202.809L197.71 201.623H201.161Z" fill="#CD7852"/>
<path d="M192.367 201.174C193.158 202.806 196.106 203.443 197.88 203.681C198.969 203.827 200.074 203.73 201.117 203.324C203.866 202.252 203.594 200.346 203.594 200.346V196.975C203.997 189.738 201.426 185.143 201.426 185.143H190.006L187.946 197.436C187.946 197.436 187.749 200.588 190.83 201.094L192.367 201.174Z" fill="#DE8B63"/>
<path d="M201.161 178.932C201.161 178.932 203.026 179.527 202.944 182.501C202.861 185.475 200.763 185.971 199.258 186.169C197.752 186.368 193.748 186.367 191.424 189.937C191.424 189.937 190.253 192.761 192.973 196.355L192.313 197.472L190.336 195.489C190.336 195.489 188.523 196.183 189.511 199.356C189.511 199.356 190.822 200.725 192.367 201.175L194.128 202.686C194.128 202.686 189.331 202.81 187.093 198.746C185.403 195.678 182.672 191.028 187.039 185.872C187.039 185.872 186.38 182.501 190.616 181.503C190.616 181.503 193.714 181.309 198.082 180.717C198.082 180.717 200.615 180.419 201.161 178.932Z" fill="#2B3074"/>
<path d="M175.92 266.757C175.687 266.919 175.388 266.823 175.253 266.542L174.019 263.969L174.864 263.381L176.099 265.954C176.234 266.235 176.154 266.594 175.92 266.757Z" fill="#CE714D"/>
<path d="M254.858 201.111L253.686 202.497C253.132 203.151 252.243 203.141 251.699 202.475L249.762 200.102C249.572 199.869 249.575 199.494 249.768 199.265L252.827 195.651L254.881 198.168C255.55 198.988 255.54 200.306 254.858 201.111Z" fill="#DE8B63"/>
<path d="M255.804 194.495L253.231 197.535C253 197.808 252.629 197.804 252.402 197.526L252.242 197.33C252.015 197.052 252.019 196.606 252.25 196.332L254.822 193.292C255.053 193.02 255.424 193.024 255.651 193.301L255.811 193.497C256.038 193.776 256.035 194.222 255.804 194.495Z" fill="#DE8B63"/>
<path d="M173.295 268.788L172.712 268.754C171.938 268.709 171.34 267.917 171.377 266.985L171.511 263.653C171.535 263.051 171.96 262.586 172.46 262.615L174.268 262.72C174.82 262.752 175.246 263.317 175.22 263.982L175.107 266.809C175.061 267.957 174.25 268.843 173.295 268.788Z" fill="#DE8B63"/>
<path d="M403.905 313.106H85.3215C84.0496 313.106 83.0186 311.865 83.0186 310.335C83.0186 308.805 84.0496 307.564 85.3215 307.564H403.905C405.176 307.564 406.207 308.805 406.207 310.335C406.207 311.865 405.176 313.106 403.905 313.106Z" fill="#724906"/>
<path d="M122.556 309.514H118.555V392.365H122.556V309.514Z" fill="#724906"/>
<path d="M111.251 394.772C111.251 392.113 113.043 389.958 115.253 389.958H125.857C128.067 389.958 129.859 392.113 129.859 394.772H111.251Z" fill="#724906"/>
<path d="M372.139 309.514H368.138V392.365H372.139V309.514Z" fill="#724906"/>
<path d="M360.835 394.772C360.835 392.113 362.626 389.958 364.836 389.958H375.441C377.651 389.958 379.442 392.113 379.442 394.772H360.835Z" fill="#724906"/>
<path d="M297.564 340.813C300.943 351.563 294.38 369.611 289.946 389.972H286.602L289.946 335.432C291.146 330.767 293.703 328.261 297.564 327.832H308.34V341.02L297.564 340.813Z" fill="#E7A2A2"/>
<path d="M286.602 394.721H288.232C289.179 394.721 289.946 393.798 289.946 392.659V389.802H286.602V394.721Z" fill="#E7A2A2"/>
<path d="M286.602 389.972C286.602 389.972 284.037 396.395 283.353 397.724C283.878 397.91 284.446 397.711 284.807 397.215C286.004 395.569 287.166 394.742 288.292 394.721C288.35 394.37 286.602 389.972 286.602 389.972Z" fill="#E7A2A2"/>
<path d="M289.541 398.625H289.696L289.946 393.883H289.291L289.541 398.625Z" fill="#3542A7"/>
<path d="M289.946 391.792C290.009 391.756 289.199 391.294 287.222 394.256C287.222 394.256 286.213 395.549 285.309 396.571C284.406 397.594 284.152 397.953 283.353 397.725C283.353 397.725 283.607 397.193 283.568 397.275C283.53 397.357 282.456 398.287 282.456 398.287C282.456 398.287 283.063 399.486 285.057 398.287C287.051 397.087 288.595 394.982 288.595 394.982C288.595 394.982 290.871 394.395 289.946 391.792Z" fill="#3542A7"/>
<path d="M313.437 340.813C318.122 349.225 310.6 368.989 305.819 389.972H302.475L305.819 335.432C307.02 330.767 309.576 328.261 313.437 327.832H324.213V341.02L313.437 340.813Z" fill="#E7A2A2"/>
<path d="M302.475 394.721H304.105C305.052 394.721 305.819 393.798 305.819 392.659V389.802H302.475V394.721Z" fill="#E7A2A2"/>
<path d="M302.475 389.972C302.475 389.972 299.91 396.395 299.226 397.724C299.751 397.91 300.319 397.711 300.68 397.215C301.877 395.569 303.039 394.742 304.165 394.721C304.223 394.37 302.475 389.972 302.475 389.972Z" fill="#E7A2A2"/>
<path d="M305.414 398.625H305.569L305.819 393.883H305.164L305.414 398.625Z" fill="#3542A7"/>
<path d="M305.819 391.792C305.881 391.756 305.072 391.294 303.095 394.256C303.095 394.256 302.086 395.549 301.182 396.571C300.279 397.594 300.025 397.953 299.226 397.725C299.226 397.725 299.48 397.193 299.441 397.275C299.404 397.357 298.329 398.287 298.329 398.287C298.329 398.287 298.937 399.486 300.93 398.287C302.924 397.087 304.468 394.982 304.468 394.982C304.468 394.982 306.744 394.395 305.819 391.792Z" fill="#3542A7"/>
<path d="M324.623 322.533L300.511 326.948C297.167 329.63 297.725 340.375 301.069 342.862L325.935 342.616L324.623 322.533Z" fill="#7988FF"/>
<path d="M331.538 272.408H341.757C344.117 272.408 346.03 274.71 346.03 277.549L341.74 338.324L317.846 336.945L317.418 289.396C317.418 280.013 323.74 272.408 331.538 272.408Z" fill="#F5A623"/>
<path d="M317.417 332.587C317.417 338.199 321.201 342.748 325.866 342.748C327.744 342.748 334.016 342.748 335.894 342.748C340.561 342.748 344.342 338.199 344.342 332.587C344.342 326.975 340.561 322.423 335.894 322.423C334.016 322.423 327.743 322.423 325.866 322.423C321.201 322.423 317.417 326.975 317.417 332.587Z" fill="#3B96E4"/>
<path d="M330.88 272.408H342.637V268.546H330.88V272.408Z" fill="#E6991A"/>
<path d="M328.251 263.909H338.574V246.849C338.574 244.483 336.98 242.564 335.013 242.564H334.245C329.327 242.564 325.341 247.361 325.341 253.277V260.407C325.341 262.341 326.644 263.909 328.251 263.909Z" fill="#E7A2A2"/>
<path d="M327.207 270.477C329.048 265.54 329.335 259.018 328.97 255.774C328.465 251.295 328.378 250.173 326.769 250.053C325.041 249.925 324.538 246.697 325.394 244.887C326.249 243.08 330.024 241.326 331.754 241.326C342.766 241.326 343.244 257.675 344.842 268.658C342.643 270.765 334.92 272.408 327.207 270.477Z" fill="#3542A7"/>
<path d="M297.914 328.498L304.615 326.387L303.976 323.454L297.385 326.529C296.976 326.72 296.752 327.248 296.863 327.758C296.983 328.312 297.454 328.643 297.914 328.498Z" fill="#E7A2A2"/>
<path d="M321.758 308.921C323.567 309.166 325.236 307.412 325.534 304.949L328.088 285.381C328.486 282.1 326.814 279.102 324.403 278.775C321.962 278.444 319.759 280.985 319.582 284.336L318.807 304.123C318.678 306.573 319.973 308.679 321.758 308.921Z" fill="#E6991A"/>
<path d="M323.937 303.205C325.168 304.754 324.905 307.377 323.371 308.853L305.357 326.184C304.655 326.859 303.692 326.833 303.129 326.125C302.542 325.386 302.595 324.163 303.249 323.354L319.354 303.461C320.672 301.832 322.754 301.716 323.937 303.205Z" fill="#E6991A"/>
<path d="M311.399 398.972C312.207 397.999 312.207 396.422 311.399 395.45C310.59 394.477 309.28 394.477 308.471 395.45C307.663 396.423 307.663 397.999 308.472 398.972C309.28 399.944 310.591 399.944 311.399 398.972Z" fill="#1D2777"/>
<path d="M348.36 398.972C349.169 397.999 349.169 396.422 348.36 395.45C347.552 394.477 346.241 394.477 345.433 395.45C344.625 396.423 344.625 397.999 345.433 398.972C346.241 399.944 347.552 399.944 348.36 398.972Z" fill="#1D2777"/>
<path d="M329.88 398.972C330.688 397.999 330.688 396.422 329.88 395.45C329.071 394.477 327.761 394.477 326.952 395.45C326.144 396.423 326.144 397.999 326.952 398.972C327.761 399.944 329.071 399.944 329.88 398.972Z" fill="#1D2777"/>
<path d="M331.509 344.749H325.248V394.802H331.509V344.749Z" fill="#83A3E7"/>
<path d="M323.941 347.532H311.695L319.69 288.414C320.09 285.462 322.209 283.293 324.696 283.293H332.628L323.941 347.532Z" fill="#83A3E7"/>
<path d="M352.938 347.532H318.158L326.156 288.39C326.554 285.452 328.663 283.293 331.138 283.293H356.331C359.106 283.293 361.221 286.285 360.776 289.581L352.938 347.532Z" fill="#1D2777"/>
<path d="M314.948 347.532H300.786C299.238 347.532 297.984 346.023 297.984 344.161V343.746C297.984 341.884 299.238 340.375 300.786 340.375H314.948V347.532Z" fill="#83A3E7"/>
<path d="M348.972 394.802H307.785V394.632C307.785 393.116 308.807 391.886 310.068 391.886H346.689C347.95 391.886 348.972 393.115 348.972 394.632L348.972 394.802Z" fill="#83A3E7"/>
<path d="M246.093 260.679H236.301V268.546H246.093V260.679Z" fill="#E7A2A2"/>
<path d="M247.365 266.837H235.029V270.477H247.365V266.837Z" fill="#2861BB"/>
<path d="M236.003 338.42H223.076L232.59 396.487H236.003V338.42Z" fill="#4B5FD1"/>
<path d="M248.339 338.42H261.266L251.752 396.487H248.339V338.42Z" fill="#4B5FD1"/>
<path d="M264.573 312.651C263.952 312.931 263.313 313.075 262.685 313.099V313.105H220.059V313.102C219.182 313.135 218.286 312.931 217.432 312.46C214.45 310.822 213.138 306.586 214.498 302.998L224.766 275.941C224.791 275.875 224.816 275.812 224.844 275.748C225.405 272.504 227.791 270.067 230.653 270.067H253.2C255.864 270.067 258.118 272.179 258.869 275.086V275.089C259.002 275.378 259.117 275.685 259.217 276.005L268.058 303.466C269.202 307.159 267.642 311.271 264.573 312.651Z" fill="#546DD6"/>
<path d="M250.054 250.549C250.054 253.765 249.173 258.198 247.582 261.077C246.186 263.604 245.364 264.795 241.197 264.795C237.463 264.795 237.013 263.377 235.528 260.933C233.77 258.037 232.341 253.823 232.341 250.549C232.341 244.511 236.306 239.617 241.197 239.617C246.089 239.617 250.054 244.511 250.054 250.549Z" fill="#3542A7"/>
<path d="M235.45 395.651H233.093C231.502 395.651 230.096 396.899 229.628 398.728L229.29 400.047H236.293V396.665C236.293 396.105 235.915 395.651 235.45 395.651Z" fill="#031C44"/>
<path d="M248.933 395.651H251.289C252.88 395.651 254.286 396.899 254.755 398.728L255.093 400.047H248.089V396.665C248.09 396.105 248.467 395.651 248.933 395.651Z" fill="#031C44"/>
<path d="M259.097 398.807C259.905 397.835 259.905 396.258 259.097 395.285C258.289 394.313 256.978 394.313 256.17 395.285C255.361 396.258 255.361 397.835 256.17 398.807C256.978 399.78 258.289 399.78 259.097 398.807Z" fill="#1D2777"/>
<path d="M226.397 399.487C227.51 399.17 228.198 397.829 227.934 396.49C227.671 395.152 226.555 394.324 225.443 394.641C224.331 394.958 223.642 396.3 223.906 397.638C224.169 398.977 225.285 399.804 226.397 399.487Z" fill="#1D2777"/>
<path d="M242.124 399.488C243.236 399.171 243.924 397.829 243.661 396.491C243.397 395.153 242.282 394.325 241.169 394.642C240.057 394.959 239.369 396.301 239.632 397.639C239.896 398.977 241.011 399.805 242.124 399.488Z" fill="#1D2777"/>
<path d="M238.573 394.638H244.834V344.585H238.573V394.638Z" fill="#83A3E7"/>
<path d="M223.865 394.637H259.794V394.468C259.794 392.952 258.772 391.722 257.511 391.722H226.147C224.887 391.722 223.864 392.951 223.864 394.468V394.637H223.865Z" fill="#83A3E7"/>
<path d="M251.705 274.867H231.953C226.477 274.867 222.038 280.207 222.038 286.795V337.76C222.038 339.142 222.969 340.262 224.118 340.262H259.54C260.688 340.262 261.62 339.142 261.62 337.76V286.795C261.62 280.207 257.181 274.867 251.705 274.867Z" fill="#83A3E7"/>
<path d="M258.822 340.375H224.836C223.291 340.375 222.038 341.883 222.038 343.741V344.156C222.038 346.015 223.291 347.522 224.836 347.522H258.822C260.367 347.522 261.62 346.015 261.62 344.156V343.741C261.62 341.882 260.367 340.375 258.822 340.375Z" fill="#1D2777"/>
<path d="M251.705 278.764H231.953C226.477 278.764 222.038 284.105 222.038 290.693V337.76C222.038 339.142 222.969 340.263 224.118 340.263H259.54C260.688 340.263 261.62 339.142 261.62 337.76V290.693C261.62 284.104 257.181 278.764 251.705 278.764Z" fill="#1D2777"/>
<path d="M36.5854 282.488H57.3689C59.8097 282.488 61.8778 284.649 62.2195 287.557L68.3988 340.133C68.6866 342.581 67.2056 344.817 65.1579 345.027L43.5034 347.241L36.5854 282.488Z" fill="#7393D6"/>
<path d="M43.7279 347.206L43.2793 347.276C41.2677 347.587 39.4273 345.877 39.1689 343.457L33.1871 287.468C32.9287 285.048 34.3497 282.834 36.361 282.523L36.8097 282.454C38.8212 282.142 40.6616 283.852 40.92 286.272L46.9019 342.261C47.1605 344.681 45.7392 346.895 43.7279 347.206Z" fill="#1D2777"/>
<path d="M39.0825 342.888L39.0838 342.344C39.089 339.904 40.7374 337.932 42.7656 337.938L80.4866 338.055C82.5148 338.061 84.1546 340.044 84.1494 342.485L84.1481 343.029C84.1429 345.469 82.4945 347.442 80.4663 347.435L42.7453 347.318C40.7171 347.312 39.0773 345.329 39.0825 342.888Z" fill="#83A3E7"/>
<path d="M77.976 398.97C78.7844 397.997 78.7844 396.42 77.976 395.448C77.1676 394.475 75.857 394.475 75.0486 395.448C74.2403 396.421 74.2403 397.997 75.0487 398.97C75.857 399.942 77.1677 399.942 77.976 398.97Z" fill="#1D2777"/>
<path d="M41.987 399.643C43.0994 399.326 43.7876 397.984 43.5241 396.645C43.2606 395.307 42.1452 394.479 41.0328 394.796C39.9204 395.113 39.2322 396.455 39.4957 397.793C39.7592 399.132 40.8746 399.96 41.987 399.643Z" fill="#1D2777"/>
<path d="M59.4956 398.97C60.3039 397.997 60.3039 396.42 59.4955 395.448C58.6871 394.475 57.3765 394.475 56.5682 395.448C55.7598 396.421 55.7598 397.997 56.5682 398.97C57.3766 399.942 58.6872 399.942 59.4956 398.97Z" fill="#1D2777"/>
<path d="M54.9477 394.802H61.2085L61.2085 344.75H54.9477L54.9477 394.802Z" fill="#83A3E7"/>
<path d="M37.4844 394.802H78.6715V394.632C78.6715 393.116 77.6495 391.886 76.3885 391.886H39.7674C38.5066 391.886 37.4844 393.115 37.4844 394.632V394.802Z" fill="#83A3E7"/>
<path d="M407.127 400.047C408.28 400.047 409.215 398.929 409.215 397.55C409.215 396.17 408.28 395.052 407.127 395.052C405.974 395.052 405.04 396.17 405.04 397.55C405.04 398.929 405.974 400.047 407.127 400.047Z" fill="#1D2777"/>
<path d="M442.415 400.047C443.568 400.047 444.503 398.929 444.503 397.55C444.503 396.17 443.568 395.052 442.415 395.052C441.262 395.052 440.328 396.17 440.328 397.55C440.328 398.929 441.262 400.047 442.415 400.047Z" fill="#1D2777"/>
<path d="M425.765 400.047C426.918 400.047 427.853 398.929 427.853 397.55C427.853 396.17 426.918 395.052 425.765 395.052C424.612 395.052 423.678 396.17 423.678 397.55C423.678 398.929 424.612 400.047 425.765 400.047Z" fill="#1D2777"/>
<path d="M428.879 344.933H422.565V395.133H428.879V344.933Z" fill="#83A3E7"/>
<path d="M446.491 395.133H404.953V394.955C404.953 393.438 405.975 392.208 407.236 392.208H444.208C445.469 392.208 446.491 393.438 446.491 394.955L446.491 395.133Z" fill="#83A3E7"/>
<path d="M428.879 346.258H422.565V350.122H428.879V346.258Z" fill="#7393D6"/>
<path d="M447.398 282.488H426.437C423.976 282.488 421.89 284.656 421.545 287.572L415.313 340.303C415.023 342.758 416.517 345.001 418.582 345.211L440.421 347.432L447.398 282.488Z" fill="#7393D6"/>
<path d="M444.879 343.08L444.877 342.508C444.872 340.068 443.224 338.095 441.196 338.102L403.092 338.219C401.063 338.225 399.424 340.208 399.429 342.648L399.43 343.22C399.435 345.66 401.084 347.633 403.112 347.627L441.216 347.509C443.244 347.503 444.884 345.52 444.879 343.08Z" fill="#83A3E7"/>
<path d="M79.7737 273.917L86.1113 296.826L115.759 302.847L115.518 305.766L83.918 304.596C82.457 304.977 80.7534 303.941 79.9999 302.066L72.959 278.311C72.1362 276.499 72.4053 274.251 73.6196 272.791C75.4623 270.576 78.5612 271.143 79.7737 273.917Z" fill="#4D6FC1"/>
<path d="M77.9563 268.319C77.9563 268.319 83.4172 282.465 76.7215 303.182C76.7215 303.182 71.5884 320.077 74.0815 324.968C74.0815 324.968 58.8424 334.137 46.6953 322.625L63.1632 263.43L71.3048 258.644L77.9563 268.319Z" fill="#546DD6"/>
<path d="M94.0273 321.973L58.0249 320.359V323.019C58.0249 330.884 63.3241 337.259 69.8612 337.259H99.9071V329.316C99.9071 325.364 97.3094 322.12 94.0273 321.973Z" fill="#3B53B7"/>
<path d="M99.9069 331.268V387.021H95.4844L90.542 330.377L99.9069 331.268Z" fill="#3B53B7"/>
<path d="M111.371 391.435H104.516L100.283 390.52V391.435H96.0928C95.6128 391.435 95.2236 390.967 95.2236 390.389V387.001C95.2236 386.685 95.4364 386.429 95.6987 386.429L99.9069 386.428L109.572 388.934C110.605 389.114 111.371 390.179 111.371 391.435Z" fill="#734904"/>
<path d="M70.2172 317.26H47.8608V324.516H70.2172V317.26Z" fill="#3B53B7"/>
<path d="M85.443 322.096L46.6953 320.359V323.222C46.6953 331.686 52.3988 338.548 59.4343 338.548H91.7715V329.999C91.7712 325.746 88.9756 322.255 85.443 322.096Z" fill="#4B5FD1"/>
<path d="M65.8708 317.26H46.8882V322.877H65.8708V317.26Z" fill="#4B5FD1"/>
<path d="M91.7709 332.1V392.105H87.0113L81.6919 331.141L91.7709 332.1Z" fill="#4B5FD1"/>
<path d="M104.109 396.854H96.7316L92.1762 395.869V396.854H87.6663C87.1497 396.854 86.731 396.35 86.731 395.729V392.081C86.731 391.742 86.9598 391.466 87.2421 391.466L91.7712 391.465L102.173 394.162C103.284 394.356 104.109 395.503 104.109 396.854Z" fill="#734904"/>
<path d="M70.217 317.26C70.217 317.26 72.3718 305.09 75.2897 297.835C78.2075 290.579 79.9254 275.047 77.9802 270.132L76.7211 266.121C76.7211 266.121 75.0323 266.478 73.5139 266.555C70.342 266.713 65.0322 261.849 65.0322 261.849L61.4778 269.984L53.6782 317.441L70.217 317.26Z" fill="#BDCDEE"/>
<path d="M69.4221 245.933L66.8096 262.313L73.5143 266.555L74.7319 264.77L76.0933 252.21L69.4221 245.933Z" fill="#FDAF85"/>
<path d="M65.0325 261.85C65.0325 261.85 54.5324 267.699 53.1775 270.959C51.8226 274.219 52.1615 305.597 50.1291 309.672C48.0968 313.747 41.6611 328.809 41.6611 328.809C41.6611 328.809 60.8785 332.287 66.6271 315.321C66.6271 315.321 71.183 297.246 70.0307 285.021L65.0325 261.85Z" fill="#546DD6"/>
<path d="M67.3307 259.295C66.9909 259.568 65.0327 261.849 65.0327 261.849L70.2175 271.289L73.5145 266.555L67.3307 259.295Z" fill="#83A3E7"/>
<path d="M74.9207 263.43C75.2606 263.93 76.7213 266.122 76.7213 266.122L76.2888 270.695L73.5142 266.555L74.9207 263.43Z" fill="#83A3E7"/>
<path d="M70.6577 253.635C71.4517 255.885 74.3361 258.643 75.3573 260.045L75.7361 255.792L70.6577 253.635Z" fill="#CD8383"/>
<path d="M81.6916 238.944V254.09C81.6916 256.055 80.3673 257.649 78.7335 257.649C70.217 258.644 67.6613 247.838 67.5887 243.412C67.5137 238.841 70.7121 235.101 74.5113 235.101H78.4969C80.2615 235.1 81.6916 236.821 81.6916 238.944Z" fill="#FDAF85"/>
<path d="M71.8978 251.913C71.6801 250.876 71.3921 249.805 71.582 248.76C71.9439 246.771 73.823 245.769 74.6633 244.001C75.1638 242.949 75.347 241.554 76.2274 240.964C76.4905 240.787 76.7904 240.707 77.0888 240.659C78.248 240.474 79.4351 240.751 80.5912 240.538C81.7474 240.326 82.9661 239.37 83.0167 237.964C83.054 236.921 82.4316 236.001 81.7235 235.398C80.0824 234 77.9549 233.784 75.944 233.779C73.8723 233.774 71.7636 233.952 69.8265 234.836C67.5972 235.853 66.8476 239.481 66.1746 242.233C65.5016 244.985 65.4515 247.983 66.1933 250.709C66.3902 251.432 66.644 252.168 67.1113 252.682C70.217 256.099 72.1155 252.95 71.8978 251.913Z" fill="#3542A7"/>
<path d="M71.792 248.569C70.8979 248.491 70.2256 247.556 70.2905 246.48L70.3968 244.714C70.4617 243.638 71.239 242.83 72.1331 242.908C73.0272 242.986 73.6995 243.921 73.6346 244.996L73.528 246.763C73.4634 247.839 72.6861 248.647 71.792 248.569Z" fill="#FDAF85"/>
<path d="M62.8399 272.635L69.6657 297.309L101.598 303.793L101.338 306.938L67.3033 305.677C65.73 306.088 63.8951 304.972 63.0835 302.952L55.5003 277.367C54.6142 275.415 54.904 272.994 56.2117 271.422C58.1966 269.037 61.534 269.647 62.8399 272.635Z" fill="#5D7BD8"/>
<path d="M104.474 306.975V305.154H88.4214V306.975H104.474Z" fill="#6383C9"/>
<path d="M141.797 281.568H112.193L101.14 306.975H130.745L141.797 281.568Z" fill="#83A3E7"/>
<path d="M111.929 280.856L112.192 281.568H141.797L141.534 280.856H111.929Z" fill="#7394DA"/>
<path d="M112.193 281.568L111.929 280.856L100.877 306.263L101.14 306.975L112.193 281.568Z" fill="#6383C9"/>
<path d="M124.429 294.469C124.707 293.66 124.699 292.975 124.407 292.412C124.129 291.849 123.654 291.567 122.982 291.567C122.309 291.567 121.644 291.849 120.986 292.412C120.343 292.975 119.882 293.66 119.605 294.469C119.342 295.279 119.349 295.964 119.626 296.528C119.919 297.09 120.401 297.372 121.074 297.372C121.746 297.372 122.404 297.09 123.047 296.528C123.705 295.964 124.166 295.279 124.429 294.469Z" fill="#9DBBFB"/>
<path d="M440.194 347.397L440.647 347.467C442.675 347.779 444.531 346.064 444.792 343.637L450.825 287.483C451.086 285.056 449.652 282.835 447.624 282.523L447.171 282.454C445.142 282.142 443.286 283.856 443.026 286.283L436.993 342.437C436.732 344.865 438.166 347.085 440.194 347.397Z" fill="#1D2777"/>
<path d="M191.37 340.501C187.99 351.251 194.554 369.299 198.988 389.66H202.332L198.988 335.12C197.787 330.455 195.231 327.949 191.37 327.52H180.594V340.708L191.37 340.501Z" fill="#FDAF85"/>
<path d="M202.332 394.409H200.702C199.755 394.409 198.988 393.486 198.988 392.347V389.49H202.332V394.409Z" fill="#FDAF85"/>
<path d="M202.332 389.66C202.332 389.66 204.897 396.083 205.581 397.412C205.056 397.598 204.488 397.399 204.127 396.903C202.93 395.257 201.768 394.43 200.642 394.409C200.584 394.058 202.332 389.66 202.332 389.66Z" fill="#FDAF85"/>
<path d="M199.393 398.312H199.238L198.988 393.57H199.643L199.393 398.312Z" fill="#FB6464"/>
<path d="M198.988 391.48C198.925 391.444 199.735 390.982 201.712 393.944C201.712 393.944 202.721 395.237 203.624 396.259C204.528 397.282 204.781 397.641 205.581 397.413C205.581 397.413 205.327 396.881 205.365 396.963C205.403 397.045 206.478 397.975 206.478 397.975C206.478 397.975 205.87 399.174 203.876 397.975C201.882 396.775 200.339 394.67 200.339 394.67C200.339 394.67 198.063 394.083 198.988 391.48Z" fill="#FB6464"/>
<path d="M175.498 340.501C170.813 348.913 178.334 368.678 183.115 389.66H186.459L183.115 335.12C181.915 330.455 179.359 327.949 175.498 327.521H164.722V340.708L175.498 340.501Z" fill="#FDAF85"/>
<path d="M186.459 394.409H184.829C183.883 394.409 183.115 393.486 183.115 392.347V389.49H186.459V394.409Z" fill="#FDAF85"/>
<path d="M186.459 389.66C186.459 389.66 189.024 396.083 189.708 397.412C189.183 397.598 188.615 397.399 188.254 396.903C187.057 395.257 185.895 394.43 184.769 394.409C184.711 394.058 186.459 389.66 186.459 389.66Z" fill="#FDAF85"/>
<path d="M183.52 398.312H183.365L183.115 393.57H183.77L183.52 398.312Z" fill="#FB6464"/>
<path d="M183.115 391.48C183.052 391.444 183.862 390.982 185.839 393.944C185.839 393.944 186.848 395.237 187.751 396.259C188.655 397.282 188.908 397.641 189.708 397.413C189.708 397.413 189.454 396.881 189.492 396.963C189.53 397.045 190.605 397.975 190.605 397.975C190.605 397.975 189.997 399.174 188.003 397.975C186.009 396.775 184.466 394.67 184.466 394.67C184.466 394.67 182.19 394.083 183.115 391.48Z" fill="#FB6464"/>
<path d="M157.396 272.096H147.177C144.817 272.096 142.904 274.398 142.904 277.237L147.194 338.012L171.088 336.633L171.516 289.084C171.516 279.701 165.194 272.096 157.396 272.096Z" fill="#FB6464"/>
<path d="M187.865 342.55L164.366 342.316C163.943 342.394 163.51 342.434 163.069 342.434H153.041C148.373 342.434 144.593 337.886 144.593 332.274C144.593 326.661 148.373 322.11 153.041 322.11H163.069C163.57 322.11 164.06 322.163 164.535 322.263C164.545 322.266 164.556 322.266 164.563 322.269L188.423 326.636C191.768 329.317 191.21 340.065 187.865 342.55Z" fill="#6574F0"/>
<path d="M158.055 268.234H146.297V272.096H158.055V268.234Z" fill="#3B96E4"/>
<path d="M160.682 263.597H150.359V246.537C150.359 244.17 151.954 242.252 153.921 242.252H154.689C159.606 242.252 163.593 247.048 163.593 252.964V260.095C163.593 262.029 162.29 263.597 160.682 263.597Z" fill="#FDAF85"/>
<path d="M157.18 241.015C158.911 241.015 162.685 242.767 163.54 244.576C164.396 246.385 163.829 249.17 162.165 249.742C161.553 249.953 162.091 251.735 159.964 255.462C158.733 257.619 160.787 268.234 163.947 272.638C164.842 273.884 164.175 278.454 152.687 278.452C151.66 278.452 148.145 277.938 144.643 276.888C143.409 276.518 142.691 274.953 143.093 273.5C145.841 263.574 144.244 241.015 157.18 241.015Z" fill="#3542A7"/>
<path d="M191.02 328.186L184.319 326.075L184.958 323.142L191.549 326.217C191.958 326.408 192.182 326.936 192.071 327.446C191.951 328 191.48 328.331 191.02 328.186Z" fill="#FDAF85"/>
<path d="M167.176 308.609C165.367 308.854 163.698 307.1 163.399 304.637L160.846 285.069C160.448 281.788 162.12 278.79 164.53 278.463C166.972 278.132 169.175 280.673 169.352 284.024L170.127 303.811C170.256 306.261 168.961 308.367 167.176 308.609Z" fill="#FF8383"/>
<path d="M164.997 302.893C163.766 304.442 164.029 307.065 165.563 308.541L183.577 325.872C184.278 326.547 185.242 326.521 185.805 325.813C186.392 325.074 186.339 323.851 185.685 323.042L169.58 303.149C168.261 301.52 166.18 301.404 164.997 302.893Z" fill="#FF8383"/>
<path d="M175.734 398.658C176.543 397.686 176.543 396.109 175.734 395.136C174.926 394.164 173.615 394.164 172.807 395.136C171.999 396.109 171.999 397.686 172.807 398.658C173.615 399.631 174.926 399.631 175.734 398.658Z" fill="#1D2777"/>
<path d="M137.775 399.335C138.888 399.018 139.576 397.676 139.312 396.338C139.049 394.999 137.933 394.171 136.821 394.488C135.708 394.806 135.02 396.147 135.284 397.486C135.547 398.824 136.663 399.652 137.775 399.335Z" fill="#1D2777"/>
<path d="M156.206 399.339C157.329 399.078 158.063 397.771 157.845 396.421C157.628 395.071 156.542 394.188 155.42 394.449C154.298 394.71 153.564 396.017 153.781 397.367C153.998 398.717 155.084 399.6 156.206 399.339Z" fill="#1D2777"/>
<path d="M152.706 394.49H158.967V344.438H152.706V394.49Z" fill="#83A3E7"/>
<path d="M160.274 347.22H172.52L164.525 288.102C164.126 285.149 162.006 282.98 159.519 282.98H151.587L160.274 347.22Z" fill="#83A3E7"/>
<path d="M131.277 347.22H166.057L158.059 288.078C157.661 285.139 155.552 282.98 153.077 282.98H127.884C125.108 282.98 122.994 285.972 123.439 289.268L131.277 347.22Z" fill="#1D2777"/>
<path d="M169.267 347.22H186.906C188.454 347.22 189.708 345.711 189.708 343.849V343.434C189.708 341.572 188.454 340.063 186.906 340.063H169.267V347.22Z" fill="#83A3E7"/>
<path d="M135.243 394.489H176.43V394.32C176.43 392.803 175.408 391.573 174.147 391.573H137.526C136.265 391.573 135.243 392.803 135.243 394.32L135.243 394.489Z" fill="#83A3E7"/>
</svg>
