<svg width="451" height="236" viewBox="0 0 451 236" fill="none" xmlns="http://www.w3.org/2000/svg">
<path d="M45.8539 207.587C12.787 201.864 -3.03407 173.386 4.0484 155.69C9.64825 141.698 30.7121 131.583 54.215 135.073C52.5582 103.583 71.0635 76.879 96.7807 69.6694C117.573 63.8405 136.331 72.6466 141.627 75.3567C143.714 76.5297 176.991 94.5543 207.755 78.9113C221.508 71.9182 228.795 61.2295 232.079 55.4512C260.504 28.9971 301.886 27.8888 324.051 46.9202C346.546 66.2357 340.461 98.7518 340.013 100.95C385.463 100.668 414.774 135.334 409.942 162.088C406.229 182.648 381.851 201.303 350.654 203.321C249.054 204.743 147.454 206.165 45.8539 207.587Z" fill="#D7D7F9"/>
<path d="M129.308 13.1924L229.328 5.40735L323.25 14.4899L129.308 13.1924Z" stroke="black" stroke-width="2.926" stroke-linecap="round" stroke-linejoin="round"/>
<path d="M329.523 20.812H121.627V136.624H329.523V20.812Z" fill="#7180EA"/>
<path d="M324.738 26.1562H126.413V131.279H324.738V26.1562Z" fill="#D2E1F7"/>
<path d="M332.063 134.27H118.064V139.978H332.063V134.27Z" fill="#B8A1D1"/>
<path d="M332.063 21.6263H118.064C115.844 17.9254 115.273 14.2428 118.064 10.5974H332.063C335.561 13.7362 334.748 17.5374 332.063 21.6263Z" fill="#0B5ACE"/>
<path d="M317.209 82.7027V84.8143C307.07 83.8534 300.276 85.8616 295.927 87.8949C288.059 91.5753 287.064 95.8678 279.964 97.374C271.318 99.2085 269.044 93.6369 260.962 95.0045C249.012 97.0276 245.129 110.71 238.413 109.223C233.686 108.176 233.89 101.019 229.545 100.455C223.542 99.6754 220.918 113.042 212.57 114.199C203.158 115.504 197.659 99.7435 188.499 100.929C179.448 102.099 177.452 118.445 169.75 118.228C165.401 118.104 164.455 112.85 158.602 109.934C150.787 106.041 139.224 109.827 131.609 113.564C131.581 112.868 131.576 112.166 131.6 111.457C139.215 107.718 150.784 103.927 158.602 107.822C164.455 110.738 165.401 115.993 169.75 116.115C177.452 116.333 179.448 99.9878 188.499 98.8167C197.659 97.6319 203.158 113.393 212.57 112.087C220.918 110.929 223.542 97.5637 229.545 98.343C233.89 98.9075 233.686 106.065 238.413 107.111C245.129 108.598 249.012 94.9148 260.962 92.8929C269.044 91.5253 271.318 97.0969 279.964 95.2624C287.064 93.7562 288.059 89.4624 295.927 85.7833C300.276 83.75 307.07 81.7417 317.209 82.7027Z" fill="#F7C084"/>
<path d="M317.21 84.8143V125.605H132.505C132.65 121.492 131.767 117.609 131.609 113.564C139.224 109.827 150.787 106.041 158.602 109.934C164.455 112.85 165.401 118.104 169.75 118.228C177.453 118.445 179.448 102.099 188.5 100.929C197.659 99.7435 203.159 115.504 212.57 114.199C220.918 113.042 223.543 99.6754 229.545 100.455C233.89 101.019 233.686 108.176 238.413 109.223C245.129 110.71 249.012 97.0276 260.963 95.0045C269.044 93.6369 271.319 99.2085 279.965 97.374C287.065 95.8678 288.059 91.5752 295.927 87.8949C300.276 85.8616 307.07 83.8533 317.21 84.8143Z" fill="#B7CFF9"/>
<path d="M155.607 109.075C156.493 109.075 157.21 108.418 157.21 107.608C157.21 106.799 156.493 106.142 155.607 106.142C154.722 106.142 154.004 106.799 154.004 107.608C154.004 108.418 154.722 109.075 155.607 109.075Z" fill="white" stroke="black" stroke-width="2.926" stroke-linecap="round" stroke-linejoin="round"/>
<path d="M179.866 107.195C180.751 107.195 181.469 106.538 181.469 105.728C181.469 104.919 180.751 104.262 179.866 104.262C178.98 104.262 178.263 104.919 178.263 105.728C178.263 106.538 178.98 107.195 179.866 107.195Z" fill="white" stroke="black" stroke-width="2.926" stroke-linecap="round" stroke-linejoin="round"/>
<path d="M197.451 105.086C198.336 105.086 199.054 104.429 199.054 103.62C199.054 102.81 198.336 102.153 197.451 102.153C196.565 102.153 195.848 102.81 195.848 103.62C195.848 104.429 196.565 105.086 197.451 105.086Z" fill="#FF8E55"/>
<path d="M232.51 102.436C233.395 102.436 234.113 101.78 234.113 100.97C234.113 100.16 233.395 99.5039 232.51 99.5039C231.625 99.5039 230.907 100.16 230.907 100.97C230.907 101.78 231.625 102.436 232.51 102.436Z" fill="#FF8E55"/>
<path d="M220.011 109.125C220.896 109.125 221.614 108.469 221.614 107.659C221.614 106.849 220.896 106.193 220.011 106.193C219.126 106.193 218.408 106.849 218.408 107.659C218.408 108.469 219.126 109.125 220.011 109.125Z" fill="#FF8E55"/>
<path d="M260.647 95.1961C261.532 95.1961 262.25 94.5396 262.25 93.7298C262.25 92.92 261.532 92.2635 260.647 92.2635C259.762 92.2635 259.044 92.92 259.044 93.7298C259.044 94.5396 259.762 95.1961 260.647 95.1961Z" fill="#FF8E55"/>
<path d="M294.677 88.8262C295.562 88.8262 296.28 88.1697 296.28 87.3599C296.28 86.5502 295.562 85.8937 294.677 85.8937C293.791 85.8937 293.074 86.5502 293.074 87.3599C293.074 88.1697 293.791 88.8262 294.677 88.8262Z" fill="#FF8E55"/>
<path d="M316.953 85.2209C317.838 85.2209 318.556 84.5645 318.556 83.7547C318.556 82.9449 317.838 82.2884 316.953 82.2884C316.068 82.2884 315.35 82.9449 315.35 83.7547C315.35 84.5645 316.068 85.2209 316.953 85.2209Z" fill="#FF8E55"/>
<path d="M263.573 56.6017H187.578V58.788H263.573V56.6017Z" fill="black"/>
<path d="M263.573 61.7032H187.578V63.8895H263.573V61.7032Z" fill="#C8D9ED"/>
<path d="M210.394 226.758C326.253 226.758 420.176 216.39 420.176 203.599C420.176 190.809 326.253 180.44 210.394 180.44C94.5351 180.44 0.612793 190.809 0.612793 203.599C0.612793 216.39 94.5351 226.758 210.394 226.758Z" fill="#C1B6F2"/>
<path d="M420.69 182.892L429.925 173.114L412.907 172.756L395.889 173.114L404.136 183.603C404.136 183.603 407.615 207.721 407.683 208.011C410.639 211.802 417.987 210.697 418.983 206.585C419.051 206.295 420.69 182.892 420.69 182.892Z" fill="#2E1A25"/>
<path d="M395.889 172.756C395.889 174.458 403.508 176.477 412.907 176.477C422.306 176.477 429.925 174.458 429.925 172.756C429.925 171.054 422.306 169.674 412.907 169.674C403.508 169.674 395.889 171.054 395.889 172.756Z" fill="#843D5F"/>
<path d="M412.907 174.48C419.771 174.48 425.335 173.494 425.335 172.278C425.335 171.063 419.771 170.077 412.907 170.077C406.043 170.077 400.479 171.063 400.479 172.278C400.479 173.494 406.043 174.48 412.907 174.48Z" fill="#04175B"/>
<path d="M415.473 173.759C415.473 173.759 434.521 113.413 412.634 103.265C397.533 96.2637 415.473 173.759 415.473 173.759Z" fill="#238D12"/>
<path d="M415.473 165.732C415.473 165.098 417.99 117.267 412.279 108.848" stroke="white" stroke-width="2.926" stroke-linecap="round" stroke-linejoin="round"/>
<path d="M416.393 110.115L414.182 114.267L409.472 111.428" stroke="white" stroke-width="2.926" stroke-linecap="round" stroke-linejoin="round"/>
<path d="M419.877 119.395L415.451 124.239L409.472 121.069" stroke="white" stroke-width="2.926" stroke-linecap="round" stroke-linejoin="round"/>
<path d="M420.893 130.304L415.942 134.921L409.472 131.392" stroke="white" stroke-width="2.926" stroke-linecap="round" stroke-linejoin="round"/>
<path d="M414.872 172.269C414.872 172.269 371.226 142.366 359.051 161.884C353.513 170.762 414.872 172.269 414.872 172.269Z" fill="#238D12"/>
<path d="M414.872 172.269C414.872 172.269 373.195 158.812 362.031 163.278" stroke="white" stroke-width="2.926" stroke-linecap="round" stroke-linejoin="round"/>
<path d="M382.745 159.898L388.45 164.955C388.45 164.955 380.196 166.356 378.938 167.442" stroke="white" stroke-width="2.926" stroke-linecap="round" stroke-linejoin="round"/>
<path d="M369.42 159.898L372.934 162.427L368.064 165.481" stroke="white" stroke-width="2.926" stroke-linecap="round" stroke-linejoin="round"/>
<path d="M395.748 164.244L398.455 167.442L392.973 169.313" stroke="white" stroke-width="2.926" stroke-linecap="round" stroke-linejoin="round"/>
<path d="M414.996 172.278C414.996 172.278 402.336 123.942 379.762 123.271C364.791 122.825 414.996 172.278 414.996 172.278Z" fill="#238D12"/>
<path d="M414.995 172.278C414.995 172.278 393.636 133.953 380.923 127.133" stroke="white" stroke-width="2.926" stroke-linecap="round" stroke-linejoin="round"/>
<path d="M387.828 126.711L387.707 132.444L381.311 130.996" stroke="white" stroke-width="2.926" stroke-linecap="round" stroke-linejoin="round"/>
<path d="M394.023 133.591L393.225 138.544L386.067 137.816" stroke="white" stroke-width="2.926" stroke-linecap="round" stroke-linejoin="round"/>
<path d="M398.605 139.265L397.853 144.52L391.571 143.972" stroke="white" stroke-width="2.926" stroke-linecap="round" stroke-linejoin="round"/>
<path d="M402.477 146.18L401.508 149.689L396.798 149.404" stroke="white" stroke-width="2.926" stroke-linecap="round" stroke-linejoin="round"/>
<path d="M415.685 172.444C415.685 172.444 468.356 124.011 444.337 126.45C425.131 128.4 415.685 172.444 415.685 172.444Z" fill="#238D12"/>
<path d="M446.763 130.49C446.763 130.49 428.375 141.329 415.936 172.211" stroke="white" stroke-width="2.926" stroke-linecap="round" stroke-linejoin="round"/>
<path d="M443.558 129.607L440.629 134.841L445.824 135.068" stroke="white" stroke-width="2.926" stroke-linecap="round" stroke-linejoin="round"/>
<path d="M435.704 134.977L434.626 140.847L441.004 142.214" stroke="white" stroke-width="2.926" stroke-linecap="round" stroke-linejoin="round"/>
<path d="M429.61 141.928L428.835 148.376L435.025 148.206" stroke="white" stroke-width="2.926" stroke-linecap="round" stroke-linejoin="round"/>
<path d="M425.009 151.041L424.512 155.179L429.722 154.512" stroke="white" stroke-width="2.926" stroke-linecap="round" stroke-linejoin="round"/>
<path d="M228.338 236C326.75 236 406.528 226.047 406.528 213.769C406.528 201.491 326.75 191.538 228.338 191.538C129.927 191.538 50.1489 201.491 50.1489 213.769C50.1489 226.047 129.927 236 228.338 236Z" fill="#867CBF"/>
<path d="M186.504 115.765C185.096 110.278 185.048 104.897 184.499 99.5192C184.031 98.9882 183.569 98.691 183.103 98.7005C183.103 98.7005 179.849 98.7886 180.214 101.203C180.578 103.617 185.906 120.224 187.606 122.466C188.812 124.056 190.561 124.347 192.028 124.163C189.01 122.428 187.318 119.066 186.504 115.765Z" fill="#BFB7A1"/>
<path d="M190.953 112.79C188.362 107.66 186.39 101.668 184.499 99.5192C185.048 104.897 185.096 110.278 186.504 115.765C187.318 119.066 189.01 122.428 192.028 124.163C192.831 124.07 193.604 123.821 194.299 123.434C195.537 122.689 194.185 119.187 190.953 112.79Z" fill="#FFF7DC"/>
<path d="M211.401 127.125C211.401 126.897 210.794 126.557 211.158 126.102C211.514 125.57 211.995 125.155 212.527 124.766L211.184 125.095L208.77 124.958C208.77 124.958 205.95 125.757 207.228 126.887C207.849 127.413 208.569 127.824 209.353 128.1C210.439 128.145 211.293 127.984 211.401 127.125Z" fill="#EF8F8F"/>
<path d="M214.511 124.28L212.526 124.766C211.994 125.155 211.514 125.57 211.158 126.102C210.794 126.557 211.401 126.897 211.401 127.125C211.293 127.984 210.438 128.145 209.353 128.1C209.914 128.313 210.374 128.442 210.578 128.57C211.018 128.848 213.657 129.128 213.657 129.128L216.173 129.16C220.442 125.824 220.595 123.948 214.511 124.28Z" fill="#D37171"/>
<path d="M210.538 124.625C210.443 124.062 206.674 123.589 206.674 123.589L206.27 127.148C207.299 127.347 208.314 127.601 209.312 127.91C209.773 126.913 210.607 125.034 210.538 124.625Z" fill="white"/>
<path d="M206.269 127.148L206.199 127.765L209.018 128.535C209.018 128.535 209.139 128.284 209.312 127.91C208.314 127.601 207.298 127.347 206.269 127.148Z" fill="white"/>
<path d="M195.613 125.307C196.584 125.307 197.556 125.534 198.528 125.648C199.864 125.875 201.078 126.443 202.414 126.557C204.248 126.758 206.065 127.074 207.854 127.501C208.342 126.448 208.961 124.882 208.67 124.242C208.212 123.237 195.995 119.488 195.995 119.488C193.492 118.423 189.537 118.3 187.852 119.49C189.34 122.465 191.794 124.901 195.613 125.307Z" fill="#FFF7DC"/>
<path d="M202.414 126.557C201.078 126.443 199.864 125.875 198.528 125.648C197.556 125.534 196.584 125.307 195.613 125.307C191.794 124.901 189.34 122.465 187.852 119.49C186.484 120.456 186.61 122.286 190.218 125.179C191.574 126.266 207.34 128.535 207.34 128.535C207.34 128.535 207.575 128.101 207.854 127.501C206.065 127.074 204.248 126.758 202.414 126.557Z" fill="#BFB7A1"/>
<path d="M179.013 205.373L179.857 211.233L184.418 209.258L183.32 203.974L179.013 205.373Z" fill="white"/>
<path d="M190.653 211.421C188.847 211.39 186.99 208.392 185.192 208.217C183.277 209.518 181.095 210.365 178.629 209.508C178.022 211.356 178.515 213.047 179.773 214.629C179.773 214.629 181.872 214.547 183.834 214.289C184.162 214.246 183.913 213.076 184.24 213.165C186.646 213.821 188.939 214.666 190.631 214.41C192.118 214.186 194.113 213.128 193.948 212.387C193.782 211.645 192.359 211.45 190.653 211.421Z" fill="#2E0446"/>
<path d="M183.018 138.98C182.704 137.483 182.328 136.389 181.888 135.787L168.035 133.615C168.035 133.615 167.086 136.634 166.452 140.911C172.127 141.993 178.03 141.72 183.018 138.98Z" fill="#0B1C4C"/>
<path d="M183.018 138.98C178.03 141.72 172.127 141.993 166.452 140.911C165.868 144.851 165.55 149.857 166.488 154.559C168.442 164.365 177.935 206.708 177.935 206.708L183.911 205.124C183.911 205.124 182.284 196.851 183.535 177.692C184.589 161.556 184.472 145.913 183.018 138.98Z" fill="#102059"/>
<path d="M159.212 203.49L157.449 209.922L162.624 210.65L163.6 205.533L159.212 203.49Z" fill="white"/>
<path d="M164.036 135.411L157.785 136.143C157.455 136.685 157.171 137.25 156.934 137.832C158.162 138.393 159.444 138.912 160.763 139.372C161.427 137.822 162.72 136.622 164.036 135.411Z" fill="#0F213F"/>
<path d="M160.514 140.074C160.581 139.835 160.664 139.601 160.763 139.372C159.444 138.912 158.162 138.393 156.934 137.832C155.109 142.147 155.173 146.959 157.11 151.23C159.27 167.623 157.922 205.099 157.922 205.099L160.417 205.752C160.59 204.651 160.715 203.549 160.821 202.466C161.185 196.333 159.664 188.691 160.028 182.443C160.757 172.22 160.028 162.11 160.878 151.887C160.878 151.66 161 151.092 161.364 150.865C160.757 150.183 160.392 149.502 160.028 148.707C159.601 147.923 159.314 147.079 159.178 146.208C158.915 144.737 158.956 143.233 159.299 141.778C159.421 141.551 159.785 141.437 159.907 141.21C159.907 141.096 159.785 140.755 159.907 140.642C160.165 140.514 160.377 140.316 160.514 140.074Z" fill="#182C59"/>
<path d="M172.654 141.501C173.144 137.546 173.699 134.279 173.699 134.279L164.036 135.411C162.72 136.622 161.427 137.822 160.763 139.372C164.553 140.694 168.649 141.533 172.654 141.501Z" fill="#182C66"/>
<path d="M160.763 139.372C160.664 139.601 160.581 139.835 160.514 140.074C160.377 140.316 160.165 140.514 159.906 140.642C159.785 140.755 159.906 141.096 159.906 141.21C159.785 141.437 159.421 141.551 159.299 141.778C158.956 143.233 158.914 144.737 159.178 146.208C159.314 147.079 159.601 147.923 160.028 148.707C160.392 149.502 160.757 150.183 161.364 150.865C161 151.092 160.878 151.66 160.878 151.887C160.028 162.11 160.757 172.22 160.028 182.443C159.664 188.691 161.185 196.333 160.82 202.466C160.715 203.549 160.589 204.651 160.417 205.752L164.065 206.707C164.065 206.707 171.787 156.118 171.926 150.078C171.986 147.493 172.303 144.322 172.653 141.501C168.649 141.533 164.553 140.694 160.763 139.372Z" fill="#1F3172"/>
<path d="M174.26 85.8446C174.89 85.7396 175.301 85.13 175.177 84.4831C175.054 83.8362 174.443 83.3969 173.813 83.5018C173.183 83.6068 172.772 84.2164 172.895 84.8633C173.019 85.5102 173.629 85.9495 174.26 85.8446Z" fill="#EF8F8F"/>
<path d="M167.826 212.669C166.161 212.018 165.62 208.6 164.018 207.819C161.724 208.365 159.363 208.399 157.41 206.756C156.115 208.259 155.906 209.996 156.449 211.895C156.449 211.895 158.432 212.543 160.357 212.979C160.679 213.052 160.91 211.882 161.178 212.077C163.155 213.514 164.952 215.086 166.625 215.431C168.095 215.735 170.367 215.442 170.506 214.698C170.646 213.954 169.401 213.283 167.826 212.669Z" fill="#2E0446"/>
<path d="M159.421 135.417C159.299 134.622 158.449 134.054 158.449 133.145C158.328 130.987 160.757 130.191 161.971 128.601C165.25 124.058 162.943 119.173 161.728 114.289C161.607 113.721 161.121 113.039 160.757 112.358C159.663 110.313 158.57 108.155 156.87 106.337C155.274 104.631 154.855 102.323 153.402 100.449L151.275 101.589C155.419 113.712 157.341 127.207 156.087 136.055C157.179 136.554 158.318 137.021 159.489 137.449C159.517 136.771 159.494 136.092 159.421 135.417Z" fill="#4C177A"/>
<path d="M162.7 98.7269C165.857 97.0231 169.744 96.9095 173.509 97.4774C176.651 98.0426 179.673 99.5069 182.815 98.4015C178.756 96.6567 165.068 94.5175 160.4 96.7003L153.859 100.205C156.912 100.211 159.859 100.215 162.7 98.7269Z" fill="#9E6ACC"/>
<path d="M182.815 98.4014C179.673 99.5068 176.651 98.0426 173.509 97.4774C169.744 96.9094 165.857 97.023 162.7 98.7269C159.859 100.215 156.912 100.211 153.859 100.204L153.402 100.449C154.855 102.323 155.274 104.631 156.87 106.337C158.57 108.155 159.664 110.313 160.757 112.358C161.121 113.039 161.607 113.721 161.728 114.289C162.943 119.173 165.25 124.058 161.971 128.601C160.757 130.191 158.328 130.987 158.449 133.145C158.449 134.054 159.299 134.622 159.421 135.417C159.494 136.092 159.517 136.771 159.489 137.449C167.197 140.266 176.309 141.374 182.636 138.275C182.531 136.461 181.848 127.87 183.217 122.999C186.255 112.19 184.058 99.3653 183.915 99.1186C183.787 98.8972 183.401 98.6534 182.815 98.4014Z" fill="#0B5ACE"/>
<path d="M171.552 93.3208L170.598 88.524L164.273 88.8396C164.389 89.3964 164.322 90.704 164.2 92.0709C165.492 92.6296 166.493 93.5561 167.922 93.8425C169.225 94.0861 170.422 93.807 171.552 93.3208Z" fill="#DB7272"/>
<path d="M167.922 93.8425C166.493 93.5562 165.492 92.6296 164.2 92.0709C164.018 94.1132 163.714 96.2878 163.714 96.2878C163.714 96.2878 166.144 100.896 169.01 100.442C171.877 99.9879 172.218 96.6665 172.218 96.6665L171.552 93.3208C170.422 93.807 169.224 94.0862 167.922 93.8425Z" fill="#EF8F8F"/>
<path d="M168.427 100.442L167.027 102.727L168.126 105.013H169.87L170.993 102.727L169.684 100.268L168.427 100.442Z" fill="#2C0445"/>
<path d="M168.126 105.013H169.87L172.634 116.953L170.993 129.73H169.57L167.027 116.079L168.126 105.013Z" fill="#2C0445"/>
<path d="M159.785 127.352C156.637 126.219 155.474 123.581 154.585 120.805C154.17 120.209 153.798 119.588 153.47 118.946C153.348 118.832 152.984 118.832 152.862 118.832C152.546 118.46 152.192 118.117 151.808 117.806C152.724 121.203 153.653 124.177 154.236 125.12C155.796 127.643 159.906 128.301 161.633 127.928C161.013 127.748 160.396 127.557 159.785 127.352Z" fill="#BFB7A1"/>
<path d="M152.862 118.832C152.984 118.832 153.348 118.832 153.47 118.946C153.798 119.588 154.17 120.209 154.585 120.805C154.136 119.405 153.756 117.969 153.227 116.674C152.255 113.834 151.648 111.108 150.798 108.155C150.218 105.767 150.194 102.343 153.161 101.648C152.795 101.295 152.44 101.09 152.1 101.067C152.1 101.067 148.847 102.578 148.972 105.013C149.047 106.483 150.413 112.635 151.808 117.806C152.193 118.117 152.546 118.46 152.862 118.832Z" fill="#FFF7DC"/>
<path d="M150.798 108.155C151.648 111.108 152.255 113.834 153.227 116.674C154.806 120.536 155.049 125.648 159.785 127.352C160.396 127.557 161.013 127.748 161.633 127.928C161.789 127.897 161.94 127.848 162.084 127.781C163.39 127.146 162.667 123.3 160.081 116.651C157.869 110.966 155.32 103.726 153.161 101.648C150.194 102.343 150.218 105.767 150.798 108.155Z" fill="#FFF7DC"/>
<path d="M169.58 100.442C169.58 100.442 169.45 98.0412 170.176 96.6958C170.903 95.3505 172.684 93.4503 172.684 93.4503C172.684 93.4503 173.238 95.819 173.308 96.3877C173.407 97.1983 170.158 100.691 169.58 100.442Z" fill="white"/>
<path d="M161.996 96.2348L162.797 93.2496C162.797 93.2496 167.641 96.486 168.098 98.3178C168.554 100.15 168.422 100.642 168.422 100.642C168.422 100.642 163.459 99.6369 161.996 96.2348Z" fill="white"/>
<path d="M179.308 129.041L181.706 129.335L184.984 128.732C184.984 128.732 186.571 130.942 186.553 131.488C186.536 132.034 186.278 133.709 186.278 133.709C186.174 133.753 186.057 133.762 185.947 133.736C185.836 133.71 185.738 133.65 185.668 133.566C185.398 133.264 185.404 133.075 185.404 133.075C185.404 133.075 185.356 134.02 184.914 133.86C184.472 133.701 183.771 133.513 183.771 133.513C183.771 133.513 181.159 133.062 180.741 132.756C180.322 132.45 178.714 132.069 177.524 130.859C176.333 129.648 179.308 129.041 179.308 129.041Z" fill="#EF8F8F"/>
<path d="M176.641 128.5L179.866 128.83C179.866 128.83 179.46 132.133 179.04 132.237L176.131 131.644L176.641 128.5Z" fill="white"/>
<path d="M159.785 127.352C157.355 126.478 156.109 124.706 155.257 122.667C153.635 123.583 153.555 125.454 157.371 128.515C158.727 129.602 177.061 132.091 177.061 132.091C177.3 131.622 177.51 131.141 177.689 130.649C171.584 130.024 165.488 129.269 159.785 127.352Z" fill="#BFB7A1"/>
<path d="M159.785 127.352C165.489 129.269 171.585 130.024 177.689 130.649C177.96 129.894 178.169 129.027 177.944 128.533C177.486 127.528 163.149 122.824 163.149 122.824C160.764 121.808 157.059 121.649 155.257 122.667C156.109 124.706 157.355 126.478 159.785 127.352Z" fill="#FFF7DC"/>
<path d="M163.307 86.9135C165.007 85.7776 164.643 82.9378 164.643 81.0068C167.53 81.935 170.685 81.6092 173.71 80.9613C172.478 77.6129 169.864 75.8676 166.668 76.2968C163.717 76.6933 160.822 78.4779 160.287 81.8491C160.142 82.7582 160.521 84.1805 160.74 85.2912C161.964 85.2196 163.307 85.5779 163.307 86.9135Z" fill="#C47878"/>
<path d="M173.71 80.9613C170.685 81.6092 167.53 81.935 164.643 81.0068C164.643 82.9378 165.007 85.7776 163.307 86.9135C163.307 85.5778 161.964 85.2196 160.74 85.2912C160.773 85.4608 160.803 85.6237 160.826 85.7758C161.57 90.6173 164.167 91.8013 167.541 93.0691C169.82 93.9256 172.522 92.6324 173.423 90.1315C173.963 88.6309 174.577 85.0991 174.299 83.2835C174.181 82.4938 173.984 81.7163 173.71 80.9613Z" fill="#EF8F8F"/>
<path d="M162.432 90.7276C162.432 90.7276 162.373 88.4756 161.901 87.2671C161.429 86.0585 161.203 84.2609 161.435 84.2298C161.666 84.1987 163.163 86.102 163.163 86.102L163.637 85.9321C163.637 85.9321 164.928 81.6137 163.129 79.9635C167.21 82.4125 175.165 80.0474 175.165 80.0474C175.165 80.0474 176.674 78.1867 175.782 75.9259C174.889 73.6652 174.192 73.7162 174.192 73.7162C174.192 73.7162 173.7 75.1002 172.549 75.1486C171.397 75.197 163.362 73.337 162.159 76.9025C158.523 76.7562 158.47 81.886 159.136 83.5607C159.803 85.2355 161.687 90.4026 161.687 90.4026L162.432 90.7276Z" fill="#350D1D"/>
<path d="M162.497 86.5262C162.614 87.2715 162.12 87.9532 161.393 88.0487C160.666 88.1441 159.982 87.6173 159.865 86.8719C159.748 86.1266 160.243 85.4449 160.969 85.3494C161.696 85.2539 162.38 85.7808 162.497 86.5262Z" fill="#EF8F8F"/>
<path d="M168.105 85.2839C168.21 85.7253 168.034 86.1354 167.712 86.2C167.389 86.2645 167.042 85.959 166.936 85.5176C166.831 85.0762 167.007 84.666 167.33 84.6015C167.652 84.537 167.999 84.8425 168.105 85.2839Z" fill="#350D1D"/>
<path d="M172.3 84.369C172.402 84.7995 172.261 85.1935 171.983 85.249C171.705 85.3046 171.397 85.0006 171.294 84.5701C171.191 84.1396 171.333 83.7456 171.61 83.6901C171.888 83.6345 172.197 83.9385 172.3 84.369Z" fill="#350D1D"/>
<path d="M169.748 84.9849C169.748 84.9849 171.691 87.2361 171.332 87.8483C170.973 88.4604 169.347 88.0062 169.896 87.71C169.896 87.71 171.1 88.2331 171.045 87.5805C170.989 86.928 169.748 84.9849 169.748 84.9849Z" fill="#B55050"/>
<path d="M168.398 89.6651L172.134 88.8752C172.134 88.8752 171.944 90.06 170.804 90.3813C170.122 90.5734 168.65 90.3957 168.312 89.7342" fill="#FFFEEA"/>
<path d="M173.067 81.9224C173.067 81.9224 170.881 82.0188 171.21 82.7232C171.342 83.0073 173.347 82.1349 173.067 81.9224Z" fill="#350D1D"/>
<path d="M165.55 84.2691C165.55 84.2691 167.322 82.7365 167.818 83.5169C168.089 83.9421 165.547 84.6077 165.55 84.2691Z" fill="#350D1D"/>
<path d="M224.675 129.009C221.669 129.429 218.004 129.907 214.996 129.23C213.645 128.762 212.868 127.517 212.576 126.252C212.156 124.427 216.843 124.377 218.025 124.507C220.734 125.117 217.904 122.711 219.405 122.304C220.191 122.273 220.432 123.344 220.794 123.769C222.244 124.843 224.156 125.303 225.879 125.888L224.675 129.009Z" fill="#EF8F8F"/>
<path d="M255.983 201.184L256.623 209.911L260.843 209.503L260.171 201.568L255.983 201.184Z" fill="white"/>
<path d="M261.216 208.207L255.955 209.27C255.955 209.27 248.316 214.371 246.116 214.952C243.917 215.533 244.943 216.494 245.67 216.519C246.396 216.544 254.319 215.637 254.954 215.558C255.589 215.48 256.537 214.24 256.537 214.24L256.809 215.29C256.809 215.29 262.291 214.763 262.354 214.659C262.417 214.555 262.739 210.177 262.54 209.465C262.34 208.752 261.216 208.207 261.216 208.207Z" fill="#2E0446"/>
<path d="M258.268 129.748C258.268 129.748 256.014 132.178 254.333 136.847C259.626 137.348 264.914 136.881 270.069 135.746C266.749 131.132 258.268 129.748 258.268 129.748Z" fill="#0B0638"/>
<path d="M254.332 136.847C253.567 138.989 253.046 141.2 252.778 143.444C250.084 165.49 253.833 186.324 254.361 206.624H262.533C262.533 206.624 261.057 158.206 269.322 145.553C272.112 141.283 271.759 138.095 270.069 135.745C264.914 136.881 259.626 137.348 254.332 136.847Z" fill="#0B0638"/>
<path d="M270.634 201.188L272.247 209.804L276.399 208.985L274.842 201.16L270.634 201.188Z" fill="white"/>
<path d="M276.91 207.971L271.607 208.832C271.607 208.832 263.75 213.635 261.527 214.131C259.304 214.628 260.287 215.627 261.012 215.68C261.737 215.732 269.692 215.131 270.33 215.076C270.968 215.022 271.969 213.82 271.969 213.82L272.196 214.879C272.196 214.879 277.696 214.563 277.764 214.462C277.831 214.36 278.345 209.999 278.177 209.28C278.009 208.56 276.91 207.971 276.91 207.971Z" fill="#2E0446"/>
<path d="M258.5 142.809C258.288 164.998 266.833 186.62 269.631 206.757L276.128 206.117C275.027 202.057 274.71 197.873 274.312 193.689C273.584 186.873 274.434 180.171 273.705 173.242C273.584 172.788 273.341 172.334 273.341 171.879C273.098 160.066 272.491 148.48 275.405 136.553C275.6 135.811 275.645 135.043 275.541 134.286C270.208 135.951 264.676 136.989 259.095 137.045C258.724 138.948 258.525 140.876 258.5 142.809Z" fill="#262668"/>
<path d="M262.871 126.284C262.871 126.284 260.291 130.806 259.095 137.045C264.676 136.989 270.209 135.951 275.541 134.286C275.371 132.944 274.829 131.666 274.421 130.332C270.096 126.932 262.871 126.284 262.871 126.284Z" fill="#1B1B5B"/>
<path d="M275.094 130.906C274.879 130.706 274.654 130.515 274.421 130.332C274.829 131.666 275.371 132.944 275.541 134.286C276.178 134.086 276.813 133.879 277.444 133.662C276.784 132.657 275.994 131.732 275.094 130.906Z" fill="#1C1C56"/>
<path d="M277.444 133.662C276.812 133.879 276.178 134.086 275.54 134.286C275.645 135.043 275.599 135.811 275.405 136.553C272.49 148.48 273.097 160.066 273.34 171.879C273.34 172.334 273.583 172.788 273.705 173.242C274.433 180.171 273.583 186.873 274.312 193.689C274.71 197.873 275.026 202.057 276.128 206.117L277.757 205.957C277.757 205.957 270.869 157.949 277.673 144.556C279.919 140.135 279.292 136.521 277.444 133.662Z" fill="#1C1C56"/>
<path d="M263.279 89.0147L264.549 95.196L272.119 92.5839L271.299 86.2775C268.832 87.6479 266.202 88.6498 263.279 89.0147Z" fill="#EF8F8F"/>
<path d="M270.502 80.142L262.417 84.8163L263.279 89.0147C266.201 88.6498 268.832 87.6478 271.299 86.2774L270.502 80.142Z" fill="#CE7474"/>
<path d="M280.644 107.523C280.056 98.908 275.646 95.0586 274.568 92.9506C273.49 90.8425 272.412 88.8262 272.412 88.8262L271.228 89.2281C271.46 92.1452 274.708 94.1524 276.012 96.7959C280.506 105.883 276.134 115.766 274.919 125.307C274.436 128.472 273.258 131.491 271.635 134.311C273.895 133.83 275.954 133.259 277.629 132.623C277.629 132.623 281.232 116.139 280.644 107.523Z" fill="#2F4EA5"/>
<path d="M276.012 96.7959C275.309 95.3701 274.04 94.1292 272.984 92.831C272.335 94.4576 270.332 94.8312 268.968 96.0008C267.147 97.3639 264.596 97.591 263.017 99.2949C261.074 101.34 260.467 103.952 259.981 106.451C258.281 115.084 260.345 123.376 259.374 131.895C259.22 133.192 258.968 134.625 258.371 135.877C262.835 135.744 267.276 135.22 271.635 134.311C273.258 131.491 274.436 128.472 274.919 125.307C276.134 115.766 280.506 105.883 276.012 96.7959Z" fill="#0B5ACE"/>
<path d="M259.981 106.451C260.467 103.952 261.074 101.339 263.017 99.2948C264.596 97.591 267.147 97.3638 268.968 96.0007C270.333 94.8311 272.335 94.4576 272.984 92.831C272.082 91.7223 271.335 90.5718 271.228 89.2281L262.417 92.2173L261.045 95.6084C261.045 95.6084 255.362 104.407 255.068 109.54C254.774 114.672 254.71 135.858 254.71 135.858C255.876 135.906 257.106 135.91 258.371 135.877C258.968 134.625 259.22 133.192 259.374 131.895C260.346 123.376 258.281 115.084 259.981 106.451Z" fill="#0B5ACE"/>
<path d="M270.183 108.155C271.397 105.77 272.247 102.703 270.79 99.9764C270.269 99.0028 269.564 98.0867 269.026 97.1049C267.157 97.2833 265.232 98.1857 264.278 100.137C262.462 103.85 249.751 123.814 249.545 124.368L250.595 125.189C253.63 123.73 256.263 121.393 259.252 119.628C264.11 116.788 267.754 112.812 270.183 108.155Z" fill="#FFF7DC"/>
<path d="M229.716 123.901L224.839 125.294C224.238 126.787 223.705 128.319 222.96 129.773H228.114C228.051 128.054 228.771 125.48 229.716 123.901Z" fill="white"/>
<path d="M271.387 97.2657C270.655 97.1586 269.854 97.0259 269.026 97.1049C269.564 98.0868 270.269 99.0028 270.79 99.9764C272.167 102.552 271.484 105.431 270.38 107.753C272.526 105.138 273.468 101.533 273.887 98.3104C273.166 97.7623 272.304 97.4019 271.387 97.2657Z" fill="#F2E9D1"/>
<path d="M273.887 98.3103C273.468 101.533 272.526 105.138 270.381 107.752C270.316 107.888 270.25 108.023 270.183 108.155C267.754 112.812 264.111 116.788 259.253 119.628C256.665 121.156 254.343 123.112 251.797 124.556C251.756 124.579 251.716 124.603 251.675 124.626C251.51 124.718 251.344 124.807 251.178 124.895C251.155 124.907 251.131 124.919 251.108 124.931C250.96 125.008 250.811 125.083 250.66 125.156C248.991 125.967 247.202 126.516 245.164 126.557C239.527 126.54 233.894 126.858 228.299 127.509C228.218 127.905 228.163 128.304 228.134 128.706C228.108 129.061 228.101 129.417 228.114 129.773H244.446C249.051 129.773 254.953 128.594 254.953 128.594C254.953 128.594 273.473 116.864 275.592 109.421C277.341 103.275 275.962 99.8799 273.887 98.3103Z" fill="#BFB7A1"/>
<path d="M229.376 124.731C228.86 125.597 228.496 126.535 228.299 127.509C233.894 126.858 239.527 126.54 245.164 126.557C247.752 126.505 249.939 125.636 251.989 124.448L250.619 122.532L229.376 124.731Z" fill="#FFF7DC"/>
<path d="M266.175 75.4408V79.8709C266.175 79.9845 266.418 80.0981 266.539 79.9845C267.025 79.5301 267.754 79.3029 268.118 78.8486C269.261 77.4233 270.868 76.8203 272.621 76.5569C272.956 74.1686 273.221 72.0729 273.221 71.8933C273.221 71.4809 259.992 69.4874 259.036 71.4809C258.994 71.5688 258.43 72.7625 257.793 74.4791C259.882 76.5423 263.426 75.8521 266.175 75.4408Z" fill="#DD7373"/>
<path d="M268.118 78.8486C267.754 79.3029 267.025 79.5301 266.539 79.9845C266.418 80.0981 266.175 79.9845 266.175 79.8709V75.4408C263.427 75.8521 259.882 76.5423 257.794 74.4791C256.161 78.8825 254.049 86.7279 259.036 88.1846C263.088 89.368 270.943 84.7476 271.383 83.7852C271.632 83.2419 272.186 79.6534 272.621 76.5569C270.868 76.8203 269.261 77.4233 268.118 78.8486Z" fill="#EF8F8F"/>
<path d="M255.802 71.1372C255.802 71.1372 258.889 75.4678 261.021 74.9866C263.152 74.5054 267.268 74.093 267.268 74.093C267.268 74.093 266.239 78.9735 266.606 79.0422C266.974 79.111 267.635 76.7738 268.811 77.255C269.987 77.7362 269.326 80.6232 268.811 80.7607C268.297 80.8982 268.811 83.854 268.811 83.854L272.853 85.7099C272.853 85.7099 277.19 72.3057 275.793 70.1748C274.397 68.0439 261.094 68.2501 258.816 65.2943C256.537 62.3385 254.775 69.8622 255.802 71.1372Z" fill="#0F073A"/>
<path d="M227.597 125.899C227.837 125.899 228.031 125.721 228.031 125.501C228.031 125.281 227.837 125.103 227.597 125.103C227.356 125.103 227.162 125.281 227.162 125.501C227.162 125.721 227.356 125.899 227.597 125.899Z" fill="white" stroke="black" stroke-width="2.926" stroke-miterlimit="10"/>
<path d="M261.756 100.97C261.756 100.97 263.409 94.8867 265.504 94.0275C267.599 93.1682 273.221 90.354 273.221 90.354L272.119 87.6691C272.119 87.6691 264.426 91.541 263.985 92.452C263.544 93.363 261.535 100.97 261.535 100.97H261.756Z" fill="white"/>
<path d="M257.907 83.1415C257.907 83.1415 261.523 83.26 261.774 83.1415C261.201 84.7115 258.212 86.1714 257.907 83.1415Z" fill="#FFFEEA"/>
<path d="M261.12 79.7133C260.943 80.1092 260.552 80.3374 260.247 80.2232C259.942 80.109 259.838 79.6955 260.015 79.2997C260.192 78.9038 260.583 78.6755 260.888 78.7898C261.193 78.904 261.297 79.3175 261.12 79.7133Z" fill="#0F093B"/>
<path d="M259.786 77.3093C259.786 77.3093 262.657 78.576 262.656 78.1256C262.654 77.6753 259.033 76.4234 259.786 77.3093Z" fill="#0F093B"/>
<path d="M257.359 78.2907C257.448 77.8891 257.257 77.5124 256.932 77.4492C256.607 77.3861 256.271 77.6604 256.182 78.0619C256.092 78.4634 256.284 78.8402 256.609 78.9033C256.934 78.9665 257.27 78.6922 257.359 78.2907Z" fill="#0F093B"/>
<path d="M255.844 75.6857C255.844 75.6857 258.715 76.9523 258.713 76.502C258.712 76.0517 255.09 74.7998 255.844 75.6857Z" fill="#0F093B"/>
<path d="M258.086 78.4219C258.086 78.4219 257.447 80.0904 257.112 80.441C256.777 80.7916 255.587 82.016 257.227 81.9962C258.867 81.9765 258.086 81.1866 258.086 81.1866C258.086 81.1866 258.17 81.664 257.722 81.7584C257.275 81.8529 256.613 81.7608 256.771 81.3547C256.912 81.0102 257.099 80.6834 257.326 80.3819C257.477 80.1794 258.277 78.3379 258.086 78.4219Z" fill="#B55050"/>
<path d="M297.031 166.571H334.026V161.956H297.031V166.571Z" fill="#C2668F"/>
<path d="M303.721 167.737H308.906L298.817 198.494H332.635V201.814H295.641V198.494L303.721 167.737Z" fill="#071444"/>
<path d="M354.366 175.864H391.36V171.249H354.366V175.864Z" fill="#C2668F"/>
<path d="M361.056 177.239H366.241L356.151 207.995H389.97V211.315H352.975V207.995L361.056 177.239Z" fill="#071444"/>
<path d="M309.225 94.1261C309.225 94.1261 313.465 98.2064 317.134 95.2752C317.902 100.182 309.775 107.406 310.67 108.14C311.565 108.873 317.063 109.119 317.73 108.731C318.397 108.342 326.889 96.8 322.634 91.7104C317.25 85.2718 311.236 89.0083 311.236 89.0083C311.236 89.0083 306.661 88.3087 304.843 90.1489C303.025 91.9892 298.231 101.802 305.147 107.656C311.236 111.044 307.705 107.398 307.705 107.398L309.225 94.1261Z" fill="#4F092F"/>
<path d="M304.553 155.295C307.347 154.273 310.626 154.386 313.783 154.159C313.783 155.522 314.269 158.135 316.212 157.34C320.285 155.871 324.498 154.769 328.794 154.047C327.521 149.07 322.867 144.408 317.496 143.576C313.481 142.954 302.652 146.153 298.513 152.194C298.125 152.441 297.756 152.713 297.41 153.009C299.876 154.445 301.66 157.151 304.432 157.908C304.432 156.999 304.189 155.522 304.553 155.295Z" fill="#0B0A42"/>
<path d="M316.213 157.34C314.269 158.135 313.784 155.522 313.784 154.159C310.626 154.386 307.347 154.273 304.553 155.295C304.189 155.522 304.432 156.999 304.432 157.908C301.66 157.151 299.876 154.445 297.41 153.009C292.981 156.713 285.324 167.468 289.199 167.388C297.991 167.206 310.561 168.307 316.437 167.692C317.274 167.605 319.33 166.532 319.801 166.411C327.957 164.318 330.067 159.024 328.794 154.047C324.498 154.769 320.285 155.872 316.213 157.34Z" fill="#0B5ACE"/>
<path d="M306.253 130.419C305.685 123.933 304.798 117.448 306.479 111.149C303.547 112.299 299.807 114.694 298.911 116.071C297.702 117.929 300.38 120.837 301.482 129.643C302.585 138.449 297.944 150.236 297.944 150.236C299.911 151.854 302.47 152.666 305.362 152.974C305.389 152.841 305.403 152.705 305.403 152.569C306.375 145.072 306.982 137.802 306.253 130.419Z" fill="#EF7843"/>
<path d="M307.589 122.467C309.29 123.035 312.205 122.922 313.176 121.104C314.148 119.4 314.391 117.469 315.484 115.652C316.299 114.38 317.25 113.172 318.135 111.932C316.756 111.523 315.356 111.179 313.941 110.9C312.344 110.638 310.726 110.503 309.104 110.497C308.432 110.497 307.505 110.747 306.479 111.149C305.866 113.447 305.595 115.771 305.525 118.11C305.637 119.064 305.657 120.077 305.889 120.991C306.132 121.786 306.982 122.354 307.589 122.467Z" fill="#FFC3A9"/>
<path d="M320.765 137.156C319.037 130.532 322.147 116.394 322.32 114.455C322.407 113.476 320.271 112.58 318.135 111.932C317.25 113.172 316.3 114.38 315.484 115.652C314.391 117.469 314.148 119.4 313.176 121.104C312.205 122.922 309.29 123.035 307.59 122.467C306.982 122.354 306.132 121.786 305.889 120.991C305.657 120.077 305.638 119.064 305.525 118.11C305.404 122.181 305.893 126.3 306.254 130.419C306.982 137.802 306.375 145.072 305.403 152.569C305.403 152.705 305.389 152.841 305.362 152.974C311.179 153.594 318.342 152.169 324.738 151.132C324.738 151.132 322.492 143.781 320.765 137.156Z" fill="#0B5ACE"/>
<path d="M316.073 110.497C316.073 110.497 312.004 116.927 312.111 123.635C312.219 130.344 315.002 156.577 315.002 156.577C315.002 156.577 328.277 151.871 328.705 151.671C329.133 151.471 323.352 141.358 323.138 138.354C322.924 135.35 324.946 119.072 324.738 116.397C324.53 113.722 316.073 110.497 316.073 110.497Z" fill="#0B5ACE"/>
<path d="M306.092 110.496C306.092 110.496 304.939 112.921 304.832 114.724C304.725 116.526 304.939 136.852 304.832 139.155C304.725 141.458 303.022 156.577 303.022 156.577C303.022 156.577 296.695 151.771 295.732 151.471C294.768 151.17 297.552 144.962 298.515 142.359C299.479 139.756 302.005 133.774 301.62 130.844C301.235 127.915 296.528 119.991 298.279 116.253C299.304 114.066 305.993 109.729 306.092 110.496Z" fill="#0B5ACE"/>
<path d="M312.109 133.194C312.109 133.194 311.083 128.218 310.338 126.613C309.593 125.008 308.735 124.259 308.391 124.206C308.048 124.152 307.591 125.65 307.819 126.506C308.048 127.362 308.906 130.626 308.849 131.428C308.792 132.231 310.622 134.264 311.194 134.692C311.766 135.12 312.109 133.194 312.109 133.194Z" fill="#F9A2A2"/>
<path d="M318.849 111.648C318.849 111.648 327.771 115.885 328.635 118.955C329.499 122.025 333.238 143.263 330.388 143.263C327.538 143.263 311.341 135.547 311.341 135.547C310.375 134.493 311.426 132.526 312.109 131.279C312.109 131.279 322.058 133.731 325.463 135.31C323.774 131.816 322.784 121.961 322.784 121.961L318.849 111.648Z" fill="#0B5ACE"/>
<path d="M310.869 109.291C311.922 108.921 312.904 108.386 313.93 107.972L313.211 102.58L308.571 104.58L307.965 109.132C308.928 109.322 309.87 109.68 310.869 109.291Z" fill="#E87777"/>
<path d="M310.869 109.291C309.87 109.68 308.928 109.322 307.965 109.132L307.361 113.668C307.361 113.668 307.988 116.273 308.571 116.395C309.154 116.516 314.466 111.988 314.466 111.988L313.93 107.972C312.904 108.386 311.922 108.921 310.869 109.291Z" fill="#F9A2A2"/>
<path d="M309.533 94.7513C310.99 96.0007 312.933 96.2279 314.634 96.7959C316.34 97.3658 318.046 97.3351 319.768 97.1488C319.895 95.5353 319.665 93.9146 319.093 92.3876C317.532 88.143 309.907 90.0585 309.907 90.0585C309.907 90.0585 306.163 93.1998 305.159 97.9963C306.876 97.2595 308.251 96.0495 309.533 94.7513Z" fill="#E29393"/>
<path d="M314.634 96.7959C312.933 96.228 310.99 96.0008 309.533 94.7513C308.251 96.0496 306.876 97.2596 305.159 97.9963C304.838 99.5109 304.832 101.069 305.142 102.586C306.629 109.87 312.093 108.853 314.131 107.106C315.699 105.764 319.37 102.084 319.767 97.1488C318.046 97.3352 316.34 97.3658 314.634 96.7959Z" fill="#F9A2A2"/>
<path d="M308.001 104.09L312.342 104.65C312.342 104.65 310.253 107.815 308.001 104.09Z" fill="#FFFEEA"/>
<path d="M313.909 99.6637C313.859 99.7905 313.77 99.9007 313.653 99.9801C313.536 100.06 313.396 100.105 313.252 100.11C313.108 100.115 312.965 100.079 312.842 100.008C312.719 99.9369 312.622 99.8331 312.562 99.71C312.503 99.5869 312.484 99.45 312.508 99.3167C312.532 99.1834 312.597 99.0598 312.697 98.9617C312.796 98.8635 312.924 98.7952 313.065 98.7654C313.206 98.7357 313.353 98.7458 313.488 98.7946C313.667 98.8577 313.812 98.9847 313.891 99.1477C313.97 99.3107 313.976 99.4963 313.909 99.6637Z" fill="#4F092F"/>
<path d="M308.719 99.0776C308.666 99.2118 308.572 99.3282 308.449 99.4122C308.325 99.4961 308.177 99.5437 308.025 99.549C307.872 99.5543 307.721 99.5169 307.591 99.4417C307.461 99.3664 307.358 99.2568 307.296 99.1266C307.233 98.9964 307.212 98.8517 307.238 98.7108C307.263 98.5699 307.333 98.4392 307.437 98.3354C307.542 98.2316 307.678 98.1594 307.827 98.1279C307.976 98.0965 308.132 98.1072 308.274 98.1588C308.463 98.2255 308.617 98.3598 308.7 98.5321C308.783 98.7044 308.79 98.9006 308.719 99.0776Z" fill="#4F092F"/>
<path d="M306.41 97.2162C306.41 97.2162 308.403 96.4443 309.557 96.9765C309.994 97.1781 306.347 97.7181 306.41 97.2162Z" fill="#4F092F"/>
<path d="M315.635 98.5905C315.635 98.5905 313.944 97.4659 312.915 97.7715C312.526 97.8872 315.665 99.0926 315.635 98.5905Z" fill="#4F092F"/>
<path d="M310.72 98.0433C310.72 98.0433 309.982 100.272 309.656 100.804C309.329 101.336 308.414 101.729 309.274 102.114C310.133 102.499 311.245 102.629 311.245 102.629C311.245 102.629 311.501 102.398 310.939 102.279C310.378 102.161 309.598 101.997 309.473 101.761C309.347 101.526 309.873 101.126 310.011 100.811C310.148 100.497 310.798 97.8114 310.72 98.0433Z" fill="#B55050"/>
<path d="M307.536 209.278C307.536 209.278 310.352 207.852 310.87 211.522C311.388 215.192 311.626 216.011 311.626 216.011L310.981 216.466L309.899 214.202C309.899 214.202 307.886 219.397 302.668 220.733C298.318 221.846 304.37 212.51 304.37 212.51L307.536 209.278Z" fill="#8E0772"/>
<path d="M277.777 213.897C277.777 213.897 281.273 211.852 281.778 214.017C282.283 216.183 282.183 220.055 282.234 220.182C282.285 220.309 281.083 221.278 281.083 221.278L279.683 219.193C279.683 219.193 276.535 223.767 273.768 224.492C272.338 224.866 269.88 225.447 269.405 225.233C267.979 224.592 271.586 221.416 271.845 220.987C273.259 218.646 274.308 216.81 274.308 216.81L277.777 213.897Z" fill="#8E0772"/>
<path d="M279.899 209.251C280.628 206.865 282.085 204.593 283.057 202.321C283.421 201.299 283.664 200.277 284.15 199.368C285.729 195.733 287.672 192.326 288.886 188.577C289.251 187.555 289.251 186.532 289.615 185.51C290.465 182.898 291.194 180.285 291.801 177.445C293.016 172.561 295.809 169.039 299.088 165.064C299.331 164.723 299.088 164.155 299.331 164.041C299.625 163.825 299.896 163.582 300.14 163.316C298.812 160.073 293.972 158.378 290.41 160.973C288.152 162.618 286.64 168.891 286.332 170.958C285.824 174.371 278.92 203.904 277.71 208.105C276.501 212.306 274.346 216.798 274.346 216.798C274.346 216.798 274.67 219.381 278.989 216.796C279.796 216.313 280.353 215.957 280.727 215.682C279.276 213.878 279.276 211.191 279.899 209.251Z" fill="#F9A2A2"/>
<path d="M299.331 164.041C299.088 164.155 299.331 164.723 299.088 165.064C295.809 169.039 293.015 172.561 291.801 177.445C291.194 180.285 290.465 182.898 289.615 185.51C289.251 186.532 289.251 187.555 288.886 188.577C287.672 192.326 285.728 195.733 284.15 199.368C283.664 200.277 283.421 201.299 283.057 202.321C282.085 204.593 280.628 206.865 279.899 209.251C279.276 211.191 279.276 213.878 280.727 215.682C282.354 214.484 280.507 214.814 280.647 212.843C280.82 210.419 288.088 200.22 289.45 194.433C290.842 188.519 293.346 180.674 294.641 175.037C295.239 172.435 300.489 167.303 300.49 165.086C300.491 164.481 300.372 163.881 300.14 163.316C299.896 163.582 299.625 163.825 299.331 164.041Z" fill="#EF9292"/>
<path d="M311.341 166.854C311.341 166.854 315.621 168.447 316.65 167.241C317.68 166.034 310.287 158.685 306.931 158.822C303.575 158.959 302.17 161.065 302.17 161.065C302.17 161.065 309.916 166.657 311.341 166.854Z" fill="#05031C"/>
<path d="M309.533 167.79C309.168 175.173 310.869 182.33 309.897 189.713C308.765 197.439 308.688 204.968 308.191 212.668C309.482 211.185 309.664 209.39 309.664 209.39C309.664 209.39 312.423 170.72 312.766 167.05C312.872 166.001 312.705 164.943 312.28 163.967C310.748 164.728 309.601 165.935 309.533 167.79Z" fill="#EF9292"/>
<path d="M309.533 167.79C309.601 165.935 310.748 164.728 312.28 163.967C309.914 158.586 300.23 157.529 301.125 165.345C302.69 179.008 305.035 204.498 305.38 207.826C305.606 210.012 304.331 214.56 304.331 214.56C306.182 214.376 307.397 213.581 308.191 212.668C308.688 204.968 308.765 197.439 309.897 189.713C310.868 182.33 309.168 175.173 309.533 167.79Z" fill="#F9A2A2"/>
<path d="M301.924 134.141C301.924 134.141 302.95 129.166 303.696 127.561C304.441 125.956 305.299 125.207 305.642 125.154C305.986 125.1 306.443 126.598 306.214 127.454C305.986 128.31 305.128 131.574 305.185 132.376C305.242 133.178 303.412 135.211 302.84 135.639C302.268 136.067 301.924 134.141 301.924 134.141Z" fill="#F9A2A2"/>
<path d="M298.279 116.253C295.833 118.454 286.104 140.135 288.579 143.263C290.275 145.406 303.144 137.124 303.144 137.124C304.556 136.694 302.706 133.213 301.521 132.546C301.521 132.546 297.945 135.899 295.179 137.154C294.715 134.704 298.384 128.464 299.972 126.028C299.144 121.692 297.377 119.751 298.279 116.253Z" fill="#0B5ACE"/>
<path d="M316.125 94.1046C316.125 94.1046 317.269 98.8376 316.453 101.206C316.804 101.816 317.75 99.9241 318.101 99.504C318.452 99.084 319.034 100.985 317.955 102.585C316.876 104.185 318.318 104.541 318.791 104.127C319.263 103.713 322.36 98.0609 322.083 96.5991C321.805 95.1373 316.999 91.3794 316.125 94.1046Z" fill="#4F092F"/>
<path d="M307.615 90.8015C307.615 90.8015 311.969 95.2373 315.204 95.5026C318.438 95.768 318.292 98.7839 319.073 99.0289C319.853 99.2739 320.696 99.9057 321.08 97.3432C321.465 94.7807 321.447 90.5019 316.894 89.5342C312.34 88.5664 307.348 89.3375 307.615 90.8015Z" fill="#4F092F"/>
<path d="M303.656 98.8179C303.656 98.8179 309.621 94.3755 309.869 92.3288C310.118 90.2822 307.607 90.0639 306.036 90.9716C304.097 92.1499 301.646 95.1285 303.656 98.8179Z" fill="#4F092F"/>
<path d="M357.539 205.74L354.152 203.224L350.993 206.086L353.443 209.384C355.114 208.51 356.523 207.257 357.539 205.74Z" fill="white"/>
<path d="M357.54 205.74C356.523 207.257 355.114 208.51 353.443 209.384L353.52 209.487C353.52 209.487 350.506 214.196 350.219 216.835C350.014 218.493 350.943 220.112 350.943 220.112C350.943 220.112 355.676 217.53 357.227 213.078C357.339 212.756 358.291 213.745 358.528 213.502C359.945 212.045 362.275 209.256 362.275 209.256L357.54 205.74Z" fill="#2E0446"/>
<path d="M349.432 162.292C346.352 163.138 321.439 169.29 321.745 174.886C322.441 187.568 350.224 206.783 350.224 206.783C352.69 206.13 354.479 204.822 355.092 202.372C355.092 202.372 336.24 179.891 336.384 178.044C336.528 176.197 363.155 173.061 363.155 173.061L369.545 163.67L367.719 158.453L352.81 158.05C352.81 158.05 352.511 161.446 349.432 162.292Z" fill="#201E44"/>
<path d="M335.612 218.504L335.561 218.8C335.561 218.8 329.898 220.238 327.734 221.953C326.357 223.014 325.826 224.783 325.826 224.783C325.826 224.783 331.15 225.994 335.569 223.792C335.888 223.632 335.841 224.963 336.192 224.941C338.293 224.81 342.039 224.313 342.039 224.313L341.301 219.166C339.351 219.227 337.354 219.251 335.612 218.504Z" fill="#2E0446"/>
<path d="M336.262 214.711L335.612 218.504C337.354 219.251 339.351 219.227 341.301 219.166L340.66 214.698L336.262 214.711Z" fill="white"/>
<path d="M373.901 163.133C371.715 164.609 369.043 165.064 366.493 165.859C366.007 165.973 365.4 166.427 364.914 166.541C362.495 167.055 359.478 166.451 358.749 164.057C354.249 165.61 340.73 169.164 339.466 174.418C338.008 180.483 334.554 216.222 334.554 216.222L339.629 215.359C340.339 213.631 340.827 211.838 341.231 210.046C342.081 205.502 343.417 201.413 344.875 197.096C345.239 195.96 345.968 194.711 346.453 193.575C348.518 188.123 349.975 182.443 353.983 178.013C354.833 176.991 356.898 177.218 358.598 176.764C362.363 175.969 366.007 176.082 369.772 175.06C373.415 174.037 375.966 171.879 378.152 169.153C378.315 168.959 378.472 168.762 378.622 168.563C379.216 166.239 379.239 163.781 379.087 161.786C377.164 161.912 375.307 162.164 373.901 163.133Z" fill="#201E44"/>
<path d="M364.914 166.54C365.4 166.427 366.007 165.972 366.493 165.859C369.043 165.064 371.715 164.609 373.901 163.133C375.307 162.164 377.164 161.912 379.087 161.786C378.987 160.393 378.779 159.009 378.464 157.645L360.721 158.453C360.721 158.453 361.502 162.409 360.112 163.48C359.926 163.624 359.444 163.816 358.749 164.056C359.478 166.451 362.495 167.055 364.914 166.54Z" fill="#19276B"/>
<path d="M378.152 169.153C375.966 171.879 373.415 174.037 369.772 175.06C366.007 176.082 362.363 175.968 358.598 176.764C356.898 177.218 354.833 176.991 353.983 178.013C349.975 182.443 348.518 188.123 346.453 193.575C345.967 194.711 345.239 195.96 344.874 197.096C343.417 201.413 342.081 205.502 341.231 210.046C340.827 211.838 340.339 213.631 339.629 215.359L341.248 215.083C341.248 215.083 352.018 184.145 353.492 180.576C354.967 177.007 368.125 178.368 374.167 174.886C376.661 173.449 377.978 171.085 378.622 168.563C378.471 168.762 378.314 168.959 378.152 169.153Z" fill="#1D3D93"/>
<path d="M342.329 124.912C342.329 124.912 343.015 120.91 342.513 120.89C342.01 120.871 342.945 117.802 339.612 118.807C336.28 119.811 340.637 125.327 340.731 125.325C340.825 125.323 342.329 124.912 342.329 124.912Z" fill="#F4A594"/>
<path d="M343.875 127.071C343.52 126.57 343.304 123.993 343.095 123.998C342.886 124.002 339.897 124.96 339.897 124.96L340.933 128.263L343.875 127.071Z" fill="white"/>
<path d="M387.26 144.845C387.017 146.094 387.382 147.344 386.896 148.366C386.49 149.231 385.997 150.059 385.425 150.838C386.644 150.769 387.709 150.076 387.998 148.936C388.554 146.751 388.824 141.841 388.59 136.859C388.237 138.678 388.188 140.635 387.746 142.346C387.632 143.186 387.47 144.02 387.26 144.845Z" fill="#D3CBB4"/>
<path d="M381.557 123.087C381.071 123.423 379.821 125.367 379.844 127.751C379.907 134.559 380.969 146.602 381.206 147.421C381.932 149.928 383.814 150.928 385.425 150.838C385.997 150.059 386.49 149.231 386.896 148.366C387.382 147.344 387.018 146.094 387.26 144.845C387.47 144.021 387.633 143.186 387.746 142.346C388.188 140.635 388.237 138.678 388.59 136.859C388.32 131.128 387.382 125.301 385.44 123.409C383.652 121.667 381.557 123.087 381.557 123.087Z" fill="#FFF7DC"/>
<path d="M361.05 106.789C361.05 106.789 359.035 104.384 358.726 106.072C358.417 107.761 360.689 110.465 361.045 109.514C361.401 108.563 361.05 106.789 361.05 106.789Z" fill="#EF8F8F"/>
<path d="M352.404 139.165C353.699 133.818 353.269 127.844 356.305 123.312C356.245 122.987 356.146 122.67 356.009 122.367C354.962 120.161 352.475 120.829 352.475 120.829C351.896 120.99 350.014 122.421 349.167 124.67C347.215 129.86 345.651 138.778 345.083 142.457C345.484 143.501 345.941 144.525 346.453 145.526C350.34 146.435 351.676 141.891 352.404 139.165Z" fill="#FFF7DC"/>
<path d="M352.404 139.165C351.676 141.891 350.34 146.435 346.453 145.526C345.941 144.525 345.484 143.501 345.083 142.457C344.948 143.331 344.869 143.91 344.855 144.072C344.452 148.621 349.874 146.277 350.999 146.558C352.325 146.888 357.479 129.137 356.305 123.312C353.269 127.844 353.699 133.818 352.404 139.165Z" fill="#D3CBB4"/>
<path d="M346.453 145.526C343.412 139.618 342.623 132.972 340.724 126.705C340.523 126.82 340.4 126.9 340.4 126.9C340.4 126.9 343.555 144.778 344.761 145.988C350.299 151.55 352.615 146.229 351.513 141.961C350.623 144.156 349.154 146.158 346.453 145.526Z" fill="#D3CBB4"/>
<path d="M343.788 125.882C342.999 125.489 341.407 126.311 340.724 126.705C342.623 132.972 343.412 139.618 346.453 145.526C349.154 146.158 350.623 144.156 351.513 141.961C351.442 141.685 351.356 141.413 351.255 141.146C351.255 141.146 344.808 126.39 343.788 125.882Z" fill="#FFF7DC"/>
<path d="M364.064 154.273C366.371 154.159 368.8 153.705 371.229 153.478C372.201 153.364 372.929 152.796 373.658 152.455C376.451 151.206 376.694 148.025 376.816 145.526C377.18 139.165 378.03 132.918 379.852 126.557C380.338 125.08 381.552 123.603 381.431 122.24C381.314 121.365 379.619 120.7 378.952 119.535L375.503 117.688C372.696 116.375 366.881 116.155 361.205 117.561C356.188 118.803 351.726 121.014 351.254 121.828C351.113 122.073 351.716 134.586 354.723 145.285C355.561 148.266 354.692 151.246 353.765 154.078C357.083 155.101 360.678 154.589 364.064 154.273Z" fill="#7081F9"/>
<path d="M377.302 150.297C377.059 150.524 376.937 150.979 376.573 150.979C376.192 150.979 375.835 150.933 375.503 150.944C375.049 151.598 374.411 152.121 373.658 152.455C372.93 152.796 372.201 153.364 371.229 153.478C368.8 153.705 366.371 154.159 364.064 154.273C360.678 154.589 357.083 155.101 353.765 154.078C353.192 155.828 352.597 157.521 352.368 159.123C359.755 160.56 371.788 161.249 379.844 159.185C379.347 155.684 379.343 151.04 379.777 145.961C378.065 146.479 378.186 148.953 377.302 150.297Z" fill="#0B5ACE"/>
<path d="M375.755 150.544C375.676 150.681 375.594 150.815 375.503 150.944C375.835 150.933 376.192 150.979 376.573 150.979C376.937 150.979 377.059 150.524 377.302 150.297C377.842 149.476 378.007 148.235 378.444 147.274C377.555 148.331 376.77 149.616 375.755 150.544Z" fill="#3947AA"/>
<path d="M378.952 119.535C379.619 120.7 381.314 121.365 381.431 122.24C381.552 123.603 380.338 125.08 379.852 126.557C378.03 132.918 377.18 139.165 376.816 145.526C376.737 147.151 376.603 149.061 375.754 150.544C376.77 149.616 377.555 148.331 378.444 147.274C378.722 146.661 379.11 146.163 379.777 145.961C380.43 138.336 382.074 129.729 384.536 122.527L378.952 119.535Z" fill="#7081F9"/>
<path d="M366.996 122.259L367.849 124.987L367.054 126.672L364.931 126.69L363.923 124.641L365.409 122.259H366.996Z" fill="#2C0445"/>
<path d="M367.073 126.903H365.247L362.299 138.722L365.058 151.79H366.436L368.365 139.346L367.073 126.903Z" fill="#2C0445"/>
<path d="M372.613 115.483L372.167 110.943L365.296 109.361L363.622 115.813C366.494 117.005 369.64 116.573 372.613 115.483Z" fill="#E57A7A"/>
<path d="M363.622 115.813L362.565 119.886L365.944 121.541C368.322 122.043 370.652 120.952 372.955 118.975L372.613 115.483C369.64 116.573 366.494 117.005 363.622 115.813Z" fill="#EF8F8F"/>
<path d="M365.548 121.828C365.548 121.828 365.826 119.687 365.325 118.271C364.824 116.854 362.299 115.935 362.299 115.935C362.299 115.935 362.029 118.921 361.851 119.462C361.672 120.004 365.003 121.683 365.548 121.828Z" fill="white"/>
<path d="M374.166 118.977L373.513 115.935C373.513 115.935 368.682 118.562 367.772 120.218C366.861 121.874 367.587 122.039 367.587 122.039C367.587 122.039 371.885 121.914 374.166 118.977Z" fill="white"/>
<path d="M374.324 102.043C370.552 102.73 366.876 102.04 363.092 102.362C362.728 102.362 362.242 102.362 361.999 102.703C361.027 104.406 361.634 106.451 360.299 107.928C360.234 107.968 360.162 107.999 360.087 108.019C360.865 112.861 364.323 116.456 368.222 116.247C372.441 116.02 375.577 111.425 375.228 105.984C375.146 104.635 374.841 103.305 374.324 102.043Z" fill="#EF8F8F"/>
<path d="M361.999 102.703C362.242 102.362 362.728 102.362 363.092 102.362C366.876 102.04 370.552 102.73 374.325 102.043C372.917 98.6461 370.078 96.3746 366.957 96.5424C362.738 96.7692 359.602 101.364 359.951 106.805C359.978 107.217 360.023 107.622 360.088 108.019C360.163 107.999 360.234 107.968 360.299 107.928C361.635 106.451 361.027 104.406 361.999 102.703Z" fill="#D37D7D"/>
<path d="M372.773 105.629C372.773 105.629 369.859 103.978 369.255 104.756C368.918 105.19 372.959 106.287 372.773 105.629Z" fill="#350D1D"/>
<path d="M362.07 104.892C362.07 104.892 365.195 103.457 365.546 104.582C365.703 105.086 362.807 105.034 362.642 105.056C362.478 105.078 362.003 105.041 362.07 104.892Z" fill="#350D1D"/>
<path d="M369.084 107.162C369.09 107.477 369.462 107.728 369.915 107.721C370.368 107.715 370.731 107.453 370.725 107.137C370.72 106.821 370.348 106.571 369.895 106.577C369.441 106.584 369.078 106.846 369.084 107.162Z" fill="#350D1D"/>
<path d="M363.638 107.056C363.582 107.385 363.885 107.704 364.315 107.767C364.745 107.83 365.139 107.615 365.196 107.285C365.252 106.956 364.949 106.637 364.519 106.574C364.089 106.511 363.695 106.727 363.638 107.056Z" fill="#350D1D"/>
<path d="M366.681 105.721C366.681 105.721 365.891 109.326 365.848 109.453C365.805 109.58 364.055 110.082 364.921 110.86C365.788 111.638 366.484 111.478 366.928 111.163C367.372 110.848 366.802 110.707 366.553 110.885C366.304 111.063 365.367 110.93 365.306 110.606C365.245 110.282 365.711 109.848 366.08 109.671C366.449 109.495 366.837 105.927 366.837 105.927L366.681 105.721Z" fill="#B55050"/>
<path d="M373.859 108.868C373.505 108.926 375.172 103.008 374.252 101.962C373.784 101.43 373.499 100.889 373.661 100.725C373.824 100.56 363.854 101.897 361.412 101.157L360.534 104.606C360.534 104.606 360.716 107.171 360.286 106.705C360.163 106.572 359.701 106.111 359.594 105.471C359.326 103.881 359.474 101.367 359.474 101.367C359.474 101.367 357.027 99.6554 356.758 99.0906C356.488 98.5259 359.568 98.2233 361.432 96.3482C363.296 94.473 367.73 93.6772 370.524 94.3865C373.169 95.0579 374.269 96.485 374.719 97.7164C376.729 97.2316 377.09 97.9377 376.96 100.121C376.83 102.304 376.837 105.206 376.334 106.899C375.831 108.592 374.026 112.54 374.026 112.54C374.026 112.54 373.446 112.434 373.879 111.112C374.407 109.498 375.949 106.585 375.702 106.227C375.253 105.576 374.626 108.741 373.859 108.868Z" fill="#350D1D"/>
<path d="M374.998 106.244C374.998 106.244 377.216 104.279 377.125 105.717C377.034 107.155 376.406 109.553 375.303 109.48C374.2 109.406 374.998 106.244 374.998 106.244Z" fill="#EF8F8F"/>
<path d="M329.863 151.581C329.865 151.497 329.84 151.415 329.792 151.345C329.744 151.274 329.674 151.219 329.592 151.186C329.51 151.152 329.42 151.143 329.332 151.158C329.244 151.173 329.163 151.212 329.099 151.271C329.035 151.329 328.991 151.404 328.973 151.486C328.955 151.568 328.963 151.653 328.997 151.73C329.031 151.807 329.088 151.874 329.163 151.92C329.237 151.967 329.324 151.992 329.413 151.992C329.531 151.993 329.645 151.95 329.729 151.873C329.813 151.796 329.861 151.691 329.863 151.581Z" fill="white" stroke="black" stroke-width="2.926" stroke-linecap="round" stroke-linejoin="round"/>
<path d="M364.141 112.289L368.927 112.394C368.694 112.852 368.325 113.239 367.863 113.508C367.402 113.777 366.869 113.918 366.325 113.912C364.402 113.912 364.141 112.289 364.141 112.289Z" fill="#FFFEEA"/>
<path d="M368.538 160.898C368.538 160.898 365.907 161.998 365.042 161.603C363.431 160.866 359.762 163.315 360.558 164.092C361.353 164.868 364.534 166.51 365.907 165.748C367.281 164.985 370.295 163.63 370.167 163.371C370.04 163.111 368.538 160.898 368.538 160.898Z" fill="#F4A594"/>
<path d="M369.911 159.953L367.312 161.434L370.147 164.273L372.376 161.78L369.911 159.953Z" fill="white"/>
<path d="M370.622 161.429C370.427 161.52 370.232 161.83 369.975 162.125C370.453 162.51 370.956 162.867 371.483 163.193C371.483 163.193 386.462 153.542 387.142 152.016C388.4 149.187 388.153 147.537 387.169 146.751C387.167 147.325 387.131 147.872 386.896 148.366C383.981 154.613 376.937 157.794 370.622 161.429Z" fill="#D3CBB4"/>
<path d="M379.741 148.49C379.741 148.49 368.757 159.301 368.685 160.381C368.65 160.9 369.296 161.569 369.975 162.125C370.232 161.83 370.427 161.52 370.622 161.429C376.937 157.794 383.981 154.613 386.896 148.366C387.131 147.872 387.167 147.325 387.169 146.751C385.553 145.46 381.946 146.5 379.741 148.49Z" fill="#FFF7DC"/>
<path d="M371.455 159.908C371.551 159.816 371.615 159.7 371.64 159.574C371.664 159.448 371.648 159.318 371.593 159.2C371.538 159.082 371.447 158.983 371.332 158.914C371.216 158.845 371.081 158.81 370.944 158.813C370.807 158.816 370.674 158.857 370.562 158.931C370.45 159.006 370.365 159.109 370.316 159.229C370.267 159.349 370.258 159.48 370.289 159.604C370.32 159.729 370.39 159.843 370.491 159.93C370.622 160.047 370.797 160.11 370.978 160.106C371.159 160.102 371.33 160.031 371.455 159.908Z" fill="#2C0445"/>
<path d="M134.142 164.73H97.1475V169.345H134.142V164.73Z" fill="#C2668F"/>
<path d="M127.451 170.574H122.267L132.356 201.33H98.5376V204.65H135.532V201.33L127.451 170.574Z" fill="#071444"/>
<path d="M148.233 212.642C149.698 212.897 151.21 212.774 152.606 212.287C151.524 210.177 151.373 208.264 151.407 205.924C150.439 206.157 149.47 206.389 148.502 206.621C147.685 206.817 147.247 206.811 147.24 207.667C147.224 209.557 147.677 210.825 148.233 212.642Z" fill="white"/>
<path d="M157.107 213.272C154.341 211.302 153.318 210.875 152.257 210.866C151.997 211.228 151.711 211.502 151.371 211.589C149.742 212.741 149.238 212.263 147.349 211.377L147.033 217.044C147.033 217.044 149.842 217.716 151.703 217.364C152.014 217.305 151.625 216.199 151.93 216.307C156.424 217.907 159.123 218.768 161.688 216.907C163.701 215.446 162.128 216.317 157.107 213.272Z" fill="#2E0446"/>
<path d="M118.265 214.09C117.199 215.763 117.114 217.987 117.924 219.77L119.19 220.187C119.19 220.187 120.02 223.848 122.44 225.113C124.86 226.378 125.525 225.047 125.809 223.449C126.094 221.851 124.528 218.438 123.959 217.116C123.389 215.793 123.257 214.329 121.615 214.129C120.502 214.012 119.38 213.999 118.265 214.09Z" fill="#2E0446"/>
<path d="M118.905 210.422L118.905 215.927C120.661 217.512 121.989 217.512 122.891 215.927L123.532 210.944L118.905 210.422Z" fill="white"/>
<path d="M136.843 129.155C136.843 129.155 135.617 123.498 135.97 122.965C136.324 122.431 137.068 123.453 137.122 123.669C137.176 123.885 134.459 119.857 137.379 120.035C140.3 120.214 141.037 124.313 140.792 125.278C140.547 126.244 139.965 129.746 139.965 129.746L136.843 129.155Z" fill="#EF8F8F"/>
<path d="M131.73 147.003C128.33 144.731 130.759 140.755 131.366 137.575C132.317 132.237 133.849 127.225 132.773 121.9C129.536 118.479 122.295 116.566 122.295 116.566L125.258 125.523C125.258 125.523 128.501 130.447 128.894 131.96C129.287 133.472 125.854 147.009 132.569 148.462C134.235 148.823 135.567 148.048 136.632 146.615C134.981 147.434 133.268 147.961 131.73 147.003Z" fill="#0B5ACE"/>
<path d="M135.906 128.241C135.906 128.241 135.176 133.962 133.772 137.68C132.171 136.815 134.878 130.011 134.279 124.792C134.158 123.735 133.594 122.769 132.773 121.9C133.849 127.225 132.317 132.237 131.366 137.575C130.759 140.755 128.33 144.731 131.73 147.003C133.267 147.961 134.981 147.434 136.632 146.615C140.467 141.455 140.836 127.758 140.836 127.758L135.906 128.241Z" fill="#0B5ACE"/>
<path d="M125.378 154.482C125.378 154.482 146.495 160.385 147.468 164.401C149.746 172.303 152.984 207.035 152.984 207.035C150.611 207.367 146.161 209.158 145.641 207.071C145.641 207.071 137.63 173.211 137.088 172.005C135.743 169.498 123.493 168.661 121.951 168.39C121.169 168.252 107.357 157.996 107.802 154.481C108.234 151.073 122.87 154.4 125.378 154.482Z" fill="#201E44"/>
<path d="M123.472 181.194C123.714 180.626 123.472 179.944 123.714 179.376C123.836 179.035 124.2 178.808 124.322 178.468C124.585 175.711 124.666 172.941 124.565 170.175C120.071 170.062 115.699 169.494 111.084 168.585C109.626 168.244 108.29 167.904 106.833 167.563C104.836 167.018 103.352 165.887 101.991 164.571C103.469 166.911 105.938 169.079 109.48 169.987C116.6 171.812 117.536 170.343 122.308 171.64C119.99 178.665 119.052 194.8 118.687 204.452C119.123 203.557 119.425 202.611 119.585 201.64C121.043 194.597 121.043 187.782 123.472 181.194Z" fill="#201E44"/>
<path d="M132.094 165.405C131.123 164.382 130.273 163.36 129.058 162.565C126.265 160.747 123.107 159.839 119.949 158.816C117.763 158.021 115.213 157.908 112.784 157.112C111.528 156.693 110.141 156.148 109.159 155.252C106.522 155.297 101.122 155.683 100.458 158.071C100.014 159.666 100.497 162.206 101.991 164.571C103.352 165.887 104.836 167.018 106.833 167.563C108.29 167.904 109.626 168.244 111.084 168.585C115.699 169.494 120.071 170.062 124.564 170.175C124.666 172.941 124.584 175.711 124.322 178.467C124.2 178.808 123.836 179.035 123.714 179.376C123.471 179.944 123.714 180.626 123.471 181.194C121.042 187.782 121.042 194.597 119.585 201.64C119.425 202.611 119.123 203.557 118.687 204.452C118.514 209.028 118.471 212.147 118.471 212.147C119.848 213.131 123.184 213.26 124.296 211.763C124.296 211.763 134.32 184.05 135.446 171.884C134.871 170.148 134.801 168.3 133.552 166.881C133.187 166.427 132.58 165.859 132.094 165.405Z" fill="#201E44"/>
<path d="M135.274 167.561C132.854 159.877 110.596 155.26 110.596 155.26C110.596 155.26 110.027 155.238 109.159 155.252C110.141 156.149 111.528 156.693 112.784 157.112C115.213 157.908 117.763 158.021 119.949 158.816C123.107 159.839 126.265 160.747 129.058 162.565C130.273 163.36 131.123 164.382 132.094 165.405C132.58 165.859 133.187 166.427 133.552 166.881C134.801 168.3 134.871 170.148 135.446 171.884C135.617 170.032 135.582 168.539 135.274 167.561Z" fill="#201E44"/>
<path d="M102.445 140.629C105.522 133.371 109.379 124.652 104.77 117.434C103.55 117.995 102.496 118.769 101.903 119.879C101.491 120.65 101.184 122.212 100.952 124.205C100.167 130.933 100.234 142.578 100.009 145.315C99.7178 148.861 99.0976 156.064 100.585 157.898C101.424 158.933 102.565 158.759 104.161 158.071C102.601 152.172 99.9479 146.283 102.445 140.629Z" fill="#0B5ACE"/>
<path d="M112.207 119.154C113.444 121.34 115.094 123.269 115.231 125.841C116.056 125.327 116.194 124.298 116.881 123.784C118.118 122.883 119.906 123.012 121.418 123.784C122.93 124.555 124.305 125.584 125.955 126.098C125.955 123.696 126.48 121.097 126.506 118.583C120.942 115.88 113.058 115.366 111.846 115.68C111.685 115.722 111.5 115.762 111.296 115.802C111.025 116.921 111.693 118.289 112.207 119.154Z" fill="#0B5ACE"/>
<path d="M120.043 150.916C117.431 150.53 114.956 149.373 112.344 149.887C108.875 150.65 105.473 150.815 102.089 150.694C102.667 153.14 103.509 155.605 104.161 158.071C104.742 157.821 105.383 157.503 106.092 157.15C106.887 156.755 107.765 156.316 108.739 155.881C112.975 153.989 121.469 158.425 125.49 156.89C129.217 155.468 129.706 153.004 129.303 150.457C126.188 150.293 123.216 151.355 120.043 150.916Z" fill="#0B5ACE"/>
<path d="M126.505 118.583C126.48 121.097 125.955 123.696 125.955 126.098C124.305 125.584 122.93 124.555 121.418 123.784C119.905 123.012 118.118 122.883 116.881 123.784C116.193 124.298 116.056 125.327 115.231 125.841C115.093 123.269 113.444 121.34 112.206 119.154C111.692 118.289 111.025 116.921 111.295 115.802C109.721 116.112 106.973 116.423 104.77 117.434C109.379 124.652 105.522 133.371 102.445 140.629C100.992 143.919 101.284 147.289 102.089 150.694C105.473 150.815 108.875 150.65 112.344 149.887C114.956 149.373 117.431 150.53 120.043 150.916C123.216 151.355 126.188 150.293 129.303 150.457C129.271 150.256 129.235 150.056 129.193 149.855C128.366 145.854 131.527 128.416 131.527 128.416C133.347 123.645 130.534 120.54 126.505 118.583Z" fill="#0B5ACE"/>
<path d="M120.97 119.772C122.19 119.085 122.37 117.766 122.37 117.766L122.101 114.407C120.319 114.281 118.563 113.931 116.881 113.368C117.511 115.845 119.299 117.781 120.97 119.772Z" fill="#EF8F8F"/>
<path d="M117.203 104.792L114.107 117.745C114.107 117.745 116.167 120.08 119.099 120.174C119.902 120.2 120.51 120.03 120.97 119.772C119.299 117.781 117.512 115.845 116.881 113.368C118.564 113.931 120.32 114.281 122.102 114.407L121.521 107.14L117.203 104.792Z" fill="#E07070"/>
<path d="M118.238 125.432L120.52 125.567L122.718 142.165C122.718 142.165 119.662 150.945 119.339 151.317C119.016 151.688 117.726 151.317 117.726 151.317L115.861 139.08L118.238 125.432Z" fill="#2C0445"/>
<path d="M122.207 113.888C122.207 113.888 124.86 114.3 125.44 117.955C126.205 122.773 125.399 124.094 125.399 124.094L119.885 120.29L122.207 113.888Z" fill="white"/>
<path d="M114.857 113.059L118.865 120.105L115.703 124.002C115.703 124.002 113.253 120.461 112.182 117.53C111.296 115.026 114.857 113.059 114.857 113.059Z" fill="white"/>
<path d="M114.269 100.766C112.841 100.957 111.415 101.432 110.38 102.346C110.425 102.691 110.485 103.038 110.562 103.387C111.762 108.839 116.69 113.34 121.388 112.975C125.77 112.634 128.483 105.619 127.282 100.166C127.216 99.8625 127.136 99.5649 127.048 99.2724C124.706 99.7166 122.407 100.248 119.906 100.638C117.981 101.023 116.194 100.638 114.269 100.766Z" fill="#EF8F8F"/>
<path d="M116.748 91.9046C112.427 92.7371 109.724 97.2945 110.38 102.346C111.415 101.432 112.842 100.957 114.269 100.766C116.194 100.638 117.981 101.023 119.906 100.638C122.407 100.248 124.706 99.7166 127.048 99.2724C125.555 94.317 121.108 91.0648 116.748 91.9046Z" fill="#C96D6D"/>
<path d="M113.322 110.395C113.322 110.395 114.362 110.553 114.308 110.309C114.254 110.066 112.669 103.418 113.841 102.074C115.013 100.73 115.605 103.666 116.165 102.999C116.724 102.332 116.485 100.751 117.074 99.7225C117.663 98.6939 134.202 101.965 128.224 89.1349C126.201 91.3041 121.742 90.6886 119.148 90.3238C116.555 89.9591 107.308 94.1298 108.277 99.0273C109.247 103.925 112.081 109.007 113.322 110.395Z" fill="#350D1D"/>
<path d="M113.724 105.741C114.735 105.741 115.555 104.871 115.555 103.797C115.555 102.722 114.735 101.852 113.724 101.852C112.713 101.852 111.894 102.722 111.894 103.797C111.894 104.871 112.713 105.741 113.724 105.741Z" fill="#EF8F8F"/>
<path d="M120.164 120.177L121.634 122.75L120.52 124.862H118.048L117.044 122.52L118.865 120.105L120.164 120.177Z" fill="#2C0445"/>
<path d="M120.028 108.002L123.71 107.52C123.71 107.52 124.34 109.207 121.842 109.446C119.99 109.623 120.028 108.002 120.028 108.002Z" fill="#FFFEEA"/>
<path d="M120.555 103.49C120.576 103.589 120.576 103.692 120.555 103.791C120.534 103.89 120.492 103.984 120.431 104.068C120.371 104.152 120.293 104.224 120.203 104.28C120.113 104.335 120.011 104.374 119.905 104.392C119.69 104.435 119.466 104.396 119.282 104.285C119.097 104.173 118.967 103.999 118.919 103.798C118.898 103.699 118.897 103.597 118.919 103.498C118.94 103.399 118.982 103.304 119.042 103.22C119.103 103.136 119.18 103.065 119.27 103.009C119.361 102.953 119.462 102.915 119.568 102.896C119.783 102.854 120.007 102.893 120.192 103.004C120.376 103.115 120.507 103.29 120.555 103.49Z" fill="#350D1D"/>
<path d="M124.811 102.517C124.829 102.603 124.829 102.691 124.811 102.776C124.793 102.861 124.757 102.943 124.705 103.015C124.652 103.087 124.586 103.149 124.508 103.197C124.43 103.245 124.343 103.278 124.251 103.294C124.066 103.331 123.873 103.297 123.714 103.202C123.555 103.106 123.443 102.955 123.402 102.783C123.383 102.697 123.383 102.609 123.401 102.524C123.419 102.438 123.456 102.357 123.508 102.285C123.56 102.212 123.627 102.15 123.704 102.102C123.782 102.055 123.869 102.022 123.961 102.005C124.146 101.969 124.339 102.002 124.498 102.098C124.657 102.194 124.769 102.344 124.811 102.517Z" fill="#350D1D"/>
<path d="M116.719 102.297C116.719 102.297 118.506 100.87 118.717 101.003C119.28 101.357 118.67 101.889 118.332 102.075C117.994 102.261 116.741 102.499 116.719 102.297Z" fill="#350D1D"/>
<path d="M123.477 100.986C123.477 100.986 125.846 100.838 125.558 100.174C125.506 100.052 122.572 100.323 123.477 100.986Z" fill="#350D1D"/>
<path d="M122.39 102.88C122.39 102.88 123.806 105.175 123.742 105.442C123.678 105.708 121.971 106.596 121.678 106.437C121.385 106.277 121.637 106.127 121.788 106.072C121.939 106.018 123.171 105.628 123.196 105.432C123.221 105.237 122.208 102.979 122.39 102.88Z" fill="#B55050"/>
<path d="M115.084 135.666C115.084 135.666 116.163 132.067 117.683 131.279C119.204 130.492 122.092 130.176 122.295 130.255C122.497 130.334 124.735 130.369 124.989 131.279C125.242 132.19 122.31 132.1 121.137 132.955C119.964 133.81 119.805 135.547 118.892 136.179C117.979 136.811 115.614 137.68 115.614 137.68L114.305 136.377L115.084 135.666Z" fill="#EF8F8F"/>
<path d="M110.234 141.437C107.683 143.482 105.133 145.413 102.339 147.003C100.639 147.912 99.3031 148.934 97.7243 149.729C96.6313 150.297 95.1739 150.751 94.2023 150.297C92.9878 149.729 93.4735 148.366 93.4735 147.23C93.8379 143.254 93.3521 139.279 94.4452 135.189C95.6597 130.873 96.6313 126.897 97.3599 122.467C97.4659 121.674 98.1264 121.141 98.3738 120.49C98.1043 120.84 97.8546 121.202 97.6257 121.577C94.5749 126.541 90.0611 149.628 93.4721 151.491C97.2703 153.565 117.922 138.612 117.924 137.443C117.765 137.203 117.593 136.97 117.409 136.747C114.711 137.739 112.506 139.651 110.234 141.437Z" fill="#0B5ACE"/>
<path d="M94.445 135.189C93.352 139.279 93.8377 143.254 93.4734 147.23C93.4734 148.366 92.9876 149.729 94.2021 150.297C95.1737 150.751 96.6311 150.297 97.7241 149.729C99.303 148.934 100.639 147.912 102.339 147.003C105.133 145.413 107.683 143.482 110.233 141.437C112.506 139.651 114.711 137.739 117.408 136.747C116.748 135.93 115.965 135.207 115.083 134.6C111.414 135.036 104.044 139.391 100.657 140.864C103.243 136.624 103.184 132.087 103.887 128.187C105.085 121.542 104.35 117.675 104.35 117.675C104.35 117.675 101.245 116.777 98.3736 120.49C98.1262 121.141 97.4658 121.675 97.3598 122.467C96.6311 126.897 95.6595 130.873 94.445 135.189Z" fill="#0B5ACE"/>
<path d="M172.465 227.429H166.236V159.622H171.333L172.465 227.429Z" fill="#3B3188"/>
<path d="M271.269 225.872L265.04 227.429V159.622H269.599L271.269 225.872Z" fill="#3B3188"/>
<path d="M263.357 159.622L261.925 221.717H168.062V159.622H164.782L163.122 221.717V227.429H168.062H261.925H266.865V221.717V159.622H263.357Z" fill="#6D448A"/>
<path d="M300.284 161.345H135.76L192.137 147.439H251.131L300.284 161.345Z" fill="#350D1D"/>
<path d="M300.284 160.318H135.76V165.867H300.284V160.318Z" fill="#C2668F"/>
<path d="M86.253 170.81H49.2583V175.424H86.253V170.81Z" fill="#C2668F"/>
<path d="M78.8647 175.069H73.6799L84.4674 207.546H50.6489V210.866H87.6436V207.546L78.8647 175.069Z" fill="#071444"/>
<mask id="mask0_22_358" style="mask-type:luminance" maskUnits="userSpaceOnUse" x="64" y="26" width="63" height="106">
<path style="mix-blend-mode:multiply" d="M65.0552 36.6683L126.412 26.1562V131.279L64.9165 42.7548L65.0552 36.6683Z" fill="url(#paint0_linear_22_358)"/>
</mask>
<g mask="url(#mask0_22_358)">
<path opacity="0.5" d="M65.0552 36.6683L126.412 26.1562V131.279L64.9165 42.7548L65.0552 36.6683Z" fill="url(#paint1_linear_22_358)"/>
</g>
<path d="M62.6253 42.8404C63.6258 40.2409 61.5746 37.927 61.0337 35.463L58.0874 34.9119L59.3177 46.4863L62.367 45.0775C62.3038 44.3233 62.3914 43.5646 62.6253 42.8404Z" fill="#8964AF"/>
<path d="M65.3243 36.2656L61.0337 35.463C61.5746 37.927 63.6258 40.241 62.6252 42.8404C62.3914 43.5646 62.3038 44.3233 62.3669 45.0775L65.3243 43.7112C66.5705 42.35 66.7437 38.5037 65.3243 36.2656Z" fill="#A989C6"/>
<path d="M47.0868 0H45.7842V33.0565H47.0868V0Z" fill="#A989C6"/>
<path d="M58.404 34.4247H44.4734C43.0497 34.4247 41.8955 35.5042 41.8955 36.8358V46.975C41.8955 48.3066 43.0497 49.3861 44.4734 49.3861H58.404C59.8277 49.3861 60.9819 48.3066 60.9819 46.975V36.8358C60.9819 35.5042 59.8277 34.4247 58.404 34.4247Z" fill="#A989C6"/>
<path d="M35.0449 34.4247H51.1967C51.6882 34.4247 52.1595 34.6073 52.507 34.9323C52.8545 35.2573 53.0498 35.6982 53.0498 36.1578V47.653C53.0498 48.1126 52.8545 48.5534 52.507 48.8785C52.1595 49.2035 51.6882 49.3861 51.1967 49.3861H35.0449C34.8016 49.3861 34.5606 49.3412 34.3358 49.2541C34.111 49.167 33.9067 49.0394 33.7346 48.8785C33.5626 48.7175 33.4261 48.5265 33.3329 48.3162C33.2398 48.1059 33.1919 47.8805 33.1919 47.653V36.1578C33.1919 35.9302 33.2398 35.7048 33.3329 35.4946C33.4261 35.2843 33.5626 35.0932 33.7346 34.9323C33.9067 34.7714 34.111 34.6437 34.3358 34.5566C34.5606 34.4695 34.8016 34.4247 35.0449 34.4247Z" fill="#8360A8"/>
<path d="M55.1134 33.0565H40.1227C39.7591 33.0565 39.4644 33.3322 39.4644 33.6722V33.809C39.4644 34.1491 39.7591 34.4247 40.1227 34.4247H55.1134C55.477 34.4247 55.7717 34.1491 55.7717 33.809V33.6722C55.7717 33.3322 55.477 33.0565 55.1134 33.0565Z" fill="#63428E"/>
<path d="M56.0944 33.0565H50.0431C49.6795 33.0565 49.3848 33.3322 49.3848 33.6722V33.809C49.3848 34.1491 49.6795 34.4247 50.0431 34.4247H56.0944C56.458 34.4247 56.7528 34.1491 56.7528 33.809V33.6722C56.7528 33.3322 56.458 33.0565 56.0944 33.0565Z" fill="#A989C6"/>
<path d="M47.4601 31.6885H45.4119C45.1432 31.6885 44.9253 31.8922 44.9253 32.1436V32.6016C44.9253 32.8529 45.1432 33.0567 45.4119 33.0567H47.4601C47.7288 33.0567 47.9467 32.8529 47.9467 32.6016V32.1436C47.9467 31.8922 47.7288 31.6885 47.4601 31.6885Z" fill="#A989C6"/>
<path d="M35.1982 35.9395H35.1278C34.9529 35.9395 34.811 36.0722 34.811 36.2358V41.4194C34.811 41.5831 34.9529 41.7157 35.1278 41.7157H35.1982C35.3732 41.7157 35.515 41.5831 35.515 41.4194V36.2358C35.515 36.0722 35.3732 35.9395 35.1982 35.9395Z" fill="#462C70"/>
<path d="M36.6474 35.9395H36.7178C36.8018 35.9395 36.8824 35.9707 36.9418 36.0262C37.0012 36.0818 37.0346 36.1572 37.0346 36.2358V41.4194C37.0346 41.498 37.0012 41.5733 36.9418 41.6289C36.8824 41.6845 36.8018 41.7157 36.7178 41.7157H36.6474C36.5634 41.7157 36.4828 41.6845 36.4234 41.6289C36.3639 41.5733 36.3306 41.498 36.3306 41.4194V36.2358C36.3306 36.1572 36.3639 36.0818 36.4234 36.0262C36.4828 35.9707 36.5634 35.9395 36.6474 35.9395Z" fill="#462C70"/>
<path d="M38.2373 35.9395H38.1669C37.9919 35.9395 37.8501 36.0722 37.8501 36.2358V41.4194C37.8501 41.5831 37.9919 41.7157 38.1669 41.7157H38.2373C38.4123 41.7157 38.5541 41.5831 38.5541 41.4194V36.2358C38.5541 36.0722 38.4123 35.9395 38.2373 35.9395Z" fill="#462C70"/>
<path d="M39.7574 35.9395H39.6869C39.512 35.9395 39.3701 36.0722 39.3701 36.2358V41.4194C39.3701 41.5831 39.512 41.7157 39.6869 41.7157H39.7574C39.9324 41.7157 40.0742 41.5831 40.0742 41.4194V36.2358C40.0742 36.0722 39.9324 35.9395 39.7574 35.9395Z" fill="#462C70"/>
<path d="M41.2769 35.9395H41.2065C41.0315 35.9395 40.8896 36.0722 40.8896 36.2358V41.4194C40.8896 41.5831 41.0315 41.7157 41.2065 41.7157H41.2769C41.4518 41.7157 41.5936 41.5831 41.5936 41.4194V36.2358C41.5936 36.0722 41.4518 35.9395 41.2769 35.9395Z" fill="#462C70"/>
<path d="M42.797 35.9395H42.7265C42.5515 35.9395 42.4097 36.0722 42.4097 36.2358V41.4194C42.4097 41.5831 42.5515 41.7157 42.7265 41.7157H42.797C42.9719 41.7157 43.1138 41.5831 43.1138 41.4194V36.2358C43.1138 36.0722 42.9719 35.9395 42.797 35.9395Z" fill="#462C70"/>
<path d="M44.3164 35.9395H44.246C44.071 35.9395 43.9292 36.0722 43.9292 36.2358V41.4194C43.9292 41.5831 44.071 41.7157 44.246 41.7157H44.3164C44.4914 41.7157 44.6332 41.5831 44.6332 41.4194V36.2358C44.6332 36.0722 44.4914 35.9395 44.3164 35.9395Z" fill="#462C70"/>
<path d="M45.766 35.9395H45.8364C45.9205 35.9395 46.0011 35.9707 46.0605 36.0262C46.1199 36.0818 46.1533 36.1572 46.1533 36.2358V41.4194C46.1533 41.498 46.1199 41.5733 46.0605 41.6289C46.0011 41.6845 45.9205 41.7157 45.8364 41.7157H45.766C45.682 41.7157 45.6014 41.6845 45.542 41.6289C45.4826 41.5733 45.4492 41.498 45.4492 41.4194V36.2358C45.4492 36.1572 45.4826 36.0818 45.542 36.0262C45.6014 35.9707 45.682 35.9395 45.766 35.9395Z" fill="#462C70"/>
<path d="M47.3559 35.9395H47.2855C47.1106 35.9395 46.9688 36.0722 46.9688 36.2358V41.4194C46.9688 41.5831 47.1106 41.7157 47.2855 41.7157H47.3559C47.5309 41.7157 47.6727 41.5831 47.6727 41.4194V36.2358C47.6727 36.0722 47.5309 35.9395 47.3559 35.9395Z" fill="#462C70"/>
<path d="M48.8755 35.9395H48.8051C48.6301 35.9395 48.4883 36.0722 48.4883 36.2358V41.4194C48.4883 41.5831 48.6301 41.7157 48.8051 41.7157H48.8755C49.0504 41.7157 49.1923 41.5831 49.1923 41.4194V36.2358C49.1923 36.0722 49.0504 35.9395 48.8755 35.9395Z" fill="#462C70"/>
<path d="M50.3955 35.9395H50.3251C50.1501 35.9395 50.0083 36.0722 50.0083 36.2358V41.4194C50.0083 41.5831 50.1501 41.7157 50.3251 41.7157H50.3955C50.5705 41.7157 50.7123 41.5831 50.7123 41.4194V36.2358C50.7123 36.0722 50.5705 35.9395 50.3955 35.9395Z" fill="#462C70"/>
<path d="M49.7483 43.6322H35.7742C35.4364 43.6322 35.1626 43.8883 35.1626 44.2043V44.5055C35.1626 44.8215 35.4364 45.0776 35.7742 45.0776H49.7483C50.0861 45.0776 50.36 44.8215 50.36 44.5055V44.2043C50.36 43.8883 50.0861 43.6322 49.7483 43.6322Z" fill="#6242A0"/>
<path d="M49.6646 46.1424H35.858C35.474 46.1424 35.1626 46.4336 35.1626 46.7928V46.9374C35.1626 47.2966 35.474 47.5878 35.858 47.5878H49.6646C50.0486 47.5878 50.36 47.2966 50.36 46.9374V46.7928C50.36 46.4336 50.0486 46.1424 49.6646 46.1424Z" fill="#6242A0"/>
<path d="M57.5879 38.9113C57.5879 39.6618 57.2778 40.2703 56.8953 40.2703C56.5127 40.2703 56.2026 39.6618 56.2026 38.9113C56.2026 38.1607 56.5127 37.5522 56.8953 37.5522C57.2778 37.5522 57.5879 38.1607 57.5879 38.9113Z" fill="#29183D"/>
<path d="M57.9053 38.9113C57.9053 39.6618 57.5952 40.2703 57.2126 40.2703C56.8301 40.2703 56.52 39.6618 56.52 38.9113C56.52 38.1607 56.8301 37.5522 57.2126 37.5522C57.5952 37.5522 57.9053 38.1607 57.9053 38.9113Z" fill="#E2D5EF"/>
<path d="M103.913 131.708C103.913 131.708 104.415 129.335 104.31 127.76C104.279 127.29 103.708 124.87 104.17 124.33C104.423 124.033 105.18 125.654 105.527 125.377C106.664 124.472 108.198 123.753 109.442 123.736C111.757 123.703 108.157 128.624 107.35 129.444C106.544 130.265 105.421 132.2 105.421 132.2L103.913 131.708Z" fill="#F9A2A2"/>
<path d="M74.5085 212.41L72.778 211.885C72.778 211.885 69.8313 212.147 70.2523 215.209C70.6732 218.272 69.7378 219.54 69.7378 219.54C69.7378 219.54 70.1587 220.003 70.3458 219.968C70.5329 219.934 72.5441 216.697 73.0118 216.434C73.4795 216.172 73.6198 218.972 77.3148 220.459C81.0097 221.946 82.3661 221.028 82.179 220.371C81.992 219.715 79.2792 218.192 78.2502 216.985C77.2212 215.778 76.9874 213.503 76.9874 213.503L74.5085 212.41Z" fill="#8E0772"/>
<path d="M101.977 209.411L99.3045 208.257C99.3045 208.257 97.5346 208.018 97.0881 211.077C96.6417 214.136 95.3853 215.133 95.3853 215.133C95.3853 215.133 95.6628 215.682 95.853 215.695C96.0433 215.707 98.8866 213.072 99.4113 212.932C99.9359 212.793 99.2917 215.53 102.445 217.866C105.598 220.202 107.163 219.646 107.165 218.967C107.168 218.288 104.973 216.156 104.315 214.74C103.658 213.324 104.066 211.071 104.066 211.071L101.977 209.411Z" fill="#8E0772"/>
<path d="M64.8105 135.114C64.8105 135.114 47.2342 142.553 44.6271 132.447C43.8633 129.486 44.305 126.47 47.46 125.022C52.6299 123.056 54.2462 123.69 59.0179 120.536C62.0309 118.646 63.7719 116.688 62.1504 113.583C58.9484 107.801 64.0111 109.606 66.2419 106.425C66.7128 104.809 67.779 102.208 67.8721 100.58C68.6518 96.1249 76.7597 94.0299 80.1488 97.0984C90.6629 94.2294 84.277 108.321 88.745 111.447C95.4527 116.141 86.9436 118.157 87.4675 121.717C87.9915 125.276 93.0087 125.819 94.9142 126.554C101.409 129.462 85.0422 139.906 77.8461 137.661C73.5087 137.049 69.2365 134.655 64.8105 135.114Z" fill="black"/>
<path d="M84.5463 130.319C85.0054 134.989 90.766 147.131 96.6018 147.656C102.65 145.389 106.462 130.932 106.462 130.932L103.375 130.669C103.375 130.669 97.9566 138.269 96.7253 141.343C94.2851 140.779 87.3686 125.112 86.3141 124.457C85.2596 123.803 84.0872 125.65 84.5463 130.319Z" fill="#B065DE"/>
<path d="M64.8743 139.751C64.7398 139.248 64.3363 138.745 64.4708 138.368C64.8076 133.879 62.035 130.82 58.4951 128.511C58.592 128.897 58.7422 129.27 58.9419 129.619C68.6236 146.636 59.246 156.194 59.246 156.194L61.1371 156.384C61.6291 155.371 62.0945 154.318 62.7221 153.339C65.1434 149.187 65.816 144.532 64.8743 139.751Z" fill="#0B5ACE"/>
<path d="M79.5368 132.454C77.6536 131.951 75.9048 132.58 74.0216 133.335C72.0038 134.216 68.1028 134.593 67.5647 131.825C66.9775 128.091 67.8254 123.877 64.9169 121.192C63.389 121.773 61.9379 122.517 60.5923 123.409C59.2221 124.328 57.9622 126.384 58.4951 128.511C62.035 130.82 64.8076 133.879 64.4708 138.368C64.3363 138.745 64.7398 139.248 64.8744 139.752C65.816 144.532 65.1434 149.188 62.7221 153.339C62.0945 154.318 61.6291 155.371 61.1371 156.384L79.1794 158.197L81.3195 158.412C81.3195 158.412 80.0061 148.006 82.3569 141.654C82.3749 141.606 82.3925 141.557 82.4109 141.508C88.6085 139.714 88.3486 136.577 87.6238 133.035C84.9179 133.462 82.1412 133.263 79.5368 132.454Z" fill="#0B5ACE"/>
<path d="M87.2662 125.869C84.4916 122.037 77.3758 119.205 76.2427 119.126C76.2427 119.126 70.5874 119.004 64.9165 121.192C67.825 123.877 66.9771 128.091 67.5644 131.825C68.1024 134.593 72.0034 134.216 74.0212 133.335C75.9045 132.58 77.6532 131.951 79.5365 132.454C82.1408 133.263 84.9176 133.462 87.6234 133.035C87.1523 130.732 86.4847 128.258 87.2662 125.869Z" fill="#0B5ACE"/>
<path d="M80.7337 119.406L80.0291 113.224L74.8963 112.831C74.8963 112.831 74.3324 115.062 73.8657 117.004C75.5561 118.985 78.2747 120.057 80.7337 119.406Z" fill="#DB6B6B"/>
<path d="M80.734 119.406C78.275 120.057 75.5564 118.985 73.866 117.004C73.5367 118.374 73.2559 119.6 73.2559 119.795C73.2559 120.268 76.1588 123.966 78.7672 123.337C81.3757 122.707 80.9129 120.976 80.9129 120.976L80.734 119.406Z" fill="#EF8F8F"/>
<path d="M77.6848 102.135C74.4056 102.475 73.0697 105.542 71.1265 107.701C71.0016 107.811 70.8627 107.906 70.7129 107.985C70.7164 108.048 70.7197 108.112 70.7238 108.176C71.2097 115.763 77.2113 118.535 79.1226 118.314C81.3604 118.054 84.4012 113.197 83.9034 107.217C83.8315 106.344 83.6945 105.477 83.4935 104.623C81.248 104.499 79.1319 103.987 77.6848 102.135Z" fill="#F9A2A2"/>
<path d="M76.4123 96.8679C72.8118 97.1301 70.3931 102.081 70.7129 107.985C70.8627 107.906 71.0016 107.811 71.1265 107.701C73.0697 105.542 74.4056 102.475 77.6848 102.135C79.132 103.987 81.248 104.499 83.4935 104.623C82.3901 99.9539 79.5044 96.6427 76.4123 96.8679Z" fill="#D69494"/>
<path d="M64.0923 129.926C65.102 125.938 64.8216 119.76 59.7729 124.686C54.7243 129.611 45.4685 154.3 51.8634 155.424C58.2583 156.548 72.7899 155.721 72.7899 155.721C72.7899 155.721 74.3771 151.977 72.4366 151.227C71.6563 150.925 55.2292 150.18 55.2292 148.92C55.2292 147.659 63.0826 133.913 64.0923 129.926Z" fill="#B065DE"/>
<path d="M87.2043 174.35C86.1219 174.109 85.0987 173.665 84.0818 173.272C84.1994 173.598 84.257 173.94 84.2523 174.283C84.2523 178.544 72.4121 212.91 72.4121 212.91C73.1729 214.726 74.8953 214.867 76.6567 213.927L89.3347 187.143C89.1603 184.995 88.8078 182.863 88.2805 180.767C87.7424 178.628 86.9353 176.615 87.2043 174.35Z" fill="#EF8F8F"/>
<path d="M92.9796 161.936C84.084 160.915 82.906 161.23 82.906 161.23L76.8477 171.776C76.8477 171.776 82.9767 170.325 84.0818 173.272C85.0988 173.665 86.122 174.109 87.2044 174.35C86.9354 176.615 87.7425 178.628 88.2805 180.767C88.8079 182.863 89.1603 184.995 89.3347 187.143L96.6021 171.789C96.6021 171.789 101.875 162.957 92.9796 161.936Z" fill="#D87373"/>
<path d="M93.7164 182.897C93.4735 182.102 92.9877 181.307 92.6234 180.512C91.6518 176.991 92.6234 173.242 90.0729 170.175C89.7086 169.721 88.9799 169.38 88.3726 169.153C85.4578 168.017 82.1787 168.585 79.1425 168.471C78.7838 168.471 78.4684 168.33 78.1506 168.192L77.689 170.517C77.689 170.517 87.1961 168.828 88.6796 170.551C90.0203 172.109 97.6931 202.59 99.1575 208.442C99.0591 204.626 98.6851 200.815 97.3599 197.096C95.6596 192.439 94.9309 187.782 93.7164 182.897Z" fill="#EF9292"/>
<path d="M94.9392 159.919C92.2527 158.045 80.0017 158.869 80.0017 158.869L78.1504 168.192C78.4682 168.33 78.7836 168.471 79.1422 168.471C82.1785 168.585 85.4576 168.017 88.3724 169.153C88.9797 169.38 89.7083 169.721 90.0727 170.175C92.6231 173.242 91.6515 176.991 92.6231 180.512C92.9875 181.307 93.4733 182.102 93.7162 182.897C94.9307 187.782 95.6594 192.439 97.3597 197.096C98.6848 200.815 99.0589 204.626 99.1572 208.442C99.3132 209.065 99.399 209.41 99.399 209.41C101.052 211.434 102.484 212.388 103.492 211.291C103.492 211.291 97.6258 161.792 94.9392 159.919Z" fill="#F9A2A2"/>
<path d="M57.8793 169.443C54.9561 168.312 55.5075 164.92 55.7978 161.755C53.1449 166.886 51.3968 173.512 59.6261 174.084C73.2013 175.029 82.9059 172.301 82.9059 172.301L84.3638 168.96C81.1966 169.185 78.0284 169.58 74.8286 169.947C69.1788 170.702 63.1255 171.582 57.8793 169.443Z" fill="#201E44"/>
<path d="M71.8676 155.721H59.6262C58.1809 157.634 56.9008 159.652 55.7979 161.755C55.5076 164.92 54.9562 168.312 57.8794 169.443C63.1257 171.582 69.179 170.701 74.8287 169.947C78.0285 169.58 81.1967 169.185 84.3639 168.96C90.1471 164.538 96.8113 161.554 91.5097 157.158L71.8676 155.721Z" fill="#201E44"/>
<path d="M76.6444 96.3198C76.6444 96.3198 73.6473 98.6768 77.7257 101.493C79.6285 102.807 80.9447 101.552 80.7409 103.587C80.6371 104.623 84.0105 105.755 83.599 102.194C83.1875 98.6341 80.2528 96.3731 76.6444 96.3198Z" fill="#660938"/>
<path d="M76.2714 96.6943C76.2714 96.6943 78.5584 101.671 73.4584 103.52C71.2167 104.333 70.4304 107.308 70.4317 110.41C69.1858 108.969 69.2332 104.41 69.6304 102.419C70.0276 100.427 74.9719 95.225 76.2714 96.6943Z" fill="#660938"/>
<path d="M76.271 113.001L80.8412 112.369C80.8412 112.369 81.0195 114.51 78.8996 114.736C76.7815 114.962 76.271 113.001 76.271 113.001Z" fill="#FFFEEA"/>
<path d="M72.8672 107.577C72.8672 107.577 74.6795 105.917 76.2278 106.004C76.8142 106.037 73.0534 108.14 72.8672 107.577Z" fill="#0F093B"/>
<path d="M82.6377 105.279C82.6377 105.279 80.2468 104.787 79.281 105.562C78.9152 105.856 82.9173 105.811 82.6377 105.279Z" fill="#0F093B"/>
<path opacity="0.6" d="M79.2855 106.492C79.2855 106.492 84.1871 105.221 84.515 106.226C84.8428 107.23 85.2781 109.231 83.6468 109.442C82.5512 109.574 81.4489 109.655 80.3445 109.682C80.3445 109.682 79.0339 106.99 79.2855 106.492Z" fill="#FFFEEA"/>
<path opacity="0.6" d="M72.4797 107.992C72.4797 107.992 77.0764 106.286 77.4636 106.829C77.8507 107.372 78.4751 109.543 77.3166 110.175C76.1582 110.808 73.4665 111.337 73.0791 111.084C72.6917 110.832 69.9628 108.86 72.4797 107.992Z" fill="#FFFEEA"/>
<path d="M76.1533 108.246C76.2868 108.458 76.0521 108.815 75.629 109.044C75.206 109.273 74.7549 109.287 74.6214 109.075C74.488 108.863 74.7227 108.506 75.1457 108.277C75.5688 108.048 76.0199 108.034 76.1533 108.246Z" fill="#0F093B"/>
<path d="M81.813 107.976C81.8048 108.241 81.4092 108.445 80.9295 108.433C80.4498 108.42 80.0676 108.194 80.0758 107.929C80.0841 107.664 80.4796 107.46 80.9593 107.472C81.439 107.485 81.8212 107.711 81.813 107.976Z" fill="#0F093B"/>
<path d="M78.9317 108.114C78.9317 108.114 79.6829 110.326 79.9866 110.625C80.2902 110.924 80.7097 111.746 79.589 111.911L78.4683 112.075C78.4683 112.075 79.7388 111.836 79.8347 111.679C79.9306 111.522 80.0984 111.156 79.7708 110.902C79.4432 110.648 78.8438 108.114 78.8518 108.077C78.8598 108.039 78.8969 108.013 78.9317 108.114Z" fill="#B55050"/>
<path d="M71.751 151.677C71.751 151.677 75.3584 152.058 77.8114 153.381C80.2645 154.703 81.5343 156.384 81.5343 156.384C81.5343 156.384 75.95 156.474 75.2213 155.967C74.4926 155.459 74.393 154.649 73.1809 154.649C71.9688 154.649 72.0684 155.247 71.0294 153.898C70.3234 152.98 70.3633 151.529 71.751 151.677Z" fill="#F9A2A2"/>
<path d="M202.165 41.545L198.7 52.0225H198.46L196.008 46.0225L193.6 52.0075H193.345L189.85 41.545H191.92L193.743 47.6125L195.925 41.545H196.18L198.393 47.59L200.11 41.545H202.165ZM210.337 50.305V52H204.577V41.545H210.037V43.18H206.452V45.625H209.302V47.215H206.452V50.305H210.337ZM218.585 50.35V52H213.56V41.545H215.465V50.35H218.585ZM225.129 52.18C224.374 52.18 223.674 51.9775 223.029 51.5725C222.384 51.1625 221.864 50.54 221.469 49.705C221.079 48.87 220.884 47.845 220.884 46.63C220.884 45.525 221.079 44.5775 221.469 43.7875C221.859 42.9925 222.387 42.39 223.052 41.98C223.722 41.57 224.469 41.365 225.294 41.365C225.799 41.365 226.227 41.415 226.577 41.515C226.927 41.61 227.202 41.7225 227.402 41.8525C227.602 41.9775 227.794 42.125 227.979 42.295L227.139 43.87C226.964 43.68 226.809 43.535 226.674 43.435C226.539 43.33 226.367 43.2475 226.157 43.1875C225.952 43.1225 225.689 43.09 225.369 43.09C224.869 43.09 224.439 43.2375 224.079 43.5325C223.719 43.8225 223.444 44.2275 223.254 44.7475C223.064 45.2625 222.969 45.855 222.969 46.525C222.969 47.365 223.067 48.0825 223.262 48.6775C223.462 49.2725 223.729 49.72 224.064 50.02C224.404 50.32 224.784 50.47 225.204 50.47C225.649 50.47 226.042 50.4075 226.382 50.2825C226.727 50.1575 226.989 50 227.169 49.81L227.994 51.295C227.689 51.545 227.319 51.755 226.884 51.925C226.454 52.095 225.869 52.18 225.129 52.18ZM234.393 52.18C233.463 52.18 232.67 51.96 232.015 51.52C231.36 51.075 230.865 50.4475 230.53 49.6375C230.195 48.8225 230.028 47.865 230.028 46.765C230.028 45.675 230.193 44.725 230.523 43.915C230.858 43.1 231.348 42.4725 231.993 42.0325C232.643 41.5875 233.428 41.365 234.348 41.365C235.303 41.365 236.108 41.59 236.763 42.04C237.418 42.485 237.908 43.1125 238.233 43.9225C238.563 44.7325 238.728 45.68 238.728 46.765C238.728 47.865 238.558 48.8225 238.218 49.6375C237.883 50.4475 237.39 51.075 236.74 51.52C236.09 51.96 235.308 52.18 234.393 52.18ZM234.393 50.575C234.838 50.575 235.235 50.4325 235.585 50.1475C235.94 49.8625 236.22 49.43 236.425 48.85C236.63 48.27 236.733 47.56 236.733 46.72C236.733 45.485 236.523 44.545 236.103 43.9C235.688 43.25 235.103 42.925 234.348 42.925C233.613 42.925 233.043 43.25 232.638 43.9C232.238 44.545 232.038 45.49 232.038 46.735C232.038 47.585 232.133 48.2975 232.323 48.8725C232.518 49.4425 232.79 49.87 233.14 50.155C233.495 50.435 233.913 50.575 234.393 50.575ZM250.671 41.365V52H248.811V47.515L248.879 45.745L248.346 46.555L246.291 48.97L244.236 46.555L243.704 45.745L243.786 47.515V52H241.926V41.365H242.076L246.306 46.3525L250.506 41.365H250.671ZM260.256 50.305V52H254.496V41.545H259.956V43.18H256.371V45.625H259.221V47.215H256.371V50.305H260.256Z" fill="black"/>
<defs>
<linearGradient id="paint0_linear_22_358" x1="132.569" y1="78.7178" x2="79.9326" y2="78.7178" gradientUnits="userSpaceOnUse">
<stop offset="0.157"/>
<stop offset="1" stop-color="white"/>
</linearGradient>
<linearGradient id="paint1_linear_22_358" x1="132.569" y1="78.7178" x2="79.9326" y2="78.7178" gradientUnits="userSpaceOnUse">
<stop offset="0.157" stop-color="#0B5ACE"/>
<stop offset="1" stop-color="#0B5ACE"/>
</linearGradient>
</defs>
</svg>
